<svg width="24" height="24" viewBox="0 0 24 24" fill="none" xmlns="http://www.w3.org/2000/svg">
<path d="M10.4679 3.60701C11.0955 1.77631 13.6331 1.72086 14.3772 3.44068L14.4401 3.60805L15.287 6.07689C15.4811 6.64308 15.7948 7.1612 16.2068 7.59629C16.6189 8.03138 17.1197 8.37333 17.6756 8.59907L17.9033 8.68381L20.3801 9.52698C22.2166 10.1526 22.2723 12.6821 20.548 13.4238L20.3801 13.4865L17.9033 14.3307C17.3351 14.5241 16.8152 14.8367 16.3785 15.2474C15.9418 15.6581 15.5986 16.1575 15.372 16.7117L15.287 16.9377L14.4412 19.4075C13.8136 21.2382 11.276 21.2937 10.533 19.5749L10.4679 19.4075L9.62205 16.9387C9.42809 16.3723 9.1145 15.854 8.70245 15.4187C8.2904 14.9834 7.78947 14.6413 7.23347 14.4155L7.00679 14.3307L4.53006 13.4876C2.69245 12.862 2.63683 10.3325 4.36214 9.59184L4.53006 9.52698L7.00679 8.68381C7.57479 8.49034 8.09457 8.17769 8.53105 7.76696C8.96754 7.35623 9.31058 6.85697 9.53704 6.30285L9.62205 6.07689L10.4679 3.60701ZM20.8502 1.8902e-07C21.0466 -2.46854e-07 21.239 0.0548984 21.4056 0.158457C21.5722 0.262015 21.7063 0.41008 21.7927 0.585825L21.843 0.708221L22.2103 1.78154L23.2881 2.14768C23.4849 2.21431 23.6574 2.33767 23.7837 2.50212C23.9101 2.66657 23.9846 2.8647 23.9979 3.07142C24.0111 3.27813 23.9625 3.48412 23.8582 3.66328C23.7539 3.84243 23.5986 3.98669 23.412 4.07776L23.2881 4.12797L22.2114 4.49411L21.8441 5.56848C21.7771 5.76455 21.6533 5.93639 21.4882 6.06223C21.3232 6.18808 21.1244 6.26225 20.917 6.27536C20.7097 6.28847 20.503 6.23992 20.3234 6.13587C20.1437 6.03181 19.9991 5.87694 19.9078 5.69087L19.8574 5.56848L19.4901 4.49516L18.4123 4.12902C18.2156 4.06239 18.0431 3.93903 17.9167 3.77458C17.7904 3.61013 17.7159 3.41199 17.7026 3.20528C17.6893 2.99856 17.7379 2.79258 17.8422 2.61342C17.9466 2.43427 18.1019 2.29001 18.2885 2.19894L18.4123 2.14872L19.4891 1.78258L19.8564 0.708221C19.9272 0.501535 20.061 0.322108 20.2393 0.195099C20.4175 0.0680907 20.6311 -0.000131059 20.8502 1.8902e-07Z" fill="white"/>
<path d="M3.14976 17.7225C3.34609 17.7225 3.53849 17.7774 3.70508 17.881C3.87168 17.9846 4.00579 18.1326 4.09218 18.3084L4.14255 18.4308L4.50986 19.5041L5.58766 19.8702C5.78441 19.9369 5.9569 20.0602 6.08324 20.2247C6.20959 20.3891 6.28412 20.5872 6.29739 20.794C6.31065 21.0007 6.26205 21.2067 6.15775 21.3858C6.05344 21.565 5.89813 21.7092 5.71149 21.8003L5.58766 21.8505L4.51091 22.2167L4.1436 23.291C4.07664 23.4871 3.95279 23.6589 3.78775 23.7848C3.62271 23.9106 3.42392 23.9848 3.21655 23.9979C3.00918 24.011 2.80257 23.9625 2.62291 23.8584C2.44325 23.7544 2.29862 23.5995 2.20734 23.4134L2.15697 23.291L1.78966 22.2177L0.711859 21.8516C0.515104 21.7849 0.342622 21.6616 0.216273 21.4971C0.0899238 21.3327 0.0153954 21.1345 0.00213231 20.9278C-0.0111308 20.7211 0.0374689 20.5151 0.141772 20.336C0.246075 20.1568 0.401386 20.0126 0.588023 19.9215L0.711859 19.8713L1.78861 19.5051L2.15592 18.4308C2.22668 18.2241 2.36057 18.0447 2.5388 17.9176C2.71703 17.7906 2.93067 17.7224 3.14976 17.7225Z" fill="white"/>
</svg>
