<svg width="31" height="31" viewBox="0 0 31 31" fill="none" xmlns="http://www.w3.org/2000/svg">
<g clip-path="url(#clip0_2120_46)">
<path fill-rule="evenodd" clip-rule="evenodd" d="M0.96875 5.32785C0.968645 4.67344 1.11587 4.0274 1.39951 3.43766C1.68315 2.84792 2.09593 2.3296 2.60722 1.92115C3.11851 1.5127 3.7152 1.2246 4.35303 1.07823C4.99086 0.93185 5.65346 0.93095 6.29168 1.07559C6.9299 1.22024 7.52737 1.50671 8.03977 1.91377C8.55217 2.32083 8.96635 2.83803 9.25159 3.427C9.53683 4.01597 9.68581 4.6616 9.68749 5.31601C9.68916 5.97042 9.54348 6.6168 9.26125 7.20722L11.8672 9.81122L12.4174 9.26097C12.8222 8.85616 13.3028 8.53505 13.8317 8.31596C14.3606 8.09688 14.9275 7.98412 15.5 7.98412C16.0725 7.98412 16.6394 8.09688 17.1683 8.31596C17.6972 8.53505 18.1778 8.85616 18.5826 9.26097L19.1328 9.81122L21.7368 7.20722C21.2934 6.27929 21.1923 5.22446 21.4514 4.2292C21.7106 3.23394 22.3132 2.36235 23.1529 1.76848C23.9925 1.17462 25.0151 0.896736 26.0398 0.98395C27.0646 1.07116 28.0255 1.51786 28.7527 2.24508C29.4799 2.9723 29.9266 3.9332 30.0138 4.95794C30.101 5.98267 29.8232 7.00525 29.2293 7.8449C28.6354 8.68455 27.7638 9.28721 26.7686 9.54634C25.7733 9.80548 24.7185 9.7044 23.7906 9.26097L21.1885 11.8669L21.7388 12.4172C22.1436 12.822 22.4647 13.3025 22.6838 13.8315C22.9028 14.3604 23.0156 14.9272 23.0156 15.4997C23.0156 16.0722 22.9028 16.6391 22.6838 17.168C22.4647 17.6969 22.1436 18.1775 21.7388 18.5823L21.1885 19.1325L23.7925 21.7365C24.7204 21.2931 25.7753 21.192 26.7705 21.4512C27.7658 21.7103 28.6374 22.313 29.2312 23.1526C29.8251 23.9923 30.103 25.0148 30.0158 26.0396C29.9286 27.0643 29.4819 28.0252 28.7546 28.7524C28.0274 29.4796 27.0665 29.9263 26.0418 30.0136C25.017 30.1008 23.9945 29.8229 23.1548 29.229C22.3152 28.6352 21.7125 27.7636 21.4534 26.7683C21.1942 25.773 21.2953 24.7182 21.7388 23.7903L19.1328 21.1882L18.5826 21.7385C18.1778 22.1433 17.6972 22.4644 17.1683 22.6835C16.6394 22.9026 16.0725 23.0153 15.5 23.0153C14.9275 23.0153 14.3606 22.9026 13.8317 22.6835C13.3028 22.4644 12.8222 22.1433 12.4174 21.7385L11.8672 21.1882L9.26319 23.7922C9.70661 24.7202 9.80769 25.775 9.54856 26.7702C9.28943 27.7655 8.68677 28.6371 7.84712 29.231C7.00746 29.8248 5.98489 30.1027 4.96015 30.0155C3.93542 29.9283 2.97451 29.4816 2.24729 28.7544C1.52008 28.0272 1.07338 27.0662 0.986165 26.0415C0.898951 25.0168 1.17684 23.9942 1.7707 23.1545C2.36456 22.3149 3.23616 21.7122 4.23142 21.4531C5.22668 21.194 6.2815 21.295 7.20944 21.7385L9.8115 19.1325L9.26125 18.5823C8.85644 18.1775 8.53533 17.6969 8.31624 17.168C8.09716 16.6391 7.9844 16.0722 7.9844 15.4997C7.9844 14.9272 8.09716 14.3604 8.31624 13.8315C8.53533 13.3025 8.85644 12.822 9.26125 12.4172L9.8115 11.8669L7.2075 9.26291C6.54286 9.58047 5.8086 9.72443 5.07326 9.68137C4.33791 9.6383 3.62547 9.40961 3.00245 9.01664C2.37942 8.62367 1.86613 8.07924 1.5105 7.43418C1.15486 6.78911 0.968479 6.06445 0.96875 5.32785ZM5.32813 3.87472C5.1373 3.87472 4.94834 3.91231 4.77204 3.98533C4.59574 4.05836 4.43555 4.1654 4.30061 4.30033C4.16568 4.43527 4.05864 4.59546 3.98561 4.77176C3.91259 4.94806 3.875 5.13702 3.875 5.32785C3.875 5.51867 3.91259 5.70763 3.98561 5.88393C4.05864 6.06024 4.16568 6.22043 4.30061 6.35536C4.43555 6.4903 4.59574 6.59733 4.77204 6.67036C4.94834 6.74339 5.1373 6.78097 5.32813 6.78097C5.71352 6.78097 6.08313 6.62788 6.35564 6.35536C6.62815 6.08285 6.78125 5.71324 6.78125 5.32785C6.78125 4.94245 6.62815 4.57285 6.35564 4.30033C6.08313 4.02782 5.71352 3.87472 5.32813 3.87472ZM5.32813 24.2185C4.94273 24.2185 4.57312 24.3716 4.30061 24.6441C4.0281 24.9166 3.875 25.2862 3.875 25.6716C3.875 26.057 4.0281 26.4266 4.30061 26.6991C4.57312 26.9716 4.94273 27.1247 5.32813 27.1247C5.71352 27.1247 6.08313 26.9716 6.35564 26.6991C6.62815 26.4266 6.78125 26.057 6.78125 25.6716C6.78125 25.2862 6.62815 24.9166 6.35564 24.6441C6.08313 24.3716 5.71352 24.2185 5.32813 24.2185ZM24.2188 25.6716C24.2188 25.2862 24.3718 24.9166 24.6444 24.6441C24.9169 24.3716 25.2865 24.2185 25.6719 24.2185C26.0573 24.2185 26.4269 24.3716 26.6994 24.6441C26.9719 24.9166 27.125 25.2862 27.125 25.6716C27.125 26.057 26.9719 26.4266 26.6994 26.6991C26.4269 26.9716 26.0573 27.1247 25.6719 27.1247C25.2865 27.1247 24.9169 26.9716 24.6444 26.6991C24.3718 26.4266 24.2188 26.057 24.2188 25.6716ZM25.6719 3.87472C25.481 3.87472 25.2921 3.91231 25.1158 3.98533C24.9395 4.05836 24.7793 4.1654 24.6444 4.30033C24.5094 4.43527 24.4024 4.59546 24.3294 4.77176C24.2563 4.94806 24.2188 5.13702 24.2188 5.32785C24.2188 5.51867 24.2563 5.70763 24.3294 5.88393C24.4024 6.06024 24.5094 6.22043 24.6444 6.35536C24.7793 6.4903 24.9395 6.59733 25.1158 6.67036C25.2921 6.74339 25.481 6.78097 25.6719 6.78097C26.0573 6.78097 26.4269 6.62788 26.6994 6.35536C26.9719 6.08285 27.125 5.71324 27.125 5.32785C27.125 4.94245 26.9719 4.57285 26.6994 4.30033C26.4269 4.02782 26.0573 3.87472 25.6719 3.87472ZM14.4731 11.3167C14.7456 11.0445 15.1149 10.8917 15.5 10.8917C15.8851 10.8917 16.2544 11.0445 16.5269 11.3167L19.685 14.4728C19.9571 14.7453 20.11 15.1146 20.11 15.4997C20.11 15.8848 19.9571 16.2541 19.685 16.5266L16.5269 19.6847C16.2544 19.9568 15.8851 20.1097 15.5 20.1097C15.1149 20.1097 14.7456 19.9568 14.4731 19.6847L11.315 16.5266C11.0429 16.2541 10.89 15.8848 10.89 15.4997C10.89 15.1146 11.0429 14.7453 11.315 14.4728L14.4731 11.3167Z" fill="#8122BA"/>
</g>
<defs>
<clipPath id="clip0_2120_46">
<rect width="31" height="31" fill="white"/>
</clipPath>
</defs>
</svg>
