<svg width="35" height="33" viewBox="0 0 35 33" fill="none" xmlns="http://www.w3.org/2000/svg">
<path d="M29.1668 17.9583C29.1668 25.25 24.0627 28.8958 17.996 31.0104C17.6783 31.1181 17.3332 31.1129 17.0189 30.9958C10.9377 28.8958 5.8335 25.25 5.8335 17.9583V7.75C5.8335 7.36323 5.98714 6.9923 6.26063 6.71881C6.53412 6.44532 6.90506 6.29167 7.29183 6.29167C10.2085 6.29167 13.8543 4.54167 16.3918 2.325C16.7008 2.06104 17.0938 1.91602 17.5002 1.91602C17.9065 1.91602 18.2995 2.06104 18.6085 2.325C21.1606 4.55625 24.7918 6.29167 27.7085 6.29167C28.0953 6.29167 28.4662 6.44532 28.7397 6.71881C29.0132 6.9923 29.1668 7.36323 29.1668 7.75V17.9583Z" stroke="#8122BA" stroke-width="3" stroke-linecap="round" stroke-linejoin="round"/>
<path d="M13.125 16.4997L16.0417 19.4163L21.875 13.583" stroke="#8122BA" stroke-width="3" stroke-linecap="round" stroke-linejoin="round"/>
</svg>
