<svg width="42" height="42" viewBox="0 0 42 42" fill="none" xmlns="http://www.w3.org/2000/svg">
<path d="M10.5 36.2729C7.60455 36.2729 5.131 35.2706 3.07936 33.2661C1.02645 31.2615 0 28.8115 0 25.9161C0 23.4342 0.747727 21.2229 2.24318 19.282C3.73864 17.3411 5.69545 16.1002 8.11364 15.5592C8.84545 12.982 10.206 10.8183 12.1953 9.06833C14.1833 7.31833 16.4818 6.25242 19.0909 5.87061V21.2865L17.3727 19.6161C17.0227 19.2661 16.5855 19.0911 16.0612 19.0911C15.5355 19.0911 15.0818 19.282 14.7 19.6638C14.35 20.0138 14.175 20.4592 14.175 21.0002C14.175 21.5411 14.35 21.9865 14.7 22.3365L19.6636 27.3002C20.0455 27.682 20.4909 27.8729 21 27.8729C21.5091 27.8729 21.9545 27.682 22.3364 27.3002L27.3 22.3365C27.65 21.9865 27.8333 21.5487 27.8498 21.0231C27.8651 20.4987 27.6818 20.0456 27.3 19.6638C26.95 19.3138 26.5128 19.1305 25.9885 19.114C25.4628 19.0987 25.0091 19.2661 24.6273 19.6161L22.9091 21.2865V5.87061C26.1864 6.31606 28.9151 7.78733 31.0953 10.2844C33.2742 12.7828 34.3636 15.7183 34.3636 19.0911C36.5591 19.3456 38.381 20.2919 39.8294 21.9299C41.2765 23.5692 42 25.4865 42 27.682C42 30.0683 41.1651 32.0971 39.4953 33.7682C37.8242 35.438 35.7955 36.2729 33.4091 36.2729H10.5Z" fill="#8122BA"/>
</svg>
