<svg width="42" height="42" viewBox="0 0 42 42" fill="none" xmlns="http://www.w3.org/2000/svg">
<path d="M21 29.7502C21 27.3002 21.8458 25.2294 23.5375 23.5377C25.2292 21.846 27.3 21.0002 29.75 21.0002C27.3 21.0002 25.2292 20.1544 23.5375 18.4627C21.8458 16.771 21 14.7002 21 12.2502C21 14.7002 20.1542 16.771 18.4625 18.4627C16.7708 20.1544 14.7 21.0002 12.25 21.0002C14.7 21.0002 16.7708 21.846 18.4625 23.5377C20.1542 25.2294 21 27.3002 21 29.7502ZM21 38.3252C20.7958 38.3252 20.6062 38.3106 20.4312 38.2814C20.2562 38.2523 20.0813 38.2085 19.9062 38.1502C15.9688 36.8377 12.8333 34.4096 10.5 30.8658C8.16667 27.3221 7 23.5085 7 19.4252V11.1564C7 10.4273 7.21146 9.77103 7.63437 9.1877C8.05729 8.60436 8.60417 8.18145 9.275 7.91895L19.775 3.98145C20.1833 3.83561 20.5917 3.7627 21 3.7627C21.4083 3.7627 21.8167 3.83561 22.225 3.98145L32.725 7.91895C33.3958 8.18145 33.9427 8.60436 34.3656 9.1877C34.7885 9.77103 35 10.4273 35 11.1564V19.4252C35 23.5085 33.8333 27.3221 31.5 30.8658C29.1667 34.4096 26.0312 36.8377 22.0938 38.1502C21.9187 38.2085 21.7437 38.2523 21.5687 38.2814C21.3938 38.3106 21.2042 38.3252 21 38.3252Z" fill="#8122BA"/>
</svg>
