<?xml version="1.0" encoding="UTF-8"?>
<svg version="1.1" xmlns="http://www.w3.org/2000/svg" width="512" height="512">
<path d="M0 0 C1.73392111 -0.00230673 3.46784124 -0.00548468 5.20175934 -0.00945449 C9.94854748 -0.0177819 14.69525492 -0.01368655 19.4420433 -0.00748205 C24.5682199 -0.00295016 29.69438278 -0.00994498 34.82055664 -0.01544189 C44.85568052 -0.02432965 54.89077446 -0.02241662 64.92589951 -0.01661661 C73.08251948 -0.01209771 81.23913108 -0.01148821 89.39575195 -0.01366425 C90.55716155 -0.01397071 91.71857114 -0.01427718 92.91517496 -0.01459293 C95.27464231 -0.01523239 97.63410966 -0.01588082 99.993577 -0.01653811 C122.11222815 -0.0222396 144.23086272 -0.01568635 166.34951115 -0.00493738 C185.32351053 0.00399796 204.29748544 0.00244587 223.27148438 -0.0067749 C245.31162672 -0.01748073 267.35175453 -0.02169029 289.39189911 -0.01555037 C291.74263 -0.01491328 294.0933609 -0.01428454 296.4440918 -0.01366425 C298.17894577 -0.01320142 298.17894577 -0.01320142 299.94884729 -0.01272924 C308.09456386 -0.01100324 316.24027119 -0.01391537 324.38598633 -0.01862335 C334.31445343 -0.02423564 344.2428889 -0.02270838 354.17135239 -0.01206186 C359.23584483 -0.00680988 364.30028457 -0.0047404 369.36477661 -0.01136017 C374.00333117 -0.01733145 378.64178431 -0.01402502 383.2803297 -0.00340506 C384.95583592 -0.00117604 386.63135074 -0.00229611 388.30685139 -0.00715664 C403.87374712 -0.04884152 416.06967859 1.0614994 427.87304688 12.05084229 C437.69978381 22.62771181 437.21270684 35.830128 437.17388916 49.37237549 C437.17619527 51.12264542 437.1793728 52.87291439 437.18334365 54.62318134 C437.19167959 59.41976543 437.18757181 64.21626976 437.18137121 69.0128541 C437.17684283 74.190836 437.18383241 79.36880426 437.18933105 84.54678345 C437.19822256 94.68531532 437.19630412 104.82381757 437.19050577 114.96235061 C437.18598834 123.20243177 437.18537673 131.44250463 437.18755341 139.68258667 C437.18785987 140.85552192 437.18816634 142.02845717 437.18848209 143.23693591 C437.18912154 145.61975853 437.18976997 148.00258114 437.19042727 150.38540375 C437.19612986 172.72720604 437.18957379 195.06899192 437.17882654 217.41079152 C437.1698911 236.57955364 437.17144316 255.74829154 437.18066406 274.91705322 C437.19136795 297.17911649 437.19558054 319.44116538 437.18943954 341.70323086 C437.18880244 344.07726987 437.1881737 346.45130888 437.18755341 348.8253479 C437.18724485 349.99340936 437.1869363 351.16147081 437.1866184 352.36492807 C437.18489182 360.59475984 437.18780578 368.82458248 437.19251251 377.05441284 C437.19812265 387.08430857 437.19660206 397.114173 437.18595102 407.14406514 C437.18069614 412.26108349 437.1786345 417.37804964 437.18524933 422.4950676 C437.1912146 427.18048677 437.18792405 431.86580545 437.17729422 436.55121553 C437.17506267 438.24490331 437.17619101 439.93859961 437.1810458 441.6322819 C437.21676536 455.13057566 436.6872901 466.8446678 427.02929688 477.30084229 C415.27249834 488.13190865 402.10310157 488.55207941 386.89762878 488.5146637 C385.15774618 488.5176865 383.4178649 488.52157664 381.67798597 488.52625626 C376.91000033 488.53652837 372.14208996 488.53435643 367.37409818 488.53007567 C362.22673126 488.52760701 357.07938239 488.53662437 351.93202209 488.54411316 C341.85264502 488.55685845 331.77329458 488.55865405 321.6939108 488.5563129 C313.50009821 488.55452933 305.3062937 488.55628021 297.11248207 488.56053734 C295.36270453 488.56143012 295.36270453 488.56143012 293.57757795 488.56234094 C291.20772653 488.5635527 288.83787511 488.56476684 286.4680237 488.56598332 C264.24630913 488.57685828 242.02460975 488.57469661 219.80289433 488.56859847 C199.48079497 488.5634298 179.15874355 488.57468355 158.83665367 488.59369669 C137.9627172 488.6130762 117.0888034 488.62133086 96.21485788 488.61757344 C84.49864742 488.61566151 72.78247776 488.61814813 61.06627464 488.63228798 C51.09171734 488.64420419 41.11722595 488.64560396 31.14266773 488.63349781 C26.05563135 488.62761076 20.96871551 488.62650498 15.88168716 488.63850021 C11.22012586 488.64936426 6.55878569 488.64624938 1.89723472 488.63223853 C0.21560563 488.62959304 -1.46604081 488.63195344 -3.14765284 488.63997439 C-18.26519185 488.70704698 -30.46393705 487.2483751 -41.89257812 476.55865479 C-49.26678915 468.63137794 -51.20120368 459.50184258 -51.21150589 448.92464161 C-51.21355852 448.20514366 -51.21561116 447.48564572 -51.21772599 446.7443448 C-51.22338155 444.33280619 -51.22194053 441.92132495 -51.22052002 439.50978088 C-51.22310448 437.76352615 -51.22611787 436.01727201 -51.22952342 434.27101868 C-51.2375871 429.47154127 -51.23938264 424.67207882 -51.24012089 419.87259543 C-51.24197253 414.69656894 -51.2495204 409.5205502 -51.2562561 404.3445282 C-51.2698352 393.02632512 -51.27586341 381.70812558 -51.28026676 370.3899157 C-51.28302975 363.32256193 -51.2872672 356.25520952 -51.29177094 349.18785667 C-51.30396278 329.61954109 -51.31426244 310.0512266 -51.31764603 290.4829073 C-51.31786559 289.23061803 -51.31808516 287.97832877 -51.31831138 286.68809135 C-51.31852966 285.43281205 -51.31874793 284.17753276 -51.31897283 282.8842147 C-51.31941629 280.34055475 -51.31986286 277.79689481 -51.3203125 275.25323486 C-51.32053393 273.99149262 -51.32075536 272.72975038 -51.3209835 271.42977353 C-51.32493172 250.98394655 -51.34238688 230.53815521 -51.36567202 210.092342 C-51.38938676 189.09985714 -51.40184792 168.10739017 -51.40301394 147.11489171 C-51.40393061 135.3288006 -51.40968077 123.54275594 -51.42783356 111.75667763 C-51.44323613 101.72090527 -51.44835404 91.68519371 -51.44009545 81.64941178 C-51.43618961 76.53011291 -51.43711548 71.41093647 -51.4511528 66.29165268 C-51.46389528 61.60165646 -51.46269109 56.91187461 -51.45056209 52.22187867 C-51.44860571 50.52873552 -51.45168077 48.83557717 -51.46040645 47.14245538 C-51.52771825 33.19389873 -50.46516501 21.07208682 -40.41601562 10.50396729 C-28.78426449 -0.11863649 -14.92162358 -0.04328673 0 0 Z " fill="#0077B5" transform="translate(63.080078125,11.74603271484375)"/>
<path d="M0 0 C1.05058594 0.350625 2.10117187 0.70125 3.18359375 1.0625 C22.01145211 8.11376555 35.56508335 22.43364142 44.25 40.25 C46.38678505 45.18241216 48.16513217 50.18110774 49.75 55.3125 C49.94883789 55.93866211 50.14767578 56.56482422 50.35253906 57.20996094 C55.29231416 74.26616553 54.26978584 92.33010447 54.20278788 109.89237595 C54.19014719 113.77337687 54.18909965 117.65438205 54.18673706 121.53540039 C54.18056098 128.85891874 54.16420354 136.18237622 54.14403808 143.50586796 C54.11734048 153.42028676 54.10667509 163.33472262 54.09503365 173.2491684 C54.07631939 188.83282438 54.03644824 204.41635201 54 220 C29.91 220 5.82 220 -19 220 C-19.03738281 210.69425781 -19.07476562 201.38851562 -19.11328125 191.80078125 C-19.14357281 185.88995932 -19.1746083 179.97915663 -19.20898438 174.06835938 C-19.26335732 164.69557482 -19.31477496 155.32284365 -19.34643555 145.94995117 C-19.36951349 139.12203862 -19.40301943 132.29426762 -19.44870156 125.46646756 C-19.47250273 121.85600973 -19.49131681 118.24569094 -19.49761391 114.63515663 C-19.5048649 110.59031088 -19.53541228 106.54594479 -19.56762695 102.5012207 C-19.56619186 101.32301254 -19.56475677 100.14480438 -19.5632782 98.93089294 C-19.7077702 86.02236023 -22.00543814 73.22889631 -30.59375 63.125 C-37.88844384 56.24321336 -48.06774891 53.59578103 -57.86328125 53.7265625 C-70.08964252 54.79237232 -79.00481097 60.02273114 -86.8125 69.25 C-93.3854302 78.44785431 -94.59149882 87.55662996 -94.54589844 98.64135742 C-94.56140495 100.6188649 -94.56140495 100.6188649 -94.57722473 102.63632202 C-94.60485699 106.21622029 -94.60849453 109.79577143 -94.60750484 113.37576079 C-94.61065376 117.13008577 -94.63631271 120.88425887 -94.65948486 124.63850403 C-94.69989794 131.73195404 -94.7203508 138.82531247 -94.73345876 145.91885978 C-94.75236143 155.51546817 -94.80245038 165.11191201 -94.85070229 174.70840931 C-94.92579751 189.80559758 -94.95952979 204.90258721 -95 220 C-119.09 220 -143.18 220 -168 220 C-168 147.73 -168 75.46 -168 1 C-144.24 1 -120.48 1 -96 1 C-95.67 10.9 -95.34 20.8 -95 31 C-92.36 27.37 -89.72 23.74 -87 20 C-65.09726085 -4.12475617 -30.44000601 -10.43265144 0 0 Z " fill="#EFF0F0" transform="translate(369,200)"/>
<path d="M0 0 C24.09 0 48.18 0 73 0 C73 72.27 73 144.54 73 219 C48.91 219 24.82 219 0 219 C0 146.73 0 74.46 0 0 Z " fill="#EFF0F0" transform="translate(88,201)"/>
<path d="M0 0 C0.96196289 0.01168213 1.92392578 0.02336426 2.91503906 0.03540039 C14.71678241 0.39986015 23.42114482 3.7078088 32.0234375 12.0859375 C40.76553146 22.0904277 42.0417975 31.4484928 41.40966797 44.32714844 C40.54056328 53.07167872 35.73051102 60.87237174 29.1875 66.5625 C17.56147502 75.15479792 5.31490052 76.99375045 -8.8125 75.5625 C-19.11548585 73.39667043 -28.93982438 67.40732243 -34.8125 58.5625 C-40.01756704 48.71958477 -41.17638641 38.5812665 -39.8125 27.5625 C-37.68228431 20.83587933 -34.34075994 15.03775805 -28.8125 10.5625 C-28.23886719 10.07394531 -27.66523437 9.58539063 -27.07421875 9.08203125 C-18.8607175 2.4157627 -10.50680048 -0.1712864 0 0 Z " fill="#EFF0F0" transform="translate(123.8125,95.4375)"/>
</svg>
