<svg width="30" height="30" viewBox="0 0 30 30" fill="none" xmlns="http://www.w3.org/2000/svg">
<path d="M19.2376 5.48761C19.3947 5.6449 19.5909 5.75743 19.806 5.81361C20.0212 5.86979 20.2474 5.86758 20.4613 5.80721C20.6753 5.74684 20.8693 5.63049 21.0233 5.47016C21.1774 5.30984 21.2858 5.11133 21.3376 4.89511C21.4673 4.35498 21.7387 3.8592 22.1238 3.45883C22.5088 3.05846 22.9937 2.76796 23.5283 2.61726C24.063 2.46656 24.6282 2.4611 25.1656 2.60145C25.7031 2.74179 26.1935 3.02287 26.5862 3.41573C26.9789 3.80859 27.2598 4.29903 27.4 4.83655C27.5402 5.37407 27.5345 5.93924 27.3836 6.47385C27.2328 7.00846 26.9421 7.49319 26.5416 7.87813C26.1411 8.26306 25.6452 8.53428 25.1051 8.66386C24.8889 8.71561 24.6903 8.82408 24.53 8.97811C24.3697 9.13213 24.2533 9.32613 24.193 9.5401C24.1326 9.75408 24.1304 9.98028 24.1866 10.1954C24.2428 10.4105 24.3553 10.6067 24.5126 10.7639L26.6163 12.8664C26.8965 13.1466 27.1188 13.4792 27.2705 13.8453C27.4221 14.2114 27.5002 14.6038 27.5002 15.0001C27.5002 15.3964 27.4221 15.7888 27.2705 16.1549C27.1188 16.521 26.8965 16.8537 26.6163 17.1339L24.5126 19.2376C24.3554 19.3949 24.1592 19.5074 23.9441 19.5636C23.729 19.6198 23.5028 19.6176 23.2888 19.5572C23.0748 19.4968 22.8808 19.3805 22.7268 19.2202C22.5728 19.0598 22.4643 18.8613 22.4126 18.6451C22.2828 18.105 22.0114 17.6092 21.6264 17.2088C21.2413 16.8085 20.7565 16.518 20.2218 16.3673C19.6871 16.2166 19.122 16.2111 18.5845 16.3514C18.047 16.4918 17.5567 16.7729 17.1639 17.1657C16.7712 17.5586 16.4903 18.049 16.3501 18.5865C16.21 19.1241 16.2156 19.6892 16.3665 20.2239C16.5174 20.7585 16.808 21.2432 17.2085 21.6281C17.609 22.0131 18.1049 22.2843 18.6451 22.4139C18.8613 22.4656 19.0598 22.5741 19.2201 22.7281C19.3805 22.8821 19.4968 23.0761 19.5572 23.2901C19.6175 23.5041 19.6198 23.7303 19.5636 23.9454C19.5074 24.1605 19.3949 24.3567 19.2376 24.5139L17.1338 26.6164C16.8536 26.8966 16.521 27.1189 16.1549 27.2705C15.7887 27.4222 15.3964 27.5002 15.0001 27.5002C14.6038 27.5002 14.2114 27.4222 13.8453 27.2705C13.4792 27.1189 13.1465 26.8966 12.8663 26.6164L10.7626 24.5126C10.6054 24.3553 10.4092 24.2428 10.1941 24.1866C9.97899 24.1304 9.75279 24.1326 9.53882 24.193C9.32485 24.2534 9.13085 24.3697 8.97682 24.5301C8.8228 24.6904 8.71432 24.8889 8.66257 25.1051C8.53282 25.6452 8.26143 26.141 7.87637 26.5414C7.4913 26.9418 7.00647 27.2323 6.47181 27.383C5.93714 27.5337 5.37198 27.5391 4.8345 27.3988C4.29703 27.2584 3.80668 26.9774 3.41395 26.5845C3.02122 26.1916 2.74031 25.7012 2.60014 25.1637C2.45998 24.6261 2.46562 24.061 2.6165 23.5264C2.76738 22.9918 3.05803 22.507 3.45853 22.1221C3.85903 21.7372 4.3549 21.4659 4.89507 21.3364C5.11129 21.2846 5.3098 21.1761 5.47013 21.0221C5.63045 20.8681 5.7468 20.6741 5.80717 20.4601C5.86754 20.2461 5.86975 20.0199 5.81357 19.8048C5.75739 19.5897 5.64486 19.3935 5.48757 19.2364L3.38382 17.1339C3.10361 16.8537 2.88132 16.521 2.72967 16.1549C2.57802 15.7888 2.49996 15.3964 2.49996 15.0001C2.49996 14.6038 2.57802 14.2114 2.72967 13.8453C2.88132 13.4792 3.10361 13.1466 3.38382 12.8664L5.48757 10.7626C5.6447 10.6053 5.84094 10.4928 6.05605 10.4366C6.27116 10.3804 6.49736 10.3826 6.71133 10.443C6.9253 10.5034 7.1193 10.6197 7.27332 10.7801C7.42735 10.9404 7.53583 11.1389 7.58757 11.3551C7.71733 11.8952 7.98872 12.391 8.37378 12.7914C8.75885 13.1918 9.24368 13.4823 9.77834 13.633C10.313 13.7837 10.8782 13.7891 11.4156 13.6488C11.9531 13.5084 12.4435 13.2274 12.8362 12.8345C13.2289 12.4416 13.5098 11.9512 13.65 11.4137C13.7902 10.8762 13.7845 10.311 13.6336 9.77637C13.4828 9.24176 13.1921 8.75703 12.7916 8.37209C12.3911 7.98716 11.8952 7.71594 11.3551 7.58636C11.1389 7.53461 10.9403 7.42614 10.78 7.27211C10.6197 7.11809 10.5033 6.92409 10.443 6.71012C10.3826 6.49615 10.3804 6.26994 10.4366 6.05483C10.4928 5.83972 10.6053 5.64349 10.7626 5.48636L12.8663 3.38386C13.1465 3.10364 13.4792 2.88136 13.8453 2.72971C14.2114 2.57806 14.6038 2.5 15.0001 2.5C15.3964 2.5 15.7887 2.57806 16.1549 2.72971C16.521 2.88136 16.8536 3.10364 17.1338 3.38386L19.2376 5.48761Z" stroke="#8122BA" stroke-width="2" stroke-linecap="round" stroke-linejoin="round"/>
</svg>
