<svg width="30" height="30" viewBox="0 0 30 30" fill="none" xmlns="http://www.w3.org/2000/svg">
<path d="M15 22.5V6.25" stroke="#8122BA" stroke-width="2" stroke-linecap="round" stroke-linejoin="round"/>
<path d="M18.75 16.25C17.6685 15.9339 16.7186 15.2758 16.0425 14.3744C15.3664 13.473 15.0007 12.3768 15 11.25C14.9993 12.3768 14.6336 13.473 13.9575 14.3744C13.2814 15.2758 12.3315 15.9339 11.25 16.25" stroke="#8122BA" stroke-width="2" stroke-linecap="round" stroke-linejoin="round"/>
<path d="M21.9975 8.12517C22.2851 7.62703 22.4543 7.06939 22.492 6.49541C22.5296 5.92142 22.4347 5.34647 22.2146 4.81503C21.9945 4.28359 21.6551 3.80991 21.2226 3.43064C20.7901 3.05136 20.2762 2.77666 19.7206 2.62778C19.165 2.4789 18.5825 2.45984 18.0184 2.57206C17.4542 2.68429 16.9234 2.92479 16.4671 3.27497C16.0107 3.62515 15.6411 4.07562 15.3867 4.59153C15.1323 5.10743 15 5.67495 15 6.25017C15 5.67495 14.8677 5.10743 14.6133 4.59153C14.3589 4.07562 13.9893 3.62515 13.5329 3.27497C13.0766 2.92479 12.5458 2.68429 11.9816 2.57206C11.4175 2.45984 10.835 2.4789 10.2794 2.62778C9.7238 2.77666 9.20988 3.05136 8.77741 3.43064C8.34494 3.80991 8.00553 4.28359 7.78541 4.81503C7.5653 5.34647 7.4704 5.92142 7.50804 6.49541C7.54568 7.06939 7.71487 7.62703 8.0025 8.12517" stroke="#8122BA" stroke-width="2" stroke-linecap="round" stroke-linejoin="round"/>
<path d="M22.4961 6.40625C23.2308 6.59517 23.913 6.94881 24.4908 7.44039C25.0686 7.93197 25.527 8.54859 25.8313 9.24356C26.1355 9.93853 26.2776 10.6936 26.2469 11.4516C26.2161 12.2097 26.0132 12.9507 25.6536 13.6188" stroke="#8122BA" stroke-width="2" stroke-linecap="round" stroke-linejoin="round"/>
<path d="M22.5 22.4999C23.6006 22.4999 24.6705 22.1367 25.5437 21.4666C26.4168 20.7966 27.0445 19.8572 27.3294 18.794C27.6143 17.7309 27.5404 16.6035 27.1192 15.5866C26.6981 14.5698 25.9531 13.7203 25 13.1699" stroke="#8122BA" stroke-width="2" stroke-linecap="round" stroke-linejoin="round"/>
<path d="M24.9587 21.8535C25.0464 22.5313 24.9941 23.2199 24.8051 23.8767C24.6162 24.5335 24.2946 25.1446 23.8603 25.6722C23.4259 26.1999 22.888 26.6329 22.2797 26.9445C21.6715 27.2561 21.0058 27.4397 20.3238 27.4839C19.6418 27.5282 18.9579 27.4322 18.3145 27.2018C17.6711 26.9714 17.0817 26.6116 16.5828 26.1445C16.0839 25.6774 15.686 25.113 15.4138 24.4861C15.1416 23.8592 15.0007 23.1832 15 22.4998C14.9993 23.1832 14.8584 23.8592 14.5862 24.4861C14.314 25.113 13.9161 25.6774 13.4172 26.1445C12.9183 26.6116 12.3289 26.9714 11.6855 27.2018C11.042 27.4322 10.3582 27.5282 9.67622 27.4839C8.99422 27.4397 8.32853 27.2561 7.72027 26.9445C7.11201 26.6329 6.57409 26.1999 6.13973 25.6722C5.70537 25.1446 5.38379 24.5335 5.19486 23.8767C5.00592 23.2199 4.95364 22.5313 5.04125 21.8535" stroke="#8122BA" stroke-width="2" stroke-linecap="round" stroke-linejoin="round"/>
<path d="M7.49978 22.4999C6.39915 22.4999 5.32929 22.1367 4.45611 21.4666C3.58294 20.7966 2.95524 19.8572 2.67038 18.794C2.38551 17.7309 2.45939 16.6035 2.88055 15.5866C3.30172 14.5698 4.04664 13.7203 4.99978 13.1699" stroke="#8122BA" stroke-width="2" stroke-linecap="round" stroke-linejoin="round"/>
<path d="M7.50391 6.40625C6.76916 6.59517 6.08703 6.94881 5.50919 7.44039C4.93136 7.93197 4.47296 8.54859 4.16871 9.24356C3.86447 9.93853 3.72236 10.6936 3.75314 11.4516C3.78393 12.2097 3.98681 12.9507 4.34641 13.6188" stroke="#8122BA" stroke-width="2" stroke-linecap="round" stroke-linejoin="round"/>
</svg>
