<?xml version="1.0" encoding="UTF-8"?><svg id="a" xmlns="http://www.w3.org/2000/svg" xmlns:xlink="http://www.w3.org/1999/xlink" viewBox="0 0 250 250"><defs><style>.c{opacity:.7;}.d{fill:#fff;}.e{fill:#111a28;}.f{fill:#93603e;}.g{opacity:.5;}.h{fill:#00c10e;}.i{opacity:.2;}.j{opacity:.35;}.k{fill:#fcf7fb;}.l{clip-path:url(#b);}.m{fill:#390075;}.n{fill:#22a7f0;}.o{fill:#371a45;}.p{fill:#d6b1fb;}</style><clipPath id="b"><circle class="d" cx="125" cy="125" r="92.94"/></clipPath></defs><rect class="p" x="-2.4" y="-2.4" width="254.81" height="254.81"/><g><circle class="d" cx="125" cy="125" r="92.94"/><g class="l"><g><g><path class="d" d="M170.8,201.52v58.02c0,9.76-7.98,17.74-17.74,17.74h-58.66c-9.75,0-17.74-7.98-17.74-17.74v-58.02c0-5.75,2.77-10.87,7.03-14.12,2.98-2.27,6.7-3.62,10.71-3.62h58.66c4.39,0,8.42,1.62,11.52,4.28,3.8,3.26,6.22,8.08,6.22,13.45Z"/><path class="o" d="M153.06,183.78c9.76,0,17.74,7.98,17.74,17.74v58.02c0,9.76-7.98,17.74-17.74,17.74h-58.65c-9.76,0-17.74-7.98-17.74-17.74v-58.02c0-9.76,7.98-17.74,17.74-17.74h58.65m0-3.01h-58.65c-11.44,0-20.75,9.31-20.75,20.75v58.02c0,11.44,9.31,20.75,20.75,20.75h58.65c11.44,0,20.75-9.31,20.75-20.75v-58.02c0-11.44-9.31-20.75-20.75-20.75h0Z"/><path class="d" d="M146.04,181.7c21.85,7.5,23.46,24.8,38.58,34.85,6.54,4.35,13.38,3.29,21.54,1.1,4.35-1.17,6.44,3.15,6.72,10.53,.4,10.28-3.14,17.56-24.54,17.98-24.94,.49-29.26-29.04-29.26-29.04"/><g class="j"><path class="o" d="M188.33,246.15c-24.95,.49-29.26-29.04-29.26-29.04l-2.49-6.75c10.29,6.24,8.59,28.34,31.75,27.89,17.7-.35,23.18-5.38,24.33-12.93,.11,.89,.18,1.84,.22,2.85,.4,10.28-3.14,17.56-24.54,17.98Z"/></g><path class="o" d="M187.73,247.66c-10.5,0-19.02-5.21-24.69-15.1-4.29-7.48-5.41-14.92-5.46-15.23-.12-.82,.45-1.59,1.27-1.71,.82-.12,1.59,.45,1.71,1.27,.01,.07,1.11,7.26,5.14,14.25,5.28,9.15,12.89,13.72,22.61,13.51,10.21-.2,16.78-2,20.08-5.5,2.27-2.4,3.19-5.77,2.99-10.92-.24-6.24-1.71-8.22-2.56-8.85-.38-.28-1.03-.61-2.27-.28-7.81,2.1-15.43,3.57-22.76-1.3-6.37-4.23-10.45-9.75-14.4-15.08-5.82-7.87-11.32-15.3-23.83-19.6-.79-.27-1.2-1.13-.93-1.91,.27-.79,1.12-1.2,1.91-.93,13.4,4.6,19.43,12.76,25.27,20.65,3.97,5.36,7.71,10.42,13.65,14.36,5.72,3.8,11.55,3.25,20.31,.9,1.82-.49,3.49-.22,4.83,.77,2.29,1.69,3.56,5.44,3.78,11.16,.16,4.05-.13,9.2-3.81,13.1-3.94,4.17-10.99,6.22-22.21,6.44-.21,0-.42,0-.63,0Z"/><path class="d" d="M101.35,181.7c-21.85,7.5-25.01,25.4-39.88,35.8-4.44,3.1-10.55,4.8-20.22,3.29-4.45-.7-9.74-1.32-10.66,6.01-.74,5.96,9.56,19.39,28.47,19.34,24.95-.06,29.26-29.04,29.26-29.04l13.03-35.4Z"/><g class="j"><path class="o" d="M91.1,211.83l-2.78,5.28s-4.32,28.99-29.26,29.05c-18.91,.04-29.21-13.39-28.47-19.35,.05-.4,.11-.78,.19-1.14,1.97,9.55,12.89,15.38,28.75,15.34,23.41-.05,18.8-23.76,31.57-29.18Z"/></g><path class="o" d="M58.97,247.65c-14.44,0-22.54-7.4-25.36-10.58-3.19-3.6-4.87-7.51-4.5-10.45,.36-2.87,1.4-4.98,3.09-6.25,2.77-2.09,6.54-1.5,9.29-1.06,8.24,1.29,14.32,.32,19.13-3.04,5.7-3.98,9.59-9.06,13.71-14.44,6.35-8.29,12.92-16.87,26.55-21.55,.79-.27,1.64,.15,1.91,.93,.27,.79-.15,1.64-.93,1.91-12.77,4.39-19.06,12.59-25.13,20.53-4.08,5.32-8.29,10.83-14.37,15.08-5.41,3.78-12.38,4.94-21.32,3.54-2.77-.43-5.4-.72-7.02,.5-1.03,.78-1.65,2.16-1.91,4.22-.19,1.54,.68,4.59,3.77,8.08,2.55,2.88,9.9,9.57,23.11,9.57h.09c23.38-.05,27.74-27.48,27.78-27.76,.12-.82,.89-1.39,1.71-1.27,.82,.12,1.39,.89,1.27,1.71-.05,.31-1.17,7.62-5.46,15.03-5.77,9.98-14.52,15.27-25.29,15.29-.03,0-.06,0-.09,0Z"/><path class="o" d="M83.35,232.11c-.58,0-1.05-.47-1.05-1.05,0-12.46-12.02-21.4-12.15-21.49-.47-.34-.57-1-.23-1.47,.34-.47,1-.57,1.47-.23,.53,.39,13.01,9.64,13.01,23.18,0,.58-.47,1.05-1.05,1.05Z"/><path class="d" d="M42.91,222.28c-3.95-4.56,.25-7.42,4.46-5,3.83,2.19,7.25,4.84,11.6,3.58,0,0-.33,2.76-3.82,5.79s-12.24-4.37-12.24-4.37Z"/><path class="o" d="M41.78,223.27c-.79-.81-1.54-1.79-1.92-3.16-.18-.68-.26-1.49-.01-2.32,.11-.41,.31-.81,.55-1.17,.25-.35,.56-.66,.89-.9,.66-.48,1.39-.73,2.09-.83,.7-.1,1.36-.05,1.99,.06,.63,.12,1.21,.32,1.76,.58,.27,.13,.54,.27,.79,.43,.13,.08,.24,.15,.35,.22l.32,.21c1.69,1.13,3.23,2.32,4.9,3.19,.83,.44,1.69,.78,2.61,.97,.91,.19,1.87,.22,2.85,.09h0c.12-.02,.23,.07,.24,.19,.01,.1-.04,.19-.13,.23-.94,.42-2,.66-3.07,.67-1.08,.02-2.15-.18-3.17-.49-2.04-.63-3.85-1.64-5.6-2.51l-.33-.16c-.11-.06-.22-.11-.31-.15-.18-.09-.37-.15-.56-.22-.38-.13-.75-.2-1.11-.24-.72-.08-1.37,.11-1.64,.35-.13,.12-.19,.21-.23,.35-.04,.13-.04,.35,.02,.64,.07,.28,.19,.61,.37,.95,.18,.34,.41,.69,.65,1.04l.05,.07c.47,.69,.29,1.62-.39,2.09-.61,.42-1.43,.32-1.93-.19Z"/><path class="o" d="M60.81,237.19c-.7,.07-1.45,.02-2.15-.26-.7-.27-1.33-.72-1.85-1.23-.53-.5-.98-1.05-1.4-1.6l-1.25-1.61c-.82-1.05-1.68-2.02-2.62-2.9-.93-.89-1.95-1.64-3.03-2.36-1.14-.76-2.24-1.46-3.36-2.09-1.12-.62-2.27-1.16-3.44-1.6-2.33-.9-4.77-1.23-7.24-1.17h-.04c-.83,.02-1.52-.63-1.54-1.47-.02-.77,.54-1.42,1.28-1.53,2.93-.44,6.02,0,8.73,1.12,2.73,1.08,5.1,2.83,7.2,4.53,1.12,.87,2.18,1.89,3.11,2.98,.94,1.08,1.72,2.28,2.43,3.47,.71,1.19,1.31,2.41,2.05,3.43,.37,.51,.8,.95,1.33,1.27,.53,.31,1.14,.5,1.8,.57h0c.12,.01,.2,.12,.19,.24-.01,.1-.09,.18-.19,.19Z"/><path class="d" d="M168.24,276.16H79.22s-.1-9.95,1.66-24.72c.31-2.65,.69-5.46,1.13-8.4,1.96-12.94,5.3-28.34,10.99-43.64,.86-2.3,1.77-4.6,2.73-6.89,.77-1.82,1.57-3.63,2.41-5.42,.61-1.32,1.25-2.63,1.9-3.93h47.39c.65,1.3,1.29,2.61,1.9,3.93,.85,1.82,1.66,3.65,2.44,5.49,1.1,2.62,2.13,5.25,3.1,7.89,5.45,14.95,8.68,29.93,10.59,42.58,.45,2.95,.82,5.77,1.14,8.43,1.75,14.76,1.65,24.69,1.65,24.69Z"/><g class="j"><path class="o" d="M168.24,276.16H79.22s-.1-9.95,1.66-24.72c.31-2.65,.69-5.46,1.13-8.4,.85-5.57,1.95-11.61,3.38-17.88,4.65,16.25,19.63,28.61,37.98,28.61h.8c18.3,0,33.24-12.3,37.93-28.49,1.42,6.23,2.51,12.22,3.35,17.75,.45,2.95,.82,5.77,1.14,8.43,1.75,14.76,1.65,24.69,1.65,24.69Z"/></g><path class="o" d="M159.55,213.32c2.27,4.87,3.74,10.02,4.89,15.23,.62,2.59,1.06,5.22,1.54,7.85,.22,1.31,.41,2.63,.61,3.95l.31,1.97,.27,1.98,.53,3.96,.49,3.96c.29,2.65,.57,5.3,.79,7.95,.44,5.32,.75,10.61,.77,16v1.49h-46.77v-3.01h1.51v3.01h-46.78v-1.49c.03-5.42,.34-10.74,.78-16.08,.45-5.33,1.05-10.65,1.84-15.95l.29-1.99,.33-1.98c.22-1.32,.42-2.64,.67-3.96,.51-2.63,.96-5.27,1.49-7.89,.26-1.31,.49-2.63,.81-3.94,.31-1.3,.67-2.6,1.04-3.88,.35-1.29,.8-2.56,1.32-3.81,.5-1.25,1.05-2.49,1.73-3.68,.14-.25,.45-.33,.7-.19,.17,.1,.26,.27,.26,.46h0c-.05,2.76-.58,5.35-1.06,7.96-.26,1.3-.53,2.59-.84,3.87l-.89,3.86c-1.23,5.14-2.07,10.37-2.86,15.6-.78,5.23-1.38,10.49-1.82,15.76-.44,5.26-.75,10.58-.77,15.8l-1.5-1.49h45.27v3.01h-1.51v-3.01h45.27l-1.5,1.49c-.02-5.2-.32-10.49-.76-15.72-.45-5.24-1.01-10.48-1.82-15.69l-.29-1.95-.34-1.95c-.23-1.3-.45-2.59-.7-3.89-.52-2.58-.99-5.17-1.52-7.74-.97-5.18-2.19-10.28-2.72-15.61h0c-.03-.29,.18-.54,.45-.57,.22-.02,.42,.1,.51,.29Z"/><g><g class="j"><path class="o" d="M123.49,243.3c.37,.57,.73,1.13,1.08,1.68-.35-.55-.71-1.11-1.08-1.68Z"/></g><path class="d" d="M102.48,243.62c-5.52,2.23-14.05,1.77-19.87,1.06-3.49-.42-5.94-3.64-5.43-7.12h0c.47-3.17,3.26-5.48,6.47-5.33,5.44,.26,13.61,.37,18.78-.77"/><g class="j"><path class="o" d="M102.48,243.61c-5.52,2.24-14.05,1.76-19.87,1.06-3.49-.42-5.94-3.65-5.42-7.12,.1-.71,.33-1.38,.64-1.98,.92,1.75,2.66,3.05,4.78,3.31,5.81,.7,14.33,1.17,19.85-1.05l.02,5.78Z"/></g><path class="o" d="M91.51,246.76c-3.19,0-6.37-.26-9.09-.59-2.09-.25-3.95-1.32-5.23-2.99-1.28-1.68-1.82-3.75-1.51-5.84,.59-3.96,4.03-6.81,8.03-6.61,5.67,.26,13.46,.35,18.38-.74,.78-.17,2.72-.18,3.86,3.49,1.15,3.71,1.02,9.94-2.92,11.54h0c-3.24,1.31-7.4,1.75-11.53,1.75Zm-8.16-13.04c-2.34,0-4.34,1.71-4.68,4.05-.19,1.28,.14,2.55,.92,3.58,.78,1.03,1.92,1.67,3.2,1.83,8.32,1.01,15.11,.66,19.13-.96,1.16-.47,1.5-2.35,1.6-3.13,.34-2.81-.51-5.45-1.05-6.11-5.25,1.1-13.14,1.01-18.88,.74-.08,0-.15,0-.23,0Zm19.13,9.89h0Z"/><path class="d" d="M164.54,244.68c-2.73,.33-6.06,.61-9.4,.58-.23,0-.46,0-.69-.01-.24,0-.48-.01-.72-.02-.16,0-.32-.01-.48-.02-.19-.01-.38-.02-.57-.03-.24-.01-.48-.03-.72-.05h-.02c-.24-.02-.48-.04-.71-.06-.16-.01-.31-.03-.47-.05-.13-.01-.26-.03-.39-.04-.21-.02-.41-.05-.61-.08-.19-.03-.38-.06-.56-.09-.04,0-.08,0-.11-.02-.22-.03-.44-.07-.65-.11-.22-.04-.43-.08-.64-.13h-.05c-.12-.04-.24-.06-.35-.09-.13-.03-.26-.06-.39-.09h0c-.39-.1-.78-.21-1.16-.33-.2-.06-.4-.13-.6-.2-.2-.07-.39-.15-.58-.22l.02-5.84,.03-6.32c1.32,.3,2.84,.5,4.46,.65,4.71,.43,10.26,.31,14.31,.12,.1,0,.2,0,.3,0,3.08,0,5.72,2.26,6.17,5.34,.52,3.48-1.94,6.7-5.43,7.12Z"/><g class="j"><path class="o" d="M164.54,244.68c-2.73,.33-6.06,.61-9.4,.58-.23,0-.46,0-.69-.01-.24,0-.48-.01-.72-.02-.16,0-.32-.01-.48-.02-.19-.01-.38-.02-.57-.03-.24-.01-.48-.03-.72-.05h-.02c-.24-.02-.48-.04-.71-.06-.16-.01-.31-.03-.47-.05-.13-.01-.26-.03-.39-.04-.21-.02-.41-.05-.61-.08-.19-.03-.38-.06-.56-.09-.04,0-.08,0-.11-.02-.22-.03-.44-.07-.65-.11-.22-.04-.43-.08-.64-.13h-.05c-.12-.04-.24-.06-.35-.09-.13-.03-.26-.06-.39-.09h0c-.39-.1-.78-.21-1.16-.33-.2-.06-.4-.13-.6-.2-.2-.07-.39-.15-.58-.22l.02-5.84v-.42c.18,.07,.37,.15,.56,.21,.2,.07,.4,.14,.6,.2,.38,.12,.76,.23,1.16,.33h0c.13,.03,.26,.07,.39,.09,.11,.03,.23,.05,.35,.08h.05c.21,.06,.42,.1,.64,.14,.21,.04,.43,.08,.65,.11,.03,.01,.07,.01,.11,.02,.18,.03,.37,.06,.56,.09,.2,.03,.4,.06,.61,.08,.13,.01,.26,.03,.39,.04,.15,.02,.31,.03,.47,.05,.24,.02,.48,.05,.71,.06h.02c.24,.02,.48,.03,.72,.05,.19,.01,.38,.02,.57,.03,.16,0,.32,.01,.48,.02,.24,.01,.48,.02,.72,.02,.23,0,.46,.01,.69,.01,3.34,.03,6.67-.25,9.4-.58,2.03-.24,3.71-1.43,4.65-3.07,.39,.67,.65,1.42,.77,2.22,.52,3.48-1.94,6.7-5.43,7.12Z"/></g><path class="o" d="M155.63,246.76c-4.13,0-8.29-.44-11.53-1.75h0c-3.95-1.6-4.08-7.83-2.92-11.54,1.14-3.67,3.08-3.66,3.86-3.49,4.92,1.09,12.71,1,18.38,.74,3.99-.2,7.44,2.66,8.03,6.61,.31,2.09-.23,4.17-1.51,5.84-1.28,1.68-3.13,2.74-5.23,2.99-2.72,.33-5.89,.59-9.09,.59Zm-10.4-4.54c4.02,1.63,10.81,1.97,19.13,.96,1.28-.15,2.41-.8,3.2-1.83,.78-1.03,1.11-2.3,.92-3.58-.36-2.42-2.46-4.15-4.91-4.05-5.75,.27-13.64,.35-18.88-.74-.54,.66-1.39,3.29-1.05,6.11,.09,.79,.44,2.66,1.6,3.13h0Z"/><path class="d" d="M146.8,227.43v19.49c0,3.62-2.96,6.58-6.58,6.58h-35.9c-3.61,0-6.57-2.96-6.57-6.58v-19.49c0-3.62,2.96-6.57,6.57-6.57h35.9c2.13,0,4.03,1.03,5.24,2.61,.84,1.1,1.34,2.48,1.34,3.97Z"/><g class="j"><path class="o" d="M146.8,227.43v19.49c0,3.61-2.96,6.57-6.58,6.57h-35.9c-3.61,0-6.57-2.96-6.57-6.57v-7.3c3.85,7.48,16.91,10.42,27.66,9.33,2.4-.24,4.12-2.52,3.55-4.87-.17-.7-.26-1.44-.26-2.21,0-4.25,2.82-7.7,6.29-7.7s6.11,3.22,6.29,7.28c4.31-5.63,4.54-13.17,4.18-18,.84,1.1,1.34,2.48,1.34,3.97Z"/></g><path class="o" d="M140.22,255h-35.9c-4.45,0-8.08-3.62-8.08-8.08v-19.5c0-4.45,3.62-8.08,8.08-8.08h35.9c4.45,0,8.08,3.62,8.08,8.08v19.5c0,4.45-3.62,8.08-8.08,8.08Zm-35.9-32.64c-2.8,0-5.07,2.27-5.07,5.07v19.5c0,2.8,2.27,5.07,5.07,5.07h35.9c2.8,0,5.07-2.27,5.07-5.07v-19.5c0-2.8-2.27-5.07-5.07-5.07h-35.9Z"/><circle class="n" cx="134.99" cy="237.18" r="5.67"/><path class="d" d="M140.66,237.18c0,.31-.02,.61-.07,.9-.43-2.7-2.77-4.77-5.6-4.77s-5.16,2.06-5.6,4.77c-.05-.29-.07-.6-.07-.9,0-3.13,2.54-5.67,5.67-5.67s5.67,2.54,5.67,5.67Z"/><g class="j"><path class="o" d="M140.66,237.18c0,3.13-2.54,5.67-5.67,5.67s-5.67-2.54-5.67-5.67c0-.72,.14-1.41,.39-2.05,.82,2.11,2.87,3.61,5.28,3.61s4.46-1.5,5.28-3.61c.25,.64,.39,1.33,.39,2.05Z"/></g><path class="o" d="M134.99,243.98c-3.75,0-6.8-3.05-6.8-6.8s3.05-6.8,6.8-6.8,6.8,3.05,6.8,6.8-3.05,6.8-6.8,6.8Zm0-11.34c-2.5,0-4.54,2.04-4.54,4.54s2.04,4.54,4.54,4.54,4.54-2.04,4.54-4.54-2.04-4.54-4.54-4.54Z"/><path class="o" d="M118.93,254.76c-.7,0-1.26-.56-1.26-1.26v-9.41c0-2.42-1.15-4.73-3.09-6.19-2.56-1.93-4.09-4.99-4.09-8.2v-8.84c0-.7,.56-1.26,1.26-1.26s1.26,.56,1.26,1.26v8.84c0,2.42,1.15,4.73,3.09,6.19,2.56,1.93,4.09,5,4.09,8.2v9.41c0,.7-.56,1.26-1.26,1.26Z"/></g><g class="j"><path class="o" d="M164.58,188.06c-10.64,13.37-26.48,21.31-43.7,20.05-14.98-1.09-28.12-8.95-37.19-20.72,2.98-2.27,6.7-3.62,10.71-3.62h58.66c4.39,0,8.42,1.62,11.52,4.28Z"/></g><g><g><path class="d" d="M182.33,158.79h0c-.66,0-1.21-.53-1.21-1.2l-.19-34.68c0-.66,.53-1.21,1.2-1.21h0c6.98-.04,12.66,5.58,12.7,12.56l.07,11.82c.04,6.98-5.58,12.66-12.56,12.7Z"/><path class="o" d="M182.32,159.07c-.39,0-.76-.15-1.05-.43-.28-.28-.44-.65-.44-1.05l-.2-34.68c0-.4,.15-.77,.43-1.05,.28-.28,.65-.44,1.05-.44,3.44-.02,6.7,1.31,9.15,3.73,2.45,2.43,3.81,5.66,3.83,9.11l.07,11.82c.02,3.45-1.31,6.7-3.73,9.15-2.43,2.45-5.66,3.81-9.11,3.83h0Zm-.13-37.08h-.07c-.25,0-.48,.1-.65,.27-.17,.17-.27,.41-.27,.65l.2,34.68c0,.25,.1,.48,.27,.65,.17,.17,.4,.27,.65,.27h0c3.3-.02,6.39-1.32,8.71-3.67,2.32-2.35,3.59-5.45,3.57-8.75l-.07-11.82c-.02-3.3-1.32-6.39-3.67-8.71-2.33-2.3-5.41-3.57-8.68-3.57Z"/></g><g class="j"><path class="o" d="M194.86,140.54l.03,5.55c.04,6.97-5.58,12.66-12.56,12.7-.66,0-1.21-.54-1.21-1.2l-.05-9.22c.19,.42,.61,.71,1.1,.71h.82c5.51-.04,10.18-3.6,11.87-8.54Z"/></g><path class="o" d="M182.32,160.36c-.74,0-1.43-.28-1.95-.8-.53-.52-.82-1.22-.82-1.96l-.2-34.68c0-.74,.28-1.44,.8-1.97,.52-.53,1.22-.82,1.96-.82,3.81-.03,7.37,1.44,10.07,4.1s4.2,6.23,4.22,10.02l.07,11.82c.02,3.79-1.44,7.37-4.1,10.07s-6.23,4.2-10.02,4.22h-.02Zm.18-37.08l.19,33.92c2.81-.11,5.44-1.26,7.43-3.27,2.08-2.1,3.21-4.88,3.19-7.84l-.07-11.82c-.02-2.95-1.18-5.72-3.28-7.8-2.01-1.99-4.65-3.11-7.46-3.19Z"/><g><path class="d" d="M67.66,122.35h0c.66,0,1.21,.53,1.21,1.2l.19,34.68c0,.66-.53,1.21-1.2,1.21h0c-6.98,.04-12.66-5.58-12.7-12.56l-.07-11.82c-.04-6.98,5.58-12.66,12.56-12.7Z"/><path class="o" d="M67.8,159.71c-7.09,0-12.87-5.74-12.91-12.84l-.07-11.82c-.04-7.12,5.72-12.95,12.84-12.99h0c.41,0,.77,.15,1.05,.43,.28,.28,.44,.65,.44,1.05l.2,34.68c0,.4-.15,.77-.43,1.05-.28,.28-.65,.44-1.05,.44h-.07Zm-.13-37.08c-6.81,.04-12.32,5.61-12.28,12.42l.07,11.82c.04,6.78,5.57,12.28,12.35,12.28h.07c.25,0,.48-.1,.65-.27,.17-.17,.27-.41,.27-.65l-.2-34.68c0-.25-.1-.48-.27-.65s-.41-.28-.65-.27h0Z"/></g><g class="j"><path class="o" d="M69.02,148.6l.05,9.62c0,.66-.54,1.21-1.2,1.21-3.66,.02-6.97-1.52-9.29-4-2.1-2.24-3.39-5.25-3.41-8.56l-.03-4.98c2,4.36,6.43,7.38,11.55,7.35h1.27c.46-.01,.85-.27,1.06-.64Z"/></g><path class="o" d="M67.8,161.01c-7.8,0-14.16-6.32-14.2-14.12l-.07-11.82c-.04-7.83,6.29-14.24,14.12-14.28h0c.74,0,1.44,.28,1.97,.8,.53,.52,.82,1.22,.82,1.96l.2,34.68c0,.74-.28,1.44-.8,1.97-.52,.53-1.22,.82-1.96,.82h-.08Zm-.5-37.08c-5.92,.23-10.66,5.14-10.62,11.11l.07,11.82c.03,5.97,4.82,10.83,10.75,10.99l-.19-33.92Z"/><g><circle class="d" cx="125.01" cy="140.57" r="59.09"/><path class="o" d="M125.09,199.95c-1.32,0-2.64-.04-3.96-.13-32.67-2.14-57.51-30.46-55.37-63.13,2.14-32.67,30.45-57.51,63.13-55.37,32.67,2.14,57.51,30.46,55.37,63.13-1.04,15.83-8.17,30.3-20.1,40.76-10.92,9.58-24.67,14.74-39.07,14.74Zm-.12-118.19c-30.69,0-56.61,23.91-58.64,54.97-2.12,32.36,22.48,60.41,54.84,62.53,1.3,.08,2.6,.13,3.88,.13,30.69,0,56.61-23.91,58.64-54.97,2.12-32.36-22.48-60.41-54.84-62.53-1.3-.09-2.6-.13-3.88-.13Z"/></g><g class="j"><path class="o" d="M183.94,136.23c.2,2.69,.21,5.43,.03,8.2-2.14,32.56-30.26,57.24-62.83,55.11-32.56-2.14-57.24-30.26-55.11-62.83,.06-.94,.14-1.87,.25-2.79,2.1,28.96,25.28,52.68,55.08,54.63,31.63,2.07,59.07-21.14,62.58-52.32Z"/></g><path class="o" d="M125.05,201.24c-1.33,0-2.66-.04-4-.13-33.38-2.19-58.76-31.12-56.57-64.5,2.19-33.38,31.11-58.76,64.5-56.57,33.38,2.19,58.76,31.12,56.57,64.5-2.1,32.04-28.84,56.71-60.5,56.71Zm-.08-118.19c-30.02,0-55.37,23.39-57.36,53.76-2.07,31.65,21.99,59.08,53.64,61.15,1.27,.08,2.54,.12,3.8,.12,30.02,0,55.37-23.39,57.36-53.76,2.07-31.65-21.99-59.08-53.64-61.15-1.27-.08-2.54-.12-3.8-.12Z"/><path class="o" d="M183.68,145.93c-.58,11.55-4.87,22.08-11.73,30.63-5.14,6.41-25.49,17.05-49.9,16.05-22.63-.93-42.61-14.03-47.08-20.93-5.97-9.19-9.17-20.1-8.59-31.65,1.54-30.56,28.43-41.91,60.83-40.28,32.39,1.63,58.01,15.62,56.48,46.18Z"/><path class="o" d="M125.4,194.25c-1.13,0-2.26-.02-3.41-.07-23.47-.97-43.64-14.4-48.34-21.64-6.37-9.81-9.42-21.08-8.85-32.59,.75-15.01,7.35-26.27,19.62-33.49,10.69-6.29,25.51-9.16,42.86-8.28,17.35,.87,31.81,5.21,41.81,12.54,11.48,8.41,16.91,20.28,16.16,35.29h0c-.58,11.51-4.75,22.41-12.07,31.54-4.85,6.05-23.54,16.7-47.78,16.7Zm-3.81-93.07c-18.99,0-51.93,4.94-53.64,38.93-.55,10.84,2.34,21.46,8.34,30.72,4.26,6.57,23.76,19.3,45.83,20.21,24.47,1.01,44.02-9.75,48.6-15.46,6.9-8.6,10.84-18.88,11.38-29.72,.7-13.88-4.31-24.85-14.87-32.59-9.51-6.97-23.38-11.1-40.11-11.94-1.65-.08-3.52-.14-5.54-.14Zm62.09,44.75h0Z"/><g class="g"><ellipse class="d" cx="164.83" cy="140.82" rx="10.46" ry="7.58" transform="translate(-9.8 269.29) rotate(-76.85)"/></g><g class="g"><ellipse class="d" cx="154.52" cy="161.04" rx="4.8" ry="4.12" transform="translate(-51.34 247.25) rotate(-68.91)"/></g><g class="j"><path class="e" d="M173.71,116.84c6.83,7.2,10.59,16.81,9.97,29.08-.58,11.55-4.87,22.08-11.72,30.63-5.14,6.41-25.49,17.05-49.9,16.05-8.62-.35-16.85-2.47-23.99-5.35,30.03,.6,54.82-12.48,61.2-20.43,8.7-10.85,14.15-24.22,14.88-38.88,.2-3.92,.04-7.62-.44-11.12Z"/></g><path class="o" d="M179.99,120.41c-.38,0-.76-.14-1.06-.42l-.16-.14-.09-.15c-9.23-14.43-28.03-23.39-51.57-24.57-23.67-1.19-43.27,6.09-53.76,19.98l-.11,.13c-.57,.63-1.53,.68-2.16,.11-.62-.55-.67-1.5-.16-2.13,11.13-14.69,31.66-22.41,56.35-21.17,24.51,1.23,44.17,10.68,53.97,25.91,.43,.59,.4,1.42-.12,1.97-.3,.32-.71,.48-1.12,.48Z"/><g class="g"><path class="d" d="M78.64,158.87s-7.95-30.63,8.9-41.82c16.85-11.2,40.23-9.97,39.61-8.5,0,0-26.19,4.96-37.35,24.91-8.6,15.38-11.16,25.41-11.16,25.41Z"/></g></g><path class="d" d="M126.61,291.6s-37.02,4.19-53.47-9.94c-22.48-19.32-3.2-43.52,13.49-37.07,14.54,5.61,20.52,10.03,46.34,14.26,21.64,3.55,40.23,25.76,24.7,38.66-10.96,9.1-31.06-5.9-31.06-5.9Z"/><path class="o" d="M148.9,301.95c-9.74,0-20.29-7.08-22.7-8.79-5,.5-38.23,3.23-54.04-10.36-12.81-11-12.42-23.19-7.8-30.92,4.93-8.24,14.52-11.89,22.81-8.69,3.22,1.24,6.01,2.42,8.71,3.56,9.32,3.94,17.38,7.35,37.34,10.62,14.37,2.36,28.02,12.98,31.06,24.19,1.78,6.53-.23,12.61-5.65,17.11-2.87,2.38-6.25,3.29-9.74,3.29Zm-21.86-11.91l.48,.36c.15,.11,11.6,8.54,21.38,8.54,2.86,0,5.58-.72,7.83-2.59,4.52-3.75,6.14-8.6,4.67-14-2.76-10.16-15.34-19.83-28.65-22.01-20.32-3.33-28.52-6.8-38.02-10.82-2.67-1.13-5.44-2.3-8.62-3.53-6.92-2.67-14.97,.45-19.15,7.43-4,6.68-4.21,17.31,7.17,27.1,15.77,13.55,51.96,9.63,52.32,9.59l.59-.07Z"/><path class="d" d="M119.39,291.6s37.02,4.19,53.47-9.94c22.48-19.32,3.2-43.52-13.49-37.07-14.54,5.61-20.52,10.03-46.34,14.26-21.64,3.55-40.23,25.76-24.7,38.66,10.96,9.1,31.06-5.9,31.06-5.9Z"/><path class="o" d="M97.11,301.95c-3.49,0-6.87-.91-9.74-3.29-5.42-4.5-7.42-10.57-5.65-17.11,3.05-11.21,16.69-21.83,31.06-24.19,19.96-3.27,28.01-6.68,37.34-10.62,2.7-1.14,5.48-2.32,8.7-3.56,8.29-3.2,17.88,.45,22.81,8.69,4.63,7.74,5.01,19.92-7.8,30.92-15.81,13.59-49.04,10.86-54.04,10.36-2.42,1.72-12.96,8.79-22.7,8.79Zm67.92-56.91c-1.72,0-3.45,.31-5.11,.95-3.18,1.23-5.94,2.4-8.62,3.53-9.5,4.02-17.71,7.49-38.02,10.82-13.3,2.18-25.89,11.85-28.65,22.01-1.47,5.41,.14,10.25,4.67,14,9.92,8.24,29.01-5.81,29.2-5.95l.48-.36,.59,.07c.36,.04,36.56,3.95,52.32-9.59,11.39-9.79,11.17-20.41,7.17-27.1-3.17-5.3-8.58-8.38-14.04-8.38Z"/><g><g class="i"><path class="m" d="M217.96,238.96v.28h-.79c.27-.09,.53-.18,.79-.28Z"/></g><path class="h" d="M198.67,227.23c0,4.4,1.79,8.39,4.67,11.27,2.89,2.88,6.87,4.67,11.27,4.67h15.28l-5.45-31.88h-9.83c-8.8,0-15.94,7.14-15.94,15.94Zm4.67,0c0-5.32,5.95-9.64,11.26-9.64h4.52l3.29,19.27h-7.81c-2.66,0-5.07-1.08-6.81-2.82-1.74-1.74-4.45-4.15-4.45-6.81Z"/><g class="j"><path class="o" d="M198.67,227.23c0,4.41,1.79,8.39,4.67,11.27,2.89,2.88,6.87,4.67,11.27,4.67h15.28l-.51-2.98h-14.78c-4.4,0-8.38-1.79-11.27-4.67-2.55-2.55-4.24-5.97-4.6-9.78-.05,.49-.07,.99-.07,1.49Zm23.25,6.66h.51l-3.3-19.27h-4.52c-5.32,0-7.66,2.82-10.82,8.28-.25,.44-.52,2.37-.45,2.85,.71-4.61,6.45-8.15,11.26-8.15h4.52l2.79,16.29Z"/></g><path class="o" d="M231.67,244.67h-17.07c-4.66,0-9.04-1.81-12.33-5.11-3.29-3.3-5.11-7.68-5.11-12.34,0-9.62,7.82-17.44,17.44-17.44h11.1l5.96,34.88Zm-17.07-31.88c-7.96,0-14.43,6.48-14.43,14.44,0,3.85,1.5,7.48,4.23,10.21,2.73,2.72,6.35,4.23,10.21,4.23h13.5l-4.93-28.87h-8.57Zm9.6,25.58h-9.6c-5.13,0-12.77-2.97-12.77-11.14,0-6.97,6.49-11.14,12.77-11.14h5.79l3.81,22.28Zm-9.6-19.27c-4.73,0-9.76,2.85-9.76,8.13,0,8.04,9.66,8.13,9.76,8.13h6.03l-2.78-16.27h-3.25Z"/><path class="h" d="M222.32,242.63c1.48,3.13,4.44,5.34,7.87,5.79,1.89,.25,3.8,.37,5.7,.37s3.81-.12,5.71-.37c3.45-.45,6.4-2.68,7.89-5.83,3.52-7.46,5.35-15.61,5.35-23.87,0-1.19-.03-2.37-.11-3.55l-.56-8.94c0,1.91-8.18,3.45-18.28,3.45s-18.27-1.54-18.27-3.45l-.57,8.94c-.6,9.48,1.23,18.93,5.27,27.47Z"/><g><path class="k" d="M240.88,230.21c-.66-1.32-1.65-2.38-2.68-3.41-.54-.54-1.02-1.12-1.42-1.73-.54-.83-.95-1.73-1.17-2.71-.06-.24-.1-.5-.13-.75-.04-.34-.07-.69-.07-1.04,0-.37,.11-.54,.48-.62,.68-.15,1.34-.14,1.97,.01h0c.46,.11,.91,.3,1.34,.55,3.18,1.86,5.09,6.11,4.38,9.73-.25,1.3-.77,2.48-1.92,3.35,.01-1.23-.27-2.33-.79-3.38Z"/><path class="k" d="M233.91,220.91c.03,1.74,.5,3.23,1.28,4.56,.62,1.05,1.43,2,2.38,2.88,.49,.45,.91,.98,1.29,1.54,.82,1.22,1.35,2.53,1.32,4.03,0,.4-.16,.58-.54,.66-1.21,.26-2.34,.03-3.38-.58-2.12-1.24-3.65-3.57-4.22-6.06-.28-1.22-.33-2.49-.1-3.69,0-.01,0-.02,0-.03,.05-.26,.11-.52,.19-.77,.3-1,.82-1.88,1.77-2.55Z"/></g><g class="c"><path class="d" d="M254.85,218.72c0,8.26-1.83,16.41-5.35,23.87-.58,1.23-1.38,2.31-2.35,3.21,3.24-7.21,4.93-15.03,4.93-22.95,0-1.19-.03-2.37-.11-3.55l-.31-4.9c-.1-1.64-1.65-2.82-3.25-2.45-3.74,.86-10.2,1.18-14.78,.44-4.34-.7-8.46-2.22-12.06-4.03,3.35,.8,8.53,1.31,14.35,1.31,10.09,0,18.28-1.55,18.28-3.45l.56,8.94c.08,1.19,.11,2.37,.11,3.55Z"/></g><g class="j"><path class="o" d="M222.44,242.88c1.42,2.97,4.22,5.06,7.48,5.5,1.98,.27,3.98,.41,5.97,.41s4-.14,5.98-.41c3.2-.44,6-2.43,7.4-5.34l.02-.04c-.03,.05-.06,.1-.09,.16-3.62,.94-7.33,1.41-11.04,1.41h-.11c-6.9-.02-13.07-4.4-15.44-10.88-2.64-7.23-3.78-14.97-3.29-22.74l.2-3.18c-1.22-.46-1.9-.98-1.9-1.53l-.57,8.94c-.61,9.58,1.26,19.12,5.39,27.72Z"/></g><path class="d" d="M217.62,206.22c0,1.91,8.18,3.45,18.27,3.45s18.28-1.54,18.28-3.45-8.18-3.45-18.28-3.45-18.27,1.55-18.27,3.45Z"/><path class="d" d="M217.62,206.22c0,.63,.89,1.22,2.45,1.73,3.16,1.03,9.06,1.72,15.83,1.72s12.67-.69,15.83-1.72c1.55-.51,2.45-1.1,2.45-1.73,0-1.9-8.18-3.45-18.28-3.45s-18.27,1.55-18.27,3.45Z"/><path class="f" d="M220.33,207.95c3.16,1.03,9.06,1.72,15.83,1.72s12.67-.69,15.83-1.72c-3.16-1.03-9.07-1.73-15.83-1.73s-12.67,.69-15.83,1.73Z"/><path class="o" d="M235.9,250.29c-2.05,0-4.11-.14-6.14-.42-3.77-.51-7.02-2.9-8.68-6.38-4.23-8.83-6.13-18.66-5.51-28.43l.57-8.94,3,.1c0-.23-.09-.39-.13-.42,.72,.8,6.58,2.37,16.89,2.37s16.18-1.57,16.9-2.37c-.03,.04-.13,.19-.13,.42l3-.09,.56,8.94c.08,1.18,.11,2.37,.11,3.65,0,8.59-1.97,17.21-5.7,24.94-1.63,3.38-4.85,5.7-8.6,6.22-2.03,.28-4.1,.42-6.15,.42Zm-16.95-41.15l-.39,6.12c-.59,9.26,1.22,18.57,5.23,26.94h0c1.23,2.57,3.61,4.32,6.38,4.7,3.79,.52,7.69,.52,11.48,0,2.75-.37,5.11-2.07,6.3-4.54,3.53-7.33,5.4-15.5,5.4-23.63,0-1.21-.04-2.34-.11-3.46l-.39-6.12c-.98,.38-2.22,.71-3.75,1-3.54,.67-8.23,1.04-13.2,1.04s-9.66-.37-13.2-1.04c-1.53-.29-2.77-.62-3.75-1Z"/><path class="o" d="M235.9,211.18c-4.97,0-9.66-.37-13.2-1.04-4.55-.86-6.58-2.07-6.58-3.92s2.03-3.06,6.58-3.92c3.54-.67,8.23-1.04,13.2-1.04s9.66,.37,13.2,1.04c4.55,.86,6.58,2.07,6.58,3.92s-2.03,3.06-6.58,3.92c-3.54,.67-8.23,1.04-13.2,1.04Zm-16.18-4.95c1.95,.83,7.48,1.95,16.18,1.95s14.24-1.12,16.19-1.95c-1.95-.83-7.49-1.95-16.19-1.95s-14.23,1.12-16.18,1.95Z"/></g><path class="d" d="M191.94,216.86c-1.32,4.51,.13,8.76,2.73,9.85,5.48,2.31,9.44-8.38,9.44-8.38,0,0-1.84-7.72-5.45-7.59-2.56,.09-5.53,2.04-6.72,6.12Z"/><g class="j"><path class="o" d="M204.11,218.33s-3.96,10.69-9.44,8.38c-2.6-1.09-4.06-5.35-2.74-9.85,.27-.91,.62-1.72,1.05-2.43-.12,3.28,1.21,6.03,3.23,6.88,3.15,1.33,5.8-1.65,7.48-4.41,.28,.85,.42,1.44,.42,1.44Z"/></g><path class="o" d="M196.23,228.63c-.73,0-1.46-.15-2.17-.45-3.54-1.49-5.14-6.66-3.64-11.77h0c1.52-5.2,5.36-7.16,8.19-7.26,4.67-.15,6.69,7.31,7.05,8.81l.11,.47-.17,.45c-.28,.75-2.85,7.41-7.11,9.26-.74,.32-1.5,.48-2.26,.48Zm-2.76-11.32c-1.1,3.76,.08,7.21,1.83,7.94,.65,.27,1.26,.27,1.93-.02,2.36-1.02,4.42-5.04,5.22-6.99-.71-2.59-2.32-5.96-3.72-5.9-1.91,.07-4.28,1.63-5.25,4.97h0Z"/><path class="d" d="M213.89,216.03s-5.05-8.27-12.18-4.13c-5.55,3.22-4.72,15.24-4.15,17.96,2.03,9.74,9.1,15.38,14.47,6.9,.26-.41,2.9-10.25,1.86-20.73Z"/><g class="j"><path class="o" d="M212.03,236.76c-5.38,8.48-12.45,2.85-14.48-6.9-.28-1.34-.62-4.92-.23-8.59,.07,.7,.16,1.27,.23,1.65,2.03,9.75,8.83,10.56,14.48,6.9,.29-.19,1.59-5.41,2-12.15,.64,9.85-1.75,18.7-2,19.08Z"/></g><path class="o" d="M206.17,242.5c-.41,0-.79-.04-1.1-.1-4.12-.75-7.68-5.54-9.06-12.21-.51-2.47-1.72-15.81,4.91-19.66,6.71-3.9,12.31,1.35,14.34,4.67l.19,.31,.04,.36c1.03,10.38-1.5,20.79-2.1,21.74-2.55,4.03-5.32,4.88-7.21,4.88Zm-.46-30.14c-.99,0-2.07,.26-3.2,.92-4.53,2.63-3.96,13.56-3.39,16.26,1.09,5.23,3.77,9.23,6.52,9.73,2.12,.39,3.87-1.52,4.98-3.25,.42-1.24,2.58-10.08,1.73-19.45-.7-1.01-3.19-4.22-6.64-4.22Zm4.98,23.56l-.02,.03,.02-.03Z"/><path class="o" d="M173.32,242.92c-.51,0-.96-.38-1.04-.9-3.03-21.16,7.77-28.69,8.23-29,.48-.32,1.13-.19,1.46,.29,.32,.48,.2,1.13-.28,1.46-.11,.08-10.16,7.2-7.33,26.96,.08,.57-.32,1.11-.89,1.19-.05,0-.1,.01-.15,.01Z"/></g><g class="c"><path class="d" d="M233.96,166.66l-2.97,.19c-.94,.08-1.83,.53-2.41,1.22-.59,.69-.88,1.59-.82,2.45,.06,.87,.48,1.68,1.12,2.22,.65,.54,1.45,.82,2.29,.77l2.98-.1c1.99-.08,3.97-.11,5.96-.16,1.99-.04,3.97-.11,5.96-.13h.74c.13-.01,.32,0,.48,0,.16,.02,.33,.04,.49,.07,.65,.13,1.27,.41,1.81,.81,1.08,.78,1.76,2.1,1.8,3.45,.06,1.35-.57,2.72-1.62,3.58-.52,.43-1.14,.75-1.8,.91-.33,.09-.67,.13-1.01,.14-.09,0-.15,0-.21,0h-.56l-5.96,.03c-3.97,0-7.94,0-11.91-.04l-2.98-.04h-.31c-.08,0-.15,0-.23,.02-.15,.02-.3,.06-.44,.12-.28,.12-.55,.3-.75,.54-.2,.24-.35,.52-.41,.82-.06,.3-.06,.63,.02,.93,.16,.61,.66,1.13,1.27,1.36,.32,.12,.58,.13,1.14,.14l1.49,.04,2.98,.07c1.99,.04,3.97,.12,5.96,.19,1.2,0,2.41,.63,3.07,1.63,.68,.99,.82,2.3,.38,3.37-.42,1.08-1.39,1.9-2.48,2.12-.27,.06-.55,.09-.82,.08-.27,0-.5-.02-.75-.03l-1.49-.08,.21-.21-.21,3.31-.21-3.31c0-.11,.07-.2,.18-.21h.03l1.49-.08c.24-.01,.51-.02,.74-.04,.22-.02,.44-.06,.65-.13,.83-.28,1.5-.96,1.73-1.76,.25-.8,.06-1.69-.45-2.29-.5-.62-1.27-.96-2.06-.91-1.99,.06-3.97,.15-5.96,.19l-2.98,.07-1.49,.04c-.26,0-.46,.02-.82,0-.33-.02-.66-.08-.98-.17-1.28-.38-2.34-1.43-2.74-2.73-.2-.65-.24-1.34-.12-2.01,.12-.67,.42-1.31,.84-1.84,.42-.53,.98-.96,1.6-1.24,.31-.14,.64-.24,.98-.3,.17-.03,.34-.06,.51-.06h.43l2.98-.05c3.97-.03,7.94-.05,11.91-.04l5.96,.02h.56c.06,0,.13,0,.16,0,.16,0,.31-.02,.47-.06,.3-.07,.59-.21,.84-.41,.49-.4,.81-1,.8-1.64,0-.63-.29-1.27-.81-1.67-.26-.2-.56-.35-.88-.43l-.24-.04-.26-.02h-.74c-1.99-.03-3.97-.1-5.96-.14-1.99-.05-3.97-.09-5.96-.16l-2.98-.1c-1.15-.01-2.33-.49-3.13-1.32-.81-.82-1.27-1.96-1.25-3.08,0-1.12,.49-2.21,1.28-2.95,.78-.75,1.85-1.16,2.9-1.12,1,.05,1.99,.11,2.98,.18Z"/></g></g></g></g></svg>