<?xml version="1.0" encoding="UTF-8"?><svg id="a" xmlns="http://www.w3.org/2000/svg" xmlns:xlink="http://www.w3.org/1999/xlink" viewBox="0 0 800 373.15"><defs><style>.f{fill:#fadc94;stroke:#f7975a;}.f,.g,.h,.i,.j,.k,.l,.m,.n{stroke-miterlimit:10;stroke-width:2px;}.o{fill:#3bb54a;}.p{fill:url(#c);}.q,.n{fill:#51b5e7;}.g{stroke:url(#e);}.g,.m{fill:#d6b1fb;}.h{stroke:#51b5e7;}.h,.i{stroke-linecap:round;}.h,.i,.k{fill:none;}.r{fill:#f7975a;}.i{stroke:#f48993;}.j{fill:#f48993;}.j,.k{stroke:#c84548;}.l{fill:#b3dbb6;stroke:#3bb54a;}.s{fill:url(#d);}.m{stroke:url(#b);}.t{fill:#f1f1f2;}.n{stroke:#0f71b9;}.u{fill:#231f20;}</style><linearGradient id="b" x1="541.25" y1="285.32" x2="734.01" y2="285.32" gradientTransform="matrix(1, 0, 0, 1, 0, 0)" gradientUnits="userSpaceOnUse"><stop offset="0" stop-color="#7847ff"/><stop offset="1" stop-color="#952cf1"/></linearGradient><linearGradient id="c" x1="565.68" y1="283.15" x2="587.55" y2="283.15" xlink:href="#b"/><linearGradient id="d" x1="557.67" y1="287.15" x2="586.85" y2="287.15" xlink:href="#b"/><linearGradient id="e" x1="623.35" y1="316.86" x2="651.91" y2="316.86" xlink:href="#b"/></defs><polyline class="h" points="162.37 262.23 162.37 215.7 637.63 215.7 637.63 262.23"/><g><line class="h" x1="400" y1="251.82" x2="400" y2="194.96"/><polygon class="q" points="404.99 196.42 400 187.78 395.01 196.42 404.99 196.42"/></g><line class="i" x1="400" y1="125.77" x2="400" y2="80.46"/><rect class="n" x="66.99" y="125.77" width="666.02" height="45.8" rx="11" ry="11"/><rect class="l" x="304.62" y="253.79" width="190.76" height="63.06" rx="10.84" ry="10.84"/><g><path class="u" d="M374.03,280.61v10.18h-1.54v-10.18h1.54Z"/><path class="u" d="M377.63,286.26v4.53h-1.49v-7.64h1.43v1.24h.09c.18-.4,.45-.73,.83-.97,.38-.25,.85-.37,1.42-.37,.52,0,.98,.11,1.37,.33,.39,.22,.69,.54,.91,.97,.21,.43,.32,.96,.32,1.59v4.86h-1.49v-4.68c0-.55-.14-.99-.43-1.3-.29-.31-.68-.47-1.19-.47-.34,0-.65,.08-.92,.22-.27,.15-.48,.37-.63,.65-.15,.29-.23,.63-.23,1.04Z"/><path class="u" d="M388.07,283.15v1.19h-4.17v-1.19h4.17Zm-3.05-1.83h1.49v7.22c0,.29,.04,.5,.13,.65,.09,.14,.2,.24,.34,.29,.14,.05,.29,.08,.45,.08,.12,0,.22,0,.31-.03,.09-.02,.16-.03,.21-.04l.27,1.23c-.09,.03-.21,.07-.37,.1-.16,.03-.36,.05-.6,.06-.39,0-.76-.06-1.09-.21-.34-.15-.61-.37-.82-.68s-.31-.69-.31-1.15v-7.53Z"/><path class="u" d="M392.93,290.94c-.75,0-1.4-.16-1.94-.48s-.96-.78-1.25-1.37c-.29-.59-.44-1.28-.44-2.07s.15-1.47,.44-2.07c.29-.6,.7-1.06,1.23-1.4,.53-.33,1.15-.5,1.86-.5,.43,0,.85,.07,1.25,.21s.77,.37,1.09,.67,.58,.7,.76,1.19,.28,1.08,.28,1.77v.53h-6.07v-1.11h4.61c0-.39-.08-.74-.24-1.04-.16-.3-.38-.54-.67-.72s-.62-.26-1.01-.26c-.42,0-.78,.1-1.09,.31-.31,.2-.55,.47-.72,.8-.17,.33-.25,.68-.25,1.06v.87c0,.51,.09,.94,.27,1.3,.18,.36,.43,.63,.76,.82,.32,.19,.7,.28,1.14,.28,.28,0,.54-.04,.77-.12s.43-.2,.6-.37c.17-.16,.3-.36,.39-.6l1.41,.25c-.11,.42-.31,.78-.6,1.09-.29,.31-.65,.55-1.09,.72-.44,.17-.93,.26-1.49,.26Z"/><path class="u" d="M397.86,290.79v-7.64h1.44v1.21h.08c.14-.41,.39-.74,.74-.97,.35-.24,.75-.36,1.2-.36,.09,0,.2,0,.33,0s.23,.01,.3,.02v1.42c-.06-.02-.17-.04-.32-.06s-.3-.03-.46-.03c-.35,0-.66,.07-.94,.22s-.49,.35-.65,.61c-.16,.26-.24,.56-.24,.89v4.66h-1.49Z"/><path class="u" d="M404.72,286.26v4.53h-1.49v-7.64h1.43v1.24h.09c.18-.4,.45-.73,.83-.97,.38-.25,.85-.37,1.42-.37,.52,0,.98,.11,1.37,.33,.39,.22,.69,.54,.91,.97,.21,.43,.32,.96,.32,1.59v4.86h-1.49v-4.68c0-.55-.14-.99-.43-1.3-.29-.31-.68-.47-1.19-.47-.34,0-.65,.08-.92,.22-.27,.15-.48,.37-.63,.65-.15,.29-.23,.63-.23,1.04Z"/><path class="u" d="M413.82,290.96c-.48,0-.92-.09-1.31-.27s-.7-.44-.93-.79c-.23-.34-.34-.77-.34-1.27,0-.43,.08-.79,.25-1.06,.17-.28,.39-.5,.67-.66,.28-.16,.6-.29,.95-.37,.35-.08,.7-.15,1.06-.19,.46-.05,.83-.1,1.11-.13,.29-.03,.49-.09,.62-.17,.13-.08,.19-.21,.19-.39v-.03c0-.43-.12-.77-.37-1.01-.24-.24-.61-.36-1.09-.36s-.89,.11-1.18,.33c-.29,.22-.49,.46-.59,.73l-1.4-.32c.17-.46,.41-.84,.73-1.13,.32-.29,.69-.5,1.11-.63,.42-.13,.86-.2,1.32-.2,.3,0,.63,.04,.97,.11s.67,.2,.96,.39c.3,.19,.55,.46,.74,.81,.19,.35,.29,.8,.29,1.36v5.07h-1.45v-1.04h-.06c-.1,.19-.24,.38-.43,.57-.19,.19-.44,.34-.74,.46-.3,.12-.66,.18-1.08,.18Zm.32-1.19c.41,0,.76-.08,1.06-.24s.52-.38,.67-.64c.15-.26,.23-.55,.23-.85v-.98c-.05,.05-.16,.1-.31,.15-.15,.04-.32,.08-.51,.11-.19,.03-.38,.06-.56,.08l-.46,.06c-.29,.04-.55,.1-.79,.18-.24,.09-.43,.21-.57,.37-.14,.16-.21,.37-.21,.64,0,.37,.14,.65,.41,.83s.62,.28,1.04,.28Z"/><path class="u" d="M421.06,280.61v10.18h-1.49v-10.18h1.49Z"/><path class="u" d="M432.44,283.28c-.05-.47-.27-.84-.66-1.1-.38-.26-.87-.39-1.45-.39-.42,0-.78,.07-1.08,.2-.3,.13-.54,.31-.71,.54-.17,.23-.25,.48-.25,.77,0,.24,.06,.45,.17,.63,.11,.18,.26,.32,.45,.44,.19,.12,.39,.22,.6,.29,.21,.08,.42,.14,.62,.19l.99,.26c.32,.08,.66,.19,1,.32,.34,.14,.66,.32,.95,.54,.29,.22,.53,.5,.71,.83s.27,.72,.27,1.18c0,.58-.15,1.09-.44,1.54-.3,.45-.73,.8-1.29,1.06-.56,.26-1.24,.39-2.04,.39s-1.42-.12-1.98-.36c-.56-.24-.99-.59-1.31-1.03-.31-.45-.49-.97-.52-1.59h1.54c.03,.37,.15,.67,.36,.92,.21,.24,.48,.42,.81,.54,.33,.12,.69,.18,1.09,.18,.43,0,.82-.07,1.16-.21,.34-.14,.61-.33,.8-.58s.29-.54,.29-.87c0-.3-.08-.55-.26-.74-.17-.19-.4-.35-.69-.48s-.62-.24-.98-.33l-1.2-.33c-.82-.22-1.46-.55-1.94-.98-.47-.43-.71-1-.71-1.71,0-.59,.16-1.1,.48-1.54,.32-.44,.75-.78,1.29-1.02,.54-.24,1.16-.37,1.84-.37s1.3,.12,1.83,.36,.95,.57,1.25,1c.3,.42,.46,.91,.48,1.45h-1.48Z"/><path class="u" d="M436.71,293.65c-.22,0-.42-.02-.61-.05-.18-.03-.32-.07-.41-.11l.36-1.22c.27,.07,.51,.1,.73,.09,.21,0,.4-.09,.56-.24,.16-.15,.31-.39,.44-.73l.18-.51-2.79-7.74h1.59l1.93,5.93h.08l1.93-5.93h1.6l-3.15,8.66c-.15,.4-.33,.73-.56,1.01-.23,.28-.49,.48-.81,.62-.31,.14-.67,.21-1.08,.21Z"/><path class="u" d="M449.42,285.02l-1.35,.24c-.06-.17-.15-.34-.27-.49-.12-.16-.28-.28-.49-.38s-.46-.15-.77-.15c-.42,0-.77,.09-1.05,.28-.28,.19-.42,.43-.42,.72,0,.25,.09,.46,.28,.62s.49,.28,.92,.38l1.21,.28c.7,.16,1.23,.41,1.57,.75,.34,.34,.52,.78,.52,1.32,0,.46-.13,.86-.4,1.22s-.63,.64-1.1,.84c-.47,.2-1.01,.3-1.63,.3-.86,0-1.55-.18-2.09-.55s-.87-.89-1-1.56l1.44-.22c.09,.38,.27,.66,.55,.85,.28,.19,.64,.29,1.09,.29,.49,0,.88-.1,1.17-.31,.29-.2,.44-.45,.44-.75,0-.24-.09-.44-.27-.6s-.45-.29-.81-.37l-1.29-.28c-.71-.16-1.24-.42-1.58-.78s-.51-.8-.51-1.35c0-.45,.12-.84,.38-1.18,.25-.34,.6-.6,1.04-.79,.44-.19,.95-.29,1.53-.29,.83,0,1.48,.18,1.95,.53,.47,.36,.79,.83,.94,1.43Z"/><path class="u" d="M454.77,283.15v1.19h-4.17v-1.19h4.17Zm-3.05-1.83h1.49v7.22c0,.29,.04,.5,.13,.65,.09,.14,.2,.24,.34,.29,.14,.05,.29,.08,.45,.08,.12,0,.22,0,.31-.03,.09-.02,.16-.03,.21-.04l.27,1.23c-.09,.03-.21,.07-.37,.1-.16,.03-.36,.05-.6,.06-.39,0-.76-.06-1.09-.21-.34-.15-.61-.37-.82-.68s-.31-.69-.31-1.15v-7.53Z"/><path class="u" d="M459.62,290.94c-.75,0-1.4-.16-1.94-.48s-.96-.78-1.25-1.37c-.29-.59-.44-1.28-.44-2.07s.15-1.47,.44-2.07c.29-.6,.7-1.06,1.23-1.4,.53-.33,1.15-.5,1.86-.5,.43,0,.85,.07,1.25,.21s.77,.37,1.09,.67,.58,.7,.76,1.19,.28,1.08,.28,1.77v.53h-6.07v-1.11h4.61c0-.39-.08-.74-.24-1.04-.16-.3-.38-.54-.67-.72s-.62-.26-1.01-.26c-.42,0-.78,.1-1.09,.31-.31,.2-.55,.47-.72,.8-.17,.33-.25,.68-.25,1.06v.87c0,.51,.09,.94,.27,1.3,.18,.36,.43,.63,.76,.82,.32,.19,.7,.28,1.14,.28,.28,0,.54-.04,.77-.12s.43-.2,.6-.37c.17-.16,.3-.36,.39-.6l1.41,.25c-.11,.42-.31,.78-.6,1.09-.29,.31-.65,.55-1.09,.72-.44,.17-.93,.26-1.49,.26Z"/><path class="u" d="M464.55,290.79v-7.64h1.43v1.24h.09c.16-.42,.42-.75,.78-.99,.36-.24,.79-.36,1.3-.36s.94,.12,1.29,.36c.35,.24,.6,.57,.77,.98h.08c.18-.41,.47-.73,.87-.98,.4-.24,.87-.37,1.42-.37,.69,0,1.26,.22,1.7,.65,.44,.43,.66,1.09,.66,1.96v5.12h-1.49v-4.98c0-.52-.14-.89-.42-1.12-.28-.23-.62-.35-1.01-.35-.48,0-.86,.15-1.13,.45-.27,.3-.4,.68-.4,1.14v4.87h-1.48v-5.08c0-.41-.13-.75-.39-1s-.59-.38-1.01-.38c-.28,0-.54,.07-.78,.22s-.43,.35-.57,.61c-.14,.26-.22,.56-.22,.91v4.71h-1.49Z"/></g><g><path class="o" d="M329,293.87c.17,.09,.35,.15,.52,.22h11.6c.24-.11,.5-.19,.72-.33,.67-.44,.94-1.27,.7-2.03-.24-.77-.93-1.28-1.76-1.28-2.03,0-4.06,0-6.09,0-.11,0-.22,0-.34,0l-.05-.09c.1-.09,.22-.16,.31-.26,4.85-4.85,9.7-9.7,14.55-14.55,.12-.12,.24-.24,.35-.37,.82-1.02,.33-2.54-.92-2.88-.75-.21-1.37,.04-1.92,.58-4.88,4.89-9.77,9.78-14.66,14.67-.09,.09-.19,.18-.33,.31,0-.34,0-.6,0-.85,0-1.89,0-3.78,0-5.67,0-.91-.67-1.67-1.53-1.79-.93-.13-1.75,.38-2.04,1.27-.02,.07-.05,.14-.08,.21v11.6c.18,.52,.44,.99,.96,1.25Z"/><path class="o" d="M347.25,287.16c-1,.09-1.68,.86-1.69,1.91,0,2.33-.03,4.66,.01,6.99,.02,1.23-.88,2.05-2.03,2.04-5.95-.03-11.9-.01-17.85-.01-1.27,0-2.01-.73-2.01-2.01,0-5.96,0-11.92,0-17.88,0-1.25,.74-1.98,1.99-1.98,2.35,0,4.7,0,7.05,0,1.09,0,1.9-.81,1.89-1.84-.01-1.03-.81-1.8-1.89-1.8-2.4,0-4.81-.01-7.21,0-3.1,.02-5.48,2.42-5.48,5.53,0,6.04,0,12.07,0,18.11,0,.36,.03,.73,.1,1.08,.53,2.64,2.73,4.44,5.42,4.45,3.01,0,6.02,0,9.04,0,2.99,0,5.98,0,8.97,0,.31,0,.62-.02,.93-.06,2.52-.3,4.64-2.54,4.69-5.07,.05-2.57,.03-5.15,.01-7.72,0-1.02-.94-1.81-1.95-1.72Z"/></g><rect class="m" x="542.25" y="253.79" width="190.76" height="63.06" rx="10.84" ry="10.84"/><g><path class="u" d="M611.66,280.61v10.18h-1.54v-10.18h1.54Z"/><path class="u" d="M615.26,286.26v4.53h-1.49v-7.64h1.43v1.24h.09c.18-.4,.45-.73,.83-.97,.38-.25,.85-.37,1.42-.37,.52,0,.98,.11,1.37,.33,.39,.22,.69,.54,.91,.97,.22,.43,.32,.96,.32,1.59v4.86h-1.49v-4.68c0-.55-.14-.99-.43-1.3-.29-.31-.68-.47-1.19-.47-.34,0-.65,.08-.92,.22-.27,.15-.48,.37-.63,.65-.15,.29-.23,.63-.23,1.04Z"/><path class="u" d="M625.7,283.15v1.19h-4.17v-1.19h4.17Zm-3.05-1.83h1.49v7.22c0,.29,.04,.5,.13,.65,.09,.14,.2,.24,.34,.29,.14,.05,.29,.08,.45,.08,.12,0,.22,0,.31-.03s.16-.03,.21-.04l.27,1.23c-.09,.03-.21,.07-.37,.1-.16,.03-.36,.05-.6,.06-.39,0-.76-.06-1.09-.21-.34-.15-.61-.37-.82-.68s-.31-.69-.31-1.15v-7.53Z"/><path class="u" d="M630.56,290.94c-.75,0-1.4-.16-1.94-.48s-.96-.78-1.25-1.37c-.29-.59-.44-1.28-.44-2.07s.15-1.47,.44-2.07c.29-.6,.7-1.06,1.23-1.4,.53-.33,1.15-.5,1.86-.5,.43,0,.85,.07,1.25,.21s.77,.37,1.09,.67,.58,.7,.76,1.19,.28,1.08,.28,1.77v.53h-6.07v-1.11h4.61c0-.39-.08-.74-.24-1.04-.16-.3-.38-.54-.67-.72-.29-.18-.62-.26-1.01-.26-.42,0-.78,.1-1.09,.31-.31,.2-.55,.47-.72,.8s-.25,.68-.25,1.06v.87c0,.51,.09,.94,.27,1.3,.18,.36,.43,.63,.76,.82,.32,.19,.7,.28,1.14,.28,.28,0,.54-.04,.77-.12,.23-.08,.43-.2,.6-.37,.17-.16,.3-.36,.39-.6l1.41,.25c-.11,.42-.31,.78-.6,1.09-.29,.31-.65,.55-1.09,.72s-.93,.26-1.49,.26Z"/><path class="u" d="M635.49,290.79v-7.64h1.44v1.21h.08c.14-.41,.39-.74,.74-.97,.35-.24,.75-.36,1.2-.36,.09,0,.2,0,.33,0,.13,0,.23,.01,.3,.02v1.42c-.06-.02-.17-.04-.32-.06s-.3-.03-.46-.03c-.35,0-.66,.07-.94,.22s-.49,.35-.65,.61c-.16,.26-.24,.56-.24,.89v4.66h-1.49Z"/><path class="u" d="M642.35,286.26v4.53h-1.49v-7.64h1.43v1.24h.09c.18-.4,.45-.73,.83-.97,.38-.25,.85-.37,1.42-.37,.52,0,.98,.11,1.37,.33,.39,.22,.69,.54,.91,.97,.22,.43,.32,.96,.32,1.59v4.86h-1.49v-4.68c0-.55-.14-.99-.43-1.3-.29-.31-.68-.47-1.19-.47-.34,0-.65,.08-.92,.22-.27,.15-.48,.37-.63,.65-.15,.29-.23,.63-.23,1.04Z"/><path class="u" d="M651.45,290.96c-.48,0-.92-.09-1.31-.27-.39-.18-.7-.44-.93-.79-.23-.34-.34-.77-.34-1.27,0-.43,.08-.79,.25-1.06,.17-.28,.39-.5,.67-.66,.28-.16,.6-.29,.94-.37,.35-.08,.7-.15,1.06-.19,.46-.05,.83-.1,1.11-.13,.29-.03,.49-.09,.62-.17,.13-.08,.19-.21,.19-.39v-.03c0-.43-.12-.77-.37-1.01-.24-.24-.61-.36-1.09-.36s-.89,.11-1.18,.33c-.29,.22-.48,.46-.59,.73l-1.4-.32c.17-.46,.41-.84,.73-1.13,.32-.29,.69-.5,1.11-.63,.42-.13,.86-.2,1.32-.2,.3,0,.63,.04,.97,.11s.67,.2,.96,.39c.3,.19,.55,.46,.74,.81s.29,.8,.29,1.36v5.07h-1.45v-1.04h-.06c-.1,.19-.24,.38-.43,.57-.19,.19-.44,.34-.74,.46-.3,.12-.66,.18-1.08,.18Zm.32-1.19c.41,0,.76-.08,1.06-.24s.52-.38,.67-.64,.23-.55,.23-.85v-.98c-.05,.05-.16,.1-.31,.15-.15,.04-.32,.08-.51,.11s-.38,.06-.56,.08c-.18,.02-.33,.04-.46,.06-.29,.04-.55,.1-.79,.18-.24,.09-.43,.21-.57,.37s-.21,.37-.21,.64c0,.37,.14,.65,.41,.83s.62,.28,1.04,.28Z"/><path class="u" d="M658.68,280.61v10.18h-1.49v-10.18h1.49Z"/><path class="u" d="M670.06,283.28c-.05-.47-.27-.84-.66-1.1-.38-.26-.87-.39-1.45-.39-.42,0-.78,.07-1.08,.2s-.54,.31-.71,.54c-.17,.23-.25,.48-.25,.77,0,.24,.06,.45,.17,.63s.26,.32,.45,.44c.19,.12,.39,.22,.6,.29,.21,.08,.42,.14,.62,.19l.99,.26c.33,.08,.66,.19,1,.32,.34,.14,.66,.32,.95,.54,.29,.22,.53,.5,.71,.83s.27,.72,.27,1.18c0,.58-.15,1.09-.45,1.54s-.73,.8-1.29,1.06c-.56,.26-1.24,.39-2.04,.39s-1.42-.12-1.98-.36c-.56-.24-.99-.59-1.31-1.03-.32-.45-.49-.97-.52-1.59h1.54c.03,.37,.15,.67,.36,.92,.21,.24,.48,.42,.81,.54,.33,.12,.69,.18,1.09,.18,.43,0,.82-.07,1.16-.21,.34-.14,.61-.33,.8-.58,.2-.25,.29-.54,.29-.87,0-.3-.08-.55-.26-.74s-.4-.35-.69-.48-.62-.24-.98-.33l-1.2-.33c-.82-.22-1.46-.55-1.94-.98s-.71-1-.71-1.71c0-.59,.16-1.1,.48-1.54s.75-.78,1.29-1.02c.54-.24,1.16-.37,1.84-.37s1.3,.12,1.83,.36c.53,.24,.95,.57,1.25,1,.3,.42,.46,.91,.48,1.45h-1.48Z"/><path class="u" d="M674.34,293.65c-.22,0-.42-.02-.61-.05-.18-.03-.32-.07-.41-.11l.36-1.22c.27,.07,.51,.1,.73,.09,.21,0,.4-.09,.56-.24,.16-.15,.31-.39,.44-.73l.18-.51-2.79-7.74h1.59l1.93,5.93h.08l1.93-5.93h1.6l-3.15,8.66c-.15,.4-.33,.73-.56,1.01-.23,.28-.49,.48-.81,.62-.31,.14-.67,.21-1.08,.21Z"/><path class="u" d="M687.05,285.02l-1.35,.24c-.06-.17-.14-.34-.27-.49-.12-.16-.28-.28-.49-.38-.21-.1-.46-.15-.77-.15-.42,0-.77,.09-1.05,.28-.28,.19-.42,.43-.42,.72,0,.25,.09,.46,.28,.62,.19,.16,.49,.28,.92,.38l1.21,.28c.7,.16,1.23,.41,1.57,.75s.52,.78,.52,1.32c0,.46-.13,.86-.39,1.22-.26,.36-.63,.64-1.1,.84-.47,.2-1.01,.3-1.63,.3-.85,0-1.55-.18-2.09-.55s-.87-.89-.99-1.56l1.44-.22c.09,.38,.27,.66,.55,.85,.28,.19,.64,.29,1.09,.29,.49,0,.88-.1,1.17-.31,.29-.2,.44-.45,.44-.75,0-.24-.09-.44-.27-.6-.18-.16-.45-.29-.81-.37l-1.29-.28c-.71-.16-1.24-.42-1.58-.78s-.51-.8-.51-1.35c0-.45,.13-.84,.38-1.18,.25-.34,.6-.6,1.04-.79,.44-.19,.95-.29,1.53-.29,.83,0,1.47,.18,1.95,.53,.47,.36,.79,.83,.94,1.43Z"/><path class="u" d="M692.4,283.15v1.19h-4.17v-1.19h4.17Zm-3.05-1.83h1.49v7.22c0,.29,.04,.5,.13,.65,.09,.14,.2,.24,.34,.29,.14,.05,.29,.08,.45,.08,.12,0,.22,0,.31-.03s.16-.03,.21-.04l.27,1.23c-.09,.03-.21,.07-.37,.1-.16,.03-.36,.05-.6,.06-.39,0-.76-.06-1.09-.21-.34-.15-.61-.37-.82-.68s-.31-.69-.31-1.15v-7.53Z"/><path class="u" d="M697.25,290.94c-.75,0-1.4-.16-1.94-.48s-.96-.78-1.25-1.37c-.29-.59-.44-1.28-.44-2.07s.15-1.47,.44-2.07c.29-.6,.7-1.06,1.23-1.4,.53-.33,1.15-.5,1.86-.5,.43,0,.85,.07,1.25,.21s.77,.37,1.09,.67,.58,.7,.76,1.19,.28,1.08,.28,1.77v.53h-6.07v-1.11h4.61c0-.39-.08-.74-.24-1.04-.16-.3-.38-.54-.67-.72-.29-.18-.62-.26-1.01-.26-.42,0-.78,.1-1.09,.31-.31,.2-.55,.47-.72,.8s-.25,.68-.25,1.06v.87c0,.51,.09,.94,.27,1.3,.18,.36,.43,.63,.76,.82,.32,.19,.7,.28,1.14,.28,.28,0,.54-.04,.77-.12,.23-.08,.43-.2,.6-.37,.17-.16,.3-.36,.39-.6l1.41,.25c-.11,.42-.31,.78-.6,1.09-.29,.31-.65,.55-1.09,.72s-.93,.26-1.49,.26Z"/><path class="u" d="M702.18,290.79v-7.64h1.43v1.24h.09c.16-.42,.42-.75,.78-.99,.36-.24,.79-.36,1.3-.36s.94,.12,1.29,.36c.35,.24,.6,.57,.77,.98h.08c.18-.41,.47-.73,.87-.98,.4-.24,.87-.37,1.42-.37,.69,0,1.26,.22,1.7,.65,.44,.43,.66,1.09,.66,1.96v5.12h-1.49v-4.98c0-.52-.14-.89-.42-1.12-.28-.23-.62-.35-1.01-.35-.48,0-.86,.15-1.13,.45s-.4,.68-.4,1.14v4.87h-1.48v-5.08c0-.41-.13-.75-.39-1-.26-.25-.59-.38-1.01-.38-.28,0-.54,.07-.78,.22s-.43,.35-.57,.61c-.14,.26-.22,.56-.22,.91v4.71h-1.49Z"/></g><g><path class="p" d="M566.63,293.87c.17,.09,.35,.15,.52,.22h11.6c.24-.11,.5-.19,.72-.33,.67-.44,.94-1.27,.7-2.03-.24-.77-.93-1.28-1.76-1.28-2.03,0-4.06,0-6.09,0-.11,0-.22,0-.34,0l-.05-.09c.1-.09,.22-.16,.31-.26,4.85-4.85,9.7-9.7,14.55-14.55,.12-.12,.24-.24,.35-.37,.82-1.02,.33-2.54-.92-2.88-.75-.21-1.37,.04-1.92,.58-4.88,4.89-9.77,9.78-14.66,14.67-.09,.09-.19,.18-.33,.31,0-.34,0-.6,0-.85,0-1.89,0-3.78,0-5.67,0-.91-.67-1.67-1.53-1.79-.93-.13-1.75,.38-2.04,1.27-.02,.07-.05,.14-.08,.21v11.6c.18,.52,.44,.99,.96,1.25Z"/><path class="s" d="M584.88,287.16c-1,.09-1.68,.86-1.69,1.91,0,2.33-.03,4.66,.01,6.99,.02,1.23-.88,2.05-2.03,2.04-5.95-.03-11.9-.01-17.85-.01-1.27,0-2.01-.73-2.01-2.01,0-5.96,0-11.92,0-17.88,0-1.25,.74-1.98,1.99-1.98,2.35,0,4.7,0,7.05,0,1.09,0,1.9-.81,1.89-1.84-.01-1.03-.81-1.8-1.89-1.8-2.4,0-4.81-.01-7.21,0-3.1,.02-5.48,2.42-5.48,5.53,0,6.04,0,12.07,0,18.11,0,.36,.03,.73,.1,1.08,.53,2.64,2.73,4.44,5.42,4.45,3.01,0,6.02,0,9.04,0,2.99,0,5.98,0,8.97,0,.31,0,.62-.02,.93-.06,2.52-.3,4.64-2.54,4.69-5.07,.05-2.57,.03-5.15,.01-7.72,0-1.02-.94-1.81-1.95-1.72Z"/></g><g><g><path class="u" d="M360.39,154.7h-1.63l3.66-10.18h1.78l3.66,10.18h-1.63l-2.88-8.33h-.08l-2.88,8.33Zm.27-3.99h5.29v1.29h-5.29v-1.29Z"/><path class="u" d="M369.33,154.7v-10.18h3.63c.79,0,1.45,.14,1.97,.43,.52,.29,.91,.68,1.17,1.18,.26,.5,.39,1.06,.39,1.68s-.13,1.19-.39,1.69c-.26,.5-.65,.89-1.17,1.18s-1.18,.43-1.97,.43h-2.5v-1.3h2.36c.5,0,.91-.09,1.22-.26,.31-.17,.54-.41,.69-.71s.22-.64,.22-1.03-.07-.73-.22-1.02c-.15-.3-.38-.53-.69-.7-.31-.17-.73-.25-1.24-.25h-1.93v8.86h-1.54Z"/><path class="u" d="M379.81,144.51v10.18h-1.54v-10.18h1.54Z"/><path class="u" d="M392.65,147.73c-.1-.3-.22-.57-.38-.81-.16-.24-.35-.45-.57-.62-.22-.17-.47-.3-.76-.39s-.59-.13-.93-.13c-.57,0-1.09,.15-1.55,.44-.46,.29-.82,.73-1.09,1.29s-.4,1.26-.4,2.09,.13,1.52,.4,2.09c.27,.57,.64,1,1.1,1.3s1,.44,1.6,.44c.55,0,1.04-.11,1.45-.34,.41-.22,.73-.54,.96-.96,.23-.41,.34-.9,.34-1.46l.4,.08h-2.91v-1.27h4v1.16c0,.85-.18,1.6-.54,2.22s-.86,1.11-1.5,1.45c-.64,.34-1.37,.51-2.19,.51-.92,0-1.73-.21-2.42-.64s-1.24-1.03-1.62-1.81c-.39-.78-.58-1.71-.58-2.78,0-.81,.11-1.54,.34-2.19,.23-.65,.54-1.2,.95-1.65,.41-.45,.89-.8,1.45-1.04s1.16-.36,1.82-.36c.55,0,1.06,.08,1.54,.24,.48,.16,.9,.39,1.27,.69,.37,.3,.68,.65,.93,1.06,.25,.41,.41,.86,.5,1.36h-1.58Z"/><path class="u" d="M398.35,154.86c-.48,0-.92-.09-1.31-.27-.39-.18-.7-.44-.93-.79-.23-.34-.34-.77-.34-1.27,0-.43,.08-.79,.25-1.06,.17-.28,.39-.5,.67-.66,.28-.16,.6-.29,.95-.37,.35-.08,.7-.15,1.06-.19,.46-.05,.83-.1,1.11-.13s.49-.09,.62-.17c.13-.08,.19-.21,.19-.39v-.04c0-.43-.12-.77-.37-1.01-.24-.24-.61-.36-1.09-.36s-.89,.11-1.18,.33c-.29,.22-.49,.46-.59,.73l-1.4-.32c.17-.46,.41-.84,.73-1.13s.69-.5,1.11-.63c.42-.13,.86-.2,1.32-.2,.3,0,.63,.04,.97,.11s.67,.2,.96,.39c.3,.19,.55,.46,.74,.81,.19,.35,.29,.8,.29,1.36v5.07h-1.45v-1.04h-.06c-.1,.19-.24,.38-.43,.57-.19,.19-.44,.34-.74,.46-.3,.12-.66,.18-1.08,.18Zm.32-1.19c.41,0,.76-.08,1.06-.24s.52-.38,.67-.64c.15-.26,.23-.55,.23-.85v-.98c-.05,.05-.16,.1-.31,.15-.15,.04-.32,.08-.51,.11-.19,.03-.38,.06-.56,.08l-.46,.06c-.29,.04-.55,.1-.79,.18-.24,.09-.43,.21-.57,.37-.14,.16-.21,.38-.21,.64,0,.37,.14,.65,.41,.83s.62,.28,1.04,.28Z"/><path class="u" d="M407.66,147.06v1.19h-4.17v-1.19h4.17Zm-3.05-1.83h1.49v7.22c0,.29,.04,.5,.13,.65,.09,.14,.2,.24,.34,.29,.14,.05,.29,.08,.45,.08,.12,0,.22,0,.31-.03s.16-.03,.21-.04l.27,1.23c-.09,.03-.21,.07-.37,.1-.16,.03-.36,.05-.6,.06-.39,0-.76-.06-1.09-.21-.34-.15-.61-.37-.82-.68-.21-.3-.31-.69-.31-1.15v-7.53Z"/><path class="u" d="M412.51,154.85c-.75,0-1.4-.16-1.94-.48-.54-.32-.96-.78-1.25-1.37-.29-.59-.44-1.28-.44-2.07s.15-1.47,.44-2.07c.29-.6,.7-1.06,1.23-1.4,.53-.33,1.15-.5,1.86-.5,.43,0,.85,.07,1.25,.21s.77,.37,1.09,.67c.32,.31,.57,.7,.76,1.19,.19,.49,.28,1.08,.28,1.77v.53h-6.07v-1.11h4.61c0-.39-.08-.74-.24-1.04-.16-.3-.38-.54-.67-.72s-.62-.26-1.01-.26c-.42,0-.78,.1-1.09,.31s-.55,.47-.72,.8c-.17,.33-.25,.68-.25,1.06v.87c0,.51,.09,.94,.27,1.3,.18,.36,.43,.63,.76,.82,.33,.19,.71,.28,1.14,.28,.28,0,.54-.04,.77-.12,.23-.08,.43-.2,.6-.37,.17-.16,.3-.36,.39-.6l1.41,.25c-.11,.42-.31,.78-.6,1.09-.29,.31-.65,.55-1.09,.72-.44,.17-.93,.26-1.49,.26Z"/><path class="u" d="M419.08,154.7l-2.25-7.64h1.54l1.5,5.61h.08l1.5-5.61h1.54l1.49,5.58h.08l1.49-5.58h1.54l-2.24,7.64h-1.52l-1.55-5.51h-.11l-1.55,5.51h-1.51Z"/><path class="u" d="M431.19,154.86c-.48,0-.92-.09-1.31-.27-.39-.18-.7-.44-.93-.79-.23-.34-.34-.77-.34-1.27,0-.43,.08-.79,.25-1.06,.17-.28,.39-.5,.67-.66s.6-.29,.95-.37c.35-.08,.7-.15,1.06-.19,.46-.05,.83-.1,1.11-.13s.49-.09,.62-.17c.13-.08,.19-.21,.19-.39v-.04c0-.43-.12-.77-.37-1.01s-.61-.36-1.09-.36-.89,.11-1.18,.33c-.29,.22-.48,.46-.59,.73l-1.4-.32c.17-.46,.41-.84,.73-1.13,.32-.29,.69-.5,1.11-.63s.86-.2,1.32-.2c.31,0,.63,.04,.97,.11,.34,.07,.67,.2,.96,.39,.3,.19,.55,.46,.74,.81s.29,.8,.29,1.36v5.07h-1.45v-1.04h-.06c-.1,.19-.24,.38-.43,.57-.19,.19-.44,.34-.74,.46-.3,.12-.66,.18-1.08,.18Zm.32-1.19c.41,0,.76-.08,1.06-.24,.29-.16,.52-.38,.67-.64s.23-.55,.23-.85v-.98c-.05,.05-.16,.1-.31,.15s-.32,.08-.51,.11c-.19,.03-.38,.06-.56,.08-.18,.02-.33,.04-.46,.06-.29,.04-.55,.1-.79,.18-.24,.09-.43,.21-.57,.37-.14,.16-.21,.38-.21,.64,0,.37,.14,.65,.41,.83,.27,.19,.62,.28,1.04,.28Z"/><path class="u" d="M437.6,157.56c-.22,0-.42-.02-.61-.05-.18-.03-.32-.07-.41-.11l.36-1.22c.27,.07,.51,.1,.73,.09,.21,0,.4-.09,.56-.24,.16-.15,.31-.39,.43-.73l.18-.51-2.79-7.74h1.59l1.93,5.93h.08l1.93-5.93h1.6l-3.15,8.66c-.15,.4-.33,.73-.56,1.01-.23,.28-.49,.48-.81,.62-.31,.14-.67,.21-1.08,.21Z"/></g><path class="t" d="M304.88,157.1c0-1.32,1.08-2.41,2.41-2.41s2.41,1.08,2.41,2.41-1.08,2.41-2.41,2.41-2.41-1.08-2.41-2.41Zm10.07-5.11c.71-.71,.71-1.85,0-2.55-4.23-4.23-11.1-4.23-15.33,0-.71,.71-.71,1.85,0,2.55s1.85,.71,2.55,0c2.82-2.82,7.41-2.82,10.22,0,.35,.35,.82,.53,1.28,.53s.93-.18,1.28-.53Zm6.23-5.62c.72-.69,.75-1.83,.06-2.55-.11-.11-.22-.23-.33-.34-3.64-3.64-8.48-5.65-13.62-5.65s-9.98,2-13.62,5.64c-.11,.11-.22,.23-.33,.34-.69,.72-.66,1.87,.06,2.55,.72,.69,1.87,.66,2.55-.06l.26-.28c2.96-2.96,6.89-4.59,11.07-4.59s8.12,1.63,11.08,4.59l.26,.26c.35,.37,.83,.55,1.3,.55s.9-.17,1.25-.49v.02Z"/><path class="t" d="M490.3,157.1c0-1.32,1.08-2.41,2.41-2.41s2.41,1.08,2.41,2.41-1.08,2.41-2.41,2.41-2.41-1.08-2.41-2.41Zm10.07-5.11c.71-.71,.71-1.85,0-2.55-4.23-4.23-11.1-4.23-15.33,0-.71,.71-.71,1.85,0,2.55s1.85,.71,2.55,0c2.82-2.82,7.41-2.82,10.22,0,.35,.35,.82,.53,1.28,.53s.93-.18,1.28-.53Zm6.23-5.62c.72-.69,.75-1.83,.06-2.55-.11-.11-.22-.23-.33-.34-3.64-3.64-8.48-5.65-13.62-5.65s-9.98,2-13.62,5.64c-.11,.11-.22,.23-.33,.34-.69,.72-.66,1.87,.06,2.55,.72,.69,1.87,.66,2.55-.06l.26-.28c2.96-2.96,6.89-4.59,11.07-4.59s8.12,1.63,11.08,4.59l.26,.26c.35,.37,.83,.55,1.3,.55s.9-.17,1.25-.49v.02Z"/></g><g><rect class="f" x="66.99" y="253.79" width="190.76" height="63.06" rx="10.84" ry="10.84"/><g><path class="u" d="M136.4,278.95v10.18h-1.54v-10.18h1.54Z"/><path class="u" d="M140,284.6v4.53h-1.49v-7.64h1.43v1.24h.09c.18-.4,.45-.73,.83-.97,.38-.25,.85-.37,1.42-.37,.52,0,.98,.11,1.37,.33,.39,.22,.69,.54,.91,.97,.21,.43,.32,.96,.32,1.59v4.86h-1.49v-4.68c0-.55-.14-.99-.43-1.3-.29-.31-.68-.47-1.19-.47-.34,0-.65,.08-.92,.22-.27,.15-.48,.37-.63,.65-.15,.29-.23,.63-.23,1.04Z"/><path class="u" d="M150.44,281.5v1.19h-4.17v-1.19h4.17Zm-3.05-1.83h1.49v7.22c0,.29,.04,.5,.13,.65,.09,.14,.2,.24,.34,.29s.29,.08,.45,.08c.12,0,.22,0,.31-.03,.09-.02,.16-.03,.21-.04l.27,1.23c-.09,.03-.21,.07-.37,.1-.16,.03-.36,.05-.6,.06-.39,0-.76-.06-1.09-.21-.34-.15-.61-.37-.82-.68-.21-.3-.31-.69-.31-1.15v-7.53Z"/><path class="u" d="M155.3,289.29c-.75,0-1.4-.16-1.94-.48s-.96-.78-1.25-1.37c-.29-.59-.44-1.28-.44-2.07s.15-1.47,.44-2.07c.29-.6,.7-1.06,1.23-1.4,.53-.33,1.15-.5,1.86-.5,.43,0,.85,.07,1.25,.21s.77,.37,1.09,.67c.32,.3,.57,.7,.76,1.19,.19,.49,.28,1.08,.28,1.77v.53h-6.07v-1.11h4.61c0-.39-.08-.74-.24-1.04-.16-.3-.38-.54-.67-.72-.29-.18-.62-.26-1.01-.26-.42,0-.78,.1-1.09,.31-.31,.2-.55,.47-.72,.8-.17,.33-.25,.68-.25,1.06v.87c0,.51,.09,.94,.27,1.3,.18,.36,.43,.63,.76,.82s.7,.28,1.14,.28c.28,0,.54-.04,.77-.12s.43-.2,.6-.37c.17-.16,.3-.36,.39-.6l1.41,.25c-.11,.42-.31,.78-.6,1.09-.29,.31-.65,.55-1.09,.72-.44,.17-.93,.26-1.49,.26Z"/><path class="u" d="M160.23,289.13v-7.64h1.44v1.21h.08c.14-.41,.38-.74,.74-.97,.35-.24,.75-.36,1.2-.36,.09,0,.2,0,.33,0,.13,0,.23,.01,.3,.02v1.42c-.06-.02-.17-.04-.32-.06s-.3-.03-.46-.03c-.35,0-.66,.07-.94,.22s-.49,.35-.65,.61c-.16,.26-.24,.56-.24,.89v4.66h-1.49Z"/><path class="u" d="M167.09,284.6v4.53h-1.49v-7.64h1.43v1.24h.09c.18-.4,.45-.73,.83-.97,.38-.25,.85-.37,1.42-.37,.52,0,.98,.11,1.37,.33,.39,.22,.69,.54,.91,.97,.21,.43,.32,.96,.32,1.59v4.86h-1.49v-4.68c0-.55-.14-.99-.43-1.3-.29-.31-.68-.47-1.19-.47-.34,0-.65,.08-.92,.22-.27,.15-.48,.37-.63,.65-.15,.29-.23,.63-.23,1.04Z"/><path class="u" d="M176.19,289.3c-.48,0-.92-.09-1.31-.27-.39-.18-.7-.44-.93-.79-.23-.34-.34-.77-.34-1.27,0-.43,.08-.79,.25-1.06s.39-.5,.67-.66c.28-.16,.6-.29,.95-.37,.35-.08,.7-.15,1.06-.19,.46-.05,.83-.1,1.11-.13,.29-.03,.49-.09,.62-.17,.13-.08,.19-.21,.19-.39v-.03c0-.43-.12-.77-.37-1.01-.24-.24-.61-.36-1.09-.36s-.89,.11-1.18,.33c-.29,.22-.49,.46-.59,.73l-1.4-.32c.17-.46,.41-.84,.73-1.13,.32-.29,.69-.5,1.11-.63,.42-.13,.86-.2,1.32-.2,.31,0,.63,.04,.97,.11,.34,.07,.66,.2,.96,.39,.3,.19,.55,.46,.74,.81s.29,.8,.29,1.36v5.07h-1.45v-1.04h-.06c-.1,.19-.24,.38-.43,.57-.19,.19-.44,.34-.74,.46-.3,.12-.66,.18-1.08,.18Zm.32-1.19c.41,0,.76-.08,1.06-.24,.29-.16,.52-.38,.67-.64,.15-.26,.23-.55,.23-.85v-.98c-.05,.05-.15,.1-.31,.15-.15,.04-.32,.08-.51,.11-.19,.03-.38,.06-.56,.08-.18,.02-.33,.04-.46,.06-.29,.04-.55,.1-.79,.18-.24,.09-.43,.21-.57,.37-.14,.16-.21,.37-.21,.64,0,.37,.14,.65,.41,.83,.27,.19,.62,.28,1.04,.28Z"/><path class="u" d="M183.42,278.95v10.18h-1.49v-10.18h1.49Z"/><path class="u" d="M194.8,281.63c-.05-.47-.27-.84-.66-1.1-.38-.26-.87-.39-1.45-.39-.42,0-.78,.07-1.08,.2-.3,.13-.54,.31-.71,.54-.17,.23-.25,.48-.25,.77,0,.24,.06,.45,.17,.63,.12,.18,.27,.32,.45,.44,.19,.12,.39,.22,.6,.29,.22,.08,.42,.14,.62,.19l.99,.26c.32,.08,.66,.19,1,.32,.34,.14,.66,.32,.95,.54,.29,.22,.53,.5,.71,.83s.27,.72,.27,1.18c0,.58-.15,1.09-.44,1.54-.3,.45-.73,.8-1.29,1.06-.56,.26-1.24,.39-2.04,.39s-1.42-.12-1.98-.36c-.56-.24-.99-.59-1.31-1.03-.31-.45-.49-.97-.52-1.59h1.54c.03,.37,.15,.67,.36,.92,.21,.24,.48,.42,.81,.54s.69,.18,1.09,.18c.43,0,.82-.07,1.16-.21,.34-.14,.61-.33,.8-.58s.29-.54,.29-.87c0-.3-.09-.55-.26-.74-.17-.19-.4-.35-.69-.48s-.62-.24-.98-.33l-1.2-.33c-.82-.22-1.46-.55-1.94-.98s-.71-1-.71-1.71c0-.59,.16-1.1,.48-1.54,.32-.44,.75-.78,1.29-1.02,.54-.24,1.16-.37,1.84-.37s1.3,.12,1.83,.36c.53,.24,.95,.57,1.25,1s.46,.91,.48,1.45h-1.48Z"/><path class="u" d="M199.08,292c-.22,0-.42-.02-.61-.05-.18-.03-.32-.07-.41-.11l.36-1.22c.27,.07,.51,.1,.73,.09s.4-.09,.56-.24c.16-.15,.31-.39,.43-.73l.18-.51-2.79-7.74h1.59l1.93,5.93h.08l1.93-5.93h1.6l-3.15,8.66c-.15,.4-.33,.73-.56,1.01-.23,.28-.49,.48-.8,.62-.31,.14-.67,.21-1.08,.21Z"/><path class="u" d="M211.79,283.36l-1.35,.24c-.06-.17-.15-.34-.27-.49-.12-.16-.28-.28-.49-.38-.21-.1-.46-.15-.77-.15-.42,0-.77,.09-1.05,.28-.28,.19-.42,.43-.42,.72,0,.25,.09,.46,.28,.62,.19,.16,.49,.28,.92,.38l1.21,.28c.7,.16,1.23,.41,1.57,.75s.52,.78,.52,1.32c0,.46-.13,.86-.4,1.22s-.63,.64-1.1,.84c-.47,.2-1.01,.3-1.63,.3-.86,0-1.55-.18-2.09-.55-.54-.37-.87-.89-1-1.56l1.44-.22c.09,.38,.27,.66,.55,.85,.28,.19,.64,.29,1.09,.29,.49,0,.88-.1,1.17-.31s.44-.45,.44-.75c0-.24-.09-.44-.27-.6-.18-.16-.45-.29-.81-.37l-1.29-.28c-.71-.16-1.24-.42-1.58-.78s-.51-.8-.51-1.35c0-.45,.13-.84,.38-1.18,.25-.34,.6-.6,1.04-.79,.44-.19,.95-.29,1.53-.29,.83,0,1.48,.18,1.95,.53s.79,.83,.94,1.43Z"/><path class="u" d="M217.14,281.5v1.19h-4.17v-1.19h4.17Zm-3.05-1.83h1.49v7.22c0,.29,.04,.5,.13,.65,.09,.14,.2,.24,.34,.29s.29,.08,.45,.08c.12,0,.22,0,.31-.03,.09-.02,.16-.03,.21-.04l.27,1.23c-.09,.03-.21,.07-.37,.1-.16,.03-.36,.05-.6,.06-.39,0-.76-.06-1.09-.21-.34-.15-.61-.37-.82-.68-.21-.3-.31-.69-.31-1.15v-7.53Z"/><path class="u" d="M221.99,289.29c-.75,0-1.4-.16-1.94-.48s-.96-.78-1.25-1.37c-.29-.59-.44-1.28-.44-2.07s.15-1.47,.44-2.07c.29-.6,.7-1.06,1.23-1.4,.53-.33,1.15-.5,1.86-.5,.43,0,.85,.07,1.25,.21s.77,.37,1.09,.67c.32,.3,.57,.7,.76,1.19,.19,.49,.28,1.08,.28,1.77v.53h-6.07v-1.11h4.61c0-.39-.08-.74-.24-1.04-.16-.3-.38-.54-.67-.72-.29-.18-.62-.26-1.01-.26-.42,0-.78,.1-1.09,.31-.31,.2-.55,.47-.72,.8-.17,.33-.25,.68-.25,1.06v.87c0,.51,.09,.94,.27,1.3,.18,.36,.43,.63,.76,.82s.7,.28,1.14,.28c.28,0,.54-.04,.77-.12s.43-.2,.6-.37c.17-.16,.3-.36,.39-.6l1.41,.25c-.11,.42-.31,.78-.6,1.09-.29,.31-.65,.55-1.09,.72-.44,.17-.93,.26-1.49,.26Z"/><path class="u" d="M226.92,289.13v-7.64h1.43v1.24h.09c.16-.42,.42-.75,.78-.99,.36-.24,.79-.36,1.3-.36s.94,.12,1.29,.36c.35,.24,.6,.57,.77,.98h.08c.18-.41,.47-.73,.87-.98,.4-.24,.87-.37,1.42-.37,.69,0,1.26,.22,1.7,.65,.44,.43,.66,1.09,.66,1.96v5.12h-1.49v-4.98c0-.52-.14-.89-.42-1.12-.28-.23-.62-.35-1.01-.35-.48,0-.86,.15-1.13,.45s-.4,.68-.4,1.14v4.87h-1.48v-5.08c0-.41-.13-.75-.39-1s-.59-.38-1.01-.38c-.28,0-.54,.07-.78,.22-.24,.15-.43,.35-.57,.61-.14,.26-.22,.56-.22,.91v4.71h-1.49Z"/></g><g><path class="r" d="M91.37,292.22c.17,.09,.35,.15,.52,.22h11.6c.24-.11,.5-.19,.72-.33,.67-.44,.94-1.27,.7-2.03-.24-.77-.93-1.28-1.76-1.28-2.03,0-4.06,0-6.09,0-.11,0-.22,0-.34,0l-.05-.09c.1-.09,.22-.16,.31-.26,4.85-4.85,9.7-9.7,14.55-14.55,.12-.12,.24-.24,.35-.37,.82-1.02,.33-2.54-.92-2.88-.75-.21-1.37,.04-1.92,.58-4.88,4.89-9.77,9.78-14.66,14.67-.09,.09-.19,.18-.33,.31,0-.34,0-.6,0-.85,0-1.89,0-3.78,0-5.67,0-.91-.67-1.67-1.53-1.79-.93-.13-1.75,.38-2.04,1.27-.02,.07-.05,.14-.08,.21v11.6c.18,.52,.44,.99,.96,1.25Z"/><path class="r" d="M109.62,285.51c-1,.09-1.68,.86-1.69,1.91,0,2.33-.03,4.66,.01,6.99,.02,1.23-.88,2.05-2.03,2.04-5.95-.03-11.9-.01-17.85-.01-1.27,0-2.01-.73-2.01-2.01,0-5.96,0-11.92,0-17.88,0-1.25,.74-1.98,1.99-1.98,2.35,0,4.7,0,7.05,0,1.09,0,1.9-.81,1.89-1.84-.01-1.03-.81-1.8-1.89-1.8-2.4,0-4.81-.01-7.21,0-3.1,.02-5.48,2.42-5.48,5.53,0,6.04,0,12.07,0,18.11,0,.36,.03,.73,.1,1.08,.53,2.64,2.73,4.44,5.42,4.45,3.01,0,6.02,0,9.04,0,2.99,0,5.98,0,8.97,0,.31,0,.62-.02,.93-.06,2.52-.3,4.64-2.54,4.69-5.07,.05-2.57,.03-5.15,.01-7.72,0-1.02-.94-1.81-1.95-1.72Z"/></g></g><circle class="f" cx="162.37" cy="316.86" r="13.28"/><circle class="l" cx="400" cy="316.86" r="13.28"/><circle class="j" cx="400" cy="61.74" r="13.28"/><circle class="k" cx="400" cy="61.74" r="18.72"/><circle class="g" cx="637.63" cy="316.86" r="13.28"/><path class="u" d="M163.9,311.68v10.18h-1.54v-8.64h-.06l-2.44,1.59v-1.47l2.54-1.66h1.5Z"/><path class="u" d="M396.69,321.86v-1.11l3.45-3.57c.37-.39,.67-.73,.91-1.02,.24-.29,.42-.57,.54-.84,.12-.27,.18-.55,.18-.85,0-.34-.08-.63-.24-.88-.16-.25-.38-.44-.65-.57-.28-.13-.58-.2-.93-.2-.37,0-.68,.07-.96,.22s-.48,.36-.63,.63c-.15,.27-.22,.59-.22,.95h-1.47c0-.62,.14-1.16,.43-1.63,.29-.46,.68-.82,1.17-1.08s1.06-.38,1.7-.38,1.2,.13,1.69,.38c.49,.25,.87,.6,1.15,1.03s.41,.93,.41,1.47c0,.38-.07,.75-.21,1.11-.14,.36-.38,.76-.73,1.21-.35,.44-.83,.98-1.45,1.61l-2.02,2.12v.07h4.58v1.32h-6.7Z"/><path class="u" d="M637.64,322c-.68,0-1.29-.12-1.83-.35s-.96-.56-1.27-.98c-.31-.42-.48-.91-.5-1.46h1.56c.02,.3,.12,.56,.31,.78,.18,.22,.42,.39,.72,.51,.3,.12,.63,.18,.99,.18,.4,0,.76-.07,1.07-.21,.31-.14,.55-.33,.73-.58,.18-.25,.26-.54,.26-.87s-.09-.64-.26-.9c-.17-.26-.43-.46-.76-.61-.33-.15-.73-.22-1.21-.22h-.86v-1.25h.86c.38,0,.71-.07,1-.2s.51-.33,.67-.57c.16-.24,.24-.53,.24-.86s-.07-.59-.21-.82c-.14-.23-.34-.42-.6-.55-.26-.13-.56-.2-.91-.2s-.64,.06-.93,.18c-.29,.12-.52,.29-.7,.52-.18,.22-.28,.49-.29,.8h-1.49c.02-.55,.18-1.03,.49-1.45,.31-.42,.72-.74,1.23-.98,.51-.24,1.08-.35,1.7-.35s1.22,.13,1.69,.38,.84,.59,1.1,1.01,.39,.88,.39,1.38c0,.57-.16,1.05-.47,1.45-.32,.4-.75,.66-1.28,.8v.08c.68,.1,1.2,.37,1.57,.81,.37,.43,.56,.97,.55,1.62,0,.56-.15,1.06-.46,1.51-.31,.44-.74,.79-1.28,1.05-.54,.25-1.16,.38-1.86,.38Z"/></svg>