<?xml version="1.0" encoding="UTF-8"?><svg id="a" xmlns="http://www.w3.org/2000/svg" xmlns:xlink="http://www.w3.org/1999/xlink" viewBox="0 0 800 512.21"><defs><style>.e{fill:#fadc94;stroke:#f7975a;}.e,.f,.g,.h,.i,.j,.k,.l{stroke-miterlimit:10;stroke-width:2px;}.m{fill:#3bb54a;}.n{fill:url(#c);}.o,.l{fill:#51b5e7;}.p{fill:#c84548;}.f{stroke:#51b5e7;}.f,.g,.j{fill:none;stroke-linecap:round;}.q{fill:#f7975a;}.g{stroke:#f48993;}.h{stroke:#c84548;}.h,.r{fill:#f48993;}.i{fill:#b3dbb6;stroke:#3bb54a;}.j{stroke:#d6b1fb;}.s{fill:url(#d);}.k{stroke:url(#b);}.k,.t{fill:#d6b1fb;}.u{fill:#f1f1f2;}.l{stroke:#0f71b9;}.v{fill:#231f20;}</style><linearGradient id="b" x1="65.99" y1="69.28" x2="258.75" y2="69.28" gradientTransform="matrix(1, 0, 0, 1, 0, 0)" gradientUnits="userSpaceOnUse"><stop offset="0" stop-color="#7847ff"/><stop offset="1" stop-color="#952cf1"/></linearGradient><linearGradient id="c" x1="93.35" y1="63.81" x2="115.23" y2="63.81" xlink:href="#b"/><linearGradient id="d" x1="82.41" y1="71.1" x2="111.6" y2="71.1" xlink:href="#b"/></defs><g><line class="g" x1="162.37" y1="111.42" x2="162.37" y2="165.25"/><polygon class="r" points="157.38 163.79 162.37 172.42 167.36 163.79 157.38 163.79"/></g><g><line class="f" x1="220.96" y1="246.37" x2="220.96" y2="293.02"/><polygon class="o" points="215.97 247.83 220.96 239.19 225.94 247.83 215.97 247.83"/><polygon class="o" points="215.97 291.56 220.96 300.2 225.94 291.56 215.97 291.56"/></g><g><line class="f" x1="569.71" y1="246.37" x2="569.71" y2="293.02"/><polygon class="o" points="564.72 247.83 569.71 239.19 574.69 247.83 564.72 247.83"/><polygon class="o" points="564.72 291.56 569.71 300.2 574.69 291.56 564.72 291.56"/></g><g><line class="g" x1="569.71" y1="111.42" x2="569.71" y2="165.25"/><polygon class="r" points="564.72 163.79 569.71 172.42 574.69 163.79 564.72 163.79"/></g><rect class="k" x="66.99" y="37.75" width="190.76" height="63.06" rx="10.84" ry="10.84"/><rect class="l" x="66.99" y="183.03" width="598.1" height="45.8" rx="11" ry="11"/><rect class="h" x="66.99" y="310.56" width="307.91" height="163.42" rx="11" ry="11"/><g><path class="v" d="M134.86,74.75v-10.18h6.38v1.32h-4.85v3.1h4.51v1.32h-4.51v3.12h4.91v1.32h-6.44Z"/><path class="v" d="M144.36,67.11l1.69,2.97,1.7-2.97h1.63l-2.38,3.82,2.4,3.82h-1.63l-1.72-2.85-1.72,2.85h-1.63l2.38-3.82-2.35-3.82h1.63Z"/><path class="v" d="M154.47,67.11v1.19h-4.17v-1.19h4.17Zm-3.05-1.83h1.49v7.22c0,.29,.04,.5,.13,.65,.09,.14,.2,.24,.34,.29,.14,.05,.29,.08,.45,.08,.12,0,.22,0,.31-.02,.09-.02,.16-.03,.21-.04l.27,1.23c-.09,.03-.21,.07-.37,.1-.16,.03-.36,.05-.6,.06-.39,0-.76-.06-1.09-.21-.34-.15-.61-.37-.82-.68-.21-.3-.31-.69-.31-1.15v-7.53Z"/><path class="v" d="M159.32,74.9c-.75,0-1.4-.16-1.94-.48s-.96-.78-1.25-1.37c-.29-.59-.44-1.28-.44-2.07s.15-1.47,.44-2.07c.29-.6,.7-1.06,1.23-1.4,.53-.33,1.15-.5,1.86-.5,.43,0,.85,.07,1.25,.21s.77,.37,1.09,.67c.32,.31,.58,.7,.76,1.19s.28,1.07,.28,1.77v.53h-6.07v-1.11h4.61c0-.39-.08-.74-.24-1.04s-.38-.54-.67-.72c-.29-.18-.62-.26-1.01-.26-.42,0-.78,.1-1.09,.31-.31,.2-.55,.47-.72,.8-.17,.33-.25,.68-.25,1.06v.87c0,.51,.09,.94,.27,1.3,.18,.36,.43,.63,.76,.82,.32,.19,.7,.28,1.14,.28,.28,0,.54-.04,.77-.12,.23-.08,.43-.2,.6-.37,.17-.16,.3-.36,.39-.6l1.41,.25c-.11,.41-.31,.78-.6,1.09s-.65,.55-1.09,.72c-.44,.17-.93,.26-1.49,.26Z"/><path class="v" d="M164.25,74.75v-7.64h1.44v1.21h.08c.14-.41,.39-.73,.74-.97,.35-.24,.75-.36,1.2-.36,.09,0,.2,0,.33,0,.13,0,.23,.01,.3,.02v1.42c-.06-.02-.17-.04-.32-.06s-.3-.03-.46-.03c-.35,0-.66,.07-.94,.22s-.49,.35-.65,.61-.24,.56-.24,.89v4.66h-1.49Z"/><path class="v" d="M171.12,70.21v4.53h-1.49v-7.64h1.43v1.24h.09c.18-.4,.45-.73,.83-.97,.38-.25,.85-.37,1.42-.37,.52,0,.98,.11,1.37,.33,.39,.22,.69,.54,.91,.97,.22,.43,.32,.96,.32,1.59v4.86h-1.49v-4.68c0-.55-.14-.99-.43-1.3-.29-.31-.68-.47-1.19-.47-.34,0-.65,.07-.92,.22-.27,.15-.48,.37-.63,.65-.15,.29-.23,.63-.23,1.04Z"/><path class="v" d="M180.21,74.91c-.48,0-.92-.09-1.31-.27-.39-.18-.7-.44-.93-.79-.23-.34-.34-.77-.34-1.27,0-.43,.08-.79,.25-1.06,.17-.28,.39-.5,.67-.66,.28-.16,.6-.29,.94-.37,.35-.08,.7-.15,1.06-.19,.46-.05,.83-.1,1.11-.13s.49-.09,.62-.17c.13-.08,.19-.21,.19-.39v-.03c0-.43-.12-.77-.37-1.01-.24-.24-.61-.36-1.09-.36s-.89,.11-1.18,.33c-.29,.22-.48,.46-.59,.73l-1.4-.32c.17-.46,.41-.84,.73-1.13s.69-.5,1.11-.63c.42-.13,.86-.2,1.32-.2,.3,0,.63,.04,.97,.11s.67,.2,.96,.39,.55,.46,.74,.81,.29,.8,.29,1.36v5.07h-1.45v-1.04h-.06c-.1,.19-.24,.38-.43,.57-.19,.19-.44,.34-.74,.46s-.66,.18-1.08,.18Zm.32-1.19c.41,0,.76-.08,1.06-.24,.29-.16,.52-.38,.67-.64,.15-.26,.23-.55,.23-.85v-.98c-.05,.05-.16,.1-.31,.15-.15,.04-.32,.08-.51,.11-.19,.03-.38,.06-.56,.08-.18,.02-.33,.05-.46,.06-.29,.04-.55,.1-.79,.18-.24,.09-.43,.21-.57,.37-.14,.16-.21,.37-.21,.64,0,.37,.14,.65,.41,.83,.27,.19,.62,.28,1.04,.28Z"/><path class="v" d="M187.45,64.56v10.18h-1.49v-10.18h1.49Z"/><path class="v" d="M198.83,67.24c-.05-.47-.27-.84-.66-1.1-.38-.26-.87-.39-1.45-.39-.42,0-.78,.07-1.08,.2-.3,.13-.54,.31-.71,.54-.17,.23-.25,.48-.25,.77,0,.24,.06,.45,.17,.63s.26,.32,.45,.44,.39,.22,.6,.29c.21,.08,.42,.14,.62,.19l.99,.26c.33,.08,.66,.19,1,.32,.34,.14,.66,.31,.95,.54s.53,.5,.71,.83,.27,.72,.27,1.18c0,.58-.15,1.09-.45,1.54-.3,.45-.73,.8-1.29,1.06-.56,.26-1.24,.39-2.04,.39s-1.42-.12-1.98-.36-.99-.59-1.31-1.03c-.32-.45-.49-.98-.52-1.59h1.54c.03,.37,.15,.67,.36,.92,.21,.24,.48,.42,.81,.54,.33,.12,.69,.18,1.09,.18,.43,0,.82-.07,1.16-.21,.34-.14,.61-.33,.8-.58,.2-.25,.29-.54,.29-.87,0-.3-.08-.55-.26-.74-.17-.19-.4-.35-.69-.48s-.62-.24-.98-.33l-1.2-.33c-.82-.22-1.46-.55-1.94-.98s-.71-1-.71-1.71c0-.59,.16-1.1,.48-1.54s.75-.78,1.29-1.02c.54-.24,1.16-.37,1.84-.37s1.3,.12,1.83,.36c.53,.24,.95,.57,1.25,1,.3,.42,.46,.91,.48,1.45h-1.48Z"/><path class="v" d="M203.1,77.61c-.22,0-.42-.02-.61-.05-.18-.03-.32-.07-.41-.11l.36-1.22c.27,.07,.51,.1,.73,.09,.21-.01,.4-.09,.56-.24,.16-.15,.31-.39,.43-.73l.18-.51-2.79-7.74h1.59l1.93,5.93h.08l1.93-5.93h1.6l-3.15,8.66c-.15,.4-.33,.73-.56,1.01s-.49,.48-.8,.62c-.31,.14-.67,.21-1.08,.21Z"/><path class="v" d="M215.82,68.97l-1.35,.24c-.06-.17-.15-.34-.27-.49s-.28-.28-.49-.38c-.21-.1-.46-.15-.77-.15-.42,0-.77,.09-1.05,.28-.28,.19-.42,.43-.42,.72,0,.26,.09,.46,.28,.62,.19,.16,.49,.28,.92,.38l1.21,.28c.7,.16,1.23,.41,1.57,.75s.52,.78,.52,1.32c0,.46-.13,.86-.4,1.22s-.63,.64-1.1,.84c-.47,.2-1.01,.3-1.63,.3-.86,0-1.55-.18-2.09-.55-.54-.37-.87-.89-1-1.56l1.44-.22c.09,.38,.27,.66,.55,.85,.28,.19,.64,.29,1.09,.29,.49,0,.88-.1,1.17-.31,.29-.2,.44-.45,.44-.75,0-.24-.09-.44-.27-.6-.18-.16-.45-.28-.81-.37l-1.29-.28c-.71-.16-1.24-.42-1.58-.78-.34-.35-.51-.8-.51-1.35,0-.45,.13-.85,.38-1.18,.25-.34,.6-.6,1.04-.79,.44-.19,.95-.29,1.53-.29,.83,0,1.48,.18,1.95,.53,.47,.36,.79,.83,.94,1.43Z"/><path class="v" d="M221.16,67.11v1.19h-4.17v-1.19h4.17Zm-3.05-1.83h1.49v7.22c0,.29,.04,.5,.13,.65,.09,.14,.2,.24,.34,.29,.14,.05,.29,.08,.45,.08,.12,0,.22,0,.31-.02,.09-.02,.16-.03,.21-.04l.27,1.23c-.09,.03-.21,.07-.37,.1-.16,.03-.36,.05-.6,.06-.39,0-.76-.06-1.09-.21-.34-.15-.61-.37-.82-.68-.21-.3-.31-.69-.31-1.15v-7.53Z"/><path class="v" d="M226.01,74.9c-.75,0-1.4-.16-1.94-.48s-.96-.78-1.25-1.37c-.29-.59-.44-1.28-.44-2.07s.15-1.47,.44-2.07c.29-.6,.7-1.06,1.23-1.4,.53-.33,1.15-.5,1.86-.5,.43,0,.85,.07,1.25,.21s.77,.37,1.09,.67c.32,.31,.58,.7,.76,1.19s.28,1.07,.28,1.77v.53h-6.07v-1.11h4.61c0-.39-.08-.74-.24-1.04s-.38-.54-.67-.72c-.29-.18-.62-.26-1.01-.26-.42,0-.78,.1-1.09,.31-.31,.2-.55,.47-.72,.8-.17,.33-.25,.68-.25,1.06v.87c0,.51,.09,.94,.27,1.3,.18,.36,.43,.63,.76,.82,.32,.19,.7,.28,1.14,.28,.28,0,.54-.04,.77-.12,.23-.08,.43-.2,.6-.37,.17-.16,.3-.36,.39-.6l1.41,.25c-.11,.41-.31,.78-.6,1.09s-.65,.55-1.09,.72c-.44,.17-.93,.26-1.49,.26Z"/><path class="v" d="M230.94,74.75v-7.64h1.43v1.24h.09c.16-.42,.42-.75,.78-.99,.36-.24,.79-.36,1.3-.36s.94,.12,1.29,.36c.35,.24,.6,.57,.77,.98h.08c.18-.41,.47-.73,.87-.98,.4-.24,.87-.37,1.42-.37,.69,0,1.26,.22,1.7,.65,.44,.43,.66,1.09,.66,1.96v5.12h-1.49v-4.98c0-.52-.14-.89-.42-1.12-.28-.23-.62-.35-1.01-.35-.48,0-.86,.15-1.13,.44-.27,.3-.4,.68-.4,1.14v4.87h-1.48v-5.08c0-.41-.13-.75-.39-1s-.59-.38-1.01-.38c-.28,0-.54,.07-.78,.22-.24,.15-.43,.35-.57,.61-.14,.26-.22,.56-.22,.91v4.71h-1.49Z"/></g><g><path class="n" d="M114.28,53.09c-.17-.09-.35-.15-.52-.22h-11.6c-.24,.11-.5,.19-.72,.33-.67,.44-.94,1.27-.7,2.03,.24,.77,.93,1.28,1.76,1.28,2.03,0,4.06,0,6.09,0,.11,0,.22,0,.34,0l.05,.09c-.1,.09-.22,.16-.31,.26-4.85,4.85-9.7,9.7-14.55,14.55-.12,.12-.24,.24-.35,.37-.82,1.02-.33,2.54,.92,2.88,.75,.21,1.37-.04,1.92-.58,4.88-4.89,9.77-9.78,14.66-14.67,.09-.09,.19-.18,.33-.31,0,.34,0,.6,0,.85,0,1.89,0,3.78,0,5.67,0,.91,.67,1.67,1.53,1.79,.93,.13,1.75-.38,2.04-1.27,.02-.07,.05-.14,.08-.21v-11.6c-.18-.52-.44-.99-.96-1.25Z"/><path class="s" d="M109.62,71.11c-1,.09-1.68,.86-1.69,1.91,0,2.33-.03,4.66,.01,6.99,.02,1.23-.88,2.05-2.03,2.04-5.95-.03-11.9-.01-17.85-.01-1.27,0-2.01-.73-2.01-2.01,0-5.96,0-11.92,0-17.88,0-1.25,.74-1.98,1.99-1.98,2.35,0,4.7,0,7.05,0,1.09,0,1.9-.81,1.89-1.84-.01-1.03-.81-1.8-1.89-1.8-2.4,0-4.81-.01-7.21,0-3.1,.02-5.48,2.42-5.48,5.53,0,6.04,0,12.07,0,18.11,0,.36,.03,.73,.1,1.08,.53,2.64,2.73,4.44,5.42,4.45,3.01,0,6.02,0,9.04,0,2.99,0,5.98,0,8.97,0,.31,0,.62-.02,.93-.06,2.52-.3,4.64-2.54,4.69-5.07,.05-2.57,.03-5.15,.01-7.72,0-1.02-.94-1.81-1.95-1.72Z"/></g><rect class="e" x="474.33" y="37.75" width="190.76" height="63.06" rx="10.84" ry="10.84"/><g><path class="v" d="M542.2,74.75v-10.18h6.38v1.32h-4.85v3.1h4.51v1.32h-4.51v3.12h4.91v1.32h-6.44Z"/><path class="v" d="M551.7,67.11l1.69,2.97,1.7-2.97h1.63l-2.38,3.82,2.4,3.82h-1.63l-1.72-2.85-1.72,2.85h-1.63l2.38-3.82-2.35-3.82h1.63Z"/><path class="v" d="M561.8,67.11v1.19h-4.17v-1.19h4.17Zm-3.05-1.83h1.49v7.22c0,.29,.04,.5,.13,.65,.09,.14,.2,.24,.34,.29,.14,.05,.29,.08,.45,.08,.12,0,.22,0,.31-.02,.09-.02,.16-.03,.21-.04l.27,1.23c-.09,.03-.21,.07-.37,.1-.16,.03-.36,.05-.6,.06-.39,0-.76-.06-1.09-.21-.34-.15-.61-.37-.82-.68-.21-.3-.31-.69-.31-1.15v-7.53Z"/><path class="v" d="M566.66,74.9c-.75,0-1.4-.16-1.94-.48s-.96-.78-1.25-1.37c-.29-.59-.44-1.28-.44-2.07s.15-1.47,.44-2.07c.29-.6,.7-1.06,1.23-1.4,.53-.33,1.15-.5,1.86-.5,.43,0,.85,.07,1.25,.21s.77,.37,1.09,.67c.32,.31,.58,.7,.76,1.19s.28,1.07,.28,1.77v.53h-6.07v-1.11h4.61c0-.39-.08-.74-.24-1.04s-.38-.54-.67-.72c-.29-.18-.62-.26-1.01-.26-.42,0-.78,.1-1.09,.31-.31,.2-.55,.47-.72,.8-.17,.33-.25,.68-.25,1.06v.87c0,.51,.09,.94,.27,1.3,.18,.36,.43,.63,.76,.82,.32,.19,.7,.28,1.14,.28,.28,0,.54-.04,.77-.12,.23-.08,.43-.2,.6-.37,.17-.16,.3-.36,.39-.6l1.41,.25c-.11,.41-.31,.78-.6,1.09s-.65,.55-1.09,.72c-.44,.17-.93,.26-1.49,.26Z"/><path class="v" d="M571.59,74.75v-7.64h1.44v1.21h.08c.14-.41,.39-.73,.74-.97,.35-.24,.75-.36,1.2-.36,.09,0,.2,0,.33,0,.13,0,.23,.01,.3,.02v1.42c-.06-.02-.17-.04-.32-.06s-.3-.03-.46-.03c-.35,0-.66,.07-.94,.22s-.49,.35-.65,.61-.24,.56-.24,.89v4.66h-1.49Z"/><path class="v" d="M578.45,70.21v4.53h-1.49v-7.64h1.43v1.24h.09c.18-.4,.45-.73,.83-.97,.38-.25,.85-.37,1.42-.37,.52,0,.98,.11,1.37,.33,.39,.22,.69,.54,.91,.97,.22,.43,.32,.96,.32,1.59v4.86h-1.49v-4.68c0-.55-.14-.99-.43-1.3-.29-.31-.68-.47-1.19-.47-.34,0-.65,.07-.92,.22-.27,.15-.48,.37-.63,.65-.15,.29-.23,.63-.23,1.04Z"/><path class="v" d="M587.55,74.91c-.48,0-.92-.09-1.31-.27-.39-.18-.7-.44-.93-.79-.23-.34-.34-.77-.34-1.27,0-.43,.08-.79,.25-1.06,.17-.28,.39-.5,.67-.66,.28-.16,.6-.29,.94-.37,.35-.08,.7-.15,1.06-.19,.46-.05,.83-.1,1.11-.13s.49-.09,.62-.17c.13-.08,.19-.21,.19-.39v-.03c0-.43-.12-.77-.37-1.01-.24-.24-.61-.36-1.09-.36s-.89,.11-1.18,.33c-.29,.22-.48,.46-.59,.73l-1.4-.32c.17-.46,.41-.84,.73-1.13s.69-.5,1.11-.63c.42-.13,.86-.2,1.32-.2,.3,0,.63,.04,.97,.11s.67,.2,.96,.39,.55,.46,.74,.81,.29,.8,.29,1.36v5.07h-1.45v-1.04h-.06c-.1,.19-.24,.38-.43,.57-.19,.19-.44,.34-.74,.46s-.66,.18-1.08,.18Zm.32-1.19c.41,0,.76-.08,1.06-.24,.29-.16,.52-.38,.67-.64,.15-.26,.23-.55,.23-.85v-.98c-.05,.05-.16,.1-.31,.15-.15,.04-.32,.08-.51,.11-.19,.03-.38,.06-.56,.08-.18,.02-.33,.05-.46,.06-.29,.04-.55,.1-.79,.18-.24,.09-.43,.21-.57,.37-.14,.16-.21,.37-.21,.64,0,.37,.14,.65,.41,.83,.27,.19,.62,.28,1.04,.28Z"/><path class="v" d="M594.79,64.56v10.18h-1.49v-10.18h1.49Z"/><path class="v" d="M606.17,67.24c-.05-.47-.27-.84-.66-1.1-.38-.26-.87-.39-1.45-.39-.42,0-.78,.07-1.08,.2-.3,.13-.54,.31-.71,.54-.17,.23-.25,.48-.25,.77,0,.24,.06,.45,.17,.63s.26,.32,.45,.44,.39,.22,.6,.29c.21,.08,.42,.14,.62,.19l.99,.26c.33,.08,.66,.19,1,.32,.34,.14,.66,.31,.95,.54s.53,.5,.71,.83,.27,.72,.27,1.18c0,.58-.15,1.09-.45,1.54-.3,.45-.73,.8-1.29,1.06-.56,.26-1.24,.39-2.04,.39s-1.42-.12-1.98-.36-.99-.59-1.31-1.03c-.32-.45-.49-.98-.52-1.59h1.54c.03,.37,.15,.67,.36,.92,.21,.24,.48,.42,.81,.54,.33,.12,.69,.18,1.09,.18,.43,0,.82-.07,1.16-.21,.34-.14,.61-.33,.8-.58,.2-.25,.29-.54,.29-.87,0-.3-.08-.55-.26-.74-.17-.19-.4-.35-.69-.48s-.62-.24-.98-.33l-1.2-.33c-.82-.22-1.46-.55-1.94-.98s-.71-1-.71-1.71c0-.59,.16-1.1,.48-1.54s.75-.78,1.29-1.02c.54-.24,1.16-.37,1.84-.37s1.3,.12,1.83,.36c.53,.24,.95,.57,1.25,1,.3,.42,.46,.91,.48,1.45h-1.48Z"/><path class="v" d="M610.44,77.61c-.22,0-.42-.02-.61-.05-.18-.03-.32-.07-.41-.11l.36-1.22c.27,.07,.51,.1,.73,.09,.21-.01,.4-.09,.56-.24,.16-.15,.31-.39,.43-.73l.18-.51-2.79-7.74h1.59l1.93,5.93h.08l1.93-5.93h1.6l-3.15,8.66c-.15,.4-.33,.73-.56,1.01s-.49,.48-.8,.62c-.31,.14-.67,.21-1.08,.21Z"/><path class="v" d="M623.15,68.97l-1.35,.24c-.06-.17-.15-.34-.27-.49s-.28-.28-.49-.38c-.21-.1-.46-.15-.77-.15-.42,0-.77,.09-1.05,.28-.28,.19-.42,.43-.42,.72,0,.26,.09,.46,.28,.62,.19,.16,.49,.28,.92,.38l1.21,.28c.7,.16,1.23,.41,1.57,.75s.52,.78,.52,1.32c0,.46-.13,.86-.4,1.22s-.63,.64-1.1,.84c-.47,.2-1.01,.3-1.63,.3-.86,0-1.55-.18-2.09-.55-.54-.37-.87-.89-1-1.56l1.44-.22c.09,.38,.27,.66,.55,.85,.28,.19,.64,.29,1.09,.29,.49,0,.88-.1,1.17-.31,.29-.2,.44-.45,.44-.75,0-.24-.09-.44-.27-.6-.18-.16-.45-.28-.81-.37l-1.29-.28c-.71-.16-1.24-.42-1.58-.78-.34-.35-.51-.8-.51-1.35,0-.45,.13-.85,.38-1.18,.25-.34,.6-.6,1.04-.79,.44-.19,.95-.29,1.53-.29,.83,0,1.48,.18,1.95,.53,.47,.36,.79,.83,.94,1.43Z"/><path class="v" d="M628.5,67.11v1.19h-4.17v-1.19h4.17Zm-3.05-1.83h1.49v7.22c0,.29,.04,.5,.13,.65,.09,.14,.2,.24,.34,.29,.14,.05,.29,.08,.45,.08,.12,0,.22,0,.31-.02,.09-.02,.16-.03,.21-.04l.27,1.23c-.09,.03-.21,.07-.37,.1-.16,.03-.36,.05-.6,.06-.39,0-.76-.06-1.09-.21-.34-.15-.61-.37-.82-.68-.21-.3-.31-.69-.31-1.15v-7.53Z"/><path class="v" d="M633.35,74.9c-.75,0-1.4-.16-1.94-.48s-.96-.78-1.25-1.37c-.29-.59-.44-1.28-.44-2.07s.15-1.47,.44-2.07c.29-.6,.7-1.06,1.23-1.4,.53-.33,1.15-.5,1.86-.5,.43,0,.85,.07,1.25,.21s.77,.37,1.09,.67c.32,.31,.58,.7,.76,1.19s.28,1.07,.28,1.77v.53h-6.07v-1.11h4.61c0-.39-.08-.74-.24-1.04s-.38-.54-.67-.72c-.29-.18-.62-.26-1.01-.26-.42,0-.78,.1-1.09,.31-.31,.2-.55,.47-.72,.8-.17,.33-.25,.68-.25,1.06v.87c0,.51,.09,.94,.27,1.3,.18,.36,.43,.63,.76,.82,.32,.19,.7,.28,1.14,.28,.28,0,.54-.04,.77-.12,.23-.08,.43-.2,.6-.37,.17-.16,.3-.36,.39-.6l1.41,.25c-.11,.41-.31,.78-.6,1.09s-.65,.55-1.09,.72c-.44,.17-.93,.26-1.49,.26Z"/><path class="v" d="M638.28,74.75v-7.64h1.43v1.24h.09c.16-.42,.42-.75,.78-.99,.36-.24,.79-.36,1.3-.36s.94,.12,1.29,.36c.35,.24,.6,.57,.77,.98h.08c.18-.41,.47-.73,.87-.98,.4-.24,.87-.37,1.42-.37,.69,0,1.26,.22,1.7,.65,.44,.43,.66,1.09,.66,1.96v5.12h-1.49v-4.98c0-.52-.14-.89-.42-1.12-.28-.23-.62-.35-1.01-.35-.48,0-.86,.15-1.13,.44-.27,.3-.4,.68-.4,1.14v4.87h-1.48v-5.08c0-.41-.13-.75-.39-1s-.59-.38-1.01-.38c-.28,0-.54,.07-.78,.22-.24,.15-.43,.35-.57,.61-.14,.26-.22,.56-.22,.91v4.71h-1.49Z"/></g><g><path class="q" d="M521.61,53.09c-.17-.09-.35-.15-.52-.22h-11.6c-.24,.11-.5,.19-.72,.33-.67,.44-.94,1.27-.7,2.03,.24,.77,.93,1.28,1.76,1.28,2.03,0,4.06,0,6.09,0,.11,0,.22,0,.34,0l.05,.09c-.1,.09-.22,.16-.31,.26-4.85,4.85-9.7,9.7-14.55,14.55-.12,.12-.24,.24-.35,.37-.82,1.02-.33,2.54,.92,2.88,.75,.21,1.37-.04,1.92-.58,4.88-4.89,9.77-9.78,14.66-14.67,.09-.09,.19-.18,.33-.31,0,.34,0,.6,0,.85,0,1.89,0,3.78,0,5.67,0,.91,.67,1.67,1.53,1.79,.93,.13,1.75-.38,2.04-1.27,.02-.07,.05-.14,.08-.21v-11.6c-.18-.52-.44-.99-.96-1.25Z"/><path class="q" d="M516.96,71.11c-1,.09-1.68,.86-1.69,1.91,0,2.33-.03,4.66,.01,6.99,.02,1.23-.88,2.05-2.03,2.04-5.95-.03-11.9-.01-17.85-.01-1.27,0-2.01-.73-2.01-2.01,0-5.96,0-11.92,0-17.88,0-1.25,.74-1.98,1.99-1.98,2.35,0,4.7,0,7.05,0,1.09,0,1.9-.81,1.89-1.84-.01-1.03-.81-1.8-1.89-1.8-2.4,0-4.81-.01-7.21,0-3.1,.02-5.48,2.42-5.48,5.53,0,6.04,0,12.07,0,18.11,0,.36,.03,.73,.1,1.08,.53,2.64,2.73,4.44,5.42,4.45,3.01,0,6.02,0,9.04,0,2.99,0,5.98,0,8.97,0,.31,0,.62-.02,.93-.06,2.52-.3,4.64-2.54,4.69-5.07,.05-2.57,.03-5.15,.01-7.72,0-1.02-.94-1.81-1.95-1.72Z"/></g><rect class="i" x="474.33" y="311.05" width="190.76" height="63.06" rx="10.84" ry="10.84"/><g><path class="v" d="M543.74,337.86v10.18h-1.54v-10.18h1.54Z"/><path class="v" d="M547.34,343.51v4.53h-1.49v-7.64h1.43v1.24h.09c.18-.4,.45-.73,.83-.97,.38-.25,.85-.37,1.42-.37,.52,0,.98,.11,1.37,.33s.69,.54,.91,.97c.21,.43,.32,.96,.32,1.59v4.86h-1.49v-4.68c0-.55-.14-.99-.43-1.3-.29-.31-.68-.47-1.19-.47-.34,0-.65,.07-.92,.22-.27,.15-.48,.37-.63,.65-.15,.29-.23,.63-.23,1.04Z"/><path class="v" d="M557.78,340.41v1.19h-4.17v-1.19h4.17Zm-3.05-1.83h1.49v7.22c0,.29,.04,.5,.13,.65,.09,.14,.2,.24,.34,.29,.14,.05,.29,.08,.45,.08,.12,0,.22,0,.31-.02,.09-.02,.16-.03,.21-.04l.27,1.23c-.09,.03-.21,.07-.37,.1-.16,.04-.36,.05-.6,.06-.39,0-.76-.06-1.09-.21-.34-.15-.61-.37-.82-.68-.21-.3-.31-.69-.31-1.15v-7.53Z"/><path class="v" d="M562.63,348.2c-.75,0-1.4-.16-1.94-.49s-.96-.78-1.25-1.37c-.29-.59-.44-1.28-.44-2.07s.15-1.47,.44-2.07c.29-.6,.7-1.06,1.23-1.4,.53-.33,1.15-.5,1.86-.5,.43,0,.85,.07,1.25,.21s.77,.37,1.09,.67c.32,.31,.57,.7,.76,1.19,.19,.49,.28,1.07,.28,1.77v.53h-6.07v-1.11h4.61c0-.39-.08-.74-.24-1.04-.16-.3-.38-.54-.67-.72-.29-.18-.62-.26-1.01-.26-.42,0-.78,.1-1.09,.31-.31,.2-.55,.47-.72,.79-.17,.33-.25,.68-.25,1.06v.87c0,.51,.09,.94,.27,1.3s.43,.63,.76,.82c.33,.19,.7,.28,1.14,.28,.28,0,.54-.04,.77-.12,.23-.08,.43-.2,.6-.37,.17-.16,.3-.36,.39-.6l1.41,.25c-.11,.41-.31,.78-.6,1.09-.29,.31-.65,.55-1.09,.72-.44,.17-.93,.26-1.49,.26Z"/><path class="v" d="M567.57,348.05v-7.64h1.44v1.21h.08c.14-.41,.38-.73,.74-.97,.35-.24,.75-.36,1.2-.36,.09,0,.2,0,.33,0,.13,0,.23,.01,.3,.03v1.42c-.06-.02-.17-.04-.32-.06s-.3-.03-.46-.03c-.35,0-.66,.07-.94,.22s-.49,.35-.65,.61c-.16,.26-.24,.56-.24,.89v4.66h-1.49Z"/><path class="v" d="M574.43,343.51v4.53h-1.49v-7.64h1.43v1.24h.09c.18-.4,.45-.73,.83-.97,.38-.25,.85-.37,1.42-.37,.52,0,.98,.11,1.37,.33s.69,.54,.91,.97c.21,.43,.32,.96,.32,1.59v4.86h-1.49v-4.68c0-.55-.14-.99-.43-1.3-.29-.31-.68-.47-1.19-.47-.34,0-.65,.07-.92,.22-.27,.15-.48,.37-.63,.65-.15,.29-.23,.63-.23,1.04Z"/><path class="v" d="M583.53,348.21c-.48,0-.92-.09-1.31-.27-.39-.18-.7-.44-.93-.79-.23-.34-.34-.77-.34-1.27,0-.43,.08-.79,.25-1.06s.39-.5,.67-.66c.28-.16,.6-.29,.95-.37,.35-.08,.7-.15,1.06-.19,.46-.05,.83-.1,1.11-.13,.29-.04,.49-.09,.62-.17,.13-.08,.19-.21,.19-.39v-.04c0-.43-.12-.77-.37-1.01-.24-.24-.61-.36-1.09-.36s-.89,.11-1.18,.33c-.29,.22-.49,.46-.59,.73l-1.4-.32c.17-.46,.41-.84,.73-1.13,.32-.29,.69-.5,1.11-.63,.42-.13,.86-.2,1.32-.2,.31,0,.63,.04,.97,.11,.34,.07,.66,.2,.96,.39,.3,.19,.55,.46,.74,.81s.29,.8,.29,1.36v5.07h-1.45v-1.04h-.06c-.1,.19-.24,.38-.43,.57s-.44,.34-.74,.46c-.3,.12-.66,.18-1.08,.18Zm.32-1.19c.41,0,.76-.08,1.06-.24,.29-.16,.52-.38,.67-.64,.15-.26,.23-.55,.23-.85v-.98c-.05,.05-.15,.1-.31,.15-.15,.04-.32,.08-.51,.11-.19,.03-.38,.06-.56,.08-.18,.03-.33,.05-.46,.06-.29,.04-.55,.1-.79,.18-.24,.09-.43,.21-.57,.37-.14,.16-.21,.37-.21,.64,0,.37,.14,.65,.41,.83,.27,.19,.62,.28,1.04,.28Z"/><path class="v" d="M590.76,337.86v10.18h-1.49v-10.18h1.49Z"/><path class="v" d="M602.14,340.54c-.05-.47-.27-.84-.66-1.1-.38-.26-.87-.39-1.45-.39-.42,0-.78,.07-1.08,.2-.3,.13-.54,.31-.71,.54-.17,.23-.25,.49-.25,.77,0,.24,.06,.45,.17,.63,.12,.18,.27,.32,.45,.44,.19,.12,.39,.22,.6,.29,.22,.08,.42,.14,.62,.19l.99,.26c.32,.08,.66,.19,1,.32,.34,.14,.66,.31,.95,.54,.29,.22,.53,.5,.71,.83s.27,.72,.27,1.18c0,.58-.15,1.09-.44,1.54-.3,.45-.73,.8-1.29,1.06-.56,.26-1.24,.39-2.04,.39s-1.42-.12-1.98-.36c-.56-.24-.99-.59-1.31-1.03-.31-.45-.49-.98-.52-1.59h1.54c.03,.37,.15,.67,.36,.92,.21,.24,.48,.42,.81,.54,.33,.12,.69,.18,1.09,.18,.43,0,.82-.07,1.16-.21s.61-.33,.8-.58c.2-.25,.29-.54,.29-.87,0-.3-.09-.55-.26-.74-.17-.19-.4-.35-.69-.48s-.62-.24-.98-.33l-1.2-.33c-.82-.22-1.46-.55-1.94-.98s-.71-1-.71-1.71c0-.59,.16-1.1,.48-1.54,.32-.44,.75-.78,1.29-1.02,.54-.24,1.16-.37,1.84-.37s1.3,.12,1.83,.36c.53,.24,.95,.57,1.25,1,.3,.42,.46,.91,.48,1.45h-1.48Z"/><path class="v" d="M606.42,350.91c-.22,0-.42-.02-.61-.05-.18-.04-.32-.07-.41-.11l.36-1.22c.27,.07,.51,.1,.73,.09,.21-.01,.4-.09,.56-.24s.31-.39,.43-.73l.18-.51-2.79-7.74h1.59l1.93,5.93h.08l1.93-5.93h1.6l-3.15,8.66c-.15,.4-.33,.74-.56,1.01-.23,.28-.49,.49-.8,.62-.31,.14-.67,.21-1.08,.21Z"/><path class="v" d="M619.13,342.27l-1.35,.24c-.06-.17-.15-.34-.27-.49-.12-.16-.28-.28-.49-.38-.21-.1-.46-.15-.77-.15-.42,0-.77,.09-1.05,.28-.28,.19-.42,.43-.42,.72,0,.26,.09,.46,.28,.62,.19,.16,.49,.28,.92,.38l1.21,.28c.7,.16,1.23,.41,1.57,.75s.52,.78,.52,1.32c0,.46-.13,.86-.4,1.22s-.63,.64-1.1,.84-1.01,.3-1.63,.3c-.86,0-1.55-.18-2.09-.55-.54-.37-.87-.89-1-1.56l1.44-.22c.09,.38,.27,.66,.55,.85s.64,.29,1.09,.29c.49,0,.88-.1,1.17-.31,.29-.2,.44-.45,.44-.75,0-.24-.09-.44-.27-.6-.18-.16-.45-.28-.81-.37l-1.29-.28c-.71-.16-1.24-.42-1.58-.78-.34-.35-.51-.8-.51-1.35,0-.45,.13-.85,.38-1.18s.6-.6,1.04-.79c.44-.19,.95-.29,1.53-.29,.83,0,1.48,.18,1.95,.54,.47,.36,.79,.83,.94,1.43Z"/><path class="v" d="M624.48,340.41v1.19h-4.17v-1.19h4.17Zm-3.05-1.83h1.49v7.22c0,.29,.04,.5,.13,.65,.09,.14,.2,.24,.34,.29,.14,.05,.29,.08,.45,.08,.12,0,.22,0,.31-.02,.09-.02,.16-.03,.21-.04l.27,1.23c-.09,.03-.21,.07-.37,.1-.16,.04-.36,.05-.6,.06-.39,0-.76-.06-1.09-.21-.34-.15-.61-.37-.82-.68-.21-.3-.31-.69-.31-1.15v-7.53Z"/><path class="v" d="M629.33,348.2c-.75,0-1.4-.16-1.94-.49s-.96-.78-1.25-1.37c-.29-.59-.44-1.28-.44-2.07s.15-1.47,.44-2.07c.29-.6,.7-1.06,1.23-1.4,.53-.33,1.15-.5,1.86-.5,.43,0,.85,.07,1.25,.21s.77,.37,1.09,.67c.32,.31,.57,.7,.76,1.19,.19,.49,.28,1.07,.28,1.77v.53h-6.07v-1.11h4.61c0-.39-.08-.74-.24-1.04-.16-.3-.38-.54-.67-.72-.29-.18-.62-.26-1.01-.26-.42,0-.78,.1-1.09,.31-.31,.2-.55,.47-.72,.79-.17,.33-.25,.68-.25,1.06v.87c0,.51,.09,.94,.27,1.3s.43,.63,.76,.82c.33,.19,.7,.28,1.14,.28,.28,0,.54-.04,.77-.12,.23-.08,.43-.2,.6-.37,.17-.16,.3-.36,.39-.6l1.41,.25c-.11,.41-.31,.78-.6,1.09-.29,.31-.65,.55-1.09,.72-.44,.17-.93,.26-1.49,.26Z"/><path class="v" d="M634.26,348.05v-7.64h1.43v1.24h.09c.16-.42,.42-.75,.78-.99,.36-.24,.79-.36,1.3-.36s.94,.12,1.29,.36c.35,.24,.6,.57,.77,.98h.08c.18-.41,.47-.73,.87-.98,.4-.24,.87-.37,1.42-.37,.69,0,1.26,.22,1.7,.65,.44,.43,.66,1.09,.66,1.96v5.12h-1.49v-4.98c0-.52-.14-.89-.42-1.12-.28-.23-.62-.35-1.01-.35-.48,0-.86,.15-1.13,.44-.27,.3-.4,.68-.4,1.14v4.87h-1.48v-5.08c0-.41-.13-.75-.39-1s-.59-.38-1.01-.38c-.28,0-.54,.07-.78,.22-.24,.15-.43,.35-.57,.61-.14,.26-.22,.57-.22,.91v4.71h-1.49Z"/></g><g><path class="v" d="M174.01,432.65h-3.3v-10.18h3.4c1,0,1.85,.2,2.57,.61,.72,.41,1.27,.99,1.65,1.75,.38,.76,.57,1.67,.57,2.72s-.19,1.97-.58,2.73c-.39,.76-.94,1.35-1.67,1.76-.73,.41-1.61,.61-2.64,.61Zm-1.76-1.34h1.67c.78,0,1.42-.15,1.93-.44,.51-.29,.9-.72,1.15-1.28,.25-.56,.38-1.24,.38-2.05s-.13-1.48-.38-2.03c-.25-.56-.63-.98-1.13-1.27-.5-.29-1.12-.43-1.86-.43h-1.77v7.5Z"/><path class="v" d="M181.44,423.83c-.26,0-.48-.09-.66-.26s-.28-.38-.28-.62,.09-.45,.28-.63c.18-.17,.41-.26,.66-.26s.48,.09,.66,.26c.18,.17,.28,.38,.28,.63s-.09,.45-.28,.62c-.18,.17-.41,.26-.66,.26Zm-.75,8.81v-7.64h1.49v7.64h-1.49Z"/><path class="v" d="M187.38,435.67c-.61,0-1.13-.08-1.56-.24-.44-.16-.79-.37-1.07-.63-.27-.26-.48-.55-.62-.86l1.28-.53c.09,.15,.21,.3,.36,.46,.15,.16,.36,.3,.62,.42,.26,.12,.6,.17,1.01,.17,.56,0,1.03-.14,1.4-.41,.37-.27,.55-.71,.55-1.3v-1.5h-.09c-.09,.16-.22,.34-.39,.54-.17,.2-.4,.37-.69,.52-.29,.15-.67,.22-1.14,.22-.6,0-1.15-.14-1.63-.43-.48-.28-.86-.7-1.14-1.26-.28-.55-.42-1.24-.42-2.05s.14-1.51,.42-2.09,.66-1.02,1.14-1.33c.48-.31,1.03-.46,1.65-.46,.47,0,.86,.08,1.15,.24,.29,.16,.52,.34,.68,.55,.16,.21,.29,.39,.38,.55h.11v-1.24h1.46v7.81c0,.66-.15,1.19-.46,1.62s-.72,.73-1.24,.93-1.1,.3-1.75,.3Zm-.02-4.37c.43,0,.79-.1,1.09-.3,.3-.2,.52-.49,.68-.87,.15-.38,.23-.83,.23-1.35s-.08-.97-.23-1.36c-.15-.39-.38-.7-.67-.92s-.66-.33-1.09-.33-.82,.12-1.12,.35c-.3,.23-.52,.54-.67,.94s-.23,.83-.23,1.32,.08,.94,.23,1.32c.15,.38,.38,.67,.68,.88,.3,.21,.67,.32,1.11,.32Z"/><path class="v" d="M193.57,423.83c-.26,0-.48-.09-.66-.26s-.28-.38-.28-.62,.09-.45,.28-.63c.18-.17,.41-.26,.66-.26s.48,.09,.66,.26c.18,.17,.28,.38,.28,.63s-.09,.45-.28,.62c-.18,.17-.41,.26-.66,.26Zm-.75,8.81v-7.64h1.49v7.64h-1.49Z"/><path class="v" d="M199.87,425.01v1.19h-4.17v-1.19h4.17Zm-3.05-1.83h1.49v7.22c0,.29,.04,.5,.13,.65,.09,.14,.2,.24,.34,.29,.14,.05,.29,.08,.45,.08,.12,0,.22,0,.31-.02,.09-.02,.16-.03,.21-.04l.27,1.23c-.09,.03-.21,.07-.37,.1-.16,.04-.36,.05-.6,.06-.39,0-.76-.06-1.09-.21-.34-.15-.61-.37-.82-.68-.21-.3-.31-.69-.31-1.15v-7.53Z"/><path class="v" d="M203.73,432.81c-.48,0-.92-.09-1.31-.27-.39-.18-.7-.44-.93-.79-.23-.34-.34-.77-.34-1.27,0-.43,.08-.79,.25-1.06,.17-.28,.39-.5,.67-.66,.28-.16,.6-.29,.94-.37s.7-.15,1.06-.19c.46-.05,.83-.1,1.11-.13,.29-.04,.49-.09,.62-.17,.13-.08,.19-.21,.19-.39v-.04c0-.43-.12-.77-.37-1.01-.24-.24-.61-.36-1.09-.36s-.89,.11-1.18,.33c-.29,.22-.48,.46-.59,.73l-1.4-.32c.17-.46,.41-.84,.73-1.13,.32-.29,.69-.5,1.11-.63,.42-.13,.86-.2,1.32-.2,.3,0,.63,.04,.97,.11s.67,.2,.96,.39c.3,.19,.55,.46,.74,.81s.29,.8,.29,1.36v5.07h-1.45v-1.04h-.06c-.1,.19-.24,.38-.43,.57-.19,.19-.44,.34-.74,.46-.3,.12-.66,.18-1.08,.18Zm.32-1.19c.41,0,.76-.08,1.06-.24,.29-.16,.52-.38,.67-.64,.15-.26,.23-.55,.23-.85v-.98c-.05,.05-.16,.1-.31,.15-.15,.04-.32,.08-.51,.11-.19,.03-.38,.06-.56,.08-.18,.03-.33,.05-.46,.06-.29,.04-.55,.1-.79,.18-.24,.09-.43,.21-.57,.37-.14,.16-.21,.37-.21,.64,0,.37,.14,.65,.41,.83,.27,.19,.62,.28,1.04,.28Z"/><path class="v" d="M210.96,422.46v10.18h-1.49v-10.18h1.49Z"/><path class="v" d="M216.79,432.65v-10.18h3.63c.79,0,1.45,.14,1.97,.43,.52,.29,.91,.68,1.17,1.18,.26,.5,.39,1.06,.39,1.68s-.13,1.19-.39,1.69c-.26,.5-.65,.89-1.17,1.18-.52,.29-1.18,.43-1.97,.43h-2.5v-1.3h2.36c.5,0,.91-.09,1.22-.26s.54-.41,.69-.71c.15-.3,.22-.64,.22-1.03s-.07-.73-.22-1.02c-.15-.3-.38-.53-.69-.7s-.72-.25-1.24-.25h-1.93v8.86h-1.54Z"/><path class="v" d="M227.11,422.46v10.18h-1.49v-10.18h1.49Z"/><path class="v" d="M231.33,432.81c-.48,0-.92-.09-1.31-.27-.39-.18-.7-.44-.93-.79-.23-.34-.34-.77-.34-1.27,0-.43,.08-.79,.25-1.06s.39-.5,.67-.66c.28-.16,.6-.29,.95-.37,.35-.08,.7-.15,1.06-.19,.46-.05,.83-.1,1.11-.13,.29-.04,.49-.09,.62-.17,.13-.08,.19-.21,.19-.39v-.04c0-.43-.12-.77-.37-1.01-.24-.24-.61-.36-1.09-.36s-.89,.11-1.18,.33c-.29,.22-.49,.46-.59,.73l-1.4-.32c.17-.46,.41-.84,.73-1.13,.32-.29,.69-.5,1.11-.63,.42-.13,.86-.2,1.32-.2,.31,0,.63,.04,.97,.11,.34,.07,.66,.2,.96,.39,.3,.19,.55,.46,.74,.81s.29,.8,.29,1.36v5.07h-1.45v-1.04h-.06c-.1,.19-.24,.38-.43,.57s-.44,.34-.74,.46c-.3,.12-.66,.18-1.08,.18Zm.32-1.19c.41,0,.76-.08,1.06-.24,.29-.16,.52-.38,.67-.64,.15-.26,.23-.55,.23-.85v-.98c-.05,.05-.15,.1-.31,.15-.15,.04-.32,.08-.51,.11-.19,.03-.38,.06-.56,.08-.18,.03-.33,.05-.46,.06-.29,.04-.55,.1-.79,.18-.24,.09-.43,.21-.57,.37-.14,.16-.21,.37-.21,.64,0,.37,.14,.65,.41,.83,.27,.19,.62,.28,1.04,.28Z"/><path class="v" d="M240.64,425.01v1.19h-4.17v-1.19h4.17Zm-3.05-1.83h1.49v7.22c0,.29,.04,.5,.13,.65,.09,.14,.2,.24,.34,.29,.14,.05,.29,.08,.45,.08,.12,0,.22,0,.31-.02,.09-.02,.16-.03,.21-.04l.27,1.23c-.09,.03-.21,.07-.37,.1-.16,.04-.36,.05-.6,.06-.39,0-.76-.06-1.09-.21-.34-.15-.61-.37-.82-.68-.21-.3-.31-.69-.31-1.15v-7.53Z"/><path class="v" d="M245.91,425.01v1.19h-4.32v-1.19h4.32Zm-3.13,7.64v-8.52c0-.48,.1-.87,.31-1.19,.21-.32,.49-.55,.83-.71s.72-.24,1.12-.24c.3,0,.55,.02,.77,.07s.37,.09,.47,.13l-.35,1.2c-.07-.02-.16-.04-.27-.07s-.24-.04-.4-.04c-.36,0-.62,.09-.77,.27-.15,.18-.23,.44-.23,.78v8.32h-1.49Z"/><path class="v" d="M250.36,432.8c-.72,0-1.34-.16-1.87-.49s-.95-.79-1.24-1.38c-.29-.59-.44-1.28-.44-2.07s.15-1.49,.44-2.08c.29-.59,.71-1.05,1.24-1.38s1.16-.49,1.87-.49,1.34,.16,1.88,.49c.53,.33,.95,.79,1.24,1.38,.29,.59,.44,1.29,.44,2.08s-.15,1.48-.44,2.07c-.29,.59-.71,1.05-1.24,1.38-.53,.33-1.16,.49-1.88,.49Zm0-1.25c.46,0,.85-.12,1.15-.37,.3-.25,.53-.57,.68-.98,.15-.41,.22-.86,.22-1.35s-.07-.93-.22-1.34c-.15-.41-.37-.74-.68-.99-.31-.25-.69-.37-1.15-.37s-.85,.12-1.16,.37c-.31,.25-.53,.58-.68,.99-.15,.41-.22,.86-.22,1.34s.07,.94,.22,1.35c.15,.41,.38,.73,.68,.98s.69,.37,1.16,.37Z"/><path class="v" d="M255.57,432.65v-7.64h1.44v1.21h.08c.14-.41,.39-.73,.74-.97,.35-.24,.75-.36,1.2-.36,.09,0,.2,0,.33,0,.13,0,.23,.01,.3,.03v1.42c-.06-.02-.17-.04-.32-.06s-.3-.03-.46-.03c-.35,0-.66,.07-.94,.22s-.49,.35-.65,.61c-.16,.26-.24,.56-.24,.89v4.66h-1.49Z"/><path class="v" d="M260.95,432.65v-7.64h1.43v1.24h.09c.16-.42,.42-.75,.78-.99,.36-.24,.79-.36,1.3-.36s.94,.12,1.29,.36c.35,.24,.6,.57,.77,.98h.08c.18-.41,.47-.73,.87-.98,.4-.24,.87-.37,1.42-.37,.69,0,1.26,.22,1.7,.65,.44,.43,.66,1.09,.66,1.96v5.12h-1.49v-4.98c0-.52-.14-.89-.42-1.12-.28-.23-.62-.35-1.01-.35-.48,0-.86,.15-1.13,.44-.27,.3-.4,.68-.4,1.14v4.87h-1.48v-5.08c0-.41-.13-.75-.39-1-.26-.25-.59-.38-1.01-.38-.28,0-.54,.07-.78,.22s-.43,.35-.57,.61c-.14,.26-.22,.57-.22,.91v4.71h-1.49Z"/></g><g><path class="m" d="M498.71,351.12c.17,.09,.35,.15,.52,.22h11.6c.24-.11,.5-.19,.72-.33,.67-.44,.94-1.27,.7-2.03-.24-.77-.93-1.28-1.76-1.28-2.03,0-4.06,0-6.09,0-.11,0-.22,0-.34,0l-.05-.09c.1-.09,.22-.16,.31-.26,4.85-4.85,9.7-9.7,14.55-14.55,.12-.12,.24-.24,.35-.37,.82-1.02,.33-2.54-.92-2.88-.75-.21-1.37,.04-1.92,.58-4.88,4.89-9.77,9.78-14.66,14.67-.09,.09-.19,.18-.33,.31,0-.34,0-.6,0-.85,0-1.89,0-3.78,0-5.67,0-.91-.67-1.67-1.53-1.79-.93-.13-1.75,.38-2.04,1.27-.02,.07-.05,.14-.08,.21v11.6c.18,.52,.44,.99,.96,1.25Z"/><path class="m" d="M516.96,344.41c-1,.09-1.68,.86-1.69,1.91,0,2.33-.03,4.66,.01,6.99,.02,1.23-.88,2.05-2.03,2.04-5.95-.03-11.9-.01-17.85-.01-1.27,0-2.01-.73-2.01-2.01,0-5.96,0-11.92,0-17.88,0-1.25,.74-1.98,1.99-1.98,2.35,0,4.7,0,7.05,0,1.09,0,1.9-.81,1.89-1.84-.01-1.03-.81-1.8-1.89-1.8-2.4,0-4.81-.01-7.21,0-3.1,.02-5.48,2.42-5.48,5.53,0,6.04,0,12.07,0,18.11,0,.36,.03,.73,.1,1.08,.53,2.64,2.73,4.44,5.42,4.45,3.01,0,6.02,0,9.04,0,2.99,0,5.98,0,8.97,0,.31,0,.62-.02,.93-.06,2.52-.3,4.64-2.54,4.69-5.07,.05-2.57,.03-5.15,.01-7.72,0-1.02-.94-1.81-1.95-1.72Z"/></g><rect class="e" x="474.33" y="411.4" width="190.76" height="63.06" rx="10.84" ry="10.84"/><g><path class="v" d="M543.74,436.56v10.18h-1.54v-10.18h1.54Z"/><path class="v" d="M547.34,442.21v4.53h-1.49v-7.64h1.43v1.24h.09c.18-.4,.45-.73,.83-.97,.38-.25,.85-.37,1.42-.37,.52,0,.98,.11,1.37,.33,.39,.22,.69,.54,.91,.97,.21,.43,.32,.96,.32,1.59v4.86h-1.49v-4.68c0-.55-.14-.99-.43-1.3-.29-.31-.68-.47-1.19-.47-.34,0-.65,.08-.92,.22-.27,.15-.48,.37-.63,.65-.15,.29-.23,.63-.23,1.04Z"/><path class="v" d="M557.78,439.11v1.19h-4.17v-1.19h4.17Zm-3.05-1.83h1.49v7.22c0,.29,.04,.5,.13,.65,.09,.14,.2,.24,.34,.29s.29,.08,.45,.08c.12,0,.22,0,.31-.03,.09-.02,.16-.03,.21-.04l.27,1.23c-.09,.03-.21,.07-.37,.1-.16,.03-.36,.05-.6,.06-.39,0-.76-.06-1.09-.21-.34-.15-.61-.37-.82-.68-.21-.3-.31-.69-.31-1.15v-7.53Z"/><path class="v" d="M562.63,446.9c-.75,0-1.4-.16-1.94-.48s-.96-.78-1.25-1.37c-.29-.59-.44-1.28-.44-2.07s.15-1.47,.44-2.07c.29-.6,.7-1.06,1.23-1.4,.53-.33,1.15-.5,1.86-.5,.43,0,.85,.07,1.25,.21s.77,.37,1.09,.67c.32,.3,.57,.7,.76,1.19,.19,.49,.28,1.08,.28,1.77v.53h-6.07v-1.11h4.61c0-.39-.08-.74-.24-1.04-.16-.3-.38-.54-.67-.72-.29-.18-.62-.26-1.01-.26-.42,0-.78,.1-1.09,.31-.31,.2-.55,.47-.72,.8-.17,.33-.25,.68-.25,1.06v.87c0,.51,.09,.94,.27,1.3,.18,.36,.43,.63,.76,.82s.7,.28,1.14,.28c.28,0,.54-.04,.77-.12s.43-.2,.6-.37c.17-.16,.3-.36,.39-.6l1.41,.25c-.11,.42-.31,.78-.6,1.09-.29,.31-.65,.55-1.09,.72-.44,.17-.93,.26-1.49,.26Z"/><path class="v" d="M567.57,446.74v-7.64h1.44v1.21h.08c.14-.41,.38-.74,.74-.97,.35-.24,.75-.36,1.2-.36,.09,0,.2,0,.33,0,.13,0,.23,.01,.3,.02v1.42c-.06-.02-.17-.04-.32-.06s-.3-.03-.46-.03c-.35,0-.66,.07-.94,.22s-.49,.35-.65,.61c-.16,.26-.24,.56-.24,.89v4.66h-1.49Z"/><path class="v" d="M574.43,442.21v4.53h-1.49v-7.64h1.43v1.24h.09c.18-.4,.45-.73,.83-.97,.38-.25,.85-.37,1.42-.37,.52,0,.98,.11,1.37,.33,.39,.22,.69,.54,.91,.97,.21,.43,.32,.96,.32,1.59v4.86h-1.49v-4.68c0-.55-.14-.99-.43-1.3-.29-.31-.68-.47-1.19-.47-.34,0-.65,.08-.92,.22-.27,.15-.48,.37-.63,.65-.15,.29-.23,.63-.23,1.04Z"/><path class="v" d="M583.53,446.91c-.48,0-.92-.09-1.31-.27-.39-.18-.7-.44-.93-.79-.23-.34-.34-.77-.34-1.27,0-.43,.08-.79,.25-1.06s.39-.5,.67-.66c.28-.16,.6-.29,.95-.37,.35-.08,.7-.15,1.06-.19,.46-.05,.83-.1,1.11-.13,.29-.03,.49-.09,.62-.17,.13-.08,.19-.21,.19-.39v-.03c0-.43-.12-.77-.37-1.01-.24-.24-.61-.36-1.09-.36s-.89,.11-1.18,.33c-.29,.22-.49,.46-.59,.73l-1.4-.32c.17-.46,.41-.84,.73-1.13,.32-.29,.69-.5,1.11-.63,.42-.13,.86-.2,1.32-.2,.31,0,.63,.04,.97,.11,.34,.07,.66,.2,.96,.39,.3,.19,.55,.46,.74,.81s.29,.8,.29,1.36v5.07h-1.45v-1.04h-.06c-.1,.19-.24,.38-.43,.57-.19,.19-.44,.34-.74,.46-.3,.12-.66,.18-1.08,.18Zm.32-1.19c.41,0,.76-.08,1.06-.24,.29-.16,.52-.38,.67-.64,.15-.26,.23-.55,.23-.85v-.98c-.05,.05-.15,.1-.31,.15-.15,.04-.32,.08-.51,.11-.19,.03-.38,.06-.56,.08-.18,.02-.33,.04-.46,.06-.29,.04-.55,.1-.79,.18-.24,.09-.43,.21-.57,.37-.14,.16-.21,.37-.21,.64,0,.37,.14,.65,.41,.83,.27,.19,.62,.28,1.04,.28Z"/><path class="v" d="M590.76,436.56v10.18h-1.49v-10.18h1.49Z"/><path class="v" d="M602.14,439.24c-.05-.47-.27-.84-.66-1.1-.38-.26-.87-.39-1.45-.39-.42,0-.78,.07-1.08,.2-.3,.13-.54,.31-.71,.54-.17,.23-.25,.48-.25,.77,0,.24,.06,.45,.17,.63,.12,.18,.27,.32,.45,.44,.19,.12,.39,.22,.6,.29,.22,.08,.42,.14,.62,.19l.99,.26c.32,.08,.66,.19,1,.32,.34,.14,.66,.32,.95,.54,.29,.22,.53,.5,.71,.83s.27,.72,.27,1.18c0,.58-.15,1.09-.44,1.54-.3,.45-.73,.8-1.29,1.06-.56,.26-1.24,.39-2.04,.39s-1.42-.12-1.98-.36c-.56-.24-.99-.59-1.31-1.03-.31-.45-.49-.97-.52-1.59h1.54c.03,.37,.15,.67,.36,.92,.21,.24,.48,.42,.81,.54s.69,.18,1.09,.18c.43,0,.82-.07,1.16-.21,.34-.14,.61-.33,.8-.58s.29-.54,.29-.87c0-.3-.09-.55-.26-.74-.17-.19-.4-.35-.69-.48s-.62-.24-.98-.33l-1.2-.33c-.82-.22-1.46-.55-1.94-.98s-.71-1-.71-1.71c0-.59,.16-1.1,.48-1.54,.32-.44,.75-.78,1.29-1.02,.54-.24,1.16-.37,1.84-.37s1.3,.12,1.83,.36c.53,.24,.95,.57,1.25,1s.46,.91,.48,1.45h-1.48Z"/><path class="v" d="M606.42,449.61c-.22,0-.42-.02-.61-.05-.18-.03-.32-.07-.41-.11l.36-1.22c.27,.07,.51,.1,.73,.09s.4-.09,.56-.24c.16-.15,.31-.39,.43-.73l.18-.51-2.79-7.74h1.59l1.93,5.93h.08l1.93-5.93h1.6l-3.15,8.66c-.15,.4-.33,.73-.56,1.01-.23,.28-.49,.48-.8,.62-.31,.14-.67,.21-1.08,.21Z"/><path class="v" d="M619.13,440.97l-1.35,.24c-.06-.17-.15-.34-.27-.49-.12-.16-.28-.28-.49-.38-.21-.1-.46-.15-.77-.15-.42,0-.77,.09-1.05,.28-.28,.19-.42,.43-.42,.72,0,.25,.09,.46,.28,.62,.19,.16,.49,.28,.92,.38l1.21,.28c.7,.16,1.23,.41,1.57,.75s.52,.78,.52,1.32c0,.46-.13,.86-.4,1.22s-.63,.64-1.1,.84c-.47,.2-1.01,.3-1.63,.3-.86,0-1.55-.18-2.09-.55-.54-.37-.87-.89-1-1.56l1.44-.22c.09,.38,.27,.66,.55,.85,.28,.19,.64,.29,1.09,.29,.49,0,.88-.1,1.17-.31s.44-.45,.44-.75c0-.24-.09-.44-.27-.6-.18-.16-.45-.29-.81-.37l-1.29-.28c-.71-.16-1.24-.42-1.58-.78s-.51-.8-.51-1.35c0-.45,.13-.84,.38-1.18,.25-.34,.6-.6,1.04-.79,.44-.19,.95-.29,1.53-.29,.83,0,1.48,.18,1.95,.53s.79,.83,.94,1.43Z"/><path class="v" d="M624.48,439.11v1.19h-4.17v-1.19h4.17Zm-3.05-1.83h1.49v7.22c0,.29,.04,.5,.13,.65,.09,.14,.2,.24,.34,.29s.29,.08,.45,.08c.12,0,.22,0,.31-.03,.09-.02,.16-.03,.21-.04l.27,1.23c-.09,.03-.21,.07-.37,.1-.16,.03-.36,.05-.6,.06-.39,0-.76-.06-1.09-.21-.34-.15-.61-.37-.82-.68-.21-.3-.31-.69-.31-1.15v-7.53Z"/><path class="v" d="M629.33,446.9c-.75,0-1.4-.16-1.94-.48s-.96-.78-1.25-1.37c-.29-.59-.44-1.28-.44-2.07s.15-1.47,.44-2.07c.29-.6,.7-1.06,1.23-1.4,.53-.33,1.15-.5,1.86-.5,.43,0,.85,.07,1.25,.21s.77,.37,1.09,.67c.32,.3,.57,.7,.76,1.19,.19,.49,.28,1.08,.28,1.77v.53h-6.07v-1.11h4.61c0-.39-.08-.74-.24-1.04-.16-.3-.38-.54-.67-.72-.29-.18-.62-.26-1.01-.26-.42,0-.78,.1-1.09,.31-.31,.2-.55,.47-.72,.8-.17,.33-.25,.68-.25,1.06v.87c0,.51,.09,.94,.27,1.3,.18,.36,.43,.63,.76,.82s.7,.28,1.14,.28c.28,0,.54-.04,.77-.12s.43-.2,.6-.37c.17-.16,.3-.36,.39-.6l1.41,.25c-.11,.42-.31,.78-.6,1.09-.29,.31-.65,.55-1.09,.72-.44,.17-.93,.26-1.49,.26Z"/><path class="v" d="M634.26,446.74v-7.64h1.43v1.24h.09c.16-.42,.42-.75,.78-.99,.36-.24,.79-.36,1.3-.36s.94,.12,1.29,.36c.35,.24,.6,.57,.77,.98h.08c.18-.41,.47-.73,.87-.98,.4-.24,.87-.37,1.42-.37,.69,0,1.26,.22,1.7,.65,.44,.43,.66,1.09,.66,1.96v5.12h-1.49v-4.98c0-.52-.14-.89-.42-1.12-.28-.23-.62-.35-1.01-.35-.48,0-.86,.15-1.13,.45s-.4,.68-.4,1.14v4.87h-1.48v-5.08c0-.41-.13-.75-.39-1s-.59-.38-1.01-.38c-.28,0-.54,.07-.78,.22-.24,.15-.43,.35-.57,.61-.14,.26-.22,.56-.22,.91v4.71h-1.49Z"/></g><g><g><path class="v" d="M326.43,211.95h-1.63l3.66-10.18h1.78l3.66,10.18h-1.63l-2.88-8.33h-.08l-2.88,8.33Zm.27-3.99h5.29v1.29h-5.29v-1.29Z"/><path class="v" d="M335.37,211.95v-10.18h3.63c.79,0,1.45,.14,1.97,.43,.52,.29,.91,.68,1.17,1.18,.26,.5,.39,1.06,.39,1.68s-.13,1.19-.39,1.69c-.26,.5-.65,.89-1.17,1.18-.52,.29-1.18,.44-1.97,.44h-2.5v-1.3h2.36c.5,0,.91-.09,1.22-.26s.54-.41,.69-.71c.15-.3,.22-.64,.22-1.03s-.07-.73-.22-1.02c-.15-.3-.38-.53-.69-.7-.31-.17-.73-.25-1.24-.25h-1.93v8.86h-1.54Z"/><path class="v" d="M345.85,201.77v10.18h-1.54v-10.18h1.54Z"/><path class="v" d="M358.69,204.99c-.1-.3-.22-.57-.38-.81-.16-.24-.35-.45-.57-.62-.22-.17-.48-.3-.76-.39-.28-.09-.59-.13-.93-.13-.57,0-1.09,.15-1.55,.44-.46,.29-.82,.73-1.09,1.29-.27,.57-.4,1.26-.4,2.09s.13,1.52,.4,2.09c.27,.57,.64,1,1.1,1.3,.47,.29,1,.44,1.6,.44,.55,0,1.04-.11,1.45-.34,.41-.23,.73-.54,.96-.96,.23-.41,.34-.9,.34-1.46l.4,.07h-2.91v-1.27h4v1.16c0,.85-.18,1.6-.54,2.22-.36,.63-.86,1.11-1.5,1.45-.64,.34-1.37,.51-2.19,.51-.92,0-1.73-.21-2.42-.64s-1.24-1.03-1.62-1.81c-.39-.78-.58-1.71-.58-2.78,0-.81,.11-1.54,.34-2.19,.23-.65,.54-1.2,.95-1.65,.41-.45,.89-.8,1.45-1.04,.55-.24,1.16-.36,1.82-.36,.55,0,1.06,.08,1.54,.24,.48,.16,.9,.39,1.27,.69,.37,.3,.68,.65,.93,1.06,.25,.41,.41,.86,.5,1.36h-1.58Z"/><path class="v" d="M364.38,212.12c-.48,0-.92-.09-1.31-.27-.39-.18-.7-.44-.93-.79-.23-.34-.34-.77-.34-1.27,0-.43,.08-.79,.25-1.06s.39-.5,.67-.66c.28-.16,.6-.29,.95-.37,.35-.08,.7-.15,1.06-.19,.46-.05,.83-.1,1.11-.13s.49-.09,.62-.17c.13-.08,.19-.21,.19-.39v-.03c0-.43-.12-.77-.37-1.01-.24-.24-.61-.36-1.09-.36s-.89,.11-1.18,.33c-.29,.22-.49,.46-.59,.73l-1.4-.32c.17-.46,.41-.84,.73-1.13,.32-.29,.69-.5,1.11-.63,.42-.13,.86-.2,1.32-.2,.31,0,.63,.04,.97,.11,.34,.07,.66,.2,.96,.39s.55,.46,.74,.81,.29,.8,.29,1.36v5.07h-1.45v-1.04h-.06c-.1,.19-.24,.38-.43,.57-.19,.19-.44,.34-.74,.46-.3,.12-.66,.18-1.08,.18Zm.32-1.19c.41,0,.76-.08,1.06-.24,.29-.16,.52-.38,.67-.64,.15-.26,.23-.55,.23-.85v-.98c-.05,.05-.15,.1-.31,.15-.15,.04-.32,.08-.51,.11-.19,.03-.38,.06-.56,.08s-.33,.05-.46,.06c-.29,.04-.55,.1-.79,.18-.24,.09-.43,.21-.57,.37-.14,.16-.21,.37-.21,.64,0,.37,.14,.65,.41,.83,.27,.19,.62,.28,1.04,.28Z"/><path class="v" d="M373.7,204.31v1.19h-4.17v-1.19h4.17Zm-3.05-1.83h1.49v7.22c0,.29,.04,.5,.13,.65,.09,.14,.2,.24,.34,.29,.14,.05,.29,.08,.45,.08,.12,0,.22,0,.31-.02,.09-.02,.16-.03,.21-.04l.27,1.23c-.09,.03-.21,.07-.37,.1-.16,.03-.36,.05-.6,.06-.39,0-.76-.06-1.09-.21-.34-.15-.61-.37-.82-.68-.21-.3-.31-.69-.31-1.15v-7.53Z"/><path class="v" d="M378.55,212.1c-.75,0-1.4-.16-1.94-.48s-.96-.78-1.25-1.37c-.29-.59-.44-1.28-.44-2.07s.15-1.47,.44-2.07c.29-.6,.7-1.06,1.23-1.4,.53-.33,1.15-.5,1.86-.5,.43,0,.85,.07,1.25,.21s.77,.37,1.09,.67c.32,.31,.57,.7,.76,1.19,.19,.49,.28,1.07,.28,1.77v.53h-6.07v-1.11h4.61c0-.39-.08-.74-.24-1.04s-.38-.54-.67-.72c-.29-.18-.62-.26-1.01-.26-.42,0-.78,.1-1.09,.31-.31,.2-.55,.47-.72,.8-.17,.33-.25,.68-.25,1.06v.87c0,.51,.09,.94,.27,1.3,.18,.36,.43,.63,.76,.82,.33,.19,.7,.28,1.14,.28,.28,0,.54-.04,.77-.12,.23-.08,.43-.2,.6-.37s.3-.36,.39-.6l1.41,.25c-.11,.41-.31,.78-.6,1.09s-.65,.55-1.09,.72c-.44,.17-.93,.26-1.49,.26Z"/><path class="v" d="M385.12,211.95l-2.25-7.64h1.54l1.5,5.61h.08l1.5-5.61h1.54l1.49,5.58h.08l1.49-5.58h1.54l-2.24,7.64h-1.52l-1.55-5.51h-.11l-1.55,5.51h-1.51Z"/><path class="v" d="M397.23,212.12c-.48,0-.92-.09-1.31-.27-.39-.18-.7-.44-.93-.79-.23-.34-.34-.77-.34-1.27,0-.43,.08-.79,.25-1.06,.17-.28,.39-.5,.67-.66,.28-.16,.6-.29,.94-.37,.35-.08,.7-.15,1.06-.19,.46-.05,.83-.1,1.11-.13s.49-.09,.62-.17c.13-.08,.19-.21,.19-.39v-.03c0-.43-.12-.77-.37-1.01-.24-.24-.61-.36-1.09-.36s-.89,.11-1.18,.33c-.29,.22-.48,.46-.59,.73l-1.4-.32c.17-.46,.41-.84,.73-1.13s.69-.5,1.11-.63c.42-.13,.86-.2,1.32-.2,.3,0,.63,.04,.97,.11s.67,.2,.96,.39,.55,.46,.74,.81,.29,.8,.29,1.36v5.07h-1.45v-1.04h-.06c-.1,.19-.24,.38-.43,.57-.19,.19-.44,.34-.74,.46s-.66,.18-1.08,.18Zm.32-1.19c.41,0,.76-.08,1.06-.24,.29-.16,.52-.38,.67-.64,.15-.26,.23-.55,.23-.85v-.98c-.05,.05-.16,.1-.31,.15-.15,.04-.32,.08-.51,.11-.19,.03-.38,.06-.56,.08-.18,.02-.33,.05-.46,.06-.29,.04-.55,.1-.79,.18-.24,.09-.43,.21-.57,.37-.14,.16-.21,.37-.21,.64,0,.37,.14,.65,.41,.83,.27,.19,.62,.28,1.04,.28Z"/><path class="v" d="M403.64,214.81c-.22,0-.42-.02-.61-.05s-.32-.07-.41-.11l.36-1.22c.27,.07,.51,.1,.73,.09,.21-.01,.4-.09,.56-.24,.16-.15,.31-.39,.44-.73l.18-.51-2.79-7.74h1.59l1.93,5.93h.08l1.93-5.93h1.6l-3.15,8.66c-.15,.4-.33,.73-.56,1.01s-.49,.48-.81,.62-.67,.21-1.08,.21Z"/></g><path class="u" d="M270.92,214.36c0-1.32,1.08-2.41,2.41-2.41s2.41,1.08,2.41,2.41-1.08,2.41-2.41,2.41-2.41-1.08-2.41-2.41Zm10.07-5.11c.71-.71,.71-1.85,0-2.55-4.23-4.23-11.1-4.23-15.33,0-.71,.71-.71,1.85,0,2.55s1.85,.71,2.55,0c2.82-2.82,7.41-2.82,10.22,0,.35,.35,.82,.53,1.28,.53s.93-.18,1.28-.53Zm6.23-5.62c.72-.69,.75-1.83,.06-2.55-.11-.11-.22-.23-.33-.34-3.64-3.64-8.48-5.65-13.62-5.65s-9.98,2-13.62,5.64c-.11,.11-.22,.23-.33,.34-.69,.72-.66,1.87,.06,2.55,.72,.69,1.87,.66,2.55-.06l.26-.28c2.96-2.96,6.89-4.59,11.07-4.59s8.12,1.63,11.08,4.59l.26,.26c.35,.37,.83,.55,1.3,.55s.9-.17,1.25-.49v.02Z"/><path class="u" d="M456.34,214.36c0-1.32,1.08-2.41,2.41-2.41s2.41,1.08,2.41,2.41-1.08,2.41-2.41,2.41-2.41-1.08-2.41-2.41Zm10.07-5.11c.71-.71,.71-1.85,0-2.55-4.23-4.23-11.1-4.23-15.33,0-.71,.71-.71,1.85,0,2.55s1.85,.71,2.55,0c2.82-2.82,7.41-2.82,10.22,0,.35,.35,.82,.53,1.28,.53s.93-.18,1.28-.53Zm6.23-5.62c.72-.69,.75-1.83,.06-2.55-.11-.11-.22-.23-.33-.34-3.64-3.64-8.48-5.65-13.62-5.65s-9.98,2-13.62,5.64c-.11,.11-.22,.23-.33,.34-.69,.72-.66,1.87,.06,2.55,.72,.69,1.87,.66,2.55-.06l.26-.28c2.96-2.96,6.89-4.59,11.07-4.59s8.12,1.63,11.08,4.59l.26,.26c.35,.37,.83,.55,1.3,.55s.9-.17,1.25-.49v.02Z"/></g><g><path class="q" d="M498.71,449.83c.17,.09,.35,.15,.52,.22h11.6c.24-.11,.5-.19,.72-.33,.67-.44,.94-1.27,.7-2.03-.24-.77-.93-1.28-1.76-1.28-2.03,0-4.06,0-6.09,0-.11,0-.22,0-.34,0l-.05-.09c.1-.09,.22-.16,.31-.26,4.85-4.85,9.7-9.7,14.55-14.55,.12-.12,.24-.24,.35-.37,.82-1.02,.33-2.54-.92-2.88-.75-.21-1.37,.04-1.92,.58-4.88,4.89-9.77,9.78-14.66,14.67-.09,.09-.19,.18-.33,.31,0-.34,0-.6,0-.85,0-1.89,0-3.78,0-5.67,0-.91-.67-1.67-1.53-1.79-.93-.13-1.75,.38-2.04,1.27-.02,.07-.05,.14-.08,.21v11.6c.18,.52,.44,.99,.96,1.25Z"/><path class="q" d="M516.96,443.12c-1,.09-1.68,.86-1.69,1.91,0,2.33-.03,4.66,.01,6.99,.02,1.23-.88,2.05-2.03,2.04-5.95-.03-11.9-.01-17.85-.01-1.27,0-2.01-.73-2.01-2.01,0-5.96,0-11.92,0-17.88,0-1.25,.74-1.98,1.99-1.98,2.35,0,4.7,0,7.05,0,1.09,0,1.9-.81,1.89-1.84-.01-1.03-.81-1.8-1.89-1.8-2.4,0-4.81-.01-7.21,0-3.1,.02-5.48,2.42-5.48,5.53,0,6.04,0,12.07,0,18.11,0,.36,.03,.73,.1,1.08,.53,2.64,2.73,4.44,5.42,4.45,3.01,0,6.02,0,9.04,0,2.99,0,5.98,0,8.97,0,.31,0,.62-.02,.93-.06,2.52-.3,4.64-2.54,4.69-5.07,.05-2.57,.03-5.15,.01-7.72,0-1.02-.94-1.81-1.95-1.72Z"/></g><g><path class="p" d="M245.15,386.69c-1.14-.76-2.28-1.52-3.43-2.27-.15-.1-.28-.2-.46-.33,1.26-.84,2.48-1.65,3.7-2.46,.16-.11,.33-.21,.48-.33,.81-.64,.79-1.78-.08-2.38-1.14-.79-2.31-1.54-3.46-2.31-.2-.13-.4-.27-.65-.43,.16-.12,.28-.21,.41-.3,1.14-.76,2.29-1.51,3.43-2.28,1.25-.83,1.26-1.98,.01-2.8-4.17-2.77-8.35-5.54-12.52-8.31-3.45-2.29-6.91-4.58-10.36-6.88-.3-.2-.6-.38-.9-.57h-.78c-3.56,2.35-7.12,4.7-10.68,7.06-4.31,2.85-8.62,5.71-12.91,8.58-.43,.29-.74,.74-1.11,1.11v.78c.37,.38,.69,.82,1.11,1.11,1.18,.84,2.41,1.62,3.67,2.46-.19,.14-.35,.24-.5,.35-1.07,.71-2.16,1.4-3.21,2.15-.41,.29-.72,.72-1.07,1.09v.78c.37,.38,.69,.82,1.11,1.11,1.18,.84,2.41,1.62,3.67,2.45-.22,.15-.4,.28-.58,.4-1.05,.7-2.11,1.36-3.13,2.1-.41,.29-.72,.72-1.07,1.09v.78c.37,.38,.68,.83,1.11,1.12,7.64,5.1,15.3,10.17,22.95,15.26,.7,.47,1.33,.48,2.03,.02,7.73-5.14,15.47-10.27,23.2-15.41,1.19-.79,1.18-1.95,0-2.75Zm-44.93-14.34c-.05-.04-.1-.08-.21-.17,1.35-.9,2.65-1.77,3.96-2.63,5.52-3.66,11.04-7.32,16.55-11,.32-.21,.52-.23,.85,0,6.65,4.43,13.31,8.85,19.97,13.28,.16,.11,.32,.22,.52,.36-.14,.11-.24,.2-.35,.28-6.74,4.48-13.48,8.95-20.22,13.43-.22,.15-.38,.21-.64,.03-6.8-4.53-13.61-9.05-20.42-13.57Zm.34,8.17c-.17-.11-.34-.23-.57-.39,1.09-.72,2.11-1.41,3.16-2.07,.11-.07,.36,.02,.5,.11,2.48,1.63,4.95,3.28,7.43,4.92,2.94,1.95,5.87,3.9,8.81,5.85,.83,.55,1.28,.55,2.11,0,5.38-3.57,10.77-7.14,16.15-10.73,.34-.23,.57-.23,.9,0,.92,.64,1.86,1.25,2.86,1.91-.4,.27-.75,.51-1.09,.74-6.47,4.3-12.94,8.59-19.41,12.9-.33,.22-.55,.23-.89,0-6.64-4.43-13.29-8.84-19.94-13.25Zm34.98,11.78c-4.73,3.14-9.46,6.28-14.19,9.43-.27,.18-.46,.25-.77,.04-6.72-4.48-13.45-8.94-20.18-13.41-.12-.08-.23-.17-.4-.29,1.09-.72,2.12-1.42,3.18-2.09,.1-.06,.36,.06,.5,.16,4.06,2.68,8.11,5.37,12.16,8.06,1.33,.88,2.67,1.77,4,2.65,.89,.59,1.31,.59,2.19,.01,5.37-3.56,10.74-7.13,16.1-10.7,.34-.22,.56-.24,.9,0,.92,.65,1.86,1.25,2.87,1.92-2.17,1.44-4.27,2.84-6.36,4.23Z"/><path class="p" d="M221.33,366.45c2.14,1.44,4.29,2.86,6.44,4.28,1.55,1.03,3.1,2.06,4.65,3.08,.5,.33,1.04,.36,1.58,.07,.51-.27,.72-.73,.75-1.26-.04-.61-.33-1.02-.82-1.34-4-2.65-8-5.3-11.99-7.96-.68-.45-1.31-.46-1.99,0-1.43,.97-2.88,1.92-4.32,2.87-2.57,1.71-5.14,3.41-7.71,5.12-.55,.37-.86,.86-.74,1.53,.19,1.15,1.38,1.58,2.43,.89,3.66-2.42,7.31-4.85,10.96-7.29,.29-.19,.48-.19,.77,0Z"/><path class="p" d="M221.36,374.41c1.66,1.13,3.33,2.23,5.01,3.33,.79,.52,1.68,.37,2.15-.34,.46-.7,.27-1.57-.5-2.09-2.06-1.38-4.12-2.75-6.2-4.11-.25-.16-.56-.24-.85-.36-.29,.1-.57,.15-.8,.29-2.14,1.4-4.27,2.82-6.4,4.24-.5,.34-.72,.84-.62,1.44,.2,1.11,1.36,1.57,2.35,.92,1.69-1.11,3.38-2.22,5.05-3.36,.31-.21,.51-.19,.81,.01Z"/></g><g><polyline class="j" points="682.99 206.66 733.01 206.66 733.01 443.11 682.99 443.11"/><polygon class="t" points="684.45 211.64 675.82 206.66 684.45 201.67 684.45 211.64"/><polygon class="t" points="684.45 438.12 675.82 443.11 684.45 448.09 684.45 438.12"/></g></svg>