<?xml version="1.0" encoding="UTF-8"?><svg id="a" xmlns="http://www.w3.org/2000/svg" xmlns:xlink="http://www.w3.org/1999/xlink" viewBox="0 0 800 650"><defs><style>.g{stroke:#f7975a;}.g,.h,.i,.j,.k,.l,.m,.n,.o,.p,.q,.r,.s{stroke-miterlimit:10;stroke-width:2px;}.g,.t{fill:#fadc94;}.u,.n{fill:#b3dbb6;}.h{stroke-dasharray:0 0 5.36 5.36;}.h,.i,.j,.k,.l,.o,.p,.q,.s{fill:none;}.h,.j,.l{stroke:#51b5e7;}.h,.j,.l,.o,.p,.s{stroke-linecap:round;}.i,.n{stroke:#3bb54a;}.v{fill:#3bb54a;}.w{fill:url(#c);}.j{stroke-dasharray:0 0 5.32 5.32;}.k,.r{stroke:#0f71b9;}.x{fill:url(#b);}.m{fill:#f48993;stroke:#c84548;}.y{fill:#0f71b9;}.o{stroke:#d6b1fb;}.a`{fill:url(#d);}.aa{fill:url(#e);}.p{stroke:#fadc94;}.ab{fill:#d6b1fb;}.q{stroke:url(#f);}.ac{fill:#f1f1f2;}.r{fill:#51b5e7;}.ad{fill:#231f20;}.s{stroke:#b3dbb6;}.ae{fill:#ff5a1f;}</style><linearGradient id="b" x1="591.54" y1="551.63" x2="620.71" y2="551.63" gradientTransform="matrix(1, 0, 0, 1, 0, 0)" gradientUnits="userSpaceOnUse"><stop offset="0" stop-color="#7847ff"/><stop offset="1" stop-color="#952cf1"/></linearGradient><linearGradient id="c" x1="596.55" y1="548.56" x2="615.25" y2="548.56" xlink:href="#b"/><linearGradient id="d" x1="596.55" y1="554.54" x2="615.25" y2="554.54" xlink:href="#b"/><linearGradient id="e" x1="596.56" y1="560.52" x2="604.24" y2="560.52" xlink:href="#b"/><linearGradient id="f" x1="571.3" y1="551.63" x2="640.96" y2="551.63" xlink:href="#b"/></defs><g><line class="l" x1="606.13" y1="516.14" x2="606.13" y2="513.64"/><line class="j" x1="606.13" y1="508.32" x2="606.13" y2="436.47"/><line class="l" x1="606.13" y1="433.81" x2="606.13" y2="431.31"/></g><g><line class="l" x1="606.13" y1="216.66" x2="606.13" y2="214.16"/><line class="h" x1="606.13" y1="208.8" x2="606.13" y2="157.9"/><line class="l" x1="606.13" y1="155.22" x2="606.13" y2="152.72"/></g><g><line class="s" x1="607.31" y1="366.72" x2="607.31" y2="300.69"/><polygon class="u" points="612.3 302.14 607.31 293.51 602.33 302.14 612.3 302.14"/></g><g><line class="l" x1="357.24" y1="366.72" x2="357.24" y2="364.22"/><line class="j" x1="357.24" y1="358.89" x2="357.24" y2="287.05"/><line class="l" x1="357.24" y1="284.39" x2="357.24" y2="281.89"/></g><g><path d="M536.74,129.37v-8.73h3.2c.62,0,1.13,.1,1.54,.3s.71,.48,.91,.82c.2,.34,.3,.73,.3,1.17,0,.36-.07,.67-.2,.92-.13,.25-.31,.45-.54,.6-.22,.15-.47,.26-.74,.33v.09c.29,.01,.57,.11,.85,.28,.28,.17,.51,.42,.69,.73,.18,.32,.27,.7,.27,1.15s-.1,.85-.31,1.2-.53,.63-.96,.84-.99,.31-1.67,.31h-3.35Zm1.32-4.95h1.76c.29,0,.56-.06,.8-.17,.24-.11,.43-.27,.57-.48s.21-.45,.21-.73c0-.36-.13-.66-.38-.91-.25-.24-.64-.37-1.16-.37h-1.8v2.66Zm0,3.82h1.9c.63,0,1.08-.12,1.35-.37,.27-.25,.41-.55,.41-.92,0-.28-.07-.53-.21-.76-.14-.23-.34-.41-.59-.55-.26-.14-.56-.21-.91-.21h-1.95v2.8Z"/><path d="M548.63,126.66v-3.83h1.28v6.54h-1.25v-1.13h-.07c-.15,.35-.39,.64-.72,.87s-.74,.35-1.23,.35c-.42,0-.79-.09-1.11-.28-.32-.19-.58-.46-.76-.83-.18-.37-.27-.82-.27-1.36v-4.16h1.27v4.01c0,.45,.12,.8,.37,1.07,.25,.26,.57,.4,.96,.4,.24,0,.48-.06,.71-.18,.24-.12,.43-.3,.59-.54,.16-.24,.24-.55,.23-.92Z"/><path d="M556.52,124.43l-1.15,.21c-.05-.15-.12-.29-.23-.42-.1-.13-.24-.24-.42-.33-.18-.09-.4-.13-.66-.13-.36,0-.66,.08-.9,.24-.24,.16-.36,.37-.36,.62,0,.22,.08,.39,.24,.53s.42,.24,.78,.33l1.04,.24c.6,.14,1.05,.35,1.35,.64,.3,.29,.44,.67,.44,1.13,0,.39-.11,.74-.34,1.05-.23,.31-.54,.54-.94,.72-.4,.17-.87,.26-1.4,.26-.73,0-1.33-.16-1.79-.47-.46-.31-.75-.76-.85-1.34l1.23-.19c.08,.32,.23,.56,.47,.73,.24,.16,.55,.25,.93,.25,.42,0,.75-.09,1-.26,.25-.17,.38-.39,.38-.64,0-.21-.08-.38-.23-.52-.15-.14-.38-.24-.7-.32l-1.11-.24c-.61-.14-1.06-.36-1.35-.67-.29-.3-.44-.69-.44-1.15,0-.39,.11-.72,.32-1.01,.22-.29,.51-.52,.89-.68,.38-.16,.82-.25,1.31-.25,.71,0,1.26,.15,1.67,.46,.41,.3,.67,.71,.8,1.22Z"/><path d="M558.69,121.82c-.22,0-.41-.08-.57-.22-.16-.15-.24-.33-.24-.53s.08-.39,.24-.54c.16-.15,.35-.22,.57-.22s.41,.07,.57,.22c.16,.15,.24,.33,.24,.54s-.08,.39-.24,.53c-.16,.15-.35,.22-.57,.22Zm-.64,7.55v-6.54h1.27v6.54h-1.27Z"/><path d="M562.31,125.49v3.89h-1.27v-6.54h1.22v1.07h.08c.15-.35,.39-.62,.71-.84,.32-.21,.73-.32,1.22-.32,.45,0,.84,.09,1.17,.28,.34,.19,.6,.46,.78,.83s.28,.82,.28,1.36v4.16h-1.27v-4.01c0-.47-.12-.85-.37-1.11s-.59-.4-1.02-.4c-.29,0-.56,.06-.79,.19s-.41,.31-.54,.56c-.13,.25-.2,.54-.2,.89Z"/><path d="M571.02,129.51c-.65,0-1.2-.14-1.66-.42-.46-.28-.82-.67-1.07-1.17-.25-.5-.38-1.1-.38-1.77s.12-1.26,.38-1.77c.25-.51,.6-.91,1.06-1.2s.98-.43,1.59-.43c.37,0,.73,.06,1.07,.18,.35,.12,.66,.31,.93,.58,.28,.26,.49,.6,.65,1.02s.24,.92,.24,1.51v.45h-5.2v-.96h3.96c0-.33-.07-.63-.21-.89-.14-.26-.33-.46-.57-.62-.25-.15-.53-.23-.86-.23-.36,0-.67,.09-.94,.26s-.47,.4-.61,.68c-.14,.28-.21,.58-.21,.91v.75c0,.44,.08,.81,.23,1.12,.15,.31,.37,.54,.65,.7,.28,.16,.6,.24,.98,.24,.24,0,.46-.04,.66-.1s.37-.17,.52-.31c.14-.14,.26-.31,.33-.52l1.21,.22c-.1,.35-.27,.67-.52,.93-.25,.27-.56,.47-.93,.62-.37,.15-.8,.22-1.28,.22Z"/><path d="M580.16,124.43l-1.16,.21c-.05-.15-.12-.29-.23-.42-.1-.13-.24-.24-.42-.33-.18-.09-.4-.13-.66-.13-.36,0-.66,.08-.9,.24-.24,.16-.36,.37-.36,.62,0,.22,.08,.39,.24,.53,.16,.13,.42,.24,.78,.33l1.04,.24c.6,.14,1.05,.35,1.35,.64,.29,.29,.44,.67,.44,1.13,0,.39-.11,.74-.34,1.05s-.54,.54-.94,.72c-.4,.17-.87,.26-1.4,.26-.73,0-1.33-.16-1.79-.47-.46-.31-.75-.76-.85-1.34l1.23-.19c.08,.32,.23,.56,.47,.73s.55,.25,.93,.25c.42,0,.75-.09,1-.26,.25-.17,.38-.39,.38-.64,0-.21-.08-.38-.23-.52-.15-.14-.38-.24-.7-.32l-1.11-.24c-.61-.14-1.06-.36-1.35-.67-.29-.3-.44-.69-.44-1.15,0-.39,.11-.72,.32-1.01,.22-.29,.51-.52,.89-.68,.38-.16,.82-.25,1.31-.25,.71,0,1.26,.15,1.67,.46,.41,.3,.67,.71,.81,1.22Z"/><path d="M586.59,124.43l-1.15,.21c-.05-.15-.12-.29-.23-.42-.1-.13-.24-.24-.42-.33-.18-.09-.4-.13-.66-.13-.36,0-.66,.08-.9,.24-.24,.16-.36,.37-.36,.62,0,.22,.08,.39,.24,.53s.42,.24,.78,.33l1.04,.24c.6,.14,1.05,.35,1.35,.64,.3,.29,.44,.67,.44,1.13,0,.39-.11,.74-.34,1.05-.23,.31-.54,.54-.94,.72-.4,.17-.87,.26-1.4,.26-.73,0-1.33-.16-1.79-.47-.46-.31-.75-.76-.85-1.34l1.23-.19c.08,.32,.23,.56,.47,.73,.24,.16,.55,.25,.93,.25,.42,0,.75-.09,1-.26,.25-.17,.38-.39,.38-.64,0-.21-.08-.38-.23-.52-.15-.14-.38-.24-.7-.32l-1.11-.24c-.61-.14-1.06-.36-1.35-.67-.29-.3-.44-.69-.44-1.15,0-.39,.11-.72,.32-1.01,.22-.29,.51-.52,.89-.68,.38-.16,.82-.25,1.31-.25,.71,0,1.26,.15,1.67,.46,.41,.3,.67,.71,.8,1.22Z"/><path d="M596.15,122.94c-.05-.4-.23-.72-.56-.94-.33-.22-.74-.33-1.24-.33-.36,0-.67,.06-.93,.17-.26,.11-.46,.27-.61,.46-.14,.19-.21,.42-.21,.66,0,.21,.05,.39,.15,.54,.1,.15,.23,.28,.39,.38,.16,.1,.33,.18,.52,.25s.36,.12,.53,.16l.85,.22c.28,.07,.56,.16,.86,.28,.29,.12,.56,.27,.81,.46s.45,.43,.61,.71c.16,.28,.23,.62,.23,1.01,0,.5-.13,.93-.38,1.32-.25,.38-.62,.69-1.1,.91-.48,.22-1.06,.33-1.75,.33s-1.22-.1-1.7-.31-.85-.5-1.12-.88c-.27-.38-.42-.84-.45-1.36h1.32c.03,.32,.13,.58,.31,.79,.18,.21,.41,.36,.69,.46,.28,.1,.59,.15,.93,.15,.37,0,.7-.06,1-.18s.52-.28,.69-.49c.17-.21,.25-.46,.25-.74,0-.26-.07-.47-.22-.63s-.34-.3-.59-.41c-.25-.11-.53-.2-.84-.29l-1.03-.28c-.7-.19-1.25-.47-1.66-.84-.41-.37-.61-.86-.61-1.47,0-.5,.14-.94,.41-1.32s.64-.67,1.11-.88c.47-.21,.99-.31,1.58-.31s1.11,.1,1.57,.31,.81,.49,1.07,.85c.26,.36,.4,.78,.41,1.25h-1.27Z"/><path d="M599.01,131.83v-9h1.25v1.06h.11c.07-.14,.18-.29,.32-.47,.14-.18,.33-.34,.58-.47s.57-.2,.98-.2c.53,0,1,.13,1.42,.4,.41,.27,.74,.65,.98,1.15s.36,1.11,.36,1.82-.12,1.31-.35,1.82c-.24,.5-.56,.89-.97,1.16-.41,.27-.88,.41-1.41,.41-.4,0-.72-.07-.97-.2s-.45-.29-.59-.47c-.14-.18-.25-.34-.33-.48h-.08v3.47h-1.27Zm1.25-5.73c0,.46,.07,.86,.2,1.21s.33,.62,.58,.81c.25,.19,.56,.29,.93,.29s.7-.1,.95-.3,.45-.48,.58-.83,.2-.74,.2-1.18-.07-.82-.19-1.16-.32-.62-.58-.81c-.26-.2-.58-.3-.96-.3s-.68,.09-.94,.29c-.25,.19-.45,.46-.58,.8-.13,.34-.2,.74-.2,1.19Z"/><path d="M609.24,129.51c-.64,0-1.2-.14-1.66-.42s-.82-.67-1.07-1.17c-.25-.5-.38-1.1-.38-1.77s.13-1.26,.38-1.77c.25-.51,.6-.91,1.06-1.2s.98-.43,1.59-.43c.37,0,.73,.06,1.07,.18s.66,.31,.93,.58c.28,.26,.49,.6,.65,1.02s.24,.92,.24,1.51v.45h-5.2v-.96h3.95c0-.33-.07-.63-.2-.89-.14-.26-.33-.46-.57-.62-.25-.15-.53-.23-.86-.23-.36,0-.67,.09-.94,.26s-.47,.4-.61,.68c-.14,.28-.21,.58-.21,.91v.75c0,.44,.08,.81,.23,1.12,.16,.31,.37,.54,.65,.7,.28,.16,.6,.24,.98,.24,.24,0,.46-.04,.66-.1,.2-.07,.37-.17,.52-.31,.14-.14,.25-.31,.33-.52l1.21,.22c-.1,.35-.27,.67-.52,.93-.25,.27-.56,.47-.93,.62-.37,.15-.8,.22-1.28,.22Z"/><path d="M616.22,129.51c-.63,0-1.18-.14-1.63-.43-.46-.29-.81-.69-1.05-1.2-.24-.51-.37-1.09-.37-1.75s.12-1.25,.38-1.76,.6-.91,1.06-1.2c.45-.29,.99-.43,1.61-.43,.5,0,.94,.09,1.33,.28,.39,.18,.7,.44,.94,.77,.24,.33,.38,.71,.43,1.15h-1.24c-.07-.31-.22-.57-.47-.79-.24-.22-.57-.33-.97-.33-.36,0-.67,.09-.93,.28-.27,.19-.47,.45-.62,.79-.15,.34-.22,.75-.22,1.21s.07,.89,.22,1.24c.14,.35,.35,.62,.62,.81s.58,.29,.94,.29c.24,0,.46-.04,.66-.13s.36-.22,.5-.39c.13-.17,.23-.37,.28-.6h1.24c-.05,.42-.18,.8-.41,1.13-.23,.33-.54,.59-.92,.78-.39,.19-.84,.29-1.35,.29Z"/><path d="M620.92,121.82c-.22,0-.41-.08-.57-.22-.16-.15-.24-.33-.24-.53s.08-.39,.24-.54c.16-.15,.35-.22,.57-.22s.41,.07,.57,.22c.16,.15,.24,.33,.24,.54s-.08,.39-.24,.53c-.16,.15-.35,.22-.57,.22Zm-.64,7.55v-6.54h1.27v6.54h-1.27Z"/><path d="M626.38,122.83v1.02h-3.7v-1.02h3.7Zm-2.68,6.54v-7.3c0-.41,.09-.75,.27-1.02s.42-.47,.71-.61c.29-.13,.62-.2,.96-.2,.26,0,.47,.02,.66,.06s.32,.08,.4,.11l-.3,1.03c-.06-.02-.14-.04-.23-.06-.09-.02-.21-.04-.34-.04-.31,0-.53,.08-.66,.23-.13,.15-.2,.38-.2,.67v7.13h-1.27Z"/><path d="M628.34,121.82c-.22,0-.41-.08-.57-.22-.16-.15-.24-.33-.24-.53s.08-.39,.24-.54c.16-.15,.35-.22,.57-.22s.41,.07,.57,.22c.16,.15,.24,.33,.24,.54s-.08,.39-.24,.53c-.16,.15-.35,.22-.57,.22Zm-.64,7.55v-6.54h1.27v6.54h-1.27Z"/><path d="M633.44,129.51c-.63,0-1.18-.14-1.63-.43-.46-.29-.81-.69-1.05-1.2-.24-.51-.37-1.09-.37-1.75s.12-1.25,.38-1.76,.6-.91,1.06-1.2c.45-.29,.99-.43,1.61-.43,.5,0,.94,.09,1.33,.28,.39,.18,.7,.44,.94,.77,.24,.33,.38,.71,.43,1.15h-1.24c-.07-.31-.22-.57-.47-.79-.24-.22-.57-.33-.97-.33-.36,0-.67,.09-.93,.28-.27,.19-.47,.45-.62,.79-.15,.34-.22,.75-.22,1.21s.07,.89,.22,1.24c.14,.35,.35,.62,.62,.81s.58,.29,.94,.29c.24,0,.46-.04,.66-.13s.36-.22,.5-.39c.13-.17,.23-.37,.28-.6h1.24c-.05,.42-.18,.8-.41,1.13-.23,.33-.54,.59-.92,.78-.39,.19-.84,.29-1.35,.29Z"/><path d="M639.4,129.52c-.42,0-.79-.08-1.12-.23-.33-.16-.6-.38-.79-.68-.19-.29-.29-.66-.29-1.09,0-.37,.07-.67,.21-.91,.14-.24,.33-.43,.58-.57,.24-.14,.51-.24,.81-.32,.3-.07,.6-.12,.91-.16,.39-.05,.71-.08,.96-.11,.24-.03,.42-.08,.53-.15,.11-.07,.17-.18,.17-.33v-.03c0-.37-.1-.66-.31-.86-.21-.21-.52-.31-.93-.31s-.77,.09-1.01,.28c-.25,.19-.42,.4-.51,.63l-1.2-.27c.14-.4,.35-.72,.62-.96,.27-.25,.59-.42,.95-.54,.36-.11,.73-.17,1.13-.17,.26,0,.54,.03,.83,.09,.29,.06,.57,.17,.83,.33,.26,.16,.47,.39,.63,.69,.17,.3,.25,.69,.25,1.17v4.35h-1.25v-.89h-.05c-.08,.17-.21,.33-.37,.49-.16,.16-.38,.29-.63,.4-.26,.11-.57,.16-.93,.16Zm.28-1.02c.35,0,.65-.07,.91-.21,.25-.14,.44-.32,.58-.55s.2-.47,.2-.73v-.84s-.13,.09-.26,.13c-.13,.04-.28,.07-.44,.1-.17,.03-.33,.05-.48,.07s-.29,.04-.39,.05c-.25,.03-.47,.08-.67,.16s-.37,.18-.49,.32-.18,.32-.18,.55c0,.32,.12,.55,.35,.71,.23,.16,.53,.24,.89,.24Z"/><path d="M647.38,122.83v1.02h-3.58v-1.02h3.58Zm-2.62-1.57h1.27v6.19c0,.25,.04,.43,.11,.56,.07,.12,.17,.21,.29,.25,.12,.04,.25,.07,.38,.07,.1,0,.19,0,.27-.02,.08-.01,.14-.03,.18-.03l.23,1.05c-.07,.03-.18,.06-.32,.09-.14,.03-.31,.05-.51,.05-.34,0-.65-.05-.94-.18-.29-.12-.52-.32-.7-.58-.18-.26-.27-.59-.27-.98v-6.46Z"/><path d="M649.43,121.82c-.22,0-.41-.08-.57-.22-.16-.15-.24-.33-.24-.53s.08-.39,.24-.54c.16-.15,.35-.22,.57-.22s.41,.07,.57,.22c.16,.15,.24,.33,.24,.54s-.08,.39-.24,.53c-.16,.15-.35,.22-.57,.22Zm-.64,7.55v-6.54h1.27v6.54h-1.27Z"/><path d="M654.53,129.51c-.61,0-1.15-.14-1.61-.42s-.81-.67-1.07-1.18-.38-1.1-.38-1.77,.13-1.27,.38-1.78c.25-.51,.61-.9,1.07-1.19s.99-.42,1.61-.42,1.15,.14,1.61,.42c.46,.28,.81,.68,1.07,1.19,.25,.51,.38,1.1,.38,1.78s-.13,1.27-.38,1.77-.61,.9-1.07,1.18c-.46,.28-.99,.42-1.61,.42Zm0-1.07c.4,0,.73-.1,.99-.32,.26-.21,.46-.49,.58-.84,.13-.35,.19-.73,.19-1.16s-.06-.8-.19-1.15c-.13-.35-.32-.63-.58-.85-.26-.21-.59-.32-.99-.32s-.73,.11-.99,.32c-.26,.21-.46,.5-.58,.85-.13,.35-.19,.74-.19,1.15s.06,.81,.19,1.16c.13,.35,.32,.63,.58,.84,.26,.21,.59,.32,.99,.32Z"/><path d="M660.28,125.49v3.89h-1.27v-6.54h1.22v1.07h.08c.15-.35,.39-.62,.71-.84,.32-.21,.73-.32,1.22-.32,.45,0,.84,.09,1.17,.28,.34,.19,.6,.46,.78,.83s.28,.82,.28,1.36v4.16h-1.27v-4.01c0-.47-.12-.85-.37-1.11s-.59-.4-1.02-.4c-.29,0-.56,.06-.79,.19s-.41,.31-.54,.56c-.13,.25-.2,.54-.2,.89Z"/><path d="M669.61,126.51v-1.15h5.76v1.15h-5.76Zm2.31,2.31v-5.76h1.15v5.76h-1.15Z"/><path d="M573.13,143.77h-1.4l3.14-8.73h1.52l3.14,8.73h-1.4l-2.47-7.14h-.07l-2.47,7.14Zm.23-3.42h4.53v1.11h-4.53v-1.11Z"/><path d="M580.79,143.77v-8.73h3.11c.68,0,1.24,.12,1.69,.37s.78,.58,1,1.01c.22,.43,.33,.91,.33,1.44s-.11,1.02-.33,1.45c-.22,.43-.56,.77-1.01,1.01-.45,.25-1.01,.37-1.68,.37h-2.14v-1.12h2.02c.43,0,.78-.08,1.04-.22,.27-.15,.46-.35,.59-.61,.12-.26,.19-.55,.19-.88s-.06-.62-.19-.88-.32-.46-.59-.6-.62-.22-1.06-.22h-1.65v7.6h-1.32Z"/><path d="M589.78,135.05v8.73h-1.32v-8.73h1.32Z"/><path d="M599.63,137.34c-.04-.4-.23-.72-.56-.94-.33-.22-.74-.33-1.24-.33-.36,0-.67,.06-.93,.17-.26,.11-.46,.27-.61,.46-.14,.19-.21,.42-.21,.66,0,.21,.05,.39,.15,.54,.1,.15,.23,.28,.39,.38,.16,.1,.33,.18,.52,.25,.18,.07,.36,.12,.53,.16l.85,.22c.28,.07,.56,.16,.86,.28,.29,.12,.56,.27,.81,.46,.25,.19,.45,.43,.61,.71,.15,.28,.23,.62,.23,1.01,0,.49-.13,.93-.38,1.32-.25,.38-.62,.69-1.1,.91s-1.06,.33-1.75,.33-1.22-.1-1.7-.31c-.48-.21-.85-.5-1.12-.88-.27-.38-.42-.84-.45-1.36h1.32c.03,.32,.13,.58,.31,.79,.18,.21,.41,.36,.69,.46,.28,.1,.59,.15,.93,.15,.37,0,.7-.06,1-.18,.29-.12,.52-.28,.69-.49,.17-.21,.25-.46,.25-.74,0-.26-.07-.47-.22-.63-.15-.17-.34-.3-.59-.41-.25-.11-.53-.2-.84-.29l-1.03-.28c-.7-.19-1.25-.47-1.66-.84-.41-.37-.61-.86-.61-1.47,0-.5,.14-.94,.41-1.32,.27-.38,.64-.67,1.11-.88,.47-.21,.99-.31,1.58-.31s1.11,.1,1.57,.31c.45,.21,.81,.49,1.07,.85,.26,.36,.4,.78,.41,1.25h-1.27Z"/><path d="M605.25,143.9c-.61,0-1.15-.14-1.61-.42-.46-.28-.81-.67-1.07-1.18-.25-.5-.38-1.1-.38-1.77s.13-1.27,.38-1.78c.25-.51,.61-.9,1.07-1.18,.46-.28,.99-.42,1.61-.42s1.15,.14,1.61,.42c.46,.28,.81,.68,1.07,1.18,.25,.51,.38,1.1,.38,1.78s-.13,1.27-.38,1.77c-.25,.51-.61,.9-1.07,1.18-.46,.28-.99,.42-1.61,.42Zm0-1.07c.4,0,.73-.11,.99-.32,.26-.21,.46-.49,.58-.84,.13-.35,.19-.73,.19-1.15s-.06-.8-.19-1.15c-.13-.35-.32-.63-.58-.85-.26-.21-.59-.32-.99-.32s-.73,.11-1,.32-.46,.5-.58,.85c-.13,.35-.19,.74-.19,1.15s.06,.8,.19,1.15c.13,.35,.32,.63,.58,.84s.59,.32,1,.32Z"/><path d="M610.99,135.05v8.73h-1.27v-8.73h1.27Z"/><path d="M616.85,141.06v-3.83h1.28v6.55h-1.25v-1.13h-.07c-.15,.35-.39,.64-.72,.87-.33,.23-.74,.35-1.23,.35-.42,0-.79-.09-1.11-.28-.32-.19-.58-.46-.76-.83-.18-.37-.27-.82-.27-1.36v-4.16h1.27v4.01c0,.45,.12,.8,.37,1.07,.25,.26,.57,.4,.96,.4,.24,0,.48-.06,.71-.18s.43-.3,.59-.54c.16-.24,.24-.55,.23-.92Z"/><path d="M622.9,137.23v1.02h-3.58v-1.02h3.58Zm-2.62-1.57h1.27v6.19c0,.25,.04,.43,.11,.56,.07,.12,.17,.21,.29,.25,.12,.04,.25,.07,.38,.07,.1,0,.19,0,.27-.02,.08-.01,.14-.03,.18-.03l.23,1.05c-.07,.03-.18,.06-.32,.09-.14,.03-.31,.05-.51,.05-.34,0-.65-.05-.94-.18-.29-.12-.52-.32-.7-.58-.18-.26-.27-.59-.27-.98v-6.46Z"/><path d="M624.95,136.22c-.22,0-.41-.07-.57-.22-.16-.15-.24-.33-.24-.54s.08-.39,.24-.54c.16-.15,.35-.22,.57-.22s.41,.08,.57,.22c.16,.15,.24,.33,.24,.54s-.08,.39-.24,.54c-.16,.15-.35,.22-.57,.22Zm-.64,7.56v-6.55h1.27v6.55h-1.27Z"/><path d="M630.05,143.9c-.61,0-1.15-.14-1.61-.42s-.81-.67-1.07-1.18c-.25-.5-.38-1.1-.38-1.77s.13-1.27,.38-1.78,.61-.9,1.07-1.18,.99-.42,1.61-.42,1.15,.14,1.61,.42c.46,.28,.81,.68,1.07,1.18s.38,1.1,.38,1.78-.13,1.27-.38,1.77c-.25,.51-.61,.9-1.07,1.18-.46,.28-.99,.42-1.61,.42Zm0-1.07c.4,0,.73-.11,.99-.32,.26-.21,.46-.49,.58-.84,.13-.35,.19-.73,.19-1.15s-.06-.8-.19-1.15c-.13-.35-.32-.63-.58-.85-.26-.21-.59-.32-.99-.32s-.73,.11-.99,.32c-.26,.21-.46,.5-.58,.85-.13,.35-.19,.74-.19,1.15s.06,.8,.19,1.15c.13,.35,.32,.63,.58,.84,.26,.21,.59,.32,.99,.32Z"/><path d="M635.79,139.89v3.89h-1.27v-6.55h1.22v1.07h.08c.15-.35,.39-.62,.71-.83,.32-.21,.73-.32,1.22-.32,.45,0,.84,.09,1.17,.28,.33,.19,.59,.46,.78,.83,.18,.37,.28,.82,.28,1.36v4.16h-1.27v-4.01c0-.47-.12-.85-.37-1.12-.25-.27-.59-.4-1.02-.4-.3,0-.56,.06-.79,.19-.23,.13-.41,.32-.54,.56-.13,.25-.2,.54-.2,.89Z"/></g><g><rect class="r" x="62.06" y="218.82" width="142.93" height="63.06" rx="9.41" ry="9.41"/><g><path class="ad" d="M132.89,247.01h-1.55c-.06-.33-.17-.62-.33-.88s-.36-.47-.6-.64-.5-.31-.79-.4c-.29-.09-.6-.13-.92-.13-.59,0-1.11,.15-1.57,.44-.46,.29-.83,.73-1.09,1.3-.27,.57-.4,1.27-.4,2.09s.13,1.53,.4,2.1c.27,.57,.63,1,1.1,1.29,.46,.29,.99,.44,1.57,.44,.32,0,.63-.04,.92-.13s.55-.22,.79-.39c.24-.17,.43-.38,.6-.63,.16-.25,.28-.54,.34-.86h1.55c-.08,.51-.24,.97-.48,1.38s-.54,.78-.91,1.08c-.37,.3-.79,.54-1.26,.7-.47,.17-.99,.25-1.55,.25-.88,0-1.67-.21-2.36-.63-.69-.42-1.23-1.02-1.63-1.8s-.59-1.71-.59-2.8,.2-2.02,.6-2.8c.4-.78,.94-1.38,1.63-1.8,.69-.42,1.47-.63,2.35-.63,.54,0,1.04,.08,1.51,.23,.47,.15,.89,.38,1.26,.68,.38,.3,.68,.66,.93,1.08,.25,.43,.41,.91,.5,1.46Z"/><path class="ad" d="M139.45,250.71v-4.47h1.49v7.64h-1.46v-1.32h-.08c-.18,.41-.46,.75-.84,1.02-.39,.27-.87,.41-1.44,.41-.49,0-.92-.11-1.3-.33-.38-.22-.67-.54-.88-.97-.21-.43-.32-.96-.32-1.59v-4.86h1.49v4.68c0,.52,.14,.93,.43,1.24,.29,.31,.66,.46,1.12,.46,.28,0,.56-.07,.83-.21,.28-.14,.51-.35,.69-.63,.18-.28,.27-.64,.27-1.07Z"/><path class="ad" d="M148.66,248.11l-1.35,.24c-.06-.17-.15-.34-.27-.49-.12-.16-.28-.28-.49-.38-.21-.1-.46-.15-.77-.15-.42,0-.77,.09-1.05,.28-.28,.19-.42,.43-.42,.72,0,.25,.09,.46,.28,.62,.19,.16,.49,.28,.92,.38l1.21,.28c.7,.16,1.23,.41,1.57,.75s.52,.78,.52,1.32c0,.46-.13,.86-.4,1.22s-.63,.64-1.1,.84c-.47,.2-1.01,.3-1.63,.3-.86,0-1.55-.18-2.09-.55-.54-.37-.87-.89-1-1.56l1.44-.22c.09,.38,.27,.66,.55,.85,.28,.19,.64,.29,1.09,.29,.49,0,.88-.1,1.17-.31s.44-.45,.44-.75c0-.24-.09-.44-.27-.6-.18-.16-.45-.29-.81-.37l-1.29-.28c-.71-.16-1.24-.42-1.58-.78s-.51-.8-.51-1.35c0-.45,.13-.84,.38-1.18,.25-.34,.6-.6,1.04-.79,.44-.19,.95-.29,1.53-.29,.83,0,1.48,.18,1.95,.53s.79,.83,.94,1.43Z"/><path class="ad" d="M154,246.24v1.19h-4.17v-1.19h4.17Zm-3.05-1.83h1.49v7.22c0,.29,.04,.5,.13,.65,.09,.14,.2,.24,.34,.29s.29,.08,.45,.08c.12,0,.22,0,.31-.03,.09-.02,.16-.03,.21-.04l.27,1.23c-.09,.03-.21,.07-.37,.1-.16,.03-.36,.05-.6,.06-.39,0-.76-.06-1.09-.21-.34-.15-.61-.37-.82-.68-.21-.3-.31-.69-.31-1.15v-7.53Z"/><path class="ad" d="M158.78,254.03c-.72,0-1.34-.16-1.87-.49s-.95-.79-1.24-1.38-.44-1.28-.44-2.07,.15-1.48,.44-2.08c.29-.59,.71-1.05,1.24-1.38s1.16-.49,1.87-.49,1.34,.16,1.88,.49c.53,.33,.95,.79,1.24,1.38,.29,.59,.44,1.29,.44,2.08s-.15,1.48-.44,2.07-.71,1.05-1.24,1.38c-.53,.33-1.16,.49-1.88,.49Zm0-1.25c.46,0,.85-.12,1.15-.37,.3-.25,.53-.57,.68-.98,.15-.41,.22-.86,.22-1.35s-.07-.94-.22-1.34-.37-.74-.68-.99c-.31-.25-.69-.37-1.15-.37s-.85,.12-1.16,.37c-.31,.25-.53,.58-.68,.99s-.22,.86-.22,1.34,.07,.94,.22,1.35c.15,.41,.38,.73,.68,.98,.31,.25,.69,.37,1.16,.37Z"/><path class="ad" d="M164,253.88v-7.64h1.43v1.24h.09c.16-.42,.42-.75,.78-.99,.36-.24,.79-.36,1.3-.36s.94,.12,1.29,.36c.35,.24,.6,.57,.77,.98h.08c.18-.41,.47-.73,.87-.98,.4-.24,.87-.37,1.42-.37,.69,0,1.26,.22,1.7,.65,.44,.43,.66,1.09,.66,1.96v5.12h-1.49v-4.98c0-.52-.14-.89-.42-1.12-.28-.23-.62-.35-1.01-.35-.48,0-.86,.15-1.13,.45s-.4,.68-.4,1.14v4.87h-1.48v-5.08c0-.41-.13-.75-.39-1s-.59-.38-1.01-.38c-.28,0-.54,.07-.78,.22-.24,.15-.43,.35-.57,.61-.14,.26-.22,.56-.22,.91v4.71h-1.49Z"/><path class="ad" d="M179.66,254.03c-.75,0-1.4-.16-1.94-.48s-.96-.78-1.25-1.37c-.29-.59-.44-1.28-.44-2.07s.15-1.47,.44-2.07c.29-.6,.7-1.06,1.23-1.4,.53-.33,1.15-.5,1.86-.5,.43,0,.85,.07,1.25,.21s.77,.37,1.09,.67c.32,.3,.57,.7,.76,1.19,.19,.49,.28,1.08,.28,1.77v.53h-6.07v-1.11h4.61c0-.39-.08-.74-.24-1.04-.16-.3-.38-.54-.67-.72-.29-.18-.62-.26-1.01-.26-.42,0-.78,.1-1.09,.31-.31,.2-.55,.47-.72,.8-.17,.33-.25,.68-.25,1.06v.87c0,.51,.09,.94,.27,1.3,.18,.36,.43,.63,.76,.82s.7,.28,1.14,.28c.28,0,.54-.04,.77-.12s.43-.2,.6-.37c.17-.16,.3-.36,.39-.6l1.41,.25c-.11,.42-.31,.78-.6,1.09-.29,.31-.65,.55-1.09,.72-.44,.17-.93,.26-1.49,.26Z"/><path class="ad" d="M184.59,253.88v-7.64h1.44v1.21h.08c.14-.41,.38-.74,.74-.97,.35-.24,.75-.36,1.2-.36,.09,0,.2,0,.33,0,.13,0,.23,.01,.3,.02v1.42c-.06-.02-.17-.04-.32-.06s-.3-.03-.46-.03c-.35,0-.66,.07-.94,.22s-.49,.35-.65,.61c-.16,.26-.24,.56-.24,.89v4.66h-1.49Z"/></g><path class="ac" d="M109.54,262.71c-.35-4.02-2.03-7.43-5-10.15-.58-.53-1.23-1-1.86-1.46-.15-.11-.3-.22-.45-.33,.91-1.25,1.51-2.67,1.77-4.22,.29-1.74,.13-3.47-.48-5.13-.61-1.66-1.61-3.08-2.96-4.22-3.73-3.14-9.17-3.16-12.94-.03-3.57,2.95-5.15,8.91-1.7,13.64-1.72,1.06-3.18,2.39-4.34,3.98-1.99,2.71-3,5.8-3.02,9.19,0,.58,.22,1.07,.64,1.43,.36,.31,.77,.46,1.2,.46,.24,0,.48-.05,.72-.14,.67-.27,1.08-.81,1.15-1.53,.03-.27,.04-.54,.06-.8,.03-.44,.05-.85,.12-1.26,.68-3.91,2.84-6.82,6.42-8.66,3.47,1.97,6.99,1.97,10.46,0,3.28,1.67,5.37,4.29,6.21,7.78,.16,.64,.21,1.3,.27,2,.03,.32,.05,.63,.09,.94,.11,.98,.94,1.71,1.91,1.67,1.02-.04,1.79-.84,1.79-1.84,0-.44-.02-.88-.06-1.32Zm-9.14-17.81c0,3.48-2.84,6.31-6.32,6.31h0c-1.69,0-3.28-.66-4.48-1.86-1.19-1.2-1.85-2.79-1.85-4.48,0-3.48,2.84-6.31,6.32-6.31,1.69,0,3.28,.66,4.47,1.86,1.2,1.2,1.86,2.79,1.85,4.49Z"/></g><g><rect class="m" x="250.5" y="218.82" width="213.47" height="63.06" rx="9.41" ry="9.41"/><g><path class="ad" d="M332.5,247.76h-3.3v-10.18h3.4c1,0,1.85,.2,2.57,.61s1.27,.99,1.65,1.75,.57,1.67,.57,2.72-.19,1.97-.58,2.73c-.39,.76-.94,1.35-1.67,1.76-.73,.41-1.61,.61-2.64,.61Zm-1.76-1.34h1.67c.78,0,1.42-.15,1.93-.44,.51-.29,.9-.72,1.15-1.28,.25-.56,.38-1.24,.38-2.05s-.13-1.48-.38-2.03c-.25-.56-.63-.98-1.13-1.27-.5-.29-1.12-.43-1.86-.43h-1.77v7.5Z"/><path class="ad" d="M342.4,247.91c-.72,0-1.34-.16-1.87-.49-.53-.33-.95-.79-1.24-1.38s-.44-1.28-.44-2.07,.15-1.48,.44-2.08c.29-.59,.71-1.05,1.24-1.38,.53-.33,1.16-.49,1.87-.49s1.34,.16,1.87,.49c.53,.33,.95,.79,1.24,1.38,.29,.59,.44,1.29,.44,2.08s-.15,1.48-.44,2.07-.71,1.05-1.24,1.38c-.53,.33-1.16,.49-1.87,.49Zm0-1.25c.46,0,.85-.12,1.15-.37,.3-.25,.53-.57,.68-.98s.22-.86,.22-1.35-.07-.93-.22-1.34c-.15-.41-.37-.74-.68-.99-.3-.25-.69-.37-1.15-.37s-.85,.12-1.16,.37c-.31,.25-.53,.58-.68,.99-.15,.41-.22,.86-.22,1.34s.07,.94,.22,1.35,.37,.73,.68,.98c.31,.25,.69,.37,1.16,.37Z"/><path class="ad" d="M347.61,247.76v-7.64h1.43v1.24h.09c.16-.42,.42-.75,.78-.99s.79-.36,1.3-.36,.94,.12,1.29,.36c.35,.24,.6,.57,.77,.98h.08c.18-.41,.47-.73,.87-.98,.4-.24,.87-.37,1.42-.37,.69,0,1.26,.22,1.7,.65,.44,.43,.66,1.09,.66,1.96v5.12h-1.49v-4.98c0-.52-.14-.89-.42-1.12-.28-.23-.62-.35-1.01-.35-.48,0-.86,.15-1.13,.45s-.4,.68-.4,1.14v4.87h-1.48v-5.08c0-.41-.13-.75-.39-1-.26-.25-.59-.38-1.01-.38-.28,0-.54,.07-.78,.22s-.43,.35-.57,.61c-.14,.26-.22,.56-.22,.91v4.71h-1.49Z"/><path class="ad" d="M362.21,247.93c-.48,0-.92-.09-1.31-.27-.39-.18-.7-.44-.93-.79-.23-.34-.34-.77-.34-1.27,0-.43,.08-.79,.25-1.06,.17-.28,.39-.5,.67-.66,.28-.16,.6-.29,.94-.37,.35-.08,.7-.15,1.06-.19,.46-.05,.83-.1,1.11-.13,.29-.04,.49-.09,.62-.17,.13-.08,.19-.21,.19-.39v-.03c0-.43-.12-.77-.37-1.01-.24-.24-.61-.36-1.09-.36s-.89,.11-1.18,.33c-.29,.22-.48,.46-.59,.73l-1.4-.32c.17-.46,.41-.84,.73-1.12,.32-.29,.69-.5,1.11-.63,.42-.13,.86-.2,1.32-.2,.3,0,.63,.04,.97,.11,.34,.07,.67,.2,.96,.39s.55,.46,.74,.81,.29,.8,.29,1.36v5.07h-1.45v-1.04h-.06c-.1,.19-.24,.38-.43,.57-.19,.19-.44,.34-.74,.46s-.66,.18-1.08,.18Zm.32-1.19c.41,0,.76-.08,1.06-.24s.52-.38,.67-.64,.23-.55,.23-.85v-.98c-.05,.05-.16,.1-.31,.15-.15,.04-.32,.08-.51,.12-.19,.03-.38,.06-.56,.08-.18,.03-.33,.04-.46,.06-.29,.04-.55,.1-.79,.18-.24,.09-.43,.21-.57,.37s-.21,.37-.21,.64c0,.37,.14,.64,.41,.83s.62,.28,1.04,.28Z"/><path class="ad" d="M368.7,238.94c-.26,0-.48-.09-.66-.26s-.28-.38-.28-.62,.09-.46,.28-.63,.41-.26,.66-.26,.48,.09,.66,.26c.18,.17,.28,.38,.28,.63s-.09,.45-.28,.62c-.18,.17-.41,.26-.66,.26Zm-.75,8.81v-7.64h1.49v7.64h-1.49Z"/><path class="ad" d="M372.92,243.22v4.53h-1.49v-7.64h1.43v1.24h.09c.18-.4,.45-.73,.83-.97,.38-.25,.85-.37,1.42-.37,.52,0,.98,.11,1.37,.33,.39,.22,.69,.54,.91,.97,.22,.43,.32,.96,.32,1.59v4.86h-1.49v-4.68c0-.55-.14-.99-.43-1.3-.29-.31-.68-.47-1.19-.47-.34,0-.65,.07-.92,.22-.27,.15-.48,.37-.63,.65-.15,.29-.23,.63-.23,1.04Z"/><path class="ad" d="M383.63,247.76v-10.18h6.38v1.32h-4.85v3.1h4.51v1.32h-4.51v3.12h4.91v1.32h-6.44Z"/><path class="ad" d="M393.12,240.12l1.69,2.97,1.7-2.97h1.63l-2.38,3.82,2.4,3.82h-1.63l-1.72-2.85-1.72,2.85h-1.63l2.38-3.82-2.35-3.82h1.63Z"/><path class="ad" d="M399.67,250.62v-10.5h1.45v1.24h.12c.09-.16,.21-.34,.37-.55,.16-.21,.39-.39,.68-.55,.29-.16,.67-.24,1.14-.24,.62,0,1.17,.16,1.65,.47,.48,.31,.86,.76,1.14,1.35s.42,1.29,.42,2.12-.14,1.53-.41,2.12c-.28,.59-.65,1.04-1.13,1.36s-1.03,.47-1.65,.47c-.46,0-.84-.08-1.14-.23-.29-.16-.52-.34-.69-.55-.17-.21-.29-.39-.38-.56h-.09v4.05h-1.49Zm1.46-6.68c0,.54,.08,1.01,.23,1.41,.16,.4,.38,.72,.68,.95,.29,.23,.66,.34,1.08,.34s.82-.12,1.11-.36,.52-.56,.68-.97,.23-.87,.23-1.38-.08-.96-.23-1.36c-.15-.4-.38-.72-.68-.95-.3-.23-.67-.35-1.12-.35s-.79,.11-1.09,.33-.52,.53-.67,.93-.23,.86-.23,1.39Z"/><path class="ad" d="M411.6,247.91c-.75,0-1.4-.16-1.94-.48s-.96-.78-1.25-1.37c-.29-.59-.44-1.28-.44-2.07s.15-1.47,.44-2.07c.29-.6,.7-1.06,1.23-1.4,.53-.33,1.15-.5,1.86-.5,.43,0,.85,.07,1.25,.21s.77,.37,1.09,.67c.32,.31,.57,.7,.76,1.19,.19,.48,.28,1.07,.28,1.77v.53h-6.07v-1.11h4.61c0-.39-.08-.74-.24-1.04s-.38-.54-.67-.72c-.29-.18-.62-.26-1.01-.26-.42,0-.78,.1-1.09,.31-.31,.2-.55,.47-.72,.79-.17,.33-.25,.68-.25,1.06v.87c0,.51,.09,.94,.27,1.3,.18,.36,.43,.63,.76,.82,.33,.19,.7,.28,1.14,.28,.28,0,.54-.04,.77-.12,.23-.08,.43-.2,.6-.37s.3-.36,.39-.6l1.41,.25c-.11,.41-.31,.78-.6,1.09s-.65,.55-1.09,.72c-.44,.17-.93,.26-1.49,.26Z"/><path class="ad" d="M416.53,247.76v-7.64h1.44v1.21h.08c.14-.41,.38-.74,.74-.97,.35-.24,.75-.36,1.2-.36,.09,0,.2,0,.33,0,.13,0,.23,.01,.3,.03v1.42c-.06-.02-.17-.04-.32-.06s-.3-.03-.46-.03c-.35,0-.66,.07-.94,.22-.27,.15-.49,.35-.65,.61-.16,.26-.24,.56-.24,.89v4.66h-1.49Z"/><path class="ad" d="M425.92,240.12v1.19h-4.17v-1.19h4.17Zm-3.05-1.83h1.49v7.22c0,.29,.04,.5,.13,.65,.09,.14,.2,.24,.34,.29s.29,.08,.45,.08c.12,0,.22,0,.31-.03,.09-.02,.16-.03,.21-.04l.27,1.23c-.09,.03-.21,.07-.37,.1-.16,.04-.36,.05-.6,.06-.39,0-.76-.06-1.09-.21-.34-.15-.61-.37-.82-.68-.21-.3-.31-.69-.31-1.15v-7.53Z"/><path class="ad" d="M433.15,241.98l-1.35,.24c-.06-.17-.14-.34-.27-.49-.12-.16-.28-.28-.49-.38-.21-.1-.46-.15-.77-.15-.42,0-.77,.09-1.05,.28-.28,.19-.42,.43-.42,.72,0,.26,.09,.46,.28,.62,.19,.16,.49,.28,.92,.38l1.21,.28c.7,.16,1.23,.41,1.57,.75s.52,.78,.52,1.32c0,.46-.13,.86-.39,1.22-.26,.36-.63,.64-1.1,.84-.47,.2-1.01,.3-1.63,.3-.85,0-1.55-.18-2.09-.55s-.87-.89-.99-1.56l1.44-.22c.09,.38,.27,.66,.55,.85,.28,.19,.64,.29,1.09,.29,.49,0,.88-.1,1.17-.31,.29-.2,.44-.45,.44-.75,0-.24-.09-.44-.27-.6-.18-.16-.45-.29-.81-.37l-1.29-.28c-.71-.16-1.24-.42-1.58-.78s-.51-.8-.51-1.35c0-.45,.13-.85,.38-1.18s.6-.6,1.04-.79c.44-.19,.95-.29,1.53-.29,.83,0,1.47,.18,1.95,.53,.47,.36,.79,.83,.94,1.43Z"/><path class="ad" d="M438.95,244.42v-1.34h6.72v1.34h-6.72Zm2.69,2.69v-6.72h1.34v6.72h-1.34Z"/><path class="ad" d="M328.7,255.7v-1.32h7.88v1.32h-3.18v8.86h-1.53v-8.86h-3.17Z"/><path class="ad" d="M340.37,264.71c-.75,0-1.4-.16-1.94-.49s-.96-.78-1.25-1.37c-.29-.59-.44-1.28-.44-2.07s.15-1.47,.44-2.07c.29-.6,.7-1.06,1.23-1.4,.53-.33,1.15-.5,1.86-.5,.43,0,.85,.07,1.25,.21s.77,.37,1.09,.67c.32,.3,.57,.7,.76,1.19,.19,.49,.28,1.08,.28,1.77v.53h-6.07v-1.11h4.61c0-.39-.08-.74-.24-1.04s-.38-.54-.67-.72c-.29-.18-.62-.26-1.01-.26-.42,0-.78,.1-1.09,.3-.31,.21-.55,.47-.72,.8-.17,.33-.25,.68-.25,1.06v.87c0,.51,.09,.94,.27,1.3s.43,.63,.76,.82,.7,.28,1.14,.28c.28,0,.54-.04,.77-.12s.43-.2,.6-.37,.3-.36,.39-.6l1.41,.25c-.11,.42-.31,.78-.6,1.09s-.65,.55-1.09,.72c-.44,.17-.93,.26-1.49,.26Z"/><path class="ad" d="M348.52,264.71c-.74,0-1.38-.17-1.91-.51-.53-.34-.94-.8-1.22-1.39-.29-.59-.43-1.27-.43-2.04s.15-1.46,.44-2.06c.29-.59,.7-1.06,1.23-1.39,.53-.33,1.16-.5,1.88-.5,.58,0,1.1,.11,1.55,.32,.45,.21,.82,.51,1.1,.9,.28,.38,.45,.83,.5,1.35h-1.45c-.08-.36-.26-.67-.54-.92-.28-.26-.66-.39-1.14-.39-.41,0-.78,.11-1.09,.33-.31,.22-.55,.53-.72,.93-.17,.4-.26,.87-.26,1.41s.08,1.04,.25,1.44,.41,.72,.72,.94c.31,.22,.68,.33,1.1,.33,.28,0,.54-.05,.77-.16,.23-.1,.42-.25,.58-.45s.27-.43,.33-.71h1.45c-.05,.49-.21,.93-.48,1.32-.27,.39-.63,.69-1.08,.91-.45,.22-.97,.33-1.58,.33Z"/><path class="ad" d="M354.74,260.02v4.54h-1.49v-10.18h1.47v3.79h.09c.18-.41,.45-.74,.82-.98s.85-.36,1.44-.36c.52,0,.98,.11,1.38,.32s.7,.54,.92,.96c.22,.43,.33,.96,.33,1.59v4.86h-1.49v-4.68c0-.56-.14-1-.43-1.31-.29-.31-.69-.46-1.2-.46-.35,0-.67,.08-.94,.22-.28,.15-.49,.37-.65,.65-.16,.29-.24,.63-.24,1.04Z"/><path class="ad" d="M363.17,260.02v4.54h-1.49v-7.64h1.43v1.24h.09c.18-.4,.45-.73,.83-.97s.85-.37,1.42-.37c.52,0,.98,.11,1.37,.33,.39,.22,.69,.54,.91,.97s.32,.96,.32,1.59v4.86h-1.49v-4.68c0-.55-.14-.99-.43-1.3-.29-.31-.68-.47-1.19-.47-.34,0-.65,.08-.92,.22-.27,.15-.48,.37-.63,.65-.15,.29-.23,.63-.23,1.04Z"/><path class="ad" d="M370.79,255.74c-.26,0-.48-.09-.66-.26s-.28-.38-.28-.62,.09-.45,.28-.63c.18-.17,.41-.26,.66-.26s.48,.09,.66,.26c.18,.17,.28,.38,.28,.63s-.09,.45-.28,.62c-.18,.17-.41,.26-.66,.26Zm-.75,8.81v-7.64h1.49v7.64h-1.49Z"/><path class="ad" d="M376.74,264.71c-.74,0-1.38-.17-1.91-.51-.53-.34-.94-.8-1.22-1.39-.29-.59-.43-1.27-.43-2.04s.15-1.46,.44-2.06c.29-.59,.7-1.06,1.23-1.39,.53-.33,1.16-.5,1.88-.5,.58,0,1.1,.11,1.55,.32,.45,.21,.82,.51,1.1,.9,.28,.38,.45,.83,.5,1.35h-1.45c-.08-.36-.26-.67-.54-.92-.28-.26-.66-.39-1.14-.39-.41,0-.78,.11-1.09,.33-.31,.22-.55,.53-.72,.93-.17,.4-.26,.87-.26,1.41s.08,1.04,.25,1.44,.41,.72,.72,.94c.31,.22,.68,.33,1.1,.33,.28,0,.54-.05,.77-.16,.23-.1,.42-.25,.58-.45s.27-.43,.33-.71h1.45c-.05,.49-.21,.93-.48,1.32-.27,.39-.63,.69-1.08,.91-.45,.22-.97,.33-1.58,.33Z"/><path class="ad" d="M383.7,264.72c-.48,0-.92-.09-1.31-.27-.39-.18-.7-.44-.93-.79-.23-.34-.34-.77-.34-1.27,0-.43,.08-.79,.25-1.06,.17-.28,.39-.5,.67-.66,.28-.16,.6-.29,.95-.37,.35-.08,.7-.15,1.06-.19,.46-.05,.83-.1,1.11-.13,.29-.03,.49-.09,.62-.17,.13-.08,.19-.21,.19-.39v-.04c0-.43-.12-.77-.37-1.01-.24-.24-.61-.36-1.09-.36s-.89,.11-1.18,.33c-.29,.22-.49,.46-.59,.73l-1.4-.32c.17-.46,.41-.84,.73-1.13,.32-.29,.69-.49,1.11-.63,.42-.13,.86-.2,1.32-.2,.31,0,.63,.04,.97,.11,.34,.07,.66,.2,.96,.39s.55,.46,.74,.81,.29,.8,.29,1.36v5.07h-1.45v-1.04h-.06c-.1,.19-.24,.38-.43,.57-.19,.19-.44,.34-.74,.46-.3,.12-.66,.18-1.08,.18Zm.32-1.19c.41,0,.76-.08,1.06-.24,.29-.16,.52-.38,.67-.64,.15-.26,.23-.55,.23-.85v-.98c-.05,.05-.15,.1-.31,.15-.15,.04-.32,.08-.51,.11-.19,.03-.38,.06-.56,.08s-.33,.05-.46,.06c-.29,.04-.55,.1-.79,.18-.24,.09-.43,.21-.57,.37-.14,.16-.21,.37-.21,.64,0,.37,.14,.65,.41,.83,.27,.19,.62,.28,1.04,.28Z"/><path class="ad" d="M390.93,254.37v10.18h-1.49v-10.18h1.49Z"/><path class="ad" d="M396.76,264.56v-10.18h6.38v1.32h-4.85v3.1h4.51v1.32h-4.51v3.12h4.91v1.32h-6.44Z"/><path class="ad" d="M406.25,256.92l1.69,2.97,1.7-2.97h1.63l-2.38,3.82,2.4,3.82h-1.63l-1.72-2.85-1.72,2.85h-1.63l2.38-3.82-2.35-3.82h1.63Z"/><path class="ad" d="M412.8,267.42v-10.5h1.45v1.24h.12c.09-.16,.21-.34,.37-.55s.39-.39,.68-.55c.29-.16,.67-.24,1.14-.24,.62,0,1.17,.16,1.65,.47,.48,.31,.86,.76,1.14,1.35,.28,.59,.42,1.29,.42,2.12s-.14,1.53-.41,2.12c-.28,.59-.65,1.04-1.13,1.36s-1.03,.47-1.65,.47c-.46,0-.84-.08-1.14-.23-.29-.16-.52-.34-.69-.55-.17-.21-.29-.39-.38-.56h-.09v4.05h-1.49Zm1.46-6.68c0,.54,.08,1.01,.23,1.41,.16,.4,.38,.72,.68,.95,.29,.23,.66,.34,1.08,.34s.82-.12,1.11-.36,.52-.56,.68-.97,.23-.87,.23-1.38-.08-.96-.23-1.36c-.15-.4-.38-.72-.68-.95-.3-.23-.67-.35-1.12-.35s-.79,.11-1.09,.33c-.3,.22-.52,.53-.67,.93-.15,.4-.23,.86-.23,1.39Z"/><path class="ad" d="M424.73,264.71c-.75,0-1.4-.16-1.94-.49s-.96-.78-1.25-1.37c-.29-.59-.44-1.28-.44-2.07s.15-1.47,.44-2.07c.29-.6,.7-1.06,1.23-1.4,.53-.33,1.15-.5,1.86-.5,.43,0,.85,.07,1.25,.21s.77,.37,1.09,.67c.32,.3,.57,.7,.76,1.19,.19,.49,.28,1.08,.28,1.77v.53h-6.07v-1.11h4.61c0-.39-.08-.74-.24-1.04s-.38-.54-.67-.72c-.29-.18-.62-.26-1.01-.26-.42,0-.78,.1-1.09,.3-.31,.21-.55,.47-.72,.8-.17,.33-.25,.68-.25,1.06v.87c0,.51,.09,.94,.27,1.3s.43,.63,.76,.82,.7,.28,1.14,.28c.28,0,.54-.04,.77-.12s.43-.2,.6-.37,.3-.36,.39-.6l1.41,.25c-.11,.42-.31,.78-.6,1.09s-.65,.55-1.09,.72c-.44,.17-.93,.26-1.49,.26Z"/><path class="ad" d="M429.66,264.56v-7.64h1.44v1.21h.08c.14-.41,.38-.73,.74-.97,.35-.24,.75-.36,1.2-.36,.09,0,.2,0,.33,0,.13,0,.23,.01,.3,.02v1.42c-.06-.02-.17-.04-.32-.06s-.3-.03-.46-.03c-.35,0-.66,.07-.94,.22-.27,.15-.49,.35-.65,.61-.16,.26-.24,.56-.24,.89v4.66h-1.49Z"/><path class="ad" d="M439.05,256.92v1.19h-4.17v-1.19h4.17Zm-3.05-1.83h1.49v7.22c0,.29,.04,.5,.13,.65,.09,.14,.2,.24,.34,.29,.14,.05,.29,.08,.45,.08,.12,0,.22,0,.31-.02,.09-.02,.16-.03,.21-.04l.27,1.23c-.09,.03-.21,.07-.37,.1-.16,.03-.36,.05-.6,.06-.39,0-.76-.06-1.09-.21-.34-.15-.61-.37-.82-.68-.21-.3-.31-.69-.31-1.15v-7.53Z"/><path class="ad" d="M446.28,258.78l-1.35,.24c-.06-.17-.14-.34-.27-.49-.12-.16-.28-.28-.49-.38-.21-.1-.46-.15-.77-.15-.42,0-.77,.09-1.05,.28-.28,.19-.42,.43-.42,.72,0,.25,.09,.46,.28,.62,.19,.16,.49,.28,.92,.38l1.21,.28c.7,.16,1.23,.41,1.57,.75s.52,.78,.52,1.32c0,.46-.13,.86-.39,1.22-.26,.36-.63,.64-1.1,.84-.47,.2-1.01,.3-1.63,.3-.85,0-1.55-.18-2.09-.55s-.87-.89-.99-1.56l1.44-.22c.09,.38,.27,.66,.55,.85,.28,.19,.64,.29,1.09,.29,.49,0,.88-.1,1.17-.3,.29-.21,.44-.45,.44-.75,0-.24-.09-.44-.27-.6-.18-.16-.45-.28-.81-.37l-1.29-.28c-.71-.16-1.24-.42-1.58-.78-.34-.35-.51-.8-.51-1.35,0-.45,.13-.84,.38-1.18,.25-.34,.6-.6,1.04-.79s.95-.29,1.53-.29c.83,0,1.47,.18,1.95,.54,.47,.36,.79,.83,.94,1.43Z"/></g><g><path class="ac" d="M299.77,251.62c-1.14-.23-2.28-.21-3.41,.07-.2,.05-.34,.02-.48-.13-.63-.64-1.28-1.28-1.9-1.89l5.65-5.65c.18,.19,.38,.41,.59,.61,.6,.59,1.32,.51,1.76-.2,1.42-2.35,2.83-4.71,4.24-7.07,.35-.59,.29-1.02-.2-1.51-.89-.89-1.78-1.79-2.67-2.67-.51-.5-.92-.55-1.54-.18-2.33,1.39-4.66,2.79-6.98,4.19-.79,.48-.87,1.18-.22,1.84,.19,.19,.38,.37,.53,.52-1.88,1.88-3.75,3.75-5.64,5.64-.61-.62-1.29-1.28-1.95-1.96-.07-.07-.06-.25-.04-.37,.59-2.88-.08-5.41-2.09-7.56-2.49-2.66-6.59-3.3-9.79-1.57-.71,.38-.81,1.15-.22,1.75,1.21,1.22,2.44,2.43,3.64,3.65,.19,.19,.36,.46,.42,.72,.1,.42-.09,.79-.47,1.02-.36,.23-.81,.2-1.16-.06-.11-.08-.21-.18-.3-.28-1.18-1.17-2.35-2.35-3.52-3.52-.71-.71-1.45-.58-1.89,.31-.43,.87-.71,1.78-.82,2.75-.01,.09-.04,.18-.06,.26v1.38c.16,.7,.26,1.42,.49,2.1,1.16,3.43,4.72,5.73,8.33,5.42,.4-.03,.8-.08,1.19-.17,.27-.06,.45-.04,.63,.18,.11,.14,.27,.25,.51,.46-.17,.11-.3,.16-.4,.26-2.99,2.99-5.98,5.98-8.97,8.96-.91,.91-1.56,1.94-1.72,3.24,0,.04-.03,.08-.05,.13v1.1c.15,.52,.25,1.07,.47,1.56,.79,1.7,2.12,2.69,3.98,2.99,.05,0,.1,.04,.15,.06h1.1c.15-.04,.31-.08,.46-.11,1.1-.22,2.01-.78,2.8-1.57,3.01-3.02,6.03-6.03,9.04-9.04,.1-.1,.18-.21,.36-.43,.21,.26,.39,.46,.54,.69,.06,.09,.06,.24,.03,.35-.83,3.68,.84,7.37,4.16,9.15,.92,.49,1.9,.79,2.93,.9,.08,0,.15,.04,.23,.06h1.38c.59-.13,1.19-.23,1.77-.4,.46-.13,.9-.33,1.33-.54,.78-.37,.9-1.15,.29-1.77-1.22-1.23-2.45-2.44-3.66-3.68-.19-.19-.35-.47-.41-.73-.09-.43,.11-.79,.5-1.01,.39-.22,.77-.19,1.13,.07,.11,.08,.21,.18,.3,.28,1.17,1.17,2.33,2.33,3.5,3.5,.75,.75,1.47,.63,1.93-.31,2.42-4.94-.4-10.66-5.8-11.75Zm2.51-16.51l1.8,1.81c-1.05,1.75-2.13,3.55-3.21,5.34-1.32-1.32-2.63-2.63-3.95-3.94,1.78-1.07,3.58-2.15,5.35-3.21Zm-5.64,6.07l1.39,1.38c-1.82,1.82-3.68,3.68-5.52,5.52l-1.39-1.39,5.51-5.51Zm-8.76,14.49c-3.05,3.06-6.11,6.11-9.17,9.16-.96,.96-2.08,1.28-3.39,.85-1.9-.63-2.66-3.17-1.41-4.73,.16-.21,.34-.4,.53-.59,3-3,6-6,8.99-9,.09-.09,.16-.19,.24-.29,1.5,1.5,2.94,2.94,4.39,4.39-.05,.06-.11,.13-.18,.2Zm16.16,5.67c-.05-.11-.08-.25-.17-.33-.92-.91-1.81-1.86-2.78-2.71-1.15-1.01-2.97-.87-4.07,.23-1.1,1.09-1.22,2.9-.24,4.07,.49,.58,1.04,1.1,1.57,1.63,.46,.46,.93,.92,1.39,1.37v.12c-.56,.05-1.1,.16-1.65,.15-3.76-.06-6.56-3.39-5.98-7.11,.06-.37,.16-.74,.26-1.1,.12-.45,.04-.83-.3-1.17-3.13-3.13-6.26-6.25-9.38-9.38-.35-.35-.76-.44-1.23-.29-1.33,.42-2.65,.42-3.98,0-2.95-.92-4.81-4.27-4.01-7.25,.01-.04,.03-.08,.06-.15,.1,.1,.2,.18,.28,.27,.89,.88,1.74,1.8,2.68,2.62,1.2,1.05,2.85,.99,4.07-.07,1.08-.95,1.31-2.63,.51-3.92-.16-.25-.36-.47-.57-.68-.77-.78-1.55-1.56-2.33-2.34-.08-.08-.15-.16-.26-.27,.9-.25,1.77-.31,2.64-.13,2.58,.53,4.22,2.09,4.91,4.62,.3,1.08,.26,2.18-.09,3.25-.22,.66-.06,1.14,.43,1.63,3.03,3,6.04,6.01,9.05,9.04,.45,.46,.91,.57,1.52,.39,2.31-.67,4.36-.17,6.15,1.43,1.56,1.4,2.29,4.03,1.54,6.07Z"/><path class="ac" d="M276.92,261.02c-.45,.45-.44,1.09-.02,1.5,.41,.4,1.03,.39,1.48-.05,2.08-2.07,4.15-4.14,6.21-6.22,.19-.19,.28-.47,.42-.71-.07-.46-.3-.84-.69-.99-.44-.18-.84-.09-1.17,.24-2.08,2.08-4.17,4.16-6.24,6.24Z"/></g></g><g><rect class="g" x="510.76" y="218.82" width="193.1" height="63.06" rx="9.41" ry="9.41"/><g><path d="M584.23,256.19h-1.63l3.66-10.18h1.78l3.66,10.18h-1.63l-2.88-8.33h-.08l-2.88,8.33Zm.27-3.99h5.29v1.29h-5.29v-1.29Z"/><path d="M593.17,256.19v-10.18h3.63c.79,0,1.45,.14,1.97,.43,.52,.29,.91,.68,1.17,1.18,.26,.5,.39,1.06,.39,1.68s-.13,1.19-.39,1.69c-.26,.5-.65,.89-1.17,1.18s-1.18,.44-1.97,.44h-2.5v-1.3h2.36c.5,0,.91-.09,1.22-.26,.31-.17,.54-.41,.69-.71s.22-.64,.22-1.03-.07-.73-.22-1.02c-.15-.3-.38-.53-.69-.7-.31-.17-.73-.25-1.24-.25h-1.93v8.86h-1.54Z"/><path d="M603.65,246.01v10.18h-1.54v-10.18h1.54Z"/><path d="M616.49,249.22c-.1-.3-.22-.57-.38-.81-.16-.24-.35-.45-.57-.62-.22-.17-.47-.3-.76-.39-.28-.09-.59-.13-.93-.13-.57,0-1.09,.15-1.55,.44-.46,.29-.82,.73-1.09,1.29-.27,.57-.4,1.26-.4,2.09s.13,1.52,.4,2.09c.27,.57,.64,1,1.1,1.3s1,.44,1.6,.44c.55,0,1.04-.11,1.45-.34,.41-.23,.73-.54,.96-.96,.23-.41,.34-.9,.34-1.46l.4,.07h-2.91v-1.27h4v1.16c0,.86-.18,1.6-.54,2.22-.36,.63-.86,1.11-1.5,1.45-.64,.34-1.37,.51-2.19,.51-.92,0-1.73-.21-2.42-.64s-1.24-1.03-1.62-1.81c-.39-.78-.58-1.71-.58-2.78,0-.81,.11-1.54,.34-2.19,.23-.65,.54-1.2,.95-1.65,.41-.45,.89-.8,1.45-1.04s1.16-.36,1.82-.36c.55,0,1.06,.08,1.54,.24,.48,.16,.9,.39,1.27,.69,.37,.3,.68,.65,.93,1.06,.25,.41,.41,.86,.5,1.36h-1.58Z"/><path d="M623.18,256.34c-.72,0-1.34-.16-1.87-.49s-.95-.79-1.24-1.38c-.29-.59-.44-1.28-.44-2.07s.15-1.49,.44-2.08,.71-1.05,1.24-1.38,1.16-.49,1.87-.49,1.34,.16,1.87,.49c.53,.33,.95,.79,1.24,1.38s.44,1.29,.44,2.08-.15,1.48-.44,2.07c-.29,.59-.71,1.05-1.24,1.38-.53,.33-1.16,.49-1.87,.49Zm0-1.25c.46,0,.85-.12,1.15-.37,.3-.25,.53-.57,.68-.98,.15-.41,.22-.86,.22-1.35s-.07-.94-.22-1.35c-.15-.41-.37-.74-.68-.99-.31-.25-.69-.37-1.15-.37s-.85,.12-1.16,.37-.53,.58-.68,.99c-.15,.41-.22,.86-.22,1.35s.07,.94,.22,1.35c.15,.41,.38,.73,.68,.98,.31,.25,.69,.37,1.16,.37Z"/><path d="M634.66,248.55l-2.77,7.64h-1.59l-2.77-7.64h1.6l1.93,5.88h.08l1.93-5.88h1.6Z"/><path d="M639.08,256.34c-.75,0-1.4-.16-1.94-.49-.54-.32-.96-.78-1.25-1.37-.29-.59-.44-1.28-.44-2.07s.15-1.47,.44-2.07c.29-.6,.7-1.06,1.23-1.4,.53-.33,1.15-.5,1.86-.5,.43,0,.85,.07,1.25,.21s.77,.37,1.09,.67,.58,.7,.76,1.19,.28,1.07,.28,1.77v.53h-6.07v-1.11h4.61c0-.39-.08-.74-.24-1.04-.16-.3-.38-.54-.67-.72s-.62-.26-1.01-.26c-.42,0-.78,.1-1.09,.31-.31,.2-.55,.47-.72,.79-.17,.33-.25,.68-.25,1.06v.87c0,.51,.09,.95,.27,1.3,.18,.36,.43,.63,.76,.82,.32,.19,.7,.28,1.14,.28,.28,0,.54-.04,.77-.12,.23-.08,.43-.2,.6-.37,.17-.16,.3-.36,.39-.6l1.41,.25c-.11,.41-.31,.78-.6,1.09-.29,.31-.65,.55-1.09,.72-.44,.17-.93,.26-1.49,.26Z"/><path d="M644.01,256.19v-7.64h1.44v1.21h.08c.14-.41,.39-.74,.74-.97,.35-.24,.75-.36,1.2-.36,.09,0,.2,0,.33,0,.13,0,.23,.02,.3,.03v1.42c-.06-.02-.17-.04-.32-.06s-.3-.03-.46-.03c-.35,0-.66,.07-.94,.22s-.49,.35-.65,.61-.24,.56-.24,.89v4.66h-1.49Z"/><path d="M650.88,251.66v4.53h-1.49v-7.64h1.43v1.24h.09c.18-.4,.45-.73,.83-.97,.38-.25,.85-.37,1.42-.37,.52,0,.98,.11,1.37,.33,.39,.22,.69,.54,.91,.97,.21,.43,.32,.96,.32,1.59v4.86h-1.49v-4.68c0-.55-.14-.99-.43-1.3-.29-.31-.68-.47-1.19-.47-.34,0-.65,.07-.92,.22-.27,.15-.48,.37-.63,.65-.15,.29-.23,.63-.23,1.04Z"/><path d="M659.97,256.36c-.48,0-.92-.09-1.31-.27-.39-.18-.7-.44-.93-.79-.23-.34-.34-.77-.34-1.27,0-.43,.08-.79,.25-1.06,.17-.28,.39-.5,.67-.66,.28-.16,.6-.29,.95-.37,.35-.08,.7-.15,1.06-.19,.46-.05,.83-.1,1.11-.13s.49-.09,.62-.17c.13-.08,.19-.21,.19-.39v-.03c0-.43-.12-.77-.37-1.01-.24-.24-.61-.36-1.09-.36s-.89,.11-1.18,.33-.49,.46-.59,.73l-1.4-.32c.17-.46,.41-.84,.73-1.13s.69-.5,1.11-.63c.42-.13,.86-.2,1.32-.2,.3,0,.63,.04,.97,.11s.67,.2,.96,.39c.3,.19,.55,.46,.74,.81,.19,.35,.29,.8,.29,1.36v5.07h-1.45v-1.04h-.06c-.1,.19-.24,.38-.43,.57-.19,.19-.44,.34-.74,.46-.3,.12-.66,.18-1.08,.18Zm.32-1.19c.41,0,.76-.08,1.06-.24,.29-.16,.52-.38,.67-.64,.15-.26,.23-.54,.23-.85v-.98c-.05,.05-.16,.1-.31,.15-.15,.04-.32,.08-.51,.11-.19,.03-.38,.06-.56,.08-.18,.03-.33,.05-.46,.06-.29,.04-.55,.1-.79,.18-.24,.09-.43,.21-.57,.37-.14,.16-.21,.37-.21,.64,0,.37,.14,.65,.41,.83,.27,.19,.62,.28,1.04,.28Z"/><path d="M667.21,251.66v4.53h-1.49v-7.64h1.43v1.24h.09c.18-.4,.45-.73,.83-.97,.38-.25,.85-.37,1.42-.37,.52,0,.98,.11,1.37,.33,.39,.22,.69,.54,.91,.97,.21,.43,.32,.96,.32,1.59v4.86h-1.49v-4.68c0-.55-.14-.99-.43-1.3s-.68-.47-1.19-.47c-.34,0-.65,.07-.92,.22s-.48,.37-.63,.65c-.15,.29-.23,.63-.23,1.04Z"/><path d="M677.3,256.34c-.74,0-1.37-.17-1.91-.5-.53-.34-.94-.8-1.22-1.39-.29-.59-.43-1.27-.43-2.04s.15-1.46,.44-2.06c.29-.6,.7-1.06,1.23-1.39,.53-.33,1.16-.5,1.88-.5,.58,0,1.1,.11,1.55,.32,.45,.21,.82,.51,1.1,.9,.28,.38,.45,.83,.5,1.35h-1.45c-.08-.36-.26-.67-.54-.92-.28-.26-.66-.39-1.14-.39-.42,0-.78,.11-1.09,.33-.31,.22-.55,.53-.72,.92-.17,.4-.26,.87-.26,1.41s.08,1.04,.25,1.44c.17,.4,.41,.72,.72,.94,.31,.22,.68,.33,1.1,.33,.28,0,.54-.05,.77-.16,.23-.1,.42-.25,.58-.45s.27-.43,.33-.71h1.45c-.05,.49-.21,.93-.48,1.32s-.63,.69-1.08,.92c-.45,.22-.98,.33-1.58,.33Z"/><path d="M685.32,256.34c-.75,0-1.4-.16-1.94-.49-.54-.32-.96-.78-1.25-1.37-.29-.59-.44-1.28-.44-2.07s.15-1.47,.44-2.07c.29-.6,.7-1.06,1.23-1.4,.53-.33,1.15-.5,1.86-.5,.43,0,.85,.07,1.25,.21s.77,.37,1.09,.67c.32,.3,.57,.7,.76,1.19,.19,.49,.28,1.07,.28,1.77v.53h-6.07v-1.11h4.61c0-.39-.08-.74-.24-1.04-.16-.3-.38-.54-.67-.72s-.62-.26-1.01-.26c-.42,0-.78,.1-1.09,.31-.31,.2-.55,.47-.72,.79-.17,.33-.25,.68-.25,1.06v.87c0,.51,.09,.95,.27,1.3,.18,.36,.43,.63,.76,.82,.33,.19,.71,.28,1.14,.28,.28,0,.54-.04,.77-.12,.23-.08,.43-.2,.6-.37,.17-.16,.3-.36,.39-.6l1.41,.25c-.11,.41-.31,.78-.6,1.09-.29,.31-.65,.55-1.09,.72-.44,.17-.93,.26-1.49,.26Z"/></g><g><path class="ae" d="M563.77,246.63c1.05-.02,1.87-.75,1.93-1.76,.02-.19,.02-.41,.02-.61,0-.16,0-.32,0-.47,.04-.86-.34-1.53-1.15-2.02-2.05-1.25-4.08-2.5-6.12-3.76-2.42-1.5-4.84-2.99-7.27-4.47-.25-.15-.48-.31-.72-.46-.73-.48-1.49-.99-2.39-1.24h-1c-.12,.06-.26,.11-.38,.16-.29,.11-.59,.22-.86,.39-2.52,1.57-5.03,3.15-7.55,4.73l-3.73,2.35c-1.28,.8-2.54,1.6-3.82,2.39-.65,.41-1,1-1,1.74,0,.35,0,.71,0,1.08,.03,1.2,.83,1.95,2.08,1.95h1.23l-.02,.1c-.16,.97,.31,1.9,1.2,2.34,.15,.07,.18,.12,.18,.3,0,2.48,0,4.96,0,7.43v2.48c0,.06,0,.12,0,.19h-.21c-1.4,0-2.05,.63-2.05,1.97v1.34h-.07c-.19,0-.36,0-.54,0-1.07,.03-1.75,.67-1.76,1.69-.02,.54-.02,1.08,0,1.68,.02,1.04,.73,1.7,1.81,1.7h32.37c1.07,0,1.78-.66,1.81-1.7,0-.41,0-.82,0-1.23v-.3c0-1.17-.68-1.83-1.9-1.83h-.82v-.5c0-.37,0-.73,0-1.08,0-1.01-.72-1.69-1.76-1.72h-.47l-.03-2.64c0-2.53,0-5.05,0-7.58,0-.08,0-.09,.17-.18,.86-.44,1.33-1.31,1.22-2.21,0-.08,0-.15-.03-.22h.38c.44,0,.87,0,1.3,0Zm-2.64,14.62v1.52h-10.02c-.12,0-.26,0-.4,.02-.46,.04-.78,.4-.8,.83-.02,.46,.27,.82,.73,.9,.17,.04,.33,.04,.51,.04h12.68v1.49h-32.24v-1.49h2.71c3.25,0,6.5,0,9.75,0,.19,0,.39,0,.58-.04,.4-.1,.68-.48,.65-.89,0-.41-.34-.77-.77-.83-.15-.02-.3-.02-.45-.02h-1.94c-2.65,0-5.32,0-7.97,0-.19,0-.21-.04-.21-.04,0,0-.03-.03,0-.16,.02-.38,0-.76,0-1.12v-.21s.02,0,.05,0c.06,0,.12,0,.19,0h26.94Zm-25.91-13.71c-.26-.05-.42-.26-.41-.48,.04-.26,.24-.41,.54-.41,.64,0,1.29,0,1.92,0h1.08c.26,0,.51,0,.77,0,.31,0,.52,.18,.53,.44,0,.36-.33,.45-.47,.47-.68,.11-.93,.4-.93,1.07v10.84h-2.03v-10.71c0-.81-.18-1.02-1-1.2Zm6.22-.88h1.89c-.17,1.12,.21,1.81,1.34,2.5v10.29h-4.58v-2.64c0-2.48,0-4.96,0-7.45,0-.17,.03-.22,.19-.3,.92-.46,1.31-1.27,1.17-2.4Zm4.1,.88c-.26-.05-.42-.24-.41-.48,.03-.26,.22-.41,.53-.41,.58,0,1.16,0,1.75,0h1.07c.3,0,.6,0,.9,0,.34,0,.56,.18,.58,.44,0,.24-.19,.42-.51,.47-.64,.1-.9,.41-.9,1.13v10.76h-2.03v-10.69c0-.82-.17-1.03-.99-1.21Zm6.22-.84v-.04h1.87c-.11,.65,0,1.19,.34,1.64,.25,.33,.58,.57,.86,.76,.14,.11,.16,.13,.16,.24,0,2.8,0,5.6,0,8.4v1.74h-4.59v-10.09c0-.16,.02-.2,.16-.28,.92-.45,1.38-1.36,1.21-2.36Zm4.1,.84c-.27-.05-.43-.23-.41-.48,.02-.24,.19-.41,.44-.41,1.35-.02,2.67-.02,3.94,0,.28,0,.44,.23,.44,.44,0,.22-.17,.41-.42,.45-.78,.16-.97,.38-.97,1.16v10.75h-2.04v-10.75c0-.78-.19-1-.98-1.16Zm-23.92-2.69c-.07,0-.29,0-.33-.03-.03-.03-.04-.18-.06-.35-.1-.7,.14-1.13,.88-1.58,4.04-2.5,8.11-5.07,12.05-7.55l2.32-1.45c.26-.17,.5-.25,.75-.25s.48,.08,.73,.23c5.1,3.15,10.21,6.3,15.32,9.43,.19,.12,.26,.23,.26,.41,0,.19,0,.4,0,.58,0,.14,0,.26,0,.4,0,.06,0,.11-.04,.12-.02,.02-.08,.03-.12,.03h-31.75Z"/><path class="ae" d="M548.54,263.66c0,.48-.41,.88-.91,.88-.26,0-.49-.1-.67-.28-.17-.17-.26-.4-.26-.63,0-.49,.41-.85,.93-.86,.5,0,.91,.4,.91,.88Z"/><path class="ae" d="M558.1,241.39c-2.42-1.48-4.84-2.97-7.25-4.46l-1.77-1.08c-1-.63-2.04-.62-3.05,.04-1.08,.69-2.18,1.38-3.27,2.05l-5.57,3.5c-.57,.36-.64,.83-.6,1.16,.06,.47,.34,.79,.78,.94,.23,.07,.47,.07,.71,.07h19.2c.25,0,.5,0,.74-.09h0c.43-.14,.7-.48,.74-.96,.05-.48-.17-.86-.65-1.16Zm-18.09,.4l2.75-1.73c1.43-.9,2.86-1.79,4.28-2.7,.37-.24,.68-.24,1.03-.02,1.9,1.17,3.81,2.35,5.7,3.52l1.52,.93h-15.29Z"/></g></g><g><rect class="n" x="510.76" y="375.89" width="193.1" height="63.06" rx="9.41" ry="9.41"/><g><path class="ad" d="M587.01,404.83h-3.3v-10.18h3.4c1,0,1.85,.2,2.57,.61s1.27,.99,1.65,1.75,.57,1.66,.57,2.72-.19,1.97-.58,2.73-.94,1.35-1.67,1.76c-.73,.41-1.61,.61-2.65,.61Zm-1.76-1.34h1.68c.78,0,1.42-.15,1.93-.44,.51-.29,.9-.72,1.15-1.28,.26-.56,.38-1.24,.38-2.05s-.13-1.48-.38-2.03-.63-.98-1.13-1.27c-.5-.29-1.12-.43-1.86-.43h-1.77v7.5Z"/><path class="ad" d="M596.99,404.99c-.75,0-1.4-.16-1.94-.49s-.96-.78-1.25-1.37c-.29-.59-.44-1.28-.44-2.07s.15-1.47,.44-2.07c.29-.6,.7-1.06,1.23-1.4,.53-.33,1.15-.5,1.86-.5,.43,0,.85,.07,1.25,.21s.77,.37,1.09,.67c.32,.3,.57,.7,.76,1.19,.19,.49,.28,1.08,.28,1.77v.53h-6.07v-1.11h4.61c0-.39-.08-.74-.24-1.04s-.38-.54-.67-.72c-.29-.18-.62-.26-1.01-.26-.42,0-.78,.1-1.09,.3-.31,.21-.55,.47-.72,.8-.17,.33-.25,.68-.25,1.06v.87c0,.51,.09,.94,.27,1.3s.43,.63,.76,.82,.7,.28,1.14,.28c.28,0,.54-.04,.77-.12s.43-.2,.6-.37,.3-.36,.39-.6l1.41,.25c-.11,.42-.31,.78-.6,1.09s-.65,.55-1.09,.72c-.44,.17-.93,.26-1.49,.26Z"/><path class="ad" d="M608.23,397.19l-2.77,7.64h-1.59l-2.77-7.64h1.6l1.93,5.88h.08l1.93-5.88h1.6Z"/><path class="ad" d="M612.65,404.99c-.75,0-1.4-.16-1.94-.49s-.96-.78-1.25-1.37c-.29-.59-.44-1.28-.44-2.07s.15-1.47,.44-2.07c.29-.6,.7-1.06,1.23-1.4,.53-.33,1.15-.5,1.86-.5,.43,0,.85,.07,1.25,.21s.77,.37,1.09,.67,.58,.7,.76,1.19c.19,.49,.28,1.08,.28,1.77v.53h-6.07v-1.11h4.61c0-.39-.08-.74-.24-1.04s-.38-.54-.67-.72c-.29-.18-.62-.26-1.01-.26-.42,0-.78,.1-1.09,.3-.31,.21-.55,.47-.72,.8-.17,.33-.25,.68-.25,1.06v.87c0,.51,.09,.94,.27,1.3s.43,.63,.76,.82c.32,.19,.7,.28,1.14,.28,.28,0,.54-.04,.77-.12,.23-.08,.43-.2,.6-.37,.17-.16,.3-.36,.39-.6l1.41,.25c-.11,.42-.31,.78-.6,1.09s-.65,.55-1.09,.72-.93,.26-1.49,.26Z"/><path class="ad" d="M619.06,394.65v10.18h-1.49v-10.18h1.49Z"/><path class="ad" d="M624.28,404.99c-.72,0-1.34-.16-1.87-.49s-.95-.79-1.24-1.38c-.29-.59-.44-1.28-.44-2.07s.15-1.49,.44-2.08c.29-.59,.71-1.05,1.24-1.38s1.16-.49,1.87-.49,1.34,.16,1.88,.49c.53,.33,.95,.79,1.24,1.38,.29,.59,.44,1.29,.44,2.08s-.15,1.48-.44,2.07c-.29,.59-.71,1.05-1.24,1.38-.53,.33-1.16,.49-1.88,.49Zm0-1.25c.46,0,.85-.12,1.15-.37,.3-.25,.53-.57,.68-.98s.22-.86,.22-1.35-.07-.94-.22-1.34-.37-.74-.68-.99c-.31-.25-.69-.37-1.15-.37s-.85,.12-1.16,.37c-.31,.25-.53,.58-.68,.99s-.22,.86-.22,1.34,.07,.94,.22,1.35,.38,.73,.68,.98,.69,.37,1.16,.37Z"/><path class="ad" d="M629.5,407.69v-10.5h1.45v1.24h.12c.09-.16,.21-.34,.37-.55s.39-.39,.68-.55c.29-.16,.67-.24,1.14-.24,.62,0,1.17,.16,1.65,.47,.48,.31,.86,.76,1.14,1.35,.28,.59,.42,1.29,.42,2.12s-.14,1.53-.41,2.12c-.28,.59-.65,1.04-1.13,1.36s-1.03,.47-1.65,.47c-.46,0-.84-.08-1.14-.23-.29-.16-.52-.34-.69-.55-.17-.21-.29-.39-.38-.56h-.09v4.05h-1.49Zm1.46-6.68c0,.54,.08,1.01,.23,1.41,.16,.4,.38,.72,.68,.95,.29,.23,.66,.34,1.08,.34s.82-.12,1.11-.36,.52-.56,.68-.97,.23-.87,.23-1.38-.08-.96-.23-1.36c-.15-.4-.38-.72-.68-.95-.3-.23-.67-.35-1.12-.35s-.79,.11-1.09,.33c-.3,.22-.52,.53-.67,.93-.15,.4-.23,.86-.23,1.39Z"/><path class="ad" d="M638.14,404.83v-7.64h1.43v1.24h.09c.16-.42,.42-.75,.78-.99,.36-.24,.79-.36,1.3-.36s.94,.12,1.29,.36c.35,.24,.6,.57,.77,.98h.08c.18-.41,.47-.73,.87-.98,.4-.24,.87-.37,1.42-.37,.69,0,1.26,.22,1.7,.65,.44,.43,.66,1.09,.66,1.96v5.12h-1.49v-4.98c0-.52-.14-.89-.42-1.12-.28-.23-.62-.35-1.01-.35-.48,0-.86,.15-1.13,.44-.27,.3-.4,.68-.4,1.14v4.87h-1.48v-5.08c0-.41-.13-.75-.39-1s-.59-.38-1.01-.38c-.28,0-.54,.07-.78,.22-.24,.15-.43,.35-.57,.61-.14,.26-.22,.57-.22,.91v4.71h-1.49Z"/><path class="ad" d="M653.8,404.99c-.75,0-1.4-.16-1.94-.49s-.96-.78-1.25-1.37c-.29-.59-.44-1.28-.44-2.07s.15-1.47,.44-2.07c.29-.6,.7-1.06,1.23-1.4,.53-.33,1.15-.5,1.86-.5,.43,0,.85,.07,1.25,.21s.77,.37,1.09,.67c.32,.3,.57,.7,.76,1.19,.19,.49,.28,1.08,.28,1.77v.53h-6.07v-1.11h4.61c0-.39-.08-.74-.24-1.04s-.38-.54-.67-.72c-.29-.18-.62-.26-1.01-.26-.42,0-.78,.1-1.09,.3-.31,.21-.55,.47-.72,.8-.17,.33-.25,.68-.25,1.06v.87c0,.51,.09,.94,.27,1.3s.43,.63,.76,.82,.7,.28,1.14,.28c.28,0,.54-.04,.77-.12s.43-.2,.6-.37,.3-.36,.39-.6l1.41,.25c-.11,.42-.31,.78-.6,1.09s-.65,.55-1.09,.72c-.44,.17-.93,.26-1.49,.26Z"/><path class="ad" d="M660.21,400.3v4.54h-1.49v-7.64h1.43v1.24h.09c.18-.4,.45-.73,.83-.97s.85-.37,1.42-.37c.52,0,.98,.11,1.37,.33,.39,.22,.69,.54,.91,.97s.32,.96,.32,1.59v4.86h-1.49v-4.68c0-.55-.14-.99-.43-1.3-.29-.31-.68-.47-1.19-.47-.34,0-.65,.08-.92,.22-.27,.15-.48,.37-.63,.65-.15,.29-.23,.63-.23,1.04Z"/><path class="ad" d="M670.65,397.19v1.19h-4.17v-1.19h4.17Zm-3.05-1.83h1.49v7.22c0,.29,.04,.5,.13,.65,.09,.14,.2,.24,.34,.29,.14,.05,.29,.08,.45,.08,.12,0,.22,0,.31-.02,.09-.02,.16-.03,.21-.04l.27,1.23c-.09,.03-.21,.07-.37,.1-.16,.03-.36,.05-.6,.06-.39,0-.76-.06-1.09-.21-.34-.15-.61-.37-.82-.68-.21-.3-.31-.69-.31-1.15v-7.53Z"/><path class="ad" d="M676.31,401.49v-1.34h6.72v1.34h-6.72Zm2.69,2.7v-6.72h1.34v6.72h-1.34Z"/><path class="ad" d="M587.01,421.63h-3.3v-10.18h3.4c1,0,1.85,.2,2.57,.61s1.27,.99,1.65,1.75,.57,1.67,.57,2.72-.19,1.97-.58,2.73c-.39,.76-.94,1.35-1.67,1.76-.73,.41-1.61,.61-2.65,.61Zm-1.76-1.34h1.68c.78,0,1.42-.15,1.93-.44,.51-.29,.9-.72,1.15-1.28,.26-.56,.38-1.24,.38-2.05s-.13-1.48-.38-2.03-.63-.98-1.13-1.27c-.5-.29-1.12-.43-1.86-.43h-1.77v7.5Z"/><path class="ad" d="M596.92,421.78c-.72,0-1.34-.16-1.87-.49s-.95-.79-1.24-1.38-.44-1.28-.44-2.07,.15-1.48,.44-2.08c.29-.59,.71-1.05,1.24-1.38s1.16-.49,1.87-.49,1.34,.16,1.88,.49c.53,.33,.95,.79,1.24,1.38,.29,.59,.44,1.29,.44,2.08s-.15,1.48-.44,2.07-.71,1.05-1.24,1.38c-.53,.33-1.16,.49-1.88,.49Zm0-1.25c.46,0,.85-.12,1.15-.37,.3-.25,.53-.57,.68-.98s.22-.86,.22-1.35-.07-.93-.22-1.34c-.15-.41-.37-.74-.68-.99-.31-.25-.69-.37-1.15-.37s-.85,.12-1.16,.37c-.31,.25-.53,.58-.68,.99-.15,.41-.22,.86-.22,1.34s.07,.94,.22,1.35,.38,.73,.68,.98c.31,.25,.69,.37,1.16,.37Z"/><path class="ad" d="M602.13,421.63v-7.64h1.43v1.24h.09c.16-.42,.42-.75,.78-.99,.36-.24,.79-.36,1.3-.36s.94,.12,1.29,.36c.35,.24,.6,.57,.77,.98h.08c.18-.41,.47-.73,.87-.98,.4-.24,.87-.37,1.42-.37,.69,0,1.26,.22,1.7,.65,.44,.43,.66,1.09,.66,1.96v5.12h-1.49v-4.98c0-.52-.14-.89-.42-1.12-.28-.23-.62-.35-1.01-.35-.48,0-.86,.15-1.13,.45s-.4,.68-.4,1.14v4.87h-1.48v-5.08c0-.41-.13-.75-.39-1s-.59-.38-1.01-.38c-.28,0-.54,.07-.78,.22-.24,.15-.43,.35-.57,.61-.14,.26-.22,.56-.22,.91v4.71h-1.49Z"/><path class="ad" d="M616.72,421.8c-.48,0-.92-.09-1.31-.27-.39-.18-.7-.44-.93-.79-.23-.34-.34-.77-.34-1.27,0-.43,.08-.79,.25-1.06,.17-.28,.39-.5,.67-.66,.28-.16,.6-.29,.95-.37,.35-.08,.7-.15,1.06-.19,.46-.05,.83-.1,1.11-.13,.29-.04,.49-.09,.62-.17,.13-.08,.19-.21,.19-.39v-.03c0-.43-.12-.77-.37-1.01-.24-.24-.61-.36-1.09-.36s-.89,.11-1.18,.33c-.29,.22-.49,.46-.59,.73l-1.4-.32c.17-.46,.41-.84,.73-1.12,.32-.29,.69-.5,1.11-.63,.42-.13,.86-.2,1.32-.2,.31,0,.63,.04,.97,.11,.34,.07,.66,.2,.96,.39s.55,.46,.74,.81,.29,.8,.29,1.36v5.07h-1.45v-1.04h-.06c-.1,.19-.24,.38-.43,.57s-.44,.34-.74,.46c-.3,.12-.66,.18-1.08,.18Zm.32-1.19c.41,0,.76-.08,1.06-.24,.29-.16,.52-.38,.67-.64,.15-.26,.23-.55,.23-.85v-.98c-.05,.05-.15,.1-.31,.15-.15,.04-.32,.08-.51,.12-.19,.03-.38,.06-.56,.08s-.33,.04-.46,.06c-.29,.04-.55,.1-.79,.18-.24,.09-.43,.21-.57,.37-.14,.16-.21,.37-.21,.64,0,.37,.14,.64,.41,.83,.27,.19,.62,.28,1.04,.28Z"/><path class="ad" d="M623.22,412.82c-.26,0-.48-.09-.66-.26-.18-.17-.28-.38-.28-.62s.09-.46,.28-.63c.18-.17,.41-.26,.66-.26s.48,.09,.66,.26,.28,.38,.28,.63-.09,.45-.28,.62-.41,.26-.66,.26Zm-.75,8.81v-7.64h1.49v7.64h-1.49Z"/><path class="ad" d="M627.44,417.1v4.53h-1.49v-7.64h1.43v1.24h.09c.18-.4,.45-.73,.83-.97,.38-.25,.85-.37,1.42-.37,.52,0,.98,.11,1.37,.33,.39,.22,.69,.54,.91,.97,.21,.43,.32,.96,.32,1.59v4.86h-1.49v-4.68c0-.55-.14-.99-.43-1.3-.29-.31-.68-.47-1.19-.47-.34,0-.65,.07-.92,.22-.27,.15-.48,.37-.63,.65s-.23,.63-.23,1.04Z"/><path class="ad" d="M638.14,421.63v-10.18h6.38v1.32h-4.85v3.1h4.51v1.32h-4.51v3.12h4.91v1.32h-6.44Z"/><path class="ad" d="M647.64,413.99l1.69,2.97,1.7-2.97h1.63l-2.38,3.82,2.4,3.82h-1.62l-1.72-2.85-1.71,2.85h-1.63l2.38-3.82-2.35-3.82h1.63Z"/><path class="ad" d="M654.18,424.49v-10.5h1.45v1.24h.12c.09-.16,.21-.34,.37-.55,.16-.21,.39-.39,.68-.55s.67-.24,1.14-.24c.62,0,1.17,.16,1.65,.47,.48,.31,.86,.76,1.14,1.35,.28,.59,.42,1.29,.42,2.12s-.14,1.53-.41,2.12c-.28,.59-.65,1.04-1.13,1.36s-1.03,.47-1.65,.47c-.46,0-.84-.08-1.14-.23s-.52-.34-.69-.55-.29-.39-.38-.56h-.09v4.05h-1.49Zm1.46-6.68c0,.54,.08,1.01,.23,1.41,.16,.4,.38,.72,.68,.95,.29,.23,.66,.34,1.08,.34s.82-.12,1.11-.36c.3-.24,.53-.56,.68-.97,.15-.41,.23-.87,.23-1.38s-.08-.96-.23-1.36c-.15-.4-.38-.72-.68-.95-.3-.23-.67-.35-1.12-.35s-.79,.11-1.09,.33c-.3,.22-.52,.53-.67,.93s-.23,.86-.23,1.39Z"/><path class="ad" d="M666.11,421.78c-.75,0-1.4-.16-1.94-.48s-.96-.78-1.25-1.37c-.29-.59-.44-1.28-.44-2.07s.15-1.47,.44-2.07c.29-.6,.7-1.06,1.23-1.4,.53-.33,1.15-.5,1.86-.5,.43,0,.85,.07,1.25,.21s.77,.37,1.09,.67c.32,.31,.58,.7,.76,1.19,.19,.48,.28,1.07,.28,1.77v.53h-6.07v-1.11h4.61c0-.39-.08-.74-.24-1.04s-.38-.54-.67-.72c-.29-.18-.62-.26-1.01-.26-.42,0-.78,.1-1.09,.31-.31,.2-.55,.47-.72,.79s-.25,.68-.25,1.06v.87c0,.51,.09,.94,.27,1.3,.18,.36,.43,.63,.76,.82,.32,.19,.7,.28,1.14,.28,.28,0,.54-.04,.77-.12,.23-.08,.43-.2,.6-.37,.17-.16,.3-.36,.39-.6l1.41,.25c-.11,.41-.31,.78-.6,1.09s-.65,.55-1.09,.72c-.44,.17-.93,.26-1.49,.26Z"/><path class="ad" d="M671.05,421.63v-7.64h1.44v1.21h.08c.14-.41,.39-.74,.74-.97,.35-.24,.75-.36,1.2-.36,.09,0,.2,0,.33,0,.13,0,.23,.01,.3,.03v1.42c-.06-.02-.17-.04-.32-.06s-.3-.03-.46-.03c-.35,0-.66,.07-.94,.22-.27,.15-.49,.35-.65,.61-.16,.26-.24,.56-.24,.89v4.66h-1.49Z"/><path class="ad" d="M680.44,413.99v1.19h-4.17v-1.19h4.17Zm-3.05-1.83h1.49v7.22c0,.29,.04,.5,.13,.65,.09,.14,.2,.24,.34,.29,.14,.05,.29,.08,.45,.08,.12,0,.22,0,.31-.03,.09-.02,.16-.03,.21-.04l.27,1.23c-.09,.03-.21,.07-.37,.1s-.36,.05-.6,.06c-.39,0-.76-.06-1.09-.21-.34-.15-.61-.37-.82-.68s-.31-.69-.31-1.15v-7.53Z"/><path class="ad" d="M687.67,415.86l-1.35,.24c-.06-.17-.15-.34-.27-.49-.12-.16-.28-.28-.49-.38-.21-.1-.46-.15-.77-.15-.42,0-.77,.09-1.05,.28-.28,.19-.42,.43-.42,.72,0,.26,.09,.46,.28,.62,.19,.16,.49,.28,.92,.38l1.21,.28c.7,.16,1.23,.41,1.57,.75s.52,.78,.52,1.32c0,.46-.13,.86-.4,1.22s-.63,.64-1.1,.84c-.47,.2-1.01,.3-1.63,.3-.86,0-1.55-.18-2.09-.55-.54-.37-.87-.89-1-1.56l1.44-.22c.09,.38,.27,.66,.55,.85,.28,.19,.64,.29,1.09,.29,.49,0,.88-.1,1.17-.31,.29-.2,.44-.45,.44-.75,0-.24-.09-.44-.27-.6-.18-.16-.45-.29-.81-.37l-1.29-.28c-.71-.16-1.24-.42-1.58-.78s-.51-.8-.51-1.35c0-.45,.13-.85,.38-1.18s.6-.6,1.04-.79c.44-.19,.95-.29,1.53-.29,.83,0,1.48,.18,1.95,.53,.47,.36,.79,.83,.94,1.43Z"/></g><g><path class="v" d="M554.89,414.15c-.16,0-.32,.03-.48,.06-.55,.09-1.1,.21-1.65,.29-.56,.08-.89,.38-1.08,.92-.26,.75-.58,1.49-.92,2.2-.24,.5-.24,.93,.09,1.38,.38,.52,.74,1.04,1.1,1.57,.27,.39,.24,.66-.08,1-.36,.37-.73,.74-1.1,1.1-.38,.38-.62,.4-1.06,.1-.48-.33-.97-.66-1.44-1.01-.52-.4-1.01-.41-1.59-.11-.63,.33-1.3,.61-1.98,.82-.65,.2-.98,.57-1.07,1.23-.08,.59-.2,1.18-.31,1.77-.09,.45-.29,.61-.74,.62-.53,0-1.07,0-1.6,0-.49,0-.7-.18-.78-.67-.11-.6-.23-1.2-.31-1.81-.08-.56-.37-.89-.91-1.09-.76-.27-1.51-.59-2.24-.93-.5-.24-.94-.22-1.38,.11-.52,.38-1.04,.74-1.57,1.1-.38,.26-.63,.24-.96-.08-.39-.38-.78-.76-1.16-1.16-.33-.34-.34-.6-.07-1,.36-.53,.73-1.05,1.1-1.57,.31-.43,.32-.86,.09-1.35-.34-.73-.66-1.48-.93-2.24-.19-.54-.53-.83-1.09-.91-.62-.09-1.23-.21-1.85-.32-.44-.08-.63-.3-.63-.74,0-.55,0-1.09,0-1.64,0-.46,.17-.66,.61-.75,.61-.12,1.23-.23,1.85-.32,.59-.09,.93-.4,1.13-.98,.25-.74,.56-1.46,.9-2.17,.23-.5,.24-.93-.09-1.38-.37-.5-.73-1.02-1.08-1.53-.3-.43-.27-.68,.1-1.06,.35-.36,.71-.72,1.07-1.07,.37-.36,.63-.39,1.06-.09,.54,.37,1.07,.75,1.6,1.12,.38,.27,.77,.28,1.2,.1,.8-.35,1.61-.68,2.43-1.01,.4-.16,.69-.41,.77-.84,.14-.73,.27-1.47,.38-2.2,.08-.57-.31-1.08-.85-1.17-.52-.09-1.05,.27-1.18,.84-.09,.43-.14,.87-.24,1.29-.03,.13-.15,.27-.27,.33-.42,.2-.85,.38-1.29,.54-.12,.04-.31,.01-.42-.06-.44-.27-.85-.6-1.29-.86-.95-.57-2.19-.48-3.02,.25-.61,.53-1.19,1.11-1.72,1.72-.72,.83-.81,2.03-.26,2.99,.21,.36,.43,.71,.69,1.02,.3,.35,.23,.64,.12,1.06-.27,1.04-.91,1.37-1.9,1.44-.86,.06-1.55,.54-1.99,1.31-.16,.28-.26,.6-.39,.91v2.8c.13,.3,.23,.62,.4,.9,.46,.79,1.19,1.25,2.08,1.31,.94,.06,1.52,.39,1.78,1.35,.13,.46,.2,.77-.12,1.17-.43,.53-.85,1.09-.97,1.81-.13,.81,.02,1.55,.56,2.16,.53,.6,1.1,1.16,1.69,1.69,.83,.74,2.06,.85,3.01,.29,.45-.26,.87-.57,1.29-.87,.19-.14,.33-.15,.54-.05,.38,.18,.79,.31,1.17,.51,.14,.07,.28,.24,.31,.39,.11,.41,.15,.84,.24,1.25,.24,1.12,.91,1.83,2.01,2.15,.06,.02,.11,.06,.17,.08h2.8c.72-.23,1.43-.53,1.78-1.24,.26-.52,.44-1.11,.52-1.69,.09-.62,.28-1.03,.95-1.15,.24-.04,.45-.23,.7-.29,.15-.04,.36-.03,.49,.05,.39,.23,.74,.52,1.13,.76,1.1,.69,2.31,.61,3.28-.25,.54-.48,1.04-1,1.53-1.52,.5-.53,.69-1.18,.68-1.9-.02-.8-.41-1.43-.89-2-.41-.48-.53-.92-.15-1.47,.14-.2,.17-.48,.29-.69,.08-.14,.24-.28,.38-.32,.44-.11,.89-.15,1.33-.26,.51-.12,.84-.66,.76-1.16-.08-.49-.54-.87-1.05-.86Z"/><path class="v" d="M567.14,399c-.03-1.18-.78-2.08-1.93-2.32-.23-.05-.47-.11-.71-.12-.31-.02-.43-.19-.57-.45-.3-.55-.29-1.01,.17-1.45,.05-.04,.08-.11,.12-.16,.71-1.06,.62-2.21-.26-3.13-.26-.27-.53-.53-.79-.79-1.07-1.07-2.22-1.2-3.43-.29-.5,.37-.91,.48-1.46,.16-.25-.14-.44-.25-.46-.56-.01-.24-.07-.47-.12-.71-.24-1.15-1.14-1.9-2.32-1.94-.27,0-.53,.01-.8,0-1.79-.12-2.88,.64-3.1,2.63-.03,.31-.19,.43-.44,.58-.54,.31-1,.3-1.45-.16-.09-.09-.22-.16-.33-.23-.94-.57-2.02-.48-2.85,.25-.32,.28-.61,.59-.91,.9-1.09,1.09-1.2,2.21-.28,3.46,.33,.45,.47,.82,.18,1.36-.18,.33-.34,.53-.72,.55-.2,.01-.4,.05-.59,.1-.99,.22-1.7,.8-1.85,1.8-.12,.82-.13,1.69,0,2.5,.2,1.15,1.05,1.72,2.18,1.84,.54,.06,.88,.25,1.06,.8,.12,.38,.09,.62-.12,.94-.29,.44-.59,.91-.7,1.41-.27,1.33,1.45,3.48,2.88,3.74,.92,.16,1.64-.21,2.31-.75,.28-.22,.5-.2,.83-.1,.58,.18,.85,.51,.85,1.11,0,.14,.05,.29,.08,.43,.26,1.04,1.11,1.75,2.18,1.79,.56,.02,1.12,.02,1.68,0,1.06-.04,1.89-.73,2.16-1.76,.09-.33,.13-.68,.21-1.02,.03-.11,.1-.25,.2-.3,.57-.33,1.15-.56,1.7,.08,.1,.12,.26,.18,.4,.26,.88,.49,1.92,.39,2.68-.27,.34-.3,.65-.63,.97-.95,1.08-1.08,1.2-2.21,.28-3.43-.38-.5-.46-.91-.15-1.46,.14-.25,.24-.43,.57-.46,.32-.02,.63-.1,.94-.19,.96-.27,1.63-1.1,1.69-2.1,.02-.29,0-.59,0-.88h0c0-.24,0-.48,0-.72Zm-2.07,1.26c.01,.31-.13,.46-.43,.5-.43,.06-.86,.16-1.3,.22-.54,.08-.89,.35-1.07,.88-.21,.59-.45,1.16-.72,1.73-.23,.49-.2,.92,.12,1.34,.26,.35,.49,.73,.76,1.07,.23,.29,.19,.52-.08,.75-.26,.23-.49,.49-.74,.73-.08,.08-.19,.13-.29,.2-.13-.07-.24-.12-.33-.18-.4-.27-.79-.55-1.18-.82-.38-.27-.77-.31-1.2-.11-.62,.28-1.24,.54-1.87,.78-.44,.17-.7,.46-.78,.93-.08,.47-.17,.94-.24,1.42-.05,.3-.18,.45-.5,.43-.37-.02-.75-.01-1.12,0-.28,0-.41-.12-.45-.39-.07-.45-.17-.89-.23-1.34-.08-.56-.38-.9-.91-1.09-.56-.2-1.12-.42-1.65-.68-.52-.26-.96-.22-1.41,.12-.35,.26-.72,.5-1.08,.76-.24,.18-.45,.19-.66-.05-.24-.26-.5-.52-.76-.76-.23-.22-.23-.42-.05-.66,.28-.37,.53-.76,.81-1.14,.29-.4,.33-.81,.12-1.28-.27-.59-.52-1.19-.75-1.8-.18-.49-.52-.75-1.02-.83-.46-.07-.92-.17-1.38-.24-.27-.04-.4-.18-.39-.45,0-.37,.02-.75,0-1.12-.02-.32,.13-.46,.43-.5,.47-.07,.94-.16,1.42-.24,.46-.08,.75-.34,.92-.78,.24-.62,.49-1.23,.77-1.84,.21-.46,.17-.87-.12-1.27-.27-.38-.53-.77-.8-1.14-.18-.25-.18-.45,.05-.66,.26-.24,.52-.5,.76-.76,.22-.23,.42-.23,.66-.04,.37,.28,.76,.53,1.14,.81,.4,.29,.81,.32,1.27,.11,.59-.27,1.19-.52,1.8-.75,.49-.18,.75-.51,.83-1.02,.07-.46,.16-.92,.24-1.38,.04-.27,.18-.4,.45-.39,.37,0,.75,.01,1.12,0,.32-.01,.45,.15,.5,.44,.07,.47,.16,.94,.24,1.42,.08,.46,.34,.76,.78,.92,.62,.24,1.24,.48,1.84,.76,.46,.21,.87,.18,1.27-.12,.39-.28,.79-.55,1.17-.83,.22-.16,.41-.16,.6,.04,.27,.28,.54,.55,.82,.82,.21,.2,.19,.38,.04,.6-.27,.38-.53,.77-.81,1.14-.32,.43-.35,.86-.12,1.35,.27,.58,.51,1.17,.73,1.77,.18,.47,.48,.74,.98,.82,.46,.07,.92,.16,1.38,.24,.3,.05,.45,.19,.43,.51-.02,.36-.01,.72,0,1.08Z"/><path class="v" d="M538.59,408.92c.93-.8,2.02-1.14,3.22-1.21,.6-.03,1.03-.53,.99-1.08-.04-.56-.52-.98-1.12-.97-3.53,.05-6.5,2.77-6.84,6.26-.39,4.09,2.78,7.6,6.89,7.66,.45-.05,.9-.06,1.35-.15,.43-.08,.85-.22,1.26-.37,2.56-.96,4.41-3.68,4.37-6.4,0-.47-.24-.81-.66-1-.35-.16-.82-.05-1.11,.24-.3,.3-.3,.69-.33,1.08-.2,2.54-2.24,4.47-4.78,4.51-2.04,.03-3.89-1.22-4.6-3.09-.74-1.96-.21-4.09,1.35-5.45Z"/><path class="v" d="M554.66,394.76c-2.75,0-4.98,2.24-4.96,4.99,.02,2.74,2.23,4.94,4.97,4.93,2.74,0,4.95-2.23,4.95-4.96,0-2.73-2.23-4.96-4.96-4.96Zm0,7.84c-1.59,0-2.87-1.28-2.88-2.86,0-1.58,1.29-2.9,2.85-2.9,1.59,0,2.91,1.31,2.91,2.89,0,1.58-1.3,2.87-2.88,2.87Z"/></g></g><g><path class="v" d="M620.71,67.44c0-1.36-.47-2.49-1.47-3.42-2.32-2.17-4.62-4.36-6.92-6.55-.86-.82-1.88-1.23-3.07-1.23-4.48,0-8.97,0-13.45,0-.36,0-.73,.03-1.07,.11-1.92,.46-3.17,2.08-3.18,4.12,0,7.26,0,14.52,0,21.79,0,2.69,0,5.38,0,8.07,0,1.61,.72,2.85,2.13,3.65,.44,.25,.97,.36,1.46,.53h21.98s.06-.05,.09-.05c1.73-.2,3.51-1.82,3.5-4.27-.03-7.59-.02-15.17,0-22.76Zm-9.42-7.62s0-.09,.02-.21c1.98,1.87,3.92,3.7,5.93,5.61h-2.53c-.97,0-1.94,0-2.91,0-.4,0-.52-.12-.52-.51,0-1.63,0-3.26,0-4.89Zm7.18,8.06c0,7.44,0,14.88,0,22.31,0,1.33-.75,2.09-2.08,2.09-6.84,0-13.68,0-20.52,0-1.31,0-2.07-.76-2.07-2.06,0-9.89,0-19.78,0-29.68,0-1.3,.76-2.06,2.07-2.06,4.25,0,8.5,0,12.75,0h.43v.44c0,1.89,0,3.79,0,5.68,0,1.76,1.08,2.85,2.83,2.85,2.04,0,4.09,0,6.13,0h.46v.42Z"/><path class="v" d="M597.77,73.44c2.7,0,5.4,0,8.1,0,2.71,0,5.43,0,8.14,0,.52,0,.92-.21,1.14-.69,.34-.77-.24-1.55-1.14-1.55-4.97,0-9.93,0-14.9,0-.47,0-.95,0-1.42,0-.5,0-.86,.25-1.05,.7-.32,.76,.25,1.53,1.13,1.54Z"/><path class="v" d="M614.02,77.18c-4.49,0-8.99,0-13.48,0-.93,0-1.87,0-2.8,0-.51,0-.89,.23-1.09,.7-.32,.76,.24,1.54,1.12,1.54,2.71,0,5.43,0,8.14,0,.36,0,.72,0,1.08,0,2.34,0,4.68,0,7.02,0,.52,0,.92-.2,1.14-.68,.34-.77-.23-1.56-1.13-1.56Z"/><path class="v" d="M602.97,83.16c-1.72,0-3.44,0-5.16,0-.75,0-1.26,.46-1.26,1.13,0,.65,.51,1.11,1.24,1.11,.86,0,1.72,0,2.58,0,.86,0,1.72,0,2.58,0,.76,0,1.27-.45,1.28-1.11,0-.66-.52-1.13-1.26-1.13Z"/></g><circle class="i" cx="606.13" cy="75.39" r="33.83"/><g><path d="M293.43,453.53v-8.73h3.2c.62,0,1.13,.1,1.54,.3s.71,.48,.91,.82c.2,.34,.3,.73,.3,1.17,0,.36-.07,.67-.2,.92-.13,.25-.31,.45-.54,.6-.22,.15-.47,.26-.74,.33v.09c.29,.01,.57,.11,.85,.28,.28,.17,.51,.42,.69,.73,.18,.32,.27,.7,.27,1.15s-.1,.85-.31,1.2-.53,.63-.96,.84-.99,.31-1.67,.31h-3.35Zm1.32-4.95h1.76c.29,0,.56-.06,.8-.17,.24-.11,.43-.27,.57-.48s.21-.45,.21-.73c0-.36-.13-.66-.38-.91-.25-.24-.64-.37-1.16-.37h-1.8v2.66Zm0,3.82h1.9c.63,0,1.08-.12,1.35-.37,.27-.25,.41-.55,.41-.92,0-.28-.07-.53-.21-.76-.14-.23-.34-.41-.59-.55-.26-.14-.56-.21-.91-.21h-1.95v2.8Z"/><path d="M305.32,450.82v-3.83h1.28v6.54h-1.25v-1.13h-.07c-.15,.35-.39,.64-.72,.87s-.74,.35-1.23,.35c-.42,0-.79-.09-1.11-.28-.32-.19-.58-.46-.76-.83-.18-.37-.28-.82-.28-1.36v-4.16h1.27v4.01c0,.45,.12,.8,.37,1.07,.25,.26,.57,.4,.96,.4,.24,0,.48-.06,.71-.18,.24-.12,.43-.3,.59-.54,.16-.24,.24-.55,.23-.92Z"/><path d="M313.21,448.59l-1.15,.21c-.05-.15-.12-.29-.23-.42-.1-.13-.24-.24-.42-.33-.18-.09-.4-.13-.66-.13-.36,0-.66,.08-.9,.24-.24,.16-.36,.37-.36,.62,0,.22,.08,.39,.24,.53s.42,.24,.78,.33l1.04,.24c.6,.14,1.05,.35,1.35,.64,.3,.29,.44,.67,.44,1.13,0,.39-.11,.74-.34,1.05-.23,.31-.54,.54-.94,.72-.4,.17-.87,.26-1.4,.26-.73,0-1.33-.16-1.79-.47-.46-.31-.75-.76-.85-1.34l1.23-.19c.08,.32,.23,.56,.47,.73,.24,.16,.55,.25,.93,.25,.42,0,.75-.09,1-.26,.25-.17,.38-.39,.38-.64,0-.21-.08-.38-.23-.52-.15-.14-.38-.24-.7-.32l-1.11-.24c-.61-.14-1.06-.36-1.35-.67-.29-.3-.44-.69-.44-1.15,0-.39,.11-.72,.32-1.01,.22-.29,.51-.52,.89-.68,.38-.16,.82-.25,1.31-.25,.71,0,1.26,.15,1.67,.46,.41,.3,.67,.71,.8,1.22Z"/><path d="M315.38,445.98c-.22,0-.41-.08-.57-.22-.16-.15-.24-.33-.24-.53s.08-.39,.24-.54c.16-.15,.35-.22,.57-.22s.41,.07,.57,.22c.16,.15,.24,.33,.24,.54s-.08,.39-.24,.53c-.16,.15-.35,.22-.57,.22Zm-.64,7.55v-6.54h1.27v6.54h-1.27Z"/><path d="M319,449.65v3.89h-1.27v-6.54h1.22v1.07h.08c.15-.35,.39-.62,.71-.84,.32-.21,.73-.32,1.22-.32,.45,0,.84,.09,1.17,.28,.34,.19,.6,.46,.78,.83s.28,.82,.28,1.36v4.16h-1.27v-4.01c0-.47-.12-.85-.37-1.11s-.59-.4-1.02-.4c-.29,0-.56,.06-.79,.19s-.41,.31-.54,.56c-.13,.25-.2,.54-.2,.89Z"/><path d="M327.71,453.67c-.65,0-1.2-.14-1.66-.42-.46-.28-.82-.67-1.07-1.17-.25-.5-.38-1.1-.38-1.77s.12-1.26,.38-1.77c.25-.51,.6-.91,1.06-1.2s.98-.43,1.59-.43c.37,0,.73,.06,1.07,.18,.35,.12,.66,.31,.93,.58,.28,.26,.49,.6,.65,1.02s.24,.92,.24,1.51v.45h-5.2v-.96h3.96c0-.33-.07-.63-.21-.89-.14-.26-.33-.46-.57-.62-.25-.15-.53-.23-.86-.23-.36,0-.67,.09-.94,.26s-.47,.4-.61,.68c-.14,.28-.21,.58-.21,.91v.75c0,.44,.08,.81,.23,1.12,.15,.31,.37,.54,.65,.7,.28,.16,.6,.24,.98,.24,.24,0,.46-.04,.66-.1s.37-.17,.52-.31c.14-.14,.26-.31,.33-.52l1.21,.22c-.1,.35-.27,.67-.52,.93-.25,.27-.56,.47-.93,.62-.37,.15-.8,.22-1.28,.22Z"/><path d="M336.85,448.59l-1.16,.21c-.05-.15-.12-.29-.23-.42-.1-.13-.24-.24-.42-.33-.18-.09-.4-.13-.66-.13-.36,0-.66,.08-.9,.24-.24,.16-.36,.37-.36,.62,0,.22,.08,.39,.24,.53,.16,.13,.42,.24,.78,.33l1.04,.24c.6,.14,1.05,.35,1.35,.64,.29,.29,.44,.67,.44,1.13,0,.39-.11,.74-.34,1.05s-.54,.54-.94,.72c-.4,.17-.87,.26-1.4,.26-.73,0-1.33-.16-1.79-.47-.46-.31-.75-.76-.85-1.34l1.23-.19c.08,.32,.23,.56,.47,.73s.55,.25,.93,.25c.42,0,.75-.09,1-.26,.25-.17,.38-.39,.38-.64,0-.21-.08-.38-.23-.52-.15-.14-.38-.24-.7-.32l-1.11-.24c-.61-.14-1.06-.36-1.35-.67-.29-.3-.44-.69-.44-1.15,0-.39,.11-.72,.32-1.01,.22-.29,.51-.52,.89-.68,.38-.16,.82-.25,1.31-.25,.71,0,1.26,.15,1.67,.46,.41,.3,.67,.71,.81,1.22Z"/><path d="M343.28,448.59l-1.15,.21c-.05-.15-.12-.29-.23-.42-.1-.13-.24-.24-.42-.33-.18-.09-.4-.13-.66-.13-.36,0-.66,.08-.9,.24-.24,.16-.36,.37-.36,.62,0,.22,.08,.39,.24,.53s.42,.24,.78,.33l1.04,.24c.6,.14,1.05,.35,1.35,.64,.3,.29,.44,.67,.44,1.13,0,.39-.11,.74-.34,1.05-.23,.31-.54,.54-.94,.72-.4,.17-.87,.26-1.4,.26-.73,0-1.33-.16-1.79-.47-.46-.31-.75-.76-.85-1.34l1.23-.19c.08,.32,.23,.56,.47,.73,.24,.16,.55,.25,.93,.25,.42,0,.75-.09,1-.26,.25-.17,.38-.39,.38-.64,0-.21-.08-.38-.23-.52-.15-.14-.38-.24-.7-.32l-1.11-.24c-.61-.14-1.06-.36-1.35-.67-.29-.3-.44-.69-.44-1.15,0-.39,.11-.72,.32-1.01,.22-.29,.51-.52,.89-.68,.38-.16,.82-.25,1.31-.25,.71,0,1.26,.15,1.67,.46,.41,.3,.67,.71,.8,1.22Z"/><path d="M352.84,447.1c-.04-.4-.23-.72-.56-.94-.33-.22-.74-.33-1.24-.33-.36,0-.67,.06-.93,.17-.26,.11-.46,.27-.61,.46s-.21,.42-.21,.66c0,.21,.05,.39,.15,.54,.1,.15,.23,.28,.39,.38,.16,.1,.33,.18,.52,.25s.36,.12,.53,.16l.85,.22c.28,.07,.56,.16,.86,.28,.29,.12,.56,.27,.81,.46s.45,.43,.61,.71c.15,.28,.23,.62,.23,1.01,0,.5-.13,.93-.38,1.32-.25,.38-.62,.69-1.1,.91s-1.06,.33-1.75,.33-1.22-.1-1.7-.31c-.48-.21-.85-.5-1.12-.88-.27-.38-.42-.84-.45-1.36h1.32c.03,.32,.13,.58,.31,.79,.18,.21,.41,.36,.69,.46,.28,.1,.59,.15,.93,.15,.37,0,.7-.06,1-.18s.52-.28,.69-.49,.25-.46,.25-.74c0-.26-.07-.47-.22-.63s-.34-.3-.59-.41c-.25-.11-.53-.2-.84-.29l-1.03-.28c-.7-.19-1.25-.47-1.66-.84-.41-.37-.61-.86-.61-1.47,0-.5,.14-.94,.41-1.32,.27-.38,.64-.67,1.11-.88s.99-.31,1.58-.31,1.11,.1,1.57,.31,.81,.49,1.07,.85c.26,.36,.4,.78,.41,1.25h-1.27Z"/><path d="M355.7,455.99v-9h1.25v1.06h.11c.07-.14,.18-.29,.32-.47,.14-.18,.33-.34,.58-.47s.57-.2,.98-.2c.53,0,1,.13,1.42,.4,.41,.27,.74,.65,.98,1.15s.36,1.11,.36,1.82-.12,1.31-.35,1.82c-.24,.5-.56,.89-.97,1.16-.41,.27-.88,.41-1.41,.41-.4,0-.72-.07-.97-.2s-.45-.29-.59-.47c-.14-.18-.25-.34-.33-.48h-.08v3.47h-1.27Zm1.25-5.73c0,.46,.07,.86,.2,1.21s.33,.62,.58,.81c.25,.19,.56,.29,.93,.29s.7-.1,.95-.3,.45-.48,.58-.83,.2-.74,.2-1.18-.07-.82-.19-1.16-.32-.62-.58-.81c-.26-.2-.58-.3-.96-.3s-.68,.09-.94,.29c-.25,.19-.45,.46-.58,.8-.13,.34-.2,.74-.2,1.19Z"/><path d="M365.93,453.67c-.64,0-1.2-.14-1.66-.42s-.82-.67-1.07-1.17c-.25-.5-.38-1.1-.38-1.77s.13-1.26,.38-1.77c.25-.51,.6-.91,1.06-1.2s.98-.43,1.59-.43c.37,0,.73,.06,1.07,.18s.66,.31,.93,.58c.28,.26,.49,.6,.65,1.02s.24,.92,.24,1.51v.45h-5.2v-.96h3.95c0-.33-.07-.63-.2-.89-.14-.26-.33-.46-.57-.62-.25-.15-.53-.23-.86-.23-.36,0-.67,.09-.94,.26s-.47,.4-.61,.68c-.14,.28-.21,.58-.21,.91v.75c0,.44,.08,.81,.23,1.12,.16,.31,.37,.54,.65,.7,.28,.16,.6,.24,.98,.24,.24,0,.46-.04,.66-.1,.2-.07,.37-.17,.52-.31,.14-.14,.25-.31,.33-.52l1.21,.22c-.1,.35-.27,.67-.52,.93-.25,.27-.56,.47-.93,.62-.37,.15-.8,.22-1.28,.22Z"/><path d="M372.91,453.67c-.63,0-1.18-.14-1.63-.43-.46-.29-.81-.69-1.05-1.2-.24-.51-.37-1.09-.37-1.75s.12-1.25,.38-1.76,.6-.91,1.06-1.2c.45-.29,.99-.43,1.61-.43,.5,0,.94,.09,1.33,.28,.39,.18,.7,.44,.94,.77,.24,.33,.38,.71,.43,1.15h-1.24c-.07-.31-.22-.57-.47-.79-.24-.22-.57-.33-.97-.33-.36,0-.67,.09-.93,.28-.27,.19-.47,.45-.62,.79-.15,.34-.22,.75-.22,1.21s.07,.89,.22,1.24c.14,.35,.35,.62,.62,.81s.58,.29,.94,.29c.24,0,.46-.04,.66-.13s.36-.22,.5-.39c.13-.17,.23-.37,.28-.6h1.24c-.05,.42-.18,.8-.41,1.13-.23,.33-.54,.59-.92,.78-.39,.19-.84,.29-1.35,.29Z"/><path d="M377.61,445.98c-.22,0-.41-.08-.57-.22-.16-.15-.24-.33-.24-.53s.08-.39,.24-.54c.16-.15,.35-.22,.57-.22s.41,.07,.57,.22c.16,.15,.24,.33,.24,.54s-.08,.39-.24,.53c-.16,.15-.35,.22-.57,.22Zm-.64,7.55v-6.54h1.27v6.54h-1.27Z"/><path d="M383.07,446.99v1.02h-3.7v-1.02h3.7Zm-2.68,6.54v-7.3c0-.41,.09-.75,.27-1.02s.42-.47,.71-.61c.29-.13,.62-.2,.96-.2,.26,0,.47,.02,.66,.06s.32,.08,.4,.11l-.3,1.03c-.06-.02-.14-.04-.23-.06-.09-.02-.21-.04-.34-.04-.31,0-.53,.08-.66,.23-.13,.15-.2,.38-.2,.67v7.13h-1.27Z"/><path d="M385.03,445.98c-.22,0-.41-.08-.57-.22-.16-.15-.24-.33-.24-.53s.08-.39,.24-.54c.16-.15,.35-.22,.57-.22s.41,.07,.57,.22c.16,.15,.24,.33,.24,.54s-.08,.39-.24,.53c-.16,.15-.35,.22-.57,.22Zm-.64,7.55v-6.54h1.27v6.54h-1.27Z"/><path d="M390.13,453.67c-.63,0-1.18-.14-1.63-.43-.46-.29-.81-.69-1.05-1.2-.24-.51-.37-1.09-.37-1.75s.12-1.25,.38-1.76,.6-.91,1.06-1.2c.45-.29,.99-.43,1.61-.43,.5,0,.94,.09,1.33,.28,.39,.18,.7,.44,.94,.77,.24,.33,.38,.71,.43,1.15h-1.24c-.07-.31-.22-.57-.47-.79-.24-.22-.57-.33-.97-.33-.36,0-.67,.09-.93,.28-.27,.19-.47,.45-.62,.79-.15,.34-.22,.75-.22,1.21s.07,.89,.22,1.24c.14,.35,.35,.62,.62,.81s.58,.29,.94,.29c.24,0,.46-.04,.66-.13s.36-.22,.5-.39c.13-.17,.23-.37,.28-.6h1.24c-.05,.42-.18,.8-.41,1.13-.23,.33-.54,.59-.92,.78-.39,.19-.84,.29-1.35,.29Z"/><path d="M396.09,453.68c-.42,0-.79-.08-1.12-.23-.33-.16-.6-.38-.79-.68-.19-.29-.29-.66-.29-1.09,0-.37,.07-.67,.21-.91,.14-.24,.33-.43,.58-.57,.24-.14,.51-.24,.81-.32,.3-.07,.6-.12,.91-.16,.39-.05,.71-.08,.96-.11,.24-.03,.42-.08,.53-.15,.11-.07,.17-.18,.17-.33v-.03c0-.37-.1-.66-.31-.86-.21-.21-.52-.31-.93-.31s-.77,.09-1.01,.28c-.25,.19-.42,.4-.51,.63l-1.2-.27c.14-.4,.35-.72,.62-.96,.27-.25,.59-.42,.95-.54,.36-.11,.73-.17,1.13-.17,.26,0,.54,.03,.83,.09,.29,.06,.57,.17,.83,.33,.26,.16,.47,.39,.63,.69,.17,.3,.25,.69,.25,1.17v4.35h-1.25v-.89h-.05c-.08,.17-.21,.33-.37,.49-.16,.16-.38,.29-.63,.4-.26,.11-.57,.16-.93,.16Zm.28-1.02c.35,0,.65-.07,.91-.21,.25-.14,.44-.32,.58-.55s.2-.47,.2-.73v-.84s-.13,.09-.26,.13c-.13,.04-.28,.07-.44,.1-.17,.03-.33,.05-.48,.07s-.29,.04-.39,.05c-.25,.03-.47,.08-.67,.16s-.37,.18-.49,.32-.18,.32-.18,.55c0,.32,.12,.55,.35,.71,.23,.16,.53,.24,.89,.24Z"/><path d="M404.07,446.99v1.02h-3.58v-1.02h3.58Zm-2.62-1.57h1.27v6.19c0,.25,.04,.43,.11,.56,.07,.12,.17,.21,.29,.25,.12,.04,.25,.07,.38,.07,.1,0,.19,0,.27-.02,.08-.01,.14-.03,.18-.03l.23,1.05c-.07,.03-.18,.06-.32,.09-.14,.03-.31,.05-.51,.05-.34,0-.65-.05-.94-.18-.29-.12-.52-.32-.7-.58-.18-.26-.27-.59-.27-.98v-6.46Z"/><path d="M406.12,445.98c-.22,0-.41-.08-.57-.22-.16-.15-.24-.33-.24-.53s.08-.39,.24-.54c.16-.15,.35-.22,.57-.22s.41,.07,.57,.22c.16,.15,.24,.33,.24,.54s-.08,.39-.24,.53c-.16,.15-.35,.22-.57,.22Zm-.64,7.55v-6.54h1.27v6.54h-1.27Z"/><path d="M411.22,453.67c-.61,0-1.15-.14-1.61-.42s-.81-.67-1.07-1.18-.38-1.1-.38-1.77,.13-1.27,.38-1.78c.25-.51,.61-.9,1.07-1.19s.99-.42,1.61-.42,1.15,.14,1.61,.42c.46,.28,.81,.68,1.07,1.19,.25,.51,.38,1.1,.38,1.78s-.13,1.27-.38,1.77-.61,.9-1.07,1.18c-.46,.28-.99,.42-1.61,.42Zm0-1.07c.4,0,.73-.1,.99-.32,.26-.21,.46-.49,.58-.84,.13-.35,.19-.73,.19-1.16s-.06-.8-.19-1.15c-.13-.35-.32-.63-.58-.85-.26-.21-.59-.32-.99-.32s-.73,.11-.99,.32c-.26,.21-.46,.5-.58,.85-.13,.35-.19,.74-.19,1.15s.06,.81,.19,1.16c.13,.35,.32,.63,.58,.84,.26,.21,.59,.32,.99,.32Z"/><path d="M416.97,449.65v3.89h-1.27v-6.54h1.22v1.07h.08c.15-.35,.39-.62,.71-.84,.32-.21,.73-.32,1.22-.32,.45,0,.84,.09,1.17,.28,.34,.19,.6,.46,.78,.83s.28,.82,.28,1.36v4.16h-1.27v-4.01c0-.47-.12-.85-.37-1.11s-.59-.4-1.02-.4c-.29,0-.56,.06-.79,.19s-.41,.31-.54,.56c-.13,.25-.2,.54-.2,.89Z"/></g><g><path class="y" d="M371.82,392.6c0-1.36-.47-2.49-1.47-3.42-2.32-2.17-4.62-4.36-6.92-6.55-.86-.82-1.88-1.23-3.07-1.23-4.48,0-8.97,0-13.45,0-.36,0-.73,.03-1.07,.11-1.92,.46-3.17,2.08-3.18,4.12,0,7.26,0,14.52,0,21.79,0,2.69,0,5.38,0,8.07,0,1.61,.72,2.85,2.13,3.65,.44,.25,.97,.36,1.46,.53h21.98s.06-.05,.09-.05c1.73-.2,3.51-1.82,3.5-4.27-.03-7.59-.02-15.17,0-22.76Zm-9.42-7.62s0-.09,.02-.21c1.98,1.87,3.92,3.7,5.93,5.61h-2.53c-.97,0-1.94,0-2.91,0-.4,0-.52-.12-.52-.51,0-1.63,0-3.26,0-4.89Zm7.18,8.06c0,7.44,0,14.88,0,22.31,0,1.33-.75,2.09-2.08,2.09-6.84,0-13.68,0-20.52,0-1.31,0-2.07-.76-2.07-2.06,0-9.89,0-19.78,0-29.68,0-1.3,.76-2.06,2.07-2.06,4.25,0,8.5,0,12.75,0h.43v.44c0,1.89,0,3.79,0,5.68,0,1.76,1.08,2.85,2.83,2.85,2.04,0,4.09,0,6.13,0h.46v.42Z"/><path class="y" d="M348.88,398.61c2.7,0,5.4,0,8.1,0,2.71,0,5.43,0,8.14,0,.52,0,.92-.21,1.14-.69,.34-.77-.24-1.55-1.14-1.55-4.97,0-9.93,0-14.9,0-.47,0-.95,0-1.42,0-.5,0-.86,.25-1.05,.7-.32,.76,.25,1.53,1.13,1.54Z"/><path class="y" d="M365.13,402.35c-4.49,0-8.99,0-13.48,0-.93,0-1.87,0-2.8,0-.51,0-.89,.23-1.09,.7-.32,.76,.24,1.54,1.12,1.54,2.71,0,5.43,0,8.14,0,.36,0,.72,0,1.08,0,2.34,0,4.68,0,7.02,0,.52,0,.92-.2,1.14-.68,.34-.77-.23-1.56-1.13-1.56Z"/><path class="y" d="M354.08,408.33c-1.72,0-3.44,0-5.16,0-.75,0-1.26,.46-1.26,1.13,0,.65,.51,1.11,1.24,1.11,.86,0,1.72,0,2.58,0,.86,0,1.72,0,2.58,0,.76,0,1.27-.45,1.28-1.11,0-.66-.52-1.13-1.26-1.13Z"/></g><circle class="k" cx="357.24" cy="400.55" r="33.83"/><g><path d="M555.93,604.61h-1.4l3.14-8.73h1.52l3.14,8.73h-1.4l-2.47-7.14h-.07l-2.47,7.14Zm.23-3.42h4.53v1.11h-4.53v-1.11Z"/><path d="M563.59,604.61v-8.73h3.11c.68,0,1.24,.12,1.69,.37,.45,.25,.78,.58,1,1.01s.33,.91,.33,1.44-.11,1.02-.33,1.45c-.22,.43-.56,.77-1.01,1.01s-1.01,.37-1.69,.37h-2.14v-1.12h2.02c.43,0,.78-.08,1.04-.22,.27-.15,.46-.35,.59-.61,.12-.26,.19-.55,.19-.88s-.06-.62-.19-.88-.32-.46-.59-.6c-.27-.14-.62-.22-1.06-.22h-1.65v7.6h-1.32Z"/><path d="M572.58,595.88v8.73h-1.32v-8.73h1.32Z"/><path d="M582.43,598.18c-.05-.4-.23-.72-.56-.94-.33-.22-.74-.33-1.24-.33-.36,0-.67,.06-.93,.17-.26,.11-.46,.27-.61,.46-.14,.2-.21,.42-.21,.66,0,.21,.05,.39,.15,.54,.1,.15,.23,.28,.39,.38,.16,.1,.33,.18,.52,.25s.36,.12,.53,.16l.85,.22c.28,.07,.56,.16,.86,.28,.29,.12,.56,.27,.81,.46,.25,.19,.45,.43,.61,.71,.16,.28,.23,.62,.23,1.01,0,.5-.13,.93-.38,1.32-.25,.38-.62,.69-1.1,.91-.48,.22-1.06,.33-1.75,.33s-1.22-.1-1.7-.31-.85-.5-1.12-.88c-.27-.38-.42-.84-.45-1.36h1.32c.03,.32,.13,.58,.31,.79s.41,.36,.69,.46c.28,.1,.59,.15,.93,.15,.37,0,.7-.06,1-.18s.52-.28,.69-.49c.17-.21,.25-.46,.25-.74,0-.26-.07-.47-.22-.63-.15-.17-.34-.3-.59-.41-.25-.11-.53-.2-.84-.29l-1.03-.28c-.7-.19-1.25-.47-1.66-.84-.41-.37-.61-.86-.61-1.46,0-.5,.14-.94,.41-1.32s.64-.67,1.11-.88c.47-.21,.99-.31,1.58-.31s1.11,.1,1.57,.31,.81,.49,1.07,.85c.26,.36,.4,.78,.41,1.25h-1.27Z"/><path d="M585.29,607.07v-9h1.24v1.06h.11c.07-.14,.18-.29,.32-.47,.14-.18,.33-.34,.58-.47s.57-.2,.98-.2c.53,0,1,.13,1.42,.4s.74,.65,.98,1.16c.24,.5,.36,1.11,.36,1.81s-.12,1.31-.35,1.82c-.24,.5-.56,.89-.97,1.16-.41,.27-.88,.41-1.41,.41-.4,0-.72-.07-.97-.2-.25-.13-.45-.29-.59-.47-.14-.18-.25-.34-.33-.48h-.08v3.47h-1.27Zm1.25-5.73c0,.46,.07,.86,.2,1.21,.13,.35,.33,.62,.58,.81,.25,.19,.56,.29,.93,.29s.7-.1,.96-.3c.25-.2,.45-.48,.58-.83,.13-.35,.2-.74,.2-1.18s-.06-.82-.19-1.16c-.13-.34-.32-.62-.58-.81-.26-.2-.58-.3-.96-.3s-.68,.09-.94,.29c-.25,.19-.45,.46-.58,.8-.13,.34-.2,.74-.2,1.19Z"/><path d="M595.52,604.74c-.65,0-1.2-.14-1.66-.42-.46-.28-.82-.67-1.07-1.17-.25-.5-.38-1.1-.38-1.77s.12-1.26,.38-1.77c.25-.51,.6-.91,1.06-1.2s.98-.43,1.59-.43c.37,0,.73,.06,1.07,.18,.35,.12,.66,.31,.93,.58,.28,.26,.49,.6,.65,1.02s.24,.92,.24,1.52v.45h-5.2v-.96h3.96c0-.33-.07-.63-.21-.89-.14-.26-.33-.46-.57-.62-.25-.15-.53-.23-.86-.23-.36,0-.67,.09-.94,.26s-.47,.4-.61,.68c-.14,.28-.21,.58-.21,.91v.75c0,.44,.08,.81,.23,1.12,.15,.31,.37,.54,.65,.7,.28,.16,.6,.24,.98,.24,.24,0,.46-.04,.66-.1s.37-.17,.52-.31c.14-.14,.26-.31,.33-.52l1.21,.22c-.1,.35-.27,.67-.52,.93-.25,.27-.56,.47-.93,.62-.37,.15-.8,.22-1.28,.22Z"/><path d="M602.51,604.74c-.63,0-1.18-.14-1.63-.43s-.81-.69-1.05-1.2c-.25-.51-.37-1.09-.37-1.75s.12-1.25,.38-1.76,.6-.91,1.06-1.2c.46-.29,.99-.43,1.61-.43,.5,0,.94,.09,1.33,.28,.39,.18,.7,.44,.94,.77,.24,.33,.38,.71,.43,1.15h-1.24c-.07-.31-.22-.57-.47-.79-.24-.22-.57-.33-.97-.33-.35,0-.67,.09-.93,.28s-.47,.45-.62,.79-.22,.75-.22,1.21,.07,.89,.22,1.24c.14,.35,.35,.62,.62,.81,.27,.19,.58,.29,.94,.29,.24,0,.46-.04,.66-.13,.2-.09,.36-.22,.5-.38,.13-.17,.23-.37,.28-.61h1.24c-.05,.42-.18,.8-.41,1.13-.23,.33-.54,.59-.92,.79-.38,.19-.84,.29-1.35,.29Z"/><path d="M607.21,597.06c-.22,0-.41-.07-.57-.22-.16-.15-.24-.33-.24-.53s.08-.39,.24-.54c.16-.15,.35-.22,.57-.22s.41,.07,.57,.22c.16,.15,.24,.33,.24,.54s-.08,.39-.24,.53c-.16,.15-.35,.22-.57,.22Zm-.64,7.55v-6.54h1.27v6.54h-1.27Z"/><path d="M612.67,598.07v1.02h-3.7v-1.02h3.7Zm-2.68,6.54v-7.3c0-.41,.09-.75,.27-1.02,.18-.27,.42-.47,.71-.61,.3-.13,.62-.2,.96-.2,.26,0,.47,.02,.66,.06,.18,.04,.32,.08,.41,.11l-.3,1.03c-.06-.02-.14-.04-.23-.06-.09-.02-.21-.04-.34-.04-.31,0-.53,.08-.66,.23s-.2,.38-.2,.67v7.13h-1.27Z"/><path d="M614.62,597.06c-.22,0-.41-.07-.57-.22-.16-.15-.24-.33-.24-.53s.08-.39,.24-.54c.16-.15,.35-.22,.57-.22s.41,.07,.57,.22c.16,.15,.24,.33,.24,.54s-.08,.39-.24,.53c-.16,.15-.35,.22-.57,.22Zm-.64,7.55v-6.54h1.27v6.54h-1.27Z"/><path d="M619.72,604.74c-.63,0-1.18-.14-1.63-.43s-.81-.69-1.05-1.2c-.25-.51-.37-1.09-.37-1.75s.12-1.25,.38-1.76,.6-.91,1.06-1.2c.46-.29,.99-.43,1.61-.43,.5,0,.94,.09,1.33,.28,.39,.18,.7,.44,.94,.77,.24,.33,.38,.71,.43,1.15h-1.24c-.07-.31-.22-.57-.47-.79-.24-.22-.57-.33-.97-.33-.35,0-.67,.09-.93,.28s-.47,.45-.62,.79-.22,.75-.22,1.21,.07,.89,.22,1.24c.14,.35,.35,.62,.62,.81,.27,.19,.58,.29,.94,.29,.24,0,.46-.04,.66-.13,.2-.09,.36-.22,.5-.38,.13-.17,.23-.37,.28-.61h1.24c-.05,.42-.18,.8-.41,1.13-.23,.33-.54,.59-.92,.79-.38,.19-.84,.29-1.35,.29Z"/><path d="M625.68,604.76c-.41,0-.79-.08-1.12-.23-.33-.16-.6-.38-.79-.67-.2-.3-.29-.66-.29-1.09,0-.37,.07-.67,.21-.91,.14-.24,.33-.43,.58-.57,.24-.14,.51-.24,.81-.31,.3-.07,.6-.12,.91-.16,.39-.04,.71-.08,.95-.11s.42-.08,.53-.15c.11-.07,.17-.18,.17-.33v-.03c0-.37-.1-.66-.31-.86s-.52-.31-.93-.31-.77,.1-1.01,.28c-.25,.19-.42,.4-.51,.63l-1.2-.27c.14-.4,.35-.72,.62-.96s.59-.42,.95-.54c.36-.11,.73-.17,1.13-.17,.26,0,.54,.03,.83,.09,.29,.06,.57,.17,.83,.33s.47,.39,.63,.69c.17,.3,.25,.69,.25,1.17v4.35h-1.24v-.89h-.05c-.08,.17-.21,.33-.37,.49-.17,.16-.38,.29-.63,.4-.26,.1-.57,.16-.93,.16Zm.28-1.02c.35,0,.65-.07,.91-.21,.25-.14,.44-.32,.58-.55,.13-.23,.2-.47,.2-.73v-.84s-.13,.09-.26,.13c-.13,.04-.28,.07-.44,.1-.16,.03-.33,.05-.48,.07s-.29,.04-.39,.05c-.25,.03-.47,.08-.68,.16s-.37,.18-.49,.32c-.12,.14-.18,.32-.18,.55,0,.32,.12,.55,.35,.71s.53,.24,.89,.24Z"/><path d="M633.67,598.07v1.02h-3.58v-1.02h3.58Zm-2.62-1.57h1.27v6.19c0,.25,.04,.43,.11,.56,.07,.12,.17,.21,.29,.25,.12,.04,.25,.07,.39,.07,.1,0,.19,0,.27-.02,.08-.01,.14-.03,.18-.03l.23,1.05c-.07,.03-.18,.06-.32,.09-.14,.03-.31,.05-.51,.05-.33,0-.65-.05-.94-.18s-.52-.32-.7-.58-.27-.59-.27-.98v-6.46Z"/><path d="M635.71,597.06c-.22,0-.41-.07-.57-.22-.16-.15-.24-.33-.24-.53s.08-.39,.24-.54c.16-.15,.35-.22,.57-.22s.41,.07,.57,.22c.16,.15,.24,.33,.24,.54s-.08,.39-.24,.53c-.16,.15-.35,.22-.57,.22Zm-.64,7.55v-6.54h1.27v6.54h-1.27Z"/><path d="M640.81,604.74c-.61,0-1.15-.14-1.61-.42s-.81-.67-1.07-1.18c-.25-.5-.38-1.1-.38-1.77s.13-1.27,.38-1.78c.25-.51,.61-.9,1.07-1.19s.99-.42,1.61-.42,1.15,.14,1.61,.42c.46,.28,.81,.68,1.07,1.19,.25,.51,.38,1.1,.38,1.78s-.13,1.27-.38,1.77c-.25,.51-.61,.9-1.07,1.18-.46,.28-.99,.42-1.61,.42Zm0-1.07c.4,0,.73-.1,.99-.31,.26-.21,.46-.49,.58-.84,.13-.35,.19-.73,.19-1.15s-.06-.8-.19-1.15c-.13-.35-.32-.63-.58-.85-.26-.21-.59-.32-.99-.32s-.73,.11-.99,.32c-.26,.21-.46,.5-.58,.85-.13,.35-.19,.74-.19,1.15s.06,.8,.19,1.15c.13,.35,.32,.63,.58,.84,.26,.21,.59,.31,.99,.31Z"/><path d="M646.56,600.72v3.89h-1.27v-6.54h1.22v1.07h.08c.15-.35,.39-.62,.71-.83,.32-.21,.73-.32,1.22-.32,.45,0,.84,.09,1.17,.28,.33,.19,.59,.46,.78,.83s.28,.82,.28,1.36v4.16h-1.27v-4.01c0-.47-.12-.85-.37-1.11s-.59-.4-1.02-.4c-.3,0-.56,.06-.79,.19-.23,.13-.41,.32-.54,.56-.13,.25-.2,.54-.2,.89Z"/><path d="M657.36,599.66l-1.16,.21c-.05-.15-.12-.29-.23-.42-.1-.13-.24-.24-.42-.33-.18-.09-.4-.13-.66-.13-.36,0-.66,.08-.9,.24-.24,.16-.36,.37-.36,.62,0,.22,.08,.39,.24,.53,.16,.13,.42,.24,.78,.33l1.04,.24c.6,.14,1.05,.35,1.35,.64,.29,.29,.44,.67,.44,1.13,0,.39-.11,.74-.34,1.05-.23,.31-.54,.54-.94,.72-.4,.17-.87,.26-1.4,.26-.73,0-1.33-.16-1.79-.47-.46-.31-.75-.76-.85-1.34l1.23-.19c.08,.32,.23,.56,.47,.73s.55,.25,.93,.25c.42,0,.75-.09,1-.26,.25-.17,.38-.39,.38-.64,0-.2-.08-.38-.23-.52-.15-.14-.38-.24-.7-.32l-1.11-.24c-.61-.14-1.06-.36-1.35-.67-.29-.3-.44-.69-.44-1.15,0-.39,.11-.72,.32-1.01,.22-.29,.51-.52,.89-.68,.38-.16,.82-.25,1.31-.25,.71,0,1.26,.15,1.67,.46,.41,.3,.67,.71,.81,1.22Z"/></g><g><path class="x" d="M620.71,543.68c0-1.36-.47-2.49-1.47-3.42-2.32-2.17-4.62-4.36-6.92-6.55-.86-.82-1.88-1.23-3.07-1.23-4.48,0-8.97,0-13.45,0-.36,0-.73,.03-1.07,.11-1.92,.46-3.17,2.08-3.18,4.12,0,7.26,0,14.52,0,21.79,0,2.69,0,5.38,0,8.07,0,1.61,.72,2.85,2.13,3.65,.44,.25,.97,.36,1.46,.53h21.98s.06-.05,.09-.05c1.73-.2,3.51-1.82,3.5-4.27-.03-7.59-.02-15.17,0-22.76Zm-9.42-7.62s0-.09,.02-.21c1.98,1.87,3.92,3.7,5.93,5.61h-2.53c-.97,0-1.94,0-2.91,0-.4,0-.52-.12-.52-.51,0-1.63,0-3.26,0-4.89Zm7.18,8.06c0,7.44,0,14.88,0,22.31,0,1.33-.75,2.09-2.08,2.09-6.84,0-13.68,0-20.52,0-1.31,0-2.07-.76-2.07-2.06,0-9.89,0-19.78,0-29.68,0-1.3,.76-2.06,2.07-2.06,4.25,0,8.5,0,12.75,0h.43v.44c0,1.89,0,3.79,0,5.68,0,1.76,1.08,2.85,2.83,2.85,2.04,0,4.09,0,6.13,0h.46v.42Z"/><path class="w" d="M597.77,549.68c2.7,0,5.4,0,8.1,0,2.71,0,5.43,0,8.14,0,.52,0,.92-.21,1.14-.69,.34-.77-.24-1.55-1.14-1.55-4.97,0-9.93,0-14.9,0-.47,0-.95,0-1.42,0-.5,0-.86,.25-1.05,.7-.32,.76,.25,1.53,1.13,1.54Z"/><path class="a`" d="M614.02,553.42c-4.49,0-8.99,0-13.48,0-.93,0-1.87,0-2.8,0-.51,0-.89,.23-1.09,.7-.32,.76,.24,1.54,1.12,1.54,2.71,0,5.43,0,8.14,0,.36,0,.72,0,1.08,0,2.34,0,4.68,0,7.02,0,.52,0,.92-.2,1.14-.68,.34-.77-.23-1.56-1.13-1.56Z"/><path class="aa" d="M602.97,559.4c-1.72,0-3.44,0-5.16,0-.75,0-1.26,.46-1.26,1.13,0,.65,.51,1.11,1.24,1.11,.86,0,1.72,0,2.58,0,.86,0,1.72,0,2.58,0,.76,0,1.27-.45,1.28-1.11,0-.66-.52-1.13-1.26-1.13Z"/></g><circle class="q" cx="606.13" cy="551.63" r="33.83"/><g><polyline class="o" points="313.38 293.51 313.38 315.48 133.52 315.48 133.52 300.69"/><polygon class="ab" points="138.51 302.14 133.52 293.51 128.54 302.14 138.51 302.14"/></g><g><polyline class="o" points="133.52 207.19 133.52 185.22 313.38 185.22 313.38 200.01"/><polygon class="ab" points="308.4 198.55 313.38 207.19 318.37 198.55 308.4 198.55"/></g><g><polyline class="o" points="576.58 293.51 576.58 315.48 396.72 315.48 396.72 300.69"/><polygon class="ab" points="401.71 302.14 396.72 293.51 391.73 302.14 401.71 302.14"/></g><g><polyline class="o" points="396.72 207.19 396.72 185.22 576.58 185.22 576.58 200.01"/><polygon class="ab" points="571.59 198.55 576.58 207.19 581.56 198.55 571.59 198.55"/></g><g><polyline class="p" points="715.97 251.21 737.94 251.21 737.94 407.69 723.15 407.69"/><polygon class="t" points="724.61 402.71 715.97 407.69 724.61 412.68 724.61 402.71"/></g></svg>