<?xml version="1.0" encoding="UTF-8"?><svg id="a" xmlns="http://www.w3.org/2000/svg" viewBox="0 0 800 373.15"><defs><style>.b{fill:#b3dbb6;}.c{fill:#3bb54a;}.d{fill:#f48993;opacity:.75;stroke:#c84548;}.d,.e{stroke-miterlimit:10;stroke-width:2px;}.e{fill:#51b5e7;stroke:#0f71b9;}</style></defs><g><circle class="d" cx="615.83" cy="186.57" r="132.58"/><g><g><path class="b" d="M615.83,203.97c-9.59,0-17.39-7.8-17.39-17.39s7.8-17.39,17.39-17.39,17.39,7.8,17.39,17.39-7.8,17.39-17.39,17.39Z"/><path class="c" d="M615.83,170.18c9.04,0,16.39,7.35,16.39,16.39s-7.35,16.39-16.39,16.39-16.39-7.35-16.39-16.39,7.35-16.39,16.39-16.39m0-2c-10.16,0-18.39,8.23-18.39,18.39s8.23,18.39,18.39,18.39,18.39-8.23,18.39-18.39-8.23-18.39-18.39-18.39h0Z"/></g><g><path class="b" d="M581.97,186.62c-9.59,0-17.39-7.8-17.39-17.39s7.8-17.39,17.39-17.39,17.39,7.8,17.39,17.39-7.8,17.39-17.39,17.39Z"/><path class="c" d="M581.97,152.83c9.04,0,16.39,7.35,16.39,16.39s-7.35,16.39-16.39,16.39-16.39-7.35-16.39-16.39,7.35-16.39,16.39-16.39m0-2c-10.16,0-18.39,8.23-18.39,18.39s8.23,18.39,18.39,18.39,18.39-8.23,18.39-18.39-8.23-18.39-18.39-18.39h0Z"/></g><g><path class="b" d="M583.86,224.62c-3.03,0-6.04-.81-8.68-2.33-8.31-4.79-11.16-15.45-6.37-23.76,3.1-5.37,8.88-8.7,15.08-8.7,3.03,0,6.04,.81,8.68,2.33,8.31,4.8,11.16,15.45,6.37,23.76-3.1,5.37-8.88,8.7-15.08,8.7Z"/><path class="c" d="M583.89,190.83h0c2.86,0,5.69,.76,8.18,2.2,3.79,2.19,6.5,5.72,7.64,9.95s.55,8.65-1.64,12.44c-2.92,5.06-8.37,8.2-14.21,8.2-2.86,0-5.69-.76-8.18-2.2-7.83-4.52-10.52-14.57-6-22.39,2.92-5.06,8.37-8.2,14.21-8.2m0-2c-6.36,0-12.54,3.3-15.95,9.2-5.08,8.8-2.06,20.05,6.73,25.13,2.9,1.67,6.06,2.47,9.18,2.47,6.36,0,12.54-3.3,15.95-9.2,5.08-8.8,2.06-20.05-6.73-25.13-2.9-1.67-6.06-2.47-9.18-2.47h0Z"/></g><g><path class="b" d="M617.75,241.97c-6.2,0-11.98-3.33-15.08-8.7-2.32-4.02-2.94-8.71-1.74-13.2,1.2-4.49,4.08-8.24,8.1-10.56,2.64-1.53,5.65-2.33,8.68-2.33,6.2,0,11.98,3.33,15.08,8.7,2.32,4.02,2.94,8.71,1.74,13.2-1.2,4.49-4.08,8.24-8.1,10.56-2.64,1.53-5.65,2.33-8.68,2.33Z"/><path class="c" d="M617.72,206.18v2c5.85,0,11.29,3.14,14.21,8.2,2.19,3.79,2.77,8.21,1.64,12.44s-3.85,7.76-7.64,9.95c-2.49,1.44-5.32,2.2-8.18,2.2-5.85,0-11.29-3.14-14.21-8.2-2.19-3.79-2.77-8.21-1.64-12.44s3.85-7.76,7.64-9.95c2.49-1.44,5.32-2.2,8.18-2.2v-2m0,0c-3.12,0-6.28,.8-9.18,2.47-8.8,5.08-11.81,16.33-6.73,25.13,3.41,5.9,9.59,9.2,15.95,9.2,3.12,0,6.28-.8,9.18-2.47,8.8-5.08,11.81-16.33,6.73-25.13-3.41-5.9-9.59-9.2-15.95-9.2h0Z"/></g><g><path class="b" d="M649.69,221.32c-9.59,0-17.39-7.8-17.39-17.39s7.8-17.39,17.39-17.39,17.39,7.8,17.39,17.39-7.8,17.39-17.39,17.39Z"/><path class="c" d="M649.69,187.53c9.04,0,16.39,7.35,16.39,16.39s-7.35,16.39-16.39,16.39-16.39-7.35-16.39-16.39,7.35-16.39,16.39-16.39m0-2c-10.16,0-18.39,8.23-18.39,18.39s8.23,18.39,18.39,18.39,18.39-8.23,18.39-18.39-8.23-18.39-18.39-18.39h0Z"/></g><g><path class="b" d="M647.77,183.32c-3.03,0-6.04-.81-8.68-2.33-4.02-2.32-6.9-6.07-8.1-10.56-1.2-4.49-.58-9.17,1.74-13.2,3.1-5.37,8.88-8.7,15.08-8.7,3.03,0,6.04,.81,8.68,2.33,8.31,4.79,11.16,15.45,6.37,23.76-3.1,5.37-8.88,8.7-15.08,8.7Z"/><path class="c" d="M647.8,149.53h0c2.86,0,5.69,.76,8.18,2.2,3.79,2.19,6.5,5.72,7.64,9.95s.55,8.65-1.64,12.44c-2.92,5.06-8.37,8.2-14.21,8.2-2.86,0-5.69-.76-8.18-2.2-3.79-2.19-6.5-5.72-7.64-9.95s-.55-8.65,1.64-12.44c2.92-5.06,8.37-8.2,14.21-8.2m0-2c-6.36,0-12.54,3.3-15.95,9.2-5.08,8.8-2.06,20.05,6.73,25.13,2.9,1.67,6.06,2.47,9.18,2.47,6.36,0,12.54-3.3,15.95-9.2,5.08-8.8,2.06-20.05-6.73-25.13-2.9-1.67-6.06-2.47-9.18-2.47h0Z"/></g><g><path class="b" d="M613.94,165.97c-6.2,0-11.98-3.33-15.08-8.7-2.32-4.02-2.94-8.71-1.74-13.2,1.2-4.49,4.08-8.24,8.1-10.56,2.64-1.53,5.65-2.33,8.68-2.33,6.2,0,11.98,3.33,15.08,8.7,2.32,4.02,2.94,8.71,1.74,13.2-1.2,4.49-4.08,8.24-8.1,10.56-2.64,1.53-5.65,2.33-8.68,2.33Z"/><path class="c" d="M613.91,130.18v2c5.85,0,11.29,3.14,14.21,8.2,4.52,7.83,1.83,17.87-6,22.39-2.49,1.44-5.32,2.2-8.18,2.2-5.85,0-11.29-3.14-14.21-8.2-2.19-3.79-2.77-8.21-1.64-12.44s3.85-7.76,7.64-9.95c2.49-1.44,5.32-2.2,8.18-2.2v-2m0,0c-3.12,0-6.28,.8-9.18,2.47-8.8,5.08-11.81,16.33-6.73,25.13,3.41,5.9,9.59,9.2,15.95,9.2,3.12,0,6.28-.8,9.18-2.47,8.8-5.08,11.81-16.33,6.73-25.13-3.41-5.9-9.59-9.2-15.95-9.2h0Z"/></g><g><path class="b" d="M598.08,132.32c-6.2,0-11.98-3.33-15.08-8.7-4.79-8.31-1.94-18.96,6.37-23.76,2.64-1.53,5.65-2.33,8.68-2.33,6.2,0,11.98,3.33,15.08,8.7,4.8,8.31,1.94,18.96-6.37,23.76-2.64,1.53-5.65,2.33-8.68,2.33Z"/><path class="c" d="M598.05,98.53h0c5.85,0,11.29,3.14,14.21,8.2,4.52,7.83,1.83,17.87-6,22.39-2.49,1.44-5.32,2.2-8.18,2.2-5.85,0-11.29-3.14-14.21-8.2-4.52-7.83-1.83-17.87,6-22.39,2.49-1.44,5.32-2.2,8.18-2.2m0-2c-3.12,0-6.28,.8-9.18,2.47-8.8,5.08-11.81,16.33-6.73,25.13,3.41,5.9,9.59,9.2,15.95,9.2,3.12,0,6.28-.8,9.18-2.47,8.8-5.08,11.81-16.33,6.73-25.13-3.41-5.9-9.59-9.2-15.95-9.2h0Z"/></g><g><path class="b" d="M564.6,150.8c-3.03,0-6.04-.81-8.68-2.33-4.02-2.32-6.9-6.07-8.1-10.56-1.2-4.49-.58-9.17,1.74-13.2,3.1-5.37,8.88-8.7,15.08-8.7,3.03,0,6.04,.81,8.68,2.33,4.02,2.32,6.9,6.07,8.1,10.56,1.2,4.49,.58,9.17-1.74,13.2-3.1,5.37-8.88,8.7-15.08,8.7Z"/><path class="c" d="M564.64,117.01h0c2.86,0,5.69,.76,8.18,2.2,7.83,4.52,10.52,14.57,6,22.39-2.92,5.06-8.37,8.2-14.21,8.2-2.86,0-5.69-.76-8.18-2.2-7.83-4.52-10.52-14.57-6-22.39,2.92-5.06,8.37-8.2,14.22-8.2m0-2c-6.36,0-12.54,3.3-15.95,9.2-5.08,8.8-2.06,20.05,6.73,25.13,2.9,1.67,6.06,2.47,9.18,2.47,6.36,0,12.54-3.3,15.95-9.2,5.08-8.8,2.06-20.05-6.73-25.13-2.9-1.67-6.06-2.47-9.18-2.47h0Z"/></g><g><path class="b" d="M544.9,183.53c-9.59,0-17.39-7.8-17.39-17.39s7.8-17.39,17.39-17.39,17.39,7.8,17.39,17.39-7.8,17.39-17.39,17.39Z"/><path class="c" d="M544.9,149.74c9.04,0,16.39,7.35,16.39,16.39s-7.35,16.39-16.39,16.39-16.39-7.35-16.39-16.39,7.35-16.39,16.39-16.39m0-2c-10.16,0-18.39,8.23-18.39,18.39s8.23,18.39,18.39,18.39,18.39-8.23,18.39-18.39-8.23-18.39-18.39-18.39h0Z"/></g><g><path class="b" d="M544.2,221.74c-6.2,0-11.98-3.33-15.08-8.7-2.32-4.02-2.94-8.71-1.74-13.2,1.2-4.49,4.08-8.24,8.1-10.56,2.64-1.53,5.65-2.33,8.68-2.33,6.2,0,11.98,3.33,15.08,8.7,2.32,4.02,2.94,8.71,1.74,13.2-1.2,4.49-4.08,8.24-8.1,10.56-2.64,1.53-5.65,2.33-8.68,2.33Z"/><path class="c" d="M544.16,185.94v2c5.85,0,11.29,3.14,14.21,8.2,4.52,7.83,1.83,17.87-6,22.39-2.49,1.44-5.32,2.2-8.18,2.2-5.85,0-11.29-3.14-14.21-8.2-2.19-3.79-2.77-8.21-1.64-12.44,1.13-4.23,3.85-7.76,7.64-9.95,2.49-1.44,5.32-2.2,8.18-2.2v-2m0,0c-3.12,0-6.28,.8-9.18,2.47-8.8,5.08-11.81,16.33-6.73,25.13,3.41,5.9,9.59,9.2,15.95,9.2,3.12,0,6.28-.8,9.18-2.47,8.8-5.08,11.81-16.33,6.73-25.13-3.41-5.9-9.59-9.2-15.95-9.2h0Z"/></g><g><path class="b" d="M562.65,255.18c-3.03,0-6.04-.81-8.68-2.33-8.31-4.79-11.16-15.45-6.37-23.76,3.1-5.37,8.88-8.7,15.08-8.7,3.03,0,6.04,.81,8.68,2.33,8.31,4.79,11.16,15.45,6.37,23.76-3.1,5.37-8.88,8.7-15.08,8.7Z"/><path class="c" d="M562.68,221.39h0c2.86,0,5.69,.76,8.18,2.2,3.79,2.19,6.5,5.72,7.64,9.95,1.13,4.23,.55,8.65-1.64,12.44-2.92,5.06-8.37,8.2-14.21,8.2-2.86,0-5.69-.76-8.18-2.2-7.83-4.52-10.52-14.57-6-22.39,2.92-5.06,8.37-8.2,14.21-8.2m0-2c-6.36,0-12.54,3.3-15.95,9.2-5.08,8.8-2.06,20.05,6.73,25.13,2.9,1.67,6.06,2.47,9.18,2.47,6.36,0,12.54-3.3,15.95-9.2,5.08-8.8,2.06-20.05-6.73-25.13-2.9-1.67-6.06-2.47-9.18-2.47h0Z"/></g><g><path class="b" d="M595.39,274.9c-9.59,0-17.39-7.8-17.39-17.39s7.8-17.39,17.39-17.39,17.39,7.8,17.39,17.39-7.8,17.39-17.39,17.39Z"/><path class="c" d="M595.39,241.11c9.04,0,16.39,7.35,16.39,16.39s-7.35,16.39-16.39,16.39-16.39-7.35-16.39-16.39,7.35-16.39,16.39-16.39m0-2c-10.16,0-18.39,8.23-18.39,18.39s8.23,18.39,18.39,18.39,18.39-8.23,18.39-18.39-8.23-18.39-18.39-18.39h0Z"/></g><g><path class="b" d="M633.61,275.62c-6.2,0-11.98-3.33-15.08-8.7-4.79-8.31-1.94-18.96,6.37-23.76,2.64-1.53,5.65-2.33,8.68-2.33,6.2,0,11.98,3.33,15.08,8.7,4.79,8.31,1.94,18.96-6.37,23.76-2.64,1.53-5.65,2.33-8.68,2.33Z"/><path class="c" d="M633.58,241.83h0c5.85,0,11.29,3.14,14.21,8.2,2.19,3.79,2.77,8.21,1.64,12.44-1.13,4.23-3.85,7.76-7.64,9.95-2.49,1.44-5.32,2.2-8.18,2.2-5.85,0-11.29-3.14-14.21-8.2-2.19-3.79-2.77-8.21-1.64-12.44s3.85-7.76,7.64-9.95c2.49-1.44,5.32-2.2,8.18-2.2m0-2c-3.12,0-6.28,.8-9.18,2.47-8.8,5.08-11.81,16.33-6.73,25.13,3.41,5.9,9.59,9.2,15.95,9.2,3.12,0,6.28-.8,9.18-2.47,8.8-5.08,11.81-16.33,6.73-25.13-3.41-5.9-9.59-9.2-15.95-9.2h0Z"/></g><g><path class="b" d="M667.02,257.14c-3.03,0-6.04-.81-8.68-2.33-8.31-4.79-11.16-15.45-6.37-23.76,3.1-5.37,8.88-8.7,15.08-8.7,3.03,0,6.04,.81,8.68,2.33,4.02,2.32,6.9,6.07,8.1,10.56,1.2,4.49,.58,9.17-1.74,13.2-3.1,5.37-8.88,8.7-15.08,8.7Z"/><path class="c" d="M667.06,223.34h0c2.86,0,5.69,.76,8.18,2.2,3.79,2.19,6.5,5.72,7.64,9.95s.55,8.65-1.64,12.44c-2.92,5.06-8.37,8.2-14.21,8.2-2.86,0-5.69-.76-8.18-2.2-3.79-2.19-6.5-5.72-7.64-9.95s-.55-8.65,1.64-12.44c2.92-5.06,8.37-8.2,14.22-8.2m0-2c-6.36,0-12.54,3.3-15.95,9.2-5.08,8.8-2.06,20.05,6.73,25.13,2.9,1.67,6.06,2.47,9.18,2.47,6.36,0,12.54-3.3,15.95-9.2,5.08-8.8,2.06-20.05-6.73-25.13-2.9-1.67-6.06-2.47-9.18-2.47h0Z"/></g><g><path class="b" d="M686.76,224.41c-9.59,0-17.39-7.8-17.39-17.39s7.8-17.39,17.39-17.39,17.39,7.8,17.39,17.39-7.8,17.39-17.39,17.39Z"/><path class="c" d="M686.76,190.62c9.04,0,16.39,7.35,16.39,16.39s-7.35,16.39-16.39,16.39-16.39-7.35-16.39-16.39,7.35-16.39,16.39-16.39m0-2c-10.16,0-18.39,8.23-18.39,18.39s8.23,18.39,18.39,18.39,18.39-8.23,18.39-18.39-8.23-18.39-18.39-18.39h0Z"/></g><g><path class="b" d="M687.49,186.2c-6.2,0-11.98-3.33-15.08-8.7-4.8-8.31-1.94-18.96,6.37-23.76,2.64-1.53,5.65-2.33,8.68-2.33,6.2,0,11.98,3.33,15.08,8.7,2.32,4.02,2.94,8.71,1.74,13.2-1.2,4.49-4.08,8.24-8.1,10.56-2.64,1.53-5.65,2.33-8.68,2.33Z"/><path class="c" d="M687.46,152.41h0c5.85,0,11.29,3.14,14.21,8.2,4.52,7.83,1.83,17.87-6,22.39-2.49,1.44-5.32,2.2-8.18,2.2-5.85,0-11.29-3.14-14.21-8.2-2.19-3.79-2.77-8.21-1.64-12.44s3.85-7.76,7.64-9.95c2.49-1.44,5.32-2.2,8.18-2.2m0-2c-3.12,0-6.28,.8-9.18,2.47-8.8,5.08-11.81,16.33-6.73,25.13,3.41,5.9,9.59,9.2,15.95,9.2,3.12,0,6.28-.8,9.18-2.47,8.8-5.08,11.81-16.33,6.73-25.13-3.41-5.9-9.59-9.2-15.95-9.2h0Z"/></g><g><path class="b" d="M668.98,152.76c-3.04,0-6.04-.81-8.68-2.33-8.31-4.79-11.16-15.45-6.37-23.76,3.1-5.37,8.88-8.7,15.08-8.7,3.03,0,6.04,.81,8.68,2.33,8.31,4.79,11.16,15.45,6.37,23.76-3.1,5.37-8.88,8.7-15.08,8.7Z"/><path class="c" d="M669.01,118.97h0c2.86,0,5.69,.76,8.18,2.2,3.79,2.19,6.5,5.72,7.64,9.95s.55,8.65-1.64,12.44c-2.92,5.06-8.37,8.2-14.21,8.2-2.86,0-5.69-.76-8.18-2.2-3.79-2.19-6.5-5.72-7.64-9.95-1.13-4.23-.55-8.65,1.64-12.44,2.92-5.06,8.37-8.2,14.22-8.2m0-2c-6.36,0-12.54,3.3-15.95,9.2-5.08,8.8-2.06,20.05,6.73,25.13,2.9,1.67,6.06,2.47,9.18,2.47,6.36,0,12.54-3.3,15.95-9.2,5.08-8.8,2.06-20.05-6.73-25.13-2.9-1.67-6.06-2.47-9.18-2.47h0Z"/></g><g><path class="b" d="M636.27,133.03c-9.59,0-17.39-7.8-17.39-17.39s7.8-17.39,17.39-17.39,17.39,7.8,17.39,17.39-7.8,17.39-17.39,17.39Z"/><path class="c" d="M636.27,99.25c9.04,0,16.39,7.35,16.39,16.39s-7.35,16.39-16.39,16.39-16.39-7.35-16.39-16.39,7.35-16.39,16.39-16.39m0-2c-10.16,0-18.39,8.23-18.39,18.39s8.23,18.39,18.39,18.39,18.39-8.23,18.39-18.39-8.23-18.39-18.39-18.39h0Z"/></g><g><path class="b" d="M646.91,96.25c-9.59,0-17.39-7.8-17.39-17.39s7.8-17.39,17.39-17.39,17.39,7.8,17.39,17.39-7.8,17.39-17.39,17.39Z"/><path class="c" d="M646.91,62.46c9.04,0,16.39,7.35,16.39,16.39s-7.35,16.39-16.39,16.39-16.39-7.35-16.39-16.39,7.35-16.39,16.39-16.39m0-2c-10.16,0-18.39,8.23-18.39,18.39s8.23,18.39,18.39,18.39,18.39-8.23,18.39-18.39-8.23-18.39-18.39-18.39h0Z"/></g><g><path class="b" d="M608.2,92.12c-7.28,0-13.85-4.6-16.34-11.45-3.28-9.01,1.38-19.01,10.4-22.29,1.92-.7,3.92-1.05,5.95-1.05,7.28,0,13.85,4.6,16.35,11.45,1.59,4.37,1.38,9.09-.58,13.3-1.96,4.21-5.45,7.4-9.81,8.99-1.92,.7-3.92,1.05-5.95,1.05Z"/><path class="c" d="M608.2,58.32c6.87,0,13.06,4.34,15.41,10.79,1.5,4.11,1.3,8.57-.55,12.53-1.85,3.97-5.14,6.98-9.25,8.48-1.81,.66-3.7,.99-5.61,.99-6.87,0-13.06-4.34-15.41-10.79-1.5-4.11-1.3-8.57,.55-12.53,1.85-3.97,5.14-6.98,9.25-8.48,1.81-.66,3.7-.99,5.61-.99m0-2c-2.09,0-4.21,.36-6.29,1.11-9.55,3.47-14.47,14.03-10.99,23.57,2.72,7.47,9.77,12.11,17.29,12.11,2.09,0,4.21-.36,6.29-1.11,9.55-3.47,14.47-14.03,10.99-23.57-2.72-7.47-9.77-12.11-17.29-12.11h0Z"/></g><g><path class="b" d="M570.41,101.47c-5.16,0-10.02-2.26-13.33-6.21-6.16-7.35-5.2-18.34,2.14-24.5,3.13-2.62,7.1-4.07,11.17-4.07,5.16,0,10.02,2.26,13.33,6.21,2.99,3.56,4.41,8.07,4,12.7-.41,4.63-2.59,8.82-6.15,11.81-3.13,2.62-7.09,4.07-11.17,4.07Z"/><path class="c" d="M570.39,67.68h0c4.86,0,9.44,2.13,12.57,5.86,5.81,6.92,4.9,17.28-2.02,23.1-2.95,2.47-6.69,3.84-10.53,3.84-4.86,0-9.44-2.13-12.57-5.86-5.81-6.92-4.9-17.28,2.02-23.1,2.95-2.47,6.69-3.84,10.53-3.84m0-2c-4.17,0-8.37,1.41-11.81,4.3-7.78,6.53-8.8,18.13-2.27,25.91,3.64,4.34,8.85,6.57,14.1,6.57,4.17,0,8.37-1.41,11.81-4.3,7.78-6.53,8.8-18.13,2.27-25.91-3.64-4.34-8.85-6.57-14.1-6.57h0Z"/></g><g><path class="b" d="M538.07,123.19c-3.03,0-6.04-.81-8.68-2.33-8.31-4.79-11.16-15.45-6.37-23.76,3.1-5.37,8.88-8.7,15.08-8.7,3.03,0,6.04,.81,8.68,2.33,8.31,4.79,11.16,15.45,6.37,23.76-3.1,5.37-8.88,8.7-15.08,8.7Z"/><path class="c" d="M538.1,89.4h0c2.86,0,5.69,.76,8.18,2.2,3.79,2.19,6.5,5.72,7.64,9.95,1.13,4.23,.55,8.65-1.64,12.44-2.92,5.06-8.37,8.2-14.21,8.2-2.86,0-5.69-.76-8.18-2.2-7.83-4.52-10.52-14.57-6-22.39,2.92-5.06,8.37-8.2,14.22-8.2m0-2c-6.36,0-12.54,3.3-15.95,9.2-5.08,8.8-2.06,20.05,6.73,25.13,2.9,1.67,6.06,2.47,9.18,2.47,6.36,0,12.54-3.3,15.95-9.2,5.08-8.8,2.06-20.05-6.73-25.13-2.9-1.67-6.06-2.47-9.18-2.47h0Z"/></g><g><path class="b" d="M515.17,154.65c-1.01,0-2.04-.09-3.04-.27-9.45-1.67-15.77-10.7-14.11-20.15,1.47-8.33,8.66-14.38,17.11-14.38,1.01,0,2.04,.09,3.04,.27,9.45,1.67,15.77,10.7,14.11,20.15-1.47,8.33-8.66,14.38-17.11,14.38Z"/><path class="c" d="M515.12,118.86v2c.95,0,1.92,.08,2.87,.25,8.9,1.57,14.87,10.09,13.3,18.99-1.38,7.85-8.16,13.55-16.12,13.55-.95,0-1.92-.08-2.87-.25-8.9-1.57-14.87-10.09-13.3-18.99,1.38-7.85,8.16-13.55,16.12-13.55v-2m0,0c-8.76,0-16.52,6.28-18.09,15.2-1.76,10,4.92,19.54,14.92,21.31,1.08,.19,2.15,.28,3.22,.28,8.76,0,16.52-6.28,18.09-15.2,1.76-10-4.92-19.54-14.92-21.31-1.08-.19-2.15-.28-3.22-.28h0Z"/></g><g><path class="b" d="M504.33,192.06c-8.44,0-15.64-6.04-17.11-14.38-1.67-9.45,4.66-18.48,14.11-20.15,1.01-.18,2.03-.27,3.04-.27,8.44,0,15.64,6.04,17.11,14.38,1.67,9.45-4.66,18.48-14.11,20.15-1.01,.18-2.03,.27-3.04,.27Z"/><path class="c" d="M504.37,158.27h0c7.96,0,14.74,5.7,16.12,13.55,.76,4.31-.2,8.66-2.72,12.25-2.51,3.59-6.27,5.98-10.58,6.74-.95,.17-1.91,.25-2.87,.25-7.96,0-14.74-5.7-16.12-13.55-1.57-8.9,4.4-17.42,13.3-18.99,.95-.17,1.91-.25,2.87-.25m0-2c-1.06,0-2.14,.09-3.22,.28-10,1.76-16.68,11.3-14.92,21.31,1.57,8.92,9.33,15.2,18.09,15.2,1.06,0,2.14-.09,3.22-.28,10-1.76,16.68-11.3,14.92-21.31-1.57-8.92-9.33-15.2-18.09-15.2h0Z"/></g><g><path class="b" d="M507.02,230.91c-6.2,0-11.98-3.33-15.08-8.7-4.8-8.31-1.94-18.96,6.37-23.76,2.64-1.53,5.65-2.33,8.68-2.33,6.2,0,11.98,3.33,15.08,8.7,4.8,8.31,1.94,18.96-6.37,23.76-2.64,1.53-5.65,2.33-8.68,2.33Z"/><path class="c" d="M506.98,197.12h0c5.85,0,11.29,3.14,14.21,8.2,2.19,3.79,2.77,8.21,1.64,12.44-1.13,4.23-3.85,7.76-7.64,9.95-2.49,1.44-5.32,2.2-8.18,2.2-5.85,0-11.29-3.14-14.21-8.2-2.19-3.79-2.77-8.21-1.64-12.44s3.85-7.76,7.64-9.95c2.49-1.44,5.32-2.2,8.18-2.2m0-2c-3.12,0-6.28,.8-9.18,2.47-8.8,5.08-11.81,16.33-6.73,25.13,3.41,5.9,9.59,9.2,15.95,9.2,3.12,0,6.28-.8,9.18-2.47,8.8-5.08,11.81-16.33,6.73-25.13-3.41-5.9-9.59-9.2-15.95-9.2h0Z"/></g><g><path class="b" d="M522.77,266.5c-4.08,0-8.04-1.45-11.17-4.07-7.35-6.17-8.31-17.16-2.14-24.5,3.31-3.95,8.17-6.21,13.33-6.21,4.08,0,8.04,1.44,11.17,4.07,7.35,6.17,8.31,17.16,2.14,24.5-3.31,3.95-8.17,6.21-13.33,6.21Z"/><path class="c" d="M522.79,232.72h0c3.84,0,7.58,1.36,10.53,3.84,6.92,5.81,7.83,16.17,2.02,23.1-3.12,3.72-7.7,5.86-12.57,5.86-3.84,0-7.58-1.36-10.53-3.84-3.35-2.81-5.41-6.77-5.79-11.13s.96-8.61,3.77-11.97c3.12-3.72,7.7-5.86,12.57-5.86m0-2c-5.25,0-10.46,2.24-14.1,6.57-6.53,7.78-5.51,19.38,2.27,25.91,3.45,2.89,7.64,4.3,11.81,4.3,5.25,0,10.46-2.24,14.1-6.57,6.53-7.78,5.51-19.38-2.27-25.91-3.45-2.89-7.64-4.3-11.81-4.3h0Z"/></g><g><path class="b" d="M549.78,294.56c-2.02,0-4.03-.35-5.95-1.05-4.37-1.59-7.85-4.78-9.81-8.99-1.96-4.21-2.17-8.93-.58-13.3,2.49-6.85,9.06-11.45,16.35-11.45,2.02,0,4.03,.35,5.95,1.05,4.37,1.59,7.85,4.78,9.81,8.99,1.96,4.21,2.17,8.93,.58,13.3-2.49,6.85-9.06,11.45-16.35,11.45Z"/><path class="c" d="M549.78,258.77v2c1.91,0,3.79,.33,5.6,.99,8.49,3.09,12.89,12.52,9.8,21.01-2.35,6.45-8.54,10.79-15.41,10.79-1.91,0-3.79-.33-5.61-.99-8.49-3.09-12.89-12.52-9.8-21.01,2.35-6.45,8.54-10.79,15.41-10.79v-2m0,0c-7.51,0-14.57,4.64-17.29,12.11-3.47,9.55,1.45,20.1,10.99,23.57,2.08,.76,4.2,1.11,6.29,1.11,7.51,0,14.57-4.64,17.29-12.11,3.47-9.55-1.45-20.1-10.99-23.57-2.08-.76-4.2-1.11-6.29-1.11h0Z"/></g><g><path class="b" d="M584.74,311.69c-9.59,0-17.39-7.8-17.39-17.39s7.8-17.39,17.39-17.39,17.39,7.8,17.39,17.39-7.8,17.39-17.39,17.39Z"/><path class="c" d="M584.74,277.9c9.04,0,16.39,7.35,16.39,16.39s-7.35,16.39-16.39,16.39-16.39-7.35-16.39-16.39,7.35-16.39,16.39-16.39m0-2c-10.16,0-18.39,8.23-18.39,18.39s8.23,18.39,18.39,18.39,18.39-8.23,18.39-18.39-8.23-18.39-18.39-18.39h0Z"/></g><g><path class="b" d="M623.46,315.83c-7.29,0-13.85-4.6-16.35-11.45-1.59-4.37-1.38-9.09,.58-13.3,1.96-4.21,5.45-7.4,9.81-8.99,1.92-.7,3.92-1.05,5.95-1.05,7.28,0,13.85,4.6,16.35,11.45,3.28,9.01-1.38,19.01-10.39,22.29-1.92,.7-3.92,1.05-5.95,1.05Z"/><path class="c" d="M623.46,282.03c6.87,0,13.06,4.34,15.41,10.79,1.5,4.11,1.3,8.57-.55,12.53s-5.14,6.98-9.25,8.48c-1.81,.66-3.7,.99-5.61,.99-6.87,0-13.06-4.34-15.41-10.79-1.5-4.11-1.3-8.57,.55-12.53,1.85-3.97,5.14-6.98,9.25-8.48,1.81-.66,3.7-.99,5.61-.99m0-2c-2.09,0-4.21,.36-6.29,1.11-9.55,3.47-14.47,14.03-10.99,23.57,2.72,7.47,9.77,12.11,17.29,12.11,2.09,0,4.21-.36,6.29-1.11,9.55-3.47,14.47-14.03,10.99-23.57-2.72-7.47-9.77-12.11-17.29-12.11h0Z"/></g><g><path class="b" d="M661.27,306.47c-5.16,0-10.02-2.26-13.33-6.21-2.99-3.56-4.41-8.07-4-12.7,.41-4.63,2.59-8.82,6.15-11.81,3.13-2.62,7.09-4.07,11.17-4.07,5.16,0,10.02,2.26,13.33,6.21,6.16,7.35,5.2,18.34-2.14,24.5-3.13,2.62-7.1,4.07-11.17,4.07Z"/><path class="c" d="M661.25,272.68h0c4.86,0,9.44,2.13,12.57,5.86,2.81,3.35,4.15,7.6,3.77,11.97-.38,4.36-2.44,8.31-5.79,11.13-2.95,2.47-6.69,3.84-10.53,3.84-4.86,0-9.44-2.13-12.57-5.86-5.81-6.92-4.9-17.28,2.02-23.1,2.95-2.47,6.69-3.84,10.53-3.84m0-2c-4.17,0-8.37,1.41-11.81,4.3-7.78,6.53-8.8,18.13-2.27,25.91,3.64,4.34,8.85,6.57,14.1,6.57,4.17,0,8.37-1.41,11.81-4.3,7.78-6.53,8.8-18.13,2.27-25.91-3.64-4.34-8.85-6.57-14.1-6.57h0Z"/></g><g><path class="b" d="M693.56,284.75c-3.03,0-6.04-.81-8.68-2.33-8.31-4.79-11.16-15.45-6.37-23.76,3.1-5.37,8.88-8.7,15.08-8.7,3.03,0,6.04,.81,8.68,2.33,8.31,4.79,11.16,15.45,6.37,23.76-3.1,5.37-8.88,8.7-15.08,8.7Z"/><path class="c" d="M693.59,250.96h0c2.86,0,5.69,.76,8.18,2.2,3.79,2.19,6.5,5.72,7.64,9.95s.55,8.65-1.64,12.44c-2.92,5.06-8.37,8.2-14.21,8.2-2.86,0-5.69-.76-8.18-2.2-3.79-2.19-6.5-5.72-7.64-9.95-1.13-4.23-.55-8.65,1.64-12.44,2.92-5.06,8.37-8.2,14.22-8.2m0-2c-6.36,0-12.54,3.3-15.95,9.2-5.08,8.8-2.06,20.05,6.73,25.13,2.9,1.67,6.06,2.47,9.18,2.47,6.36,0,12.54-3.3,15.95-9.2,5.08-8.8,2.06-20.05-6.73-25.13-2.9-1.67-6.06-2.47-9.18-2.47h0Z"/></g><g><path class="b" d="M716.54,253.29c-1.01,0-2.04-.09-3.04-.27-9.45-1.67-15.77-10.7-14.11-20.15,1.47-8.33,8.66-14.38,17.11-14.38,1.01,0,2.04,.09,3.04,.27,9.45,1.67,15.77,10.7,14.11,20.15-1.47,8.33-8.66,14.38-17.11,14.38Z"/><path class="c" d="M716.49,217.5v2c.95,0,1.92,.08,2.87,.25,8.9,1.57,14.87,10.09,13.3,18.99-1.38,7.85-8.16,13.55-16.12,13.55-.95,0-1.92-.08-2.87-.25-8.9-1.57-14.87-10.09-13.3-18.99,1.38-7.85,8.16-13.55,16.12-13.55v-2m0,0c-8.76,0-16.52,6.28-18.09,15.2-1.76,10,4.92,19.54,14.92,21.31,1.08,.19,2.15,.28,3.22,.28,8.76,0,16.52-6.28,18.09-15.2,1.76-10-4.92-19.54-14.92-21.31-1.08-.19-2.15-.28-3.22-.28h0Z"/></g><g><path class="b" d="M727.29,215.88c-8.44,0-15.64-6.05-17.11-14.38-1.67-9.44,4.67-18.48,14.11-20.15,1.01-.18,2.03-.27,3.04-.27,8.44,0,15.64,6.05,17.11,14.38,1.67,9.45-4.66,18.48-14.11,20.15-1.01,.18-2.03,.27-3.04,.27Z"/><path class="c" d="M727.33,182.09h0c7.96,0,14.74,5.7,16.12,13.55,1.57,8.9-4.4,17.42-13.3,18.99-.95,.17-1.91,.25-2.87,.25-7.96,0-14.74-5.7-16.12-13.55-1.57-8.9,4.4-17.42,13.3-18.99,.95-.17,1.91-.25,2.87-.25m0-2c-1.06,0-2.14,.09-3.22,.28-10,1.76-16.68,11.3-14.92,21.31,1.57,8.92,9.33,15.2,18.09,15.2,1.06,0,2.14-.09,3.22-.28,10-1.76,16.68-11.3,14.92-21.31-1.57-8.92-9.33-15.2-18.09-15.2h0Z"/></g><g><path class="b" d="M724.68,177.03c-6.2,0-11.98-3.33-15.08-8.7-4.8-8.31-1.94-18.96,6.37-23.76,2.64-1.53,5.65-2.33,8.68-2.33,6.2,0,11.98,3.33,15.08,8.7,4.8,8.31,1.94,18.96-6.37,23.76-2.64,1.53-5.65,2.33-8.68,2.33Z"/><path class="c" d="M724.64,143.24h0c5.85,0,11.29,3.14,14.21,8.2,2.19,3.79,2.77,8.21,1.64,12.44s-3.85,7.76-7.64,9.95c-2.49,1.44-5.32,2.2-8.18,2.2-5.85,0-11.29-3.14-14.21-8.2-4.52-7.83-1.83-17.87,6-22.39,2.49-1.44,5.32-2.2,8.18-2.2m0-2c-3.12,0-6.28,.8-9.18,2.47-8.8,5.08-11.81,16.33-6.73,25.13,3.41,5.9,9.59,9.2,15.95,9.2,3.12,0,6.28-.8,9.18-2.47,8.8-5.08,11.81-16.33,6.73-25.13-3.41-5.9-9.59-9.2-15.95-9.2h0Z"/></g><g><path class="b" d="M708.87,141.43c-4.08,0-8.04-1.45-11.17-4.07-3.56-2.99-5.74-7.18-6.15-11.81-.4-4.63,1.02-9.14,4-12.7,3.31-3.95,8.17-6.21,13.33-6.21,4.08,0,8.04,1.45,11.17,4.07,7.35,6.17,8.31,17.16,2.14,24.5-3.31,3.95-8.17,6.21-13.33,6.21Z"/><path class="c" d="M708.89,107.64h0c3.84,0,7.58,1.36,10.53,3.84,3.35,2.81,5.41,6.77,5.79,11.13,.38,4.36-.96,8.61-3.77,11.97-3.12,3.72-7.7,5.86-12.57,5.86-3.84,0-7.58-1.36-10.53-3.84-6.92-5.81-7.83-16.17-2.02-23.1,3.12-3.72,7.7-5.86,12.57-5.86m0-2c-5.25,0-10.46,2.24-14.1,6.57-6.53,7.78-5.51,19.38,2.27,25.91,3.45,2.89,7.64,4.3,11.81,4.3,5.25,0,10.46-2.24,14.1-6.57,6.53-7.78,5.51-19.38-2.27-25.91-3.45-2.89-7.64-4.3-11.81-4.3h0Z"/></g><g><path class="b" d="M681.88,113.38c-2.03,0-4.03-.35-5.95-1.05-4.37-1.59-7.85-4.78-9.81-8.99-1.96-4.21-2.17-8.93-.58-13.3,2.49-6.85,9.06-11.45,16.35-11.45,2.02,0,4.03,.35,5.95,1.05,4.37,1.59,7.85,4.78,9.81,8.99,1.96,4.21,2.17,8.93,.58,13.3-2.49,6.85-9.06,11.45-16.34,11.45Z"/><path class="c" d="M681.88,77.59v2c1.91,0,3.79,.33,5.6,.99,8.49,3.09,12.89,12.52,9.8,21.01-2.35,6.45-8.54,10.79-15.41,10.79-1.91,0-3.79-.33-5.61-.99-4.11-1.5-7.4-4.51-9.25-8.48-1.85-3.97-2.04-8.42-.55-12.53,2.35-6.45,8.54-10.79,15.41-10.79v-2m0,0c-7.51,0-14.57,4.64-17.29,12.11-3.47,9.55,1.45,20.1,10.99,23.57,2.08,.76,4.2,1.11,6.29,1.11,7.51,0,14.57-4.64,17.29-12.11,3.47-9.55-1.45-20.1-10.99-23.57-2.08-.76-4.2-1.11-6.29-1.11h0Z"/></g></g></g><g><circle class="d" cx="206.75" cy="186.57" r="132.58"/><circle class="e" cx="146.27" cy="101.04" r="50.83"/><circle class="e" cx="102.43" cy="196.19" r="50.83"/><circle class="e" cx="162.92" cy="281.72" r="50.83"/><circle class="e" cx="267.23" cy="272.11" r="50.83"/><circle class="e" cx="311.07" cy="176.96" r="50.83"/><circle class="e" cx="250.58" cy="91.43" r="50.83"/><circle class="e" cx="206.75" cy="186.57" r="50.83"/></g></svg>