<svg width="55" height="55" viewBox="0 0 55 55" fill="none" xmlns="http://www.w3.org/2000/svg">
<rect width="55" height="55" rx="27.5" fill="white"/>
<path d="M35.1003 30.5732C35.0922 30.8039 35.1306 31.0338 35.2133 31.2494C35.2959 31.4649 35.4211 31.6615 35.5814 31.8276C35.7417 31.9936 35.9339 32.1257 36.1463 32.2159C36.3588 32.3061 36.5872 32.3526 36.818 32.3526C37.0488 32.3526 37.2773 32.3061 37.4897 32.2159C37.7022 32.1257 37.8943 31.9936 38.0546 31.8276C38.2149 31.6615 38.3401 31.4649 38.4228 31.2494C38.5054 31.0338 38.5438 30.8039 38.5357 30.5732L38.5357 17.6096C38.5354 17.1541 38.3544 16.7174 38.0323 16.3953C37.7102 16.0733 37.2735 15.8922 36.818 15.8919L23.8544 15.8919C23.6237 15.8838 23.3938 15.9222 23.1783 16.0048C22.9628 16.0875 22.7661 16.2127 22.6001 16.373C22.434 16.5333 22.3019 16.7254 22.2117 16.9379C22.1215 17.1503 22.075 17.3788 22.075 17.6096C22.075 17.8404 22.1215 18.0689 22.2117 18.2813C22.3019 18.4938 22.434 18.6859 22.6001 18.8462C22.7661 19.0065 22.9628 19.1317 23.1783 19.2144C23.3938 19.297 23.6237 19.3354 23.8544 19.3273L32.6697 19.3273L16.9675 35.0295C16.6451 35.3518 16.4641 35.789 16.4641 36.2448C16.4641 36.7007 16.6451 37.1378 16.9675 37.4602C17.2898 37.7825 17.727 37.9636 18.1828 37.9636C18.6387 37.9636 19.0758 37.7825 19.3982 37.4602L35.1003 21.758L35.1003 30.5732Z" fill="url(#paint0_linear_1134_23550)"/>
<defs>
<linearGradient id="paint0_linear_1134_23550" x1="35.2274" y1="34.6552" x2="19.7724" y2="19.2003" gradientUnits="userSpaceOnUse">
<stop stop-color="#8022B9"/>
<stop offset="0.485577" stop-color="#00005B"/>
<stop offset="1" stop-color="#513DF4"/>
</linearGradient>
</defs>
</svg>
