<svg width="39" height="27" viewBox="0 0 39 27" fill="none" xmlns="http://www.w3.org/2000/svg">
<path fill-rule="evenodd" clip-rule="evenodd" d="M17.892 18.0013C17.4911 20.7561 16.0139 23.2395 13.7845 24.9066C11.5552 26.5737 8.75561 27.2884 6 26.8939V20.7464C7.12602 21.14 8.36196 21.0722 9.43821 20.5579C10.5145 20.0436 11.3437 19.1246 11.745 18.0013H0V-1.90735e-06H18V18.0013H17.892Z" fill="#8122BA"/>
<path fill-rule="evenodd" clip-rule="evenodd" d="M38.892 18.0013C38.4911 20.7561 37.0139 23.2395 34.7845 24.9066C32.5552 26.5737 29.7556 27.2884 27 26.8939V20.7464C28.126 21.14 29.362 21.0722 30.4382 20.5579C31.5145 20.0436 32.3437 19.1246 32.745 18.0013H21V-1.90735e-06H39V18.0013H38.892Z" fill="#8122BA"/>
</svg>
