<svg width="34" height="30" viewBox="0 0 34 30" fill="none" xmlns="http://www.w3.org/2000/svg">
<path d="M5.31326 20.2267C5.39852 19.8503 5.93481 19.8503 6.02008 20.2267L6.10972 20.6225C6.5032 22.3595 7.89308 23.6956 9.64435 24.0201C9.99147 24.0845 9.99147 24.5819 9.64435 24.6462C7.89308 24.9708 6.5032 26.3068 6.10972 28.0439L6.02008 28.4396C5.93481 28.816 5.39852 28.816 5.31326 28.4396L5.22361 28.0439C4.83014 26.3068 3.44025 24.9708 1.68899 24.6462C1.34187 24.5819 1.34187 24.0845 1.68899 24.0201C3.44025 23.6956 4.83014 22.3596 5.22361 20.6225L5.31326 20.2267Z" fill="white"/>
<path d="M27.9799 1.5602C28.0651 1.18379 28.6014 1.18379 28.6867 1.5602L28.7763 1.95597C29.1698 3.69305 30.5597 5.02908 32.311 5.35365C32.6581 5.41798 32.6581 5.91536 32.311 5.97969C30.5597 6.30425 29.1698 7.64029 28.7763 9.37737L28.6867 9.77313C28.6014 10.1495 28.0651 10.1495 27.9799 9.77313L27.8902 9.37737C27.4968 7.64029 26.1069 6.30425 24.3556 5.97969C24.0085 5.91536 24.0085 5.41798 24.3556 5.35365C26.1069 5.02908 27.4968 3.69305 27.8902 1.95597L27.9799 1.5602Z" fill="white"/>
<path d="M15.9713 6.0313C16.0666 5.20487 17.2668 5.20487 17.3621 6.0313L17.4058 6.41041C17.762 9.49981 20.1137 11.9838 23.179 12.5083L23.9681 12.6434C24.744 12.7761 24.744 13.8905 23.9681 14.0233L23.179 14.1583C20.1137 14.6829 17.762 17.1669 17.4058 20.2563L17.3621 20.6354C17.2668 21.4618 16.0666 21.4618 15.9713 20.6354L15.9276 20.2563C15.5714 17.1669 13.2197 14.6829 10.1544 14.1583L9.36536 14.0233C8.58945 13.8905 8.58945 12.7761 9.36536 12.6434L10.1544 12.5083C13.2197 11.9838 15.5714 9.49981 15.9276 6.41041L15.9713 6.0313Z" fill="white"/>
</svg>
