<?xml version="1.0" encoding="UTF-8"?><svg id="a" xmlns="http://www.w3.org/2000/svg" xmlns:xlink="http://www.w3.org/1999/xlink" viewBox="0 0 800 650"><defs><style>.c{fill:#7847ff;}.d{fill:#fadc94;stroke:#f69659;}.d,.e,.f,.g,.h,.i,.j,.k,.l,.m{stroke-miterlimit:10;stroke-width:2px;}.n{letter-spacing:-.02em;}.o,.f,.h,.i{fill:#fff;}.p{letter-spacing:0em;}.q{letter-spacing:.01em;}.r{letter-spacing:0em;}.s,.t,.u,.v{font-family:Inter-Medium, Inter;}.s,.u{font-size:12px;}.s,.v{fill:#231f20;}.e,.g{fill:none;}.e,.k{stroke:#3bb54a;}.w{fill:#3bb54a;}.t{fill:#a6a8ab;font-size:10px;}.f{stroke:#d6b1fb;}.x{letter-spacing:-.02em;}.y{letter-spacing:-.02em;}.g{stroke:#bbbdbf;stroke-linecap:round;}.a`{letter-spacing:0em;}.h{stroke:#b3dbb6;}.aa{fill:#bbbdbf;}.ab{letter-spacing:-.08em;}.ac{letter-spacing:0em;}.ad{letter-spacing:0em;}.i{stroke:#fadc94;}.j{fill:#f48993;stroke:#c84548;}.k{fill:#b3dbb6;}.v{font-size:14px;}.ae{letter-spacing:-.02em;}.l{fill:#d6b1fb;stroke:url(#b);}.af{letter-spacing:-.02em;}.ag{letter-spacing:0em;}.m{fill:#51b5e7;stroke:#0f71b9;}.ah{letter-spacing:0em;}.ai{letter-spacing:0em;}.aj{fill:#ff5a1f;}</style><linearGradient id="b" x1="371.26" y1="67.01" x2="517" y2="67.01" gradientTransform="matrix(1, 0, 0, 1, 0, 0)" gradientUnits="userSpaceOnUse"><stop offset="0" stop-color="#7847ff"/><stop offset="1" stop-color="#952cf1"/></linearGradient></defs><g><line class="g" x1="191.69" y1="67.01" x2="233.02" y2="67.01"/><polygon class="aa" points="231.56 71.99 240.2 67.01 231.56 62.02 231.56 71.99"/></g><g><line class="g" x1="314.64" y1="67.01" x2="355.97" y2="67.01"/><polygon class="aa" points="354.51 71.99 363.15 67.01 354.51 62.02 354.51 71.99"/></g><g><line class="g" x1="527.27" y1="67.01" x2="572.93" y2="67.01"/><polygon class="aa" points="571.47 71.99 580.1 67.01 571.47 62.02 571.47 71.99"/></g><g><line class="g" x1="617.4" y1="127.8" x2="617.4" y2="169.13"/><polygon class="aa" points="612.41 167.67 617.4 176.3 622.39 167.67 612.41 167.67"/></g><g><line class="g" x1="617.4" y1="322.58" x2="617.4" y2="342.72"/><polygon class="aa" points="612.41 341.26 617.4 349.9 622.39 341.26 612.41 341.26"/></g><g><line class="g" x1="513.13" y1="498.55" x2="513.13" y2="518.7"/><polygon class="aa" points="508.14 517.24 513.13 525.87 518.11 517.24 508.14 517.24"/></g><g><line class="g" x1="721.04" y1="498.55" x2="721.04" y2="518.7"/><polygon class="aa" points="716.05 517.24 721.04 525.87 726.02 517.24 716.05 517.24"/></g><g><rect class="d" x="38.83" y="35.47" width="143.74" height="63.06" rx="9.41" ry="9.41"/><text class="v" transform="translate(80.68 62.41)"><tspan x="0" y="0">Business</tspan><tspan class="a`" x="-12.52" y="16.8">R</tspan><tspan class="r" x="-3.58" y="16.8">equi</tspan><tspan class="x" x="25.09" y="16.8">r</tspan><tspan x="30.19" y="16.8">ement</tspan></text></g><g><rect class="l" x="372.26" y="35.47" width="143.74" height="63.06" rx="9.41" ry="9.41"/><text class="s" transform="translate(409.79 56.42)"><tspan x="0" y="0">API Specific</tspan><tspan x="8.61" y="14.4">Business</tspan><tspan class="ac" x="-2.12" y="28.8">R</tspan><tspan x="5.54" y="28.8">equi</tspan><tspan class="ae" x="30.11" y="28.8">r</tspan><tspan x="34.48" y="28.8">ement</tspan></text></g><g><rect class="k" x="524.07" y="185.71" width="186.15" height="127.4" rx="15.71" ry="15.71"/><text class="v" transform="translate(581.41 210.97)"><tspan x="0" y="0">Instruction</tspan></text><line class="e" x1="524.07" y1="223.93" x2="710.22" y2="223.93"/><g><g><text class="u" transform="translate(556.13 249.41)"><tspan x="0" y="0">C</tspan><tspan class="ae" x="8.83" y="0">r</tspan><tspan x="13.2" y="0">ea</tspan><tspan class="ah" x="27.08" y="0">t</tspan><tspan x="31.47" y="0">e N</tspan><tspan class="ad" x="50.66" y="0">e</tspan><tspan x="57.69" y="0">w API</tspan></text><text class="u" transform="translate(556.13 272.63)"><tspan class="ac" x="0" y="0">R</tspan><tspan x="7.66" y="0">euse Existing APIs</tspan></text><text class="u" transform="translate(556.13 295.85)"><tspan x="0" y="0">Cus</tspan><tspan class="p" x="22.39" y="0">t</tspan><tspan x="26.78" y="0">omi</tspan><tspan class="y" x="47.6" y="0">z</tspan><tspan class="ag" x="54.03" y="0">e Existing APIs</tspan></text></g><circle cx="542.6" cy="245.47" r="1.89"/><circle cx="542.6" cy="268.33" r="1.89"/><circle cx="542.6" cy="291.19" r="1.89"/></g></g><circle class="m" cx="513.13" cy="450.01" r="40.11"/><text class="u" transform="translate(487.96 463.82)"><tspan x="0" y="0">Cont</tspan><tspan class="ai" x="27.68" y="0">r</tspan><tspan x="32.23" y="0">act</tspan></text><circle class="j" cx="721.04" cy="450.01" r="40.11"/><text class="u" transform="translate(694.71 459.62)"><tspan x="0" y="0">Code </tspan><tspan class="q" x="33.79" y="0">t</tspan><tspan class="ag" x="38.39" y="0">he</tspan><tspan x="16.68" y="14.4">API</tspan></text><g><rect class="i" x="587.04" y="38.9" width="56.22" height="56.22" rx="12" ry="12"/><g><path class="aj" d="M631.19,63.8c1.05-.02,1.87-.75,1.93-1.76,.02-.19,.02-.41,.02-.61,0-.16,0-.32,0-.47,.04-.86-.34-1.53-1.15-2.02-2.05-1.25-4.08-2.5-6.12-3.76-2.42-1.5-4.84-2.99-7.27-4.47-.25-.15-.48-.31-.72-.46-.73-.48-1.49-.99-2.39-1.24h-1c-.12,.06-.26,.11-.38,.16-.29,.11-.59,.22-.86,.39-2.52,1.57-5.03,3.15-7.55,4.73l-3.73,2.35c-1.28,.8-2.54,1.6-3.82,2.39-.65,.41-1,1-1,1.74,0,.35,0,.71,0,1.08,.03,1.2,.83,1.95,2.08,1.95h1.23l-.02,.1c-.16,.97,.31,1.9,1.2,2.34,.15,.07,.18,.12,.18,.3,0,2.48,0,4.96,0,7.43v2.48c0,.06,0,.12,0,.19h-.21c-1.4,0-2.05,.63-2.05,1.97v1.34h-.07c-.19,0-.36,0-.54,0-1.07,.03-1.75,.67-1.76,1.69-.02,.54-.02,1.08,0,1.68,.02,1.04,.73,1.7,1.81,1.7h32.37c1.07,0,1.78-.66,1.81-1.7,0-.41,0-.82,0-1.23v-.3c0-1.17-.68-1.83-1.9-1.83h-.82v-.5c0-.37,0-.73,0-1.08,0-1.01-.72-1.69-1.76-1.72h-.47l-.03-2.64c0-2.53,0-5.05,0-7.58,0-.08,0-.09,.17-.18,.86-.44,1.33-1.31,1.22-2.21,0-.08,0-.15-.03-.22h.38c.44,0,.87,0,1.3,0Zm-2.64,14.62v1.52h-10.02c-.12,0-.26,0-.4,.02-.46,.04-.78,.4-.8,.83-.02,.46,.27,.82,.73,.9,.17,.04,.33,.04,.51,.04h12.68v1.49h-32.24v-1.49h2.71c3.25,0,6.5,0,9.75,0,.19,0,.39,0,.58-.04,.4-.1,.68-.48,.65-.89,0-.41-.34-.77-.77-.83-.15-.02-.3-.02-.45-.02h-1.94c-2.65,0-5.32,0-7.97,0-.19,0-.21-.04-.21-.04,0,0-.03-.03,0-.16,.02-.38,0-.76,0-1.12v-.21s.02,0,.05,0c.06,0,.12,0,.19,0h26.94Zm-25.91-13.71c-.26-.05-.42-.26-.41-.48,.04-.26,.24-.41,.54-.41,.64,0,1.29,0,1.92,0h1.08c.26,0,.51,0,.77,0,.31,0,.52,.18,.53,.44,0,.36-.33,.45-.47,.47-.68,.11-.93,.4-.93,1.07v10.84h-2.03v-10.71c0-.81-.18-1.02-1-1.2Zm6.22-.88h1.89c-.17,1.12,.21,1.81,1.34,2.5v10.29h-4.58v-2.64c0-2.48,0-4.96,0-7.45,0-.17,.03-.22,.19-.3,.92-.46,1.31-1.27,1.17-2.4Zm4.1,.88c-.26-.05-.42-.24-.41-.48,.03-.26,.22-.41,.53-.41,.58,0,1.16,0,1.75,0h1.07c.3,0,.6,0,.9,0,.34,0,.56,.18,.58,.44,0,.24-.19,.42-.51,.47-.64,.1-.9,.41-.9,1.13v10.76h-2.03v-10.69c0-.82-.17-1.03-.99-1.21Zm6.22-.84v-.04h1.87c-.11,.65,0,1.19,.34,1.64,.25,.33,.58,.57,.86,.76,.14,.11,.16,.13,.16,.24,0,2.8,0,5.6,0,8.4v1.74h-4.59v-10.09c0-.16,.02-.2,.16-.28,.92-.45,1.38-1.36,1.21-2.36Zm4.1,.84c-.27-.05-.43-.23-.41-.48,.02-.24,.19-.41,.44-.41,1.35-.02,2.67-.02,3.94,0,.28,0,.44,.23,.44,.44,0,.22-.17,.41-.42,.45-.78,.16-.97,.38-.97,1.16v10.75h-2.04v-10.75c0-.78-.19-1-.98-1.16Zm-23.92-2.69c-.07,0-.29,0-.33-.03-.03-.03-.04-.18-.06-.35-.1-.7,.14-1.13,.88-1.58,4.04-2.5,8.11-5.07,12.05-7.55l2.32-1.45c.26-.17,.5-.25,.75-.25s.48,.08,.73,.23c5.1,3.15,10.21,6.3,15.32,9.43,.19,.12,.26,.23,.26,.41,0,.19,0,.4,0,.58,0,.14,0,.26,0,.4,0,.06,0,.11-.04,.12-.02,.02-.08,.03-.12,.03h-31.75Z"/><path class="aj" d="M615.97,80.83c0,.48-.41,.88-.91,.88-.26,0-.49-.1-.67-.28-.17-.17-.26-.4-.26-.63,0-.49,.41-.85,.93-.86,.5,0,.91,.4,.91,.88Z"/><path class="aj" d="M625.53,58.56c-2.42-1.48-4.84-2.97-7.25-4.46l-1.77-1.08c-1-.63-2.04-.62-3.05,.04-1.08,.69-2.18,1.38-3.27,2.05l-5.57,3.5c-.57,.36-.64,.83-.6,1.16,.06,.47,.34,.79,.78,.94,.23,.07,.47,.07,.71,.07h19.2c.25,0,.5,0,.74-.09h0c.43-.14,.7-.48,.74-.96,.05-.48-.17-.86-.65-1.16Zm-18.09,.4l2.75-1.73c1.43-.9,2.86-1.79,4.28-2.7,.37-.24,.68-.24,1.03-.02,1.9,1.17,3.81,2.35,5.7,3.52l1.52,.93h-15.29Z"/></g></g><rect class="h" x="589.04" y="356.09" width="56.22" height="56.22" rx="12" ry="12"/><g><rect class="f" x="249.31" y="38.9" width="56.22" height="56.22" rx="12" ry="12"/><path class="c" d="M291.08,77.2c-1.73-1.71-3.43-3.44-5.16-5.15-.65-.65-1.2-1.44-2.22-1.66,1.13-1.67,1.81-3.47,2-5.44,.2-1.98-.08-3.88-.85-5.71-.77-1.82-1.93-3.36-3.49-4.57-4.47-3.49-10.82-3.27-14.95,.49-4.24,3.87-5.06,10.12-1.91,14.99,1.43,2.21,3.43,3.76,5.93,4.58,3.67,1.21,7.13,.68,10.38-1.43,.13,.66,.54,1.11,.99,1.55,1.95,1.94,3.9,3.88,5.83,5.84,.52,.53,1.08,.99,1.83,1.14h.64c.66-.15,1.26-.41,1.63-.99,.22-.35,.34-.76,.51-1.15v-.64c-.15-.76-.62-1.32-1.16-1.85Zm-16.89-4.76c-4.76,.01-8.65-3.87-8.65-8.65,0-4.78,3.86-8.65,8.65-8.66,4.77,0,8.65,3.87,8.66,8.65,.01,4.76-3.88,8.65-8.65,8.66Z"/></g><text class="u" transform="translate(226.08 115.4)"><tspan x="0" y="0">Business Analysis</tspan><tspan class="ab" x="35.67" y="14.4">T</tspan><tspan x="42.53" y="14.4">eam</tspan></text><text class="u" transform="translate(551.86 115.4)"><tspan x="0" y="0">API G</tspan><tspan class="af" x="31.47" y="0">ov</tspan><tspan x="45.03" y="0">ernance </tspan><tspan class="ab" x="94.9" y="0">T</tspan><tspan x="101.76" y="0">eam</tspan></text><text class="u" transform="translate(579.14 434.3)"><tspan x="0" y="0">D</tspan><tspan class="n" x="8.66" y="0">e</tspan><tspan class="af" x="15.51" y="0">v</tspan><tspan x="22.08" y="0">elopment</tspan><tspan class="ab" x="22.34" y="14.4">T</tspan><tspan x="29.2" y="14.4">eam</tspan></text><text class="u" transform="translate(479.03 361.51)"><tspan x="0" y="0">Design First</tspan></text><text class="u" transform="translate(691.4 361.51)"><tspan x="0" y="0">Code First</tspan></text><g><polyline class="g" points="580.1 384.23 513.23 384.23 513.23 395.23"/><polygon class="aa" points="508.25 393.78 513.23 402.41 518.22 393.78 508.25 393.78"/></g><g><polyline class="g" points="654.19 384.23 721.06 384.23 721.06 395.23"/><polygon class="aa" points="716.07 393.78 721.06 402.41 726.05 393.78 716.07 393.78"/></g><text class="t" transform="translate(478.99 345.2)"><tspan x="0" y="0">Option 1</tspan></text><text class="t" transform="translate(691.08 345.2)"><tspan x="0" y="0">Option 2</tspan></text><g><path class="w" d="M623.88,389.79c-.14,0-.29,.03-.43,.05-.5,.09-1,.19-1.5,.26-.51,.08-.81,.35-.98,.84-.24,.68-.53,1.35-.84,2.01-.21,.45-.22,.85,.08,1.26,.34,.47,.68,.95,1,1.43,.24,.36,.22,.6-.08,.91-.33,.34-.67,.67-1,1-.35,.34-.57,.36-.96,.09-.44-.3-.89-.6-1.31-.92-.47-.36-.92-.37-1.45-.1-.58,.3-1.19,.56-1.81,.75-.59,.18-.89,.52-.97,1.12-.07,.54-.18,1.08-.29,1.61-.08,.41-.26,.56-.68,.56-.49,0-.97,0-1.46,0-.45,0-.63-.17-.71-.61-.1-.55-.21-1.1-.29-1.65-.07-.51-.34-.82-.83-.99-.69-.25-1.38-.53-2.04-.85-.46-.21-.85-.2-1.26,.1-.47,.34-.95,.68-1.43,1-.34,.23-.58,.21-.88-.08-.36-.34-.71-.7-1.06-1.06-.3-.31-.31-.54-.06-.91,.33-.48,.66-.96,1-1.43,.29-.4,.29-.78,.08-1.23-.31-.67-.6-1.35-.85-2.04-.18-.49-.48-.76-.99-.83-.56-.08-1.12-.19-1.68-.29-.4-.07-.57-.27-.58-.67,0-.5,0-1,0-1.49,0-.41,.15-.6,.56-.68,.56-.11,1.12-.21,1.68-.3,.54-.08,.85-.37,1.03-.89,.23-.67,.51-1.33,.82-1.98,.21-.45,.22-.85-.08-1.26-.34-.46-.66-.93-.98-1.4-.27-.39-.25-.62,.09-.96,.32-.33,.65-.66,.98-.98,.34-.33,.57-.35,.97-.08,.49,.34,.98,.68,1.46,1.02,.35,.25,.71,.26,1.1,.09,.73-.32,1.47-.62,2.21-.92,.37-.14,.63-.37,.7-.77,.12-.67,.25-1.33,.34-2.01,.07-.52-.28-.98-.77-1.07-.48-.08-.96,.25-1.07,.77-.09,.39-.13,.79-.22,1.18-.03,.12-.14,.25-.25,.3-.38,.18-.77,.35-1.17,.49-.11,.04-.28,.01-.38-.05-.4-.25-.77-.55-1.18-.79-.87-.52-2-.44-2.75,.23-.55,.49-1.08,1.01-1.57,1.57-.66,.75-.73,1.85-.24,2.72,.19,.32,.39,.65,.63,.93,.27,.32,.21,.58,.11,.97-.24,.95-.83,1.24-1.73,1.31-.79,.06-1.41,.49-1.82,1.19-.15,.26-.24,.55-.35,.83v2.55c.12,.27,.21,.56,.36,.82,.42,.72,1.08,1.14,1.89,1.19,.85,.06,1.38,.36,1.62,1.23,.12,.42,.18,.7-.11,1.07-.39,.48-.78,.99-.88,1.64-.12,.74,.02,1.42,.51,1.97,.48,.54,1,1.06,1.54,1.54,.75,.67,1.87,.77,2.75,.27,.41-.24,.79-.52,1.17-.8,.17-.13,.3-.13,.49-.04,.35,.17,.72,.29,1.06,.46,.13,.06,.25,.22,.29,.35,.1,.37,.14,.76,.22,1.14,.22,1.02,.83,1.67,1.83,1.96,.05,.02,.1,.05,.16,.08h2.55c.66-.21,1.3-.48,1.62-1.13,.24-.48,.4-1.01,.48-1.54,.08-.56,.26-.94,.86-1.05,.22-.04,.41-.21,.63-.26,.14-.04,.33-.02,.45,.05,.35,.21,.68,.47,1.03,.69,1,.63,2.11,.55,2.99-.23,.49-.43,.94-.91,1.39-1.39,.45-.48,.63-1.07,.62-1.74-.01-.73-.37-1.3-.81-1.83-.37-.44-.48-.84-.14-1.34,.13-.18,.15-.44,.27-.63,.07-.12,.21-.25,.35-.29,.4-.1,.81-.14,1.21-.24,.46-.11,.77-.6,.7-1.05-.07-.45-.49-.79-.96-.79Z"/><path class="w" d="M635.04,375.99c-.03-1.07-.71-1.89-1.76-2.12-.21-.05-.43-.1-.64-.11-.28-.02-.39-.17-.52-.41-.28-.5-.27-.92,.15-1.32,.04-.04,.07-.1,.11-.15,.65-.96,.56-2.02-.24-2.86-.23-.25-.48-.48-.72-.72-.98-.98-2.02-1.09-3.12-.26-.45,.34-.83,.43-1.33,.15-.23-.13-.4-.23-.42-.51-.01-.22-.06-.43-.11-.64-.22-1.05-1.04-1.73-2.11-1.76-.24,0-.49,.01-.73,0-1.63-.11-2.63,.58-2.82,2.4-.03,.28-.17,.39-.4,.53-.5,.28-.92,.27-1.32-.14-.08-.09-.2-.14-.3-.21-.86-.52-1.84-.44-2.59,.23-.29,.26-.56,.54-.83,.82-.99,.99-1.09,2.02-.25,3.15,.3,.41,.43,.74,.17,1.23-.16,.3-.31,.48-.65,.5-.18,.01-.36,.05-.54,.09-.9,.2-1.55,.73-1.69,1.64-.11,.74-.12,1.54,0,2.28,.18,1.05,.96,1.56,1.98,1.68,.5,.05,.8,.22,.97,.73,.11,.34,.08,.56-.11,.85-.26,.4-.54,.83-.63,1.28-.25,1.21,1.32,3.17,2.62,3.41,.84,.15,1.49-.2,2.1-.68,.25-.2,.46-.18,.76-.09,.53,.16,.78,.47,.77,1.01,0,.13,.04,.26,.08,.39,.23,.95,1.01,1.59,1.98,1.63,.51,.02,1.02,.02,1.53,0,.97-.04,1.72-.66,1.96-1.6,.08-.3,.11-.62,.19-.93,.03-.1,.09-.23,.18-.28,.52-.3,1.05-.51,1.54,.07,.09,.11,.24,.17,.36,.24,.8,.45,1.75,.35,2.44-.25,.31-.27,.59-.57,.89-.86,.98-.98,1.09-2.02,.26-3.12-.34-.46-.42-.83-.14-1.33,.13-.23,.22-.4,.52-.41,.29-.02,.57-.09,.85-.17,.88-.25,1.48-1,1.54-1.91,.02-.27,0-.53,0-.8h0c0-.22,0-.44,0-.66Zm-1.89,1.15c.01,.29-.11,.42-.4,.45-.4,.05-.79,.15-1.18,.2-.49,.07-.81,.32-.98,.8-.19,.53-.41,1.06-.65,1.57-.21,.44-.18,.83,.11,1.23,.24,.32,.45,.66,.69,.98,.21,.27,.18,.47-.07,.69-.24,.21-.45,.45-.67,.66-.07,.07-.17,.12-.27,.18-.12-.06-.22-.11-.3-.17-.36-.25-.72-.5-1.07-.75-.35-.24-.7-.28-1.1-.1-.56,.25-1.13,.49-1.71,.71-.4,.15-.64,.42-.71,.84-.07,.43-.16,.86-.22,1.29-.04,.27-.17,.41-.46,.39-.34-.02-.68,0-1.02,0-.25,0-.38-.1-.41-.35-.06-.41-.16-.81-.21-1.22-.07-.51-.34-.82-.83-.99-.51-.18-1.02-.38-1.51-.62-.47-.23-.88-.2-1.29,.11-.32,.24-.66,.45-.98,.69-.22,.17-.41,.17-.6-.04-.22-.24-.45-.47-.69-.69-.21-.2-.21-.38-.04-.6,.25-.34,.49-.7,.73-1.04,.26-.37,.3-.74,.1-1.16-.25-.54-.47-1.09-.68-1.64-.17-.45-.47-.68-.93-.76-.42-.06-.83-.15-1.25-.22-.25-.04-.36-.16-.35-.41,0-.34,.02-.68,0-1.02-.01-.29,.12-.42,.39-.46,.43-.07,.86-.15,1.29-.22,.42-.07,.69-.31,.84-.71,.22-.56,.45-1.12,.7-1.67,.19-.42,.16-.79-.11-1.16-.25-.34-.48-.7-.73-1.04-.17-.22-.16-.41,.05-.6,.24-.22,.47-.46,.69-.69,.2-.21,.38-.21,.6-.04,.34,.25,.69,.49,1.04,.74,.37,.27,.74,.3,1.16,.1,.54-.25,1.09-.47,1.64-.68,.44-.17,.69-.47,.76-.93,.06-.42,.15-.83,.21-1.25,.04-.25,.16-.36,.41-.36,.34,0,.68,.01,1.02,0,.29-.01,.41,.13,.46,.4,.07,.43,.15,.86,.22,1.29,.07,.42,.31,.69,.71,.84,.56,.22,1.13,.44,1.68,.69,.42,.19,.79,.16,1.16-.1,.35-.26,.72-.5,1.07-.75,.2-.14,.37-.14,.54,.04,.24,.25,.49,.5,.75,.75,.19,.18,.18,.35,.03,.55-.25,.34-.48,.7-.73,1.04-.29,.39-.32,.78-.11,1.23,.25,.52,.46,1.07,.67,1.61,.16,.43,.44,.68,.9,.74,.42,.06,.83,.15,1.25,.22,.27,.04,.41,.17,.4,.46-.02,.33-.01,.66,0,.98Z"/><path class="w" d="M609.03,385.03c.84-.73,1.84-1.04,2.94-1.1,.55-.03,.94-.49,.9-.99-.04-.51-.48-.89-1.02-.89-3.21,.04-5.93,2.53-6.23,5.7-.35,3.73,2.54,6.93,6.28,6.98,.41-.04,.82-.06,1.23-.14,.39-.08,.77-.2,1.15-.34,2.33-.88,4.02-3.35,3.98-5.83,0-.43-.22-.74-.6-.91-.32-.15-.75-.05-1.01,.21-.27,.27-.27,.63-.3,.98-.18,2.32-2.04,4.07-4.35,4.11-1.86,.03-3.54-1.11-4.19-2.82-.67-1.78-.19-3.73,1.23-4.96Z"/><path class="w" d="M623.67,372.12c-2.5,0-4.54,2.04-4.52,4.54,.01,2.5,2.03,4.5,4.53,4.49,2.49,0,4.51-2.03,4.51-4.52,0-2.48-2.03-4.52-4.52-4.52Zm0,7.14c-1.44,0-2.62-1.16-2.62-2.61,0-1.44,1.18-2.64,2.6-2.64,1.45,0,2.65,1.2,2.65,2.64,0,1.44-1.19,2.61-2.63,2.61Z"/></g><g><path class="o" d="M723.08,426.94c-.49,0-.86,.28-1.01,.8-.95,3.31-1.89,6.63-2.84,9.94-.4,1.39-.8,2.78-1.19,4.18-.17,.6,.22,1.15,.83,1.25,.53,.08,.97-.24,1.15-.86,1.33-4.64,2.65-9.28,3.98-13.92,.04-.13,.05-.26,.08-.37-.02-.11-.02-.19-.05-.28-.12-.44-.5-.74-.95-.74Z"/><path class="o" d="M731.86,434.35c-1.35-1.37-2.72-2.73-4.08-4.08-.24-.24-.55-.33-.89-.26-.39,.08-.65,.32-.77,.69-.12,.4-.01,.74,.28,1.04,1.04,1.04,2.07,2.07,3.11,3.11,.06,.06,.12,.12,.19,.19-.07,.07-.12,.13-.18,.19-1.04,1.04-2.09,2.08-3.13,3.13-.41,.41-.42,1.02-.03,1.42,.39,.4,1.01,.43,1.42,.03,1.37-1.35,2.73-2.71,4.08-4.08,.39-.39,.39-.99,0-1.39Z"/><path class="o" d="M715.67,431.74c.29-.29,.4-.64,.28-1.04-.12-.39-.39-.62-.79-.7-.37-.07-.68,.07-.94,.33-1.3,1.31-2.61,2.61-3.91,3.91-.51,.51-.51,1.08,0,1.59,.94,.94,1.88,1.88,2.83,2.83,.38,.38,.76,.78,1.16,1.15,.55,.52,1.42,.3,1.65-.41,.14-.43,0-.78-.3-1.1-1.03-1.02-2.05-2.05-3.08-3.08-.06-.06-.12-.12-.18-.19,.07-.07,.12-.13,.18-.19,1.04-1.04,2.07-2.07,3.11-3.11Z"/></g><circle class="j" cx="513.13" cy="574.42" r="40.11"/><text class="u" transform="translate(486.8 584.03)"><tspan x="0" y="0">Code </tspan><tspan class="q" x="33.79" y="0">t</tspan><tspan class="ag" x="38.39" y="0">he</tspan><tspan x="16.68" y="14.4">API</tspan></text><g><path class="o" d="M515.17,551.35c-.49,0-.86,.28-1.01,.8-.95,3.31-1.89,6.63-2.84,9.94-.4,1.39-.8,2.78-1.19,4.18-.17,.6,.22,1.15,.83,1.25,.53,.08,.97-.24,1.15-.86,1.33-4.64,2.65-9.28,3.98-13.92,.04-.13,.05-.26,.08-.37-.02-.11-.02-.19-.05-.28-.12-.44-.5-.74-.95-.74Z"/><path class="o" d="M523.95,558.76c-1.35-1.37-2.72-2.73-4.08-4.08-.24-.24-.55-.33-.89-.26-.39,.08-.65,.32-.77,.69-.12,.4-.01,.74,.28,1.04,1.04,1.04,2.07,2.07,3.11,3.11,.06,.06,.12,.12,.19,.19-.07,.07-.12,.13-.18,.19-1.04,1.04-2.09,2.08-3.13,3.13-.41,.41-.42,1.02-.03,1.42,.39,.4,1.01,.43,1.42,.03,1.37-1.35,2.73-2.71,4.08-4.08,.39-.39,.39-.99,0-1.39Z"/><path class="o" d="M507.76,556.15c.29-.29,.4-.64,.28-1.04-.12-.39-.39-.62-.79-.7-.37-.07-.68,.07-.94,.33-1.3,1.31-2.61,2.61-3.91,3.91-.51,.51-.51,1.08,0,1.59,.94,.94,1.88,1.88,2.83,2.83,.38,.38,.76,.78,1.16,1.15,.55,.52,1.42,.3,1.65-.41,.14-.43,0-.78-.3-1.1-1.03-1.02-2.05-2.05-3.08-3.08-.06-.06-.12-.12-.18-.19,.07-.07,.12-.13,.18-.19,1.04-1.04,2.07-2.07,3.11-3.11Z"/></g><g><path class="o" d="M517.61,425.96h-8.97c-2.34,0-4.24,1.9-4.24,4.24v13.09c0,2.34,1.9,4.24,4.24,4.24h8.97c2.34,0,4.24-1.9,4.24-4.24v-13.09c0-2.34-1.9-4.24-4.24-4.24Zm2.63,17.33c0,1.45-1.18,2.63-2.63,2.63h-8.97c-1.45,0-2.63-1.18-2.63-2.63v-13.09c0-1.45,1.18-2.63,2.63-2.63h8.97c1.45,0,2.63,1.18,2.63,2.63v13.09Z"/><path class="o" d="M516.02,430.9h-7.37c-.44,0-.8,.36-.8,.8s.36,.8,.8,.8h7.37c.44,0,.8-.36,.8-.8s-.36-.8-.8-.8Z"/><path class="o" d="M514.32,433.98h-5.67c-.44,0-.8,.36-.8,.8s.36,.8,.8,.8h5.67c.44,0,.8-.36,.8-.8s-.36-.8-.8-.8Z"/><path class="o" d="M511.65,437.07h-3c-.44,0-.8,.36-.8,.8s.36,.8,.8,.8h3c.44,0,.8-.36,.8-.8s-.36-.8-.8-.8Z"/></g><circle class="m" cx="721.06" cy="575.18" r="40.11"/><text class="u" transform="translate(695.89 588.99)"><tspan x="0" y="0">Cont</tspan><tspan class="ai" x="27.68" y="0">r</tspan><tspan x="32.23" y="0">act</tspan></text><g><path class="o" d="M725.54,551.13h-8.97c-2.34,0-4.24,1.9-4.24,4.24v13.09c0,2.34,1.9,4.24,4.24,4.24h8.97c2.34,0,4.24-1.9,4.24-4.24v-13.09c0-2.34-1.9-4.24-4.24-4.24Zm2.63,17.33c0,1.45-1.18,2.63-2.63,2.63h-8.97c-1.45,0-2.63-1.18-2.63-2.63v-13.09c0-1.45,1.18-2.63,2.63-2.63h8.97c1.45,0,2.63,1.18,2.63,2.63v13.09Z"/><path class="o" d="M723.96,556.07h-7.37c-.44,0-.8,.36-.8,.8s.36,.8,.8,.8h7.37c.44,0,.8-.36,.8-.8s-.36-.8-.8-.8Z"/><path class="o" d="M722.25,559.15h-5.67c-.44,0-.8,.36-.8,.8s.36,.8,.8,.8h5.67c.44,0,.8-.36,.8-.8s-.36-.8-.8-.8Z"/><path class="o" d="M719.58,562.24h-3c-.44,0-.8,.36-.8,.8s.36,.8,.8,.8h3c.44,0,.8-.36,.8-.8s-.36-.8-.8-.8Z"/></g></svg>