<svg width="32" height="24" viewBox="0 0 32 24" fill="none" xmlns="http://www.w3.org/2000/svg">
<g clip-path="url(#clip0_1483_12127)">
<g clip-path="url(#clip1_1483_12127)">
<path d="M0.000313022 20C0.000313022 21.0609 0.000665128 22 0.000257974 23C-7.45897e-05 24 -7.45898e-05 23 0.000194582 24H28.4445C29.3875 24 29.333 24 31.9997 24C31.9997 23 32 21.0609 32 20V16H0.000313022V20Z" fill="#FFCD05"/>
<path d="M0 8H32V16H0V8Z" fill="#ED1F24"/>
<path d="M28.4445 0.000330117H3.5559C2.61292 0.000330117 2.66663 0 0.000332987 0C0 0.888852 0 2.61246 0 3.55541L0.000386419 8H32V3.55574C32 2.61279 31.9996 0.890815 31.9996 0.00196213C28.4441 0 29.3875 0.000330117 28.4445 0.000330117Z" fill="#141414"/>
</g>
</g>
<defs>
<clipPath id="clip0_1483_12127">
<rect width="32" height="24" fill="white"/>
</clipPath>
<clipPath id="clip1_1483_12127">
<rect width="32" height="24" fill="white"/>
</clipPath>
</defs>
</svg>
