<svg width="32" height="24" viewBox="0 0 32 24" fill="none" xmlns="http://www.w3.org/2000/svg">
<g clip-path="url(#clip0_1483_12268)">
<path d="M0.000603745 20.4444C0.000603745 21.3874 -7.03844e-07 23.1111 6.15284e-10 24C3.5553 24 2.61312 24 3.55609 24H28.4445C29.3875 24 29.3328 24 31.9994 24C31.9994 23.1111 32 21.3874 32 20.4444V16H0.000603745V20.4444Z" fill="#138808"/>
<path d="M32 8V3.55557C32 2.61258 31.9999 0.888886 31.9999 0.000527505C29.3333 0 29.3874 2.42052e-05 28.4445 2.42052e-05H3.55562C2.61263 2.42052e-05 1.77747 -0.00015785 3.27844e-05 0.000476616C-6.10868e-05 0.888886 7.64679e-05 2.61258 7.64679e-05 3.55557V8H32Z" fill="#FF9933"/>
<path d="M0 8H32V16H0V8Z" fill="#F7F7F7"/>
<path d="M15.9999 16C17.9636 16 19.5554 14.2091 19.5554 12C19.5554 9.79086 17.9636 8 15.9999 8C14.0362 8 12.4443 9.79086 12.4443 12C12.4443 14.2091 14.0362 16 15.9999 16Z" fill="#000080"/>
<path d="M16 15.375C17.6569 15.375 19 13.864 19 12C19 10.136 17.6569 8.625 16 8.625C14.3431 8.625 13 10.136 13 12C13 13.864 14.3431 15.375 16 15.375Z" fill="#F7F7F7"/>
<path d="M16.0886 10.7508L15.9997 11.4008L15.9108 10.7508L15.9997 8.80078L16.0886 10.7508ZM15.2637 8.90978L15.6264 10.8188L15.8619 11.4208L15.7979 10.7678L15.2637 8.90978ZM14.5775 9.22978L15.3668 10.9678L15.7331 11.4808L15.5215 10.8678L14.5775 9.22978ZM13.9882 9.73778L15.1508 11.1878L15.6228 11.5768L15.2771 11.0458L13.9882 9.73778ZM13.5366 10.4008L14.9926 11.4628L15.5375 11.7008L15.0815 11.2888L13.5366 10.4008ZM13.2522 11.1728L14.9037 11.7738L15.4842 11.8458L14.9491 11.5808L13.2522 11.1728ZM13.1553 12.0008L14.8886 12.1008L15.4664 12.0008L14.8886 11.9008L13.1553 12.0008ZM13.2522 12.8288L14.9491 12.4208L15.4842 12.1558L14.9037 12.2278L13.2522 12.8288ZM13.5366 13.6008L15.0815 12.7128L15.5375 12.3008L14.9926 12.5388L13.5366 13.6008ZM13.9882 14.2638L15.2771 12.9558L15.6228 12.4248L15.1508 12.8138L13.9882 14.2638ZM14.5775 14.7718L15.5215 13.1338L15.7331 12.5208L15.3668 13.0338L14.5775 14.7718ZM15.2637 15.0918L15.7979 13.2338L15.8619 12.5808L15.6264 13.1828L15.2637 15.0918ZM15.9997 15.2008L16.0886 13.2508L15.9997 12.6008L15.9108 13.2508L15.9997 15.2008ZM16.7357 15.0918L16.3731 13.1828L16.1375 12.5808L16.2015 13.2338L16.7357 15.0918ZM17.4219 14.7718L16.6326 13.0338L16.2664 12.5208L16.4779 13.1338L17.4219 14.7718ZM18.0113 14.2638L16.8486 12.8138L16.3766 12.4248L16.7224 12.9558L18.0113 14.2638ZM18.4628 13.6008L17.0068 12.5388L16.4619 12.3008L16.9179 12.7128L18.4628 13.6008ZM18.7473 12.8288L17.0957 12.2278L16.5153 12.1558L17.0504 12.4208L18.7473 12.8288ZM18.8442 12.0008L17.1108 11.9008L16.5331 12.0008L17.1108 12.1008L18.8442 12.0008ZM18.7473 11.1728L17.0504 11.5808L16.5153 11.8458L17.0957 11.7738L18.7473 11.1728ZM18.4628 10.4008L16.9179 11.2888L16.4619 11.7008L17.0068 11.4628L18.4628 10.4008ZM18.0113 9.73778L16.7224 11.0458L16.3766 11.5768L16.8486 11.1878L18.0113 9.73778ZM17.4219 9.22978L16.4779 10.8678L16.2664 11.4808L16.6326 10.9678L17.4219 9.22978ZM16.7357 8.90978L16.2015 10.7678L16.1375 11.4208L16.3731 10.8188L16.7357 8.90978Z" fill="#6666B3"/>
<path d="M15.6094 8.85898C15.7076 8.85898 15.7872 8.76944 15.7872 8.65899C15.7872 8.54853 15.7076 8.45898 15.6094 8.45898C15.5112 8.45898 15.4316 8.54853 15.4316 8.65899C15.4316 8.76944 15.5112 8.85898 15.6094 8.85898Z" fill="#000080"/>
<path d="M14.8536 9.0875C14.9517 9.0875 15.0313 8.99796 15.0313 8.8875C15.0313 8.77704 14.9517 8.6875 14.8536 8.6875C14.7554 8.6875 14.6758 8.77704 14.6758 8.8875C14.6758 8.99796 14.7554 9.0875 14.8536 9.0875Z" fill="#000080"/>
<path d="M14.1758 9.52695C14.274 9.52695 14.3536 9.43741 14.3536 9.32695C14.3536 9.2165 14.274 9.12695 14.1758 9.12695C14.0776 9.12695 13.998 9.2165 13.998 9.32695C13.998 9.43741 14.0776 9.52695 14.1758 9.52695Z" fill="#000080"/>
<path d="M13.6231 10.148C13.7213 10.148 13.8009 10.0585 13.8009 9.94805C13.8009 9.83759 13.7213 9.74805 13.6231 9.74805C13.5249 9.74805 13.4453 9.83759 13.4453 9.94805C13.4453 10.0585 13.5249 10.148 13.6231 10.148Z" fill="#000080"/>
<path d="M13.2334 10.9098C13.3316 10.9098 13.4112 10.8202 13.4112 10.7098C13.4112 10.5993 13.3316 10.5098 13.2334 10.5098C13.1353 10.5098 13.0557 10.5993 13.0557 10.7098C13.0557 10.8202 13.1353 10.9098 13.2334 10.9098Z" fill="#000080"/>
<path d="M13.0303 11.7594C13.1285 11.7594 13.2081 11.6698 13.2081 11.5594C13.2081 11.4489 13.1285 11.3594 13.0303 11.3594C12.9321 11.3594 12.8525 11.4489 12.8525 11.5594C12.8525 11.6698 12.9321 11.7594 13.0303 11.7594Z" fill="#000080"/>
<path d="M13.0303 12.6402C13.1285 12.6402 13.2081 12.5507 13.2081 12.4402C13.2081 12.3298 13.1285 12.2402 13.0303 12.2402C12.9321 12.2402 12.8525 12.3298 12.8525 12.4402C12.8525 12.5507 12.9321 12.6402 13.0303 12.6402Z" fill="#000080"/>
<path d="M13.2334 13.4898C13.3316 13.4898 13.4112 13.4003 13.4112 13.2898C13.4112 13.1794 13.3316 13.0898 13.2334 13.0898C13.1353 13.0898 13.0557 13.1794 13.0557 13.2898C13.0557 13.4003 13.1353 13.4898 13.2334 13.4898Z" fill="#000080"/>
<path d="M13.6231 14.2516C13.7213 14.2516 13.8009 14.162 13.8009 14.0516C13.8009 13.9411 13.7213 13.8516 13.6231 13.8516C13.5249 13.8516 13.4453 13.9411 13.4453 14.0516C13.4453 14.162 13.5249 14.2516 13.6231 14.2516Z" fill="#000080"/>
<path d="M14.1758 14.8746C14.274 14.8746 14.3536 14.7851 14.3536 14.6746C14.3536 14.5642 14.274 14.4746 14.1758 14.4746C14.0776 14.4746 13.998 14.5642 13.998 14.6746C13.998 14.7851 14.0776 14.8746 14.1758 14.8746Z" fill="#000080"/>
<path d="M14.8536 15.3121C14.9517 15.3121 15.0313 15.2226 15.0313 15.1121C15.0313 15.0017 14.9517 14.9121 14.8536 14.9121C14.7554 14.9121 14.6758 15.0017 14.6758 15.1121C14.6758 15.2226 14.7554 15.3121 14.8536 15.3121Z" fill="#000080"/>
<path d="M15.6094 15.5406C15.7076 15.5406 15.7872 15.4511 15.7872 15.3406C15.7872 15.2302 15.7076 15.1406 15.6094 15.1406C15.5112 15.1406 15.4316 15.2302 15.4316 15.3406C15.4316 15.4511 15.5112 15.5406 15.6094 15.5406Z" fill="#000080"/>
<path d="M16.3916 15.5406C16.4898 15.5406 16.5694 15.4511 16.5694 15.3406C16.5694 15.2302 16.4898 15.1406 16.3916 15.1406C16.2935 15.1406 16.2139 15.2302 16.2139 15.3406C16.2139 15.4511 16.2935 15.5406 16.3916 15.5406Z" fill="#000080"/>
<path d="M17.1465 15.3121C17.2447 15.3121 17.3243 15.2226 17.3243 15.1121C17.3243 15.0017 17.2447 14.9121 17.1465 14.9121C17.0483 14.9121 16.9688 15.0017 16.9688 15.1121C16.9688 15.2226 17.0483 15.3121 17.1465 15.3121Z" fill="#000080"/>
<path d="M17.8233 14.8746C17.9215 14.8746 18.0011 14.7851 18.0011 14.6746C18.0011 14.5642 17.9215 14.4746 17.8233 14.4746C17.7251 14.4746 17.6455 14.5642 17.6455 14.6746C17.6455 14.7851 17.7251 14.8746 17.8233 14.8746Z" fill="#000080"/>
<path d="M18.377 14.2516C18.4752 14.2516 18.5548 14.162 18.5548 14.0516C18.5548 13.9411 18.4752 13.8516 18.377 13.8516C18.2788 13.8516 18.1992 13.9411 18.1992 14.0516C18.1992 14.162 18.2788 14.2516 18.377 14.2516Z" fill="#000080"/>
<path d="M18.7676 13.4898C18.8658 13.4898 18.9454 13.4003 18.9454 13.2898C18.9454 13.1794 18.8658 13.0898 18.7676 13.0898C18.6694 13.0898 18.5898 13.1794 18.5898 13.2898C18.5898 13.4003 18.6694 13.4898 18.7676 13.4898Z" fill="#000080"/>
<path d="M18.9698 12.6402C19.068 12.6402 19.1475 12.5507 19.1475 12.4402C19.1475 12.3298 19.068 12.2402 18.9698 12.2402C18.8716 12.2402 18.792 12.3298 18.792 12.4402C18.792 12.5507 18.8716 12.6402 18.9698 12.6402Z" fill="#000080"/>
<path d="M18.9698 11.7594C19.068 11.7594 19.1475 11.6698 19.1475 11.5594C19.1475 11.4489 19.068 11.3594 18.9698 11.3594C18.8716 11.3594 18.792 11.4489 18.792 11.5594C18.792 11.6698 18.8716 11.7594 18.9698 11.7594Z" fill="#000080"/>
<path d="M18.7676 10.9098C18.8658 10.9098 18.9454 10.8202 18.9454 10.7098C18.9454 10.5993 18.8658 10.5098 18.7676 10.5098C18.6694 10.5098 18.5898 10.5993 18.5898 10.7098C18.5898 10.8202 18.6694 10.9098 18.7676 10.9098Z" fill="#000080"/>
<path d="M18.377 10.148C18.4752 10.148 18.5548 10.0585 18.5548 9.94805C18.5548 9.83759 18.4752 9.74805 18.377 9.74805C18.2788 9.74805 18.1992 9.83759 18.1992 9.94805C18.1992 10.0585 18.2788 10.148 18.377 10.148Z" fill="#000080"/>
<path d="M17.8233 9.52695C17.9215 9.52695 18.0011 9.43741 18.0011 9.32695C18.0011 9.2165 17.9215 9.12695 17.8233 9.12695C17.7251 9.12695 17.6455 9.2165 17.6455 9.32695C17.6455 9.43741 17.7251 9.52695 17.8233 9.52695Z" fill="#000080"/>
<path d="M17.1465 9.0875C17.2447 9.0875 17.3243 8.99796 17.3243 8.8875C17.3243 8.77704 17.2447 8.6875 17.1465 8.6875C17.0483 8.6875 16.9688 8.77704 16.9688 8.8875C16.9688 8.99796 17.0483 9.0875 17.1465 9.0875Z" fill="#000080"/>
<path d="M16.3916 8.85898C16.4898 8.85898 16.5694 8.76944 16.5694 8.65899C16.5694 8.54853 16.4898 8.45898 16.3916 8.45898C16.2935 8.45898 16.2139 8.54853 16.2139 8.65899C16.2139 8.76944 16.2935 8.85898 16.3916 8.85898Z" fill="#000080"/>
<path d="M16.0002 12.8996C16.442 12.8996 16.8002 12.4967 16.8002 11.9996C16.8002 11.5026 16.442 11.0996 16.0002 11.0996C15.5584 11.0996 15.2002 11.5026 15.2002 11.9996C15.2002 12.4967 15.5584 12.8996 16.0002 12.8996Z" fill="#000080"/>
</g>
<defs>
<clipPath id="clip0_1483_12268">
<rect width="32" height="24" fill="white"/>
</clipPath>
</defs>
</svg>
