<svg width="31" height="23" viewBox="0 0 31 23" fill="none" xmlns="http://www.w3.org/2000/svg">
<g clip-path="url(#clip0_1483_12343)">
<path d="M31.0006 18.8927C31.0006 19.7641 31.0006 21.357 31.0006 22.1784C30.1395 22.1784 28.4697 22.1784 27.5561 22.1784H3.44503C2.53151 22.1784 0.860927 22.1784 6.82457e-07 22.1784C0 21.357 0.00058557 19.7641 0.00058557 18.8927V4.107C0.00058557 3.23558 0.363481 2.39984 1.00944 1.78365C1.6554 1.16746 2.53151 0.821289 3.44503 0.821289H27.5561C28.4697 0.821289 29.3458 1.16746 29.9917 1.78365C30.6377 2.39984 31.0006 3.23558 31.0006 4.107V18.8927Z" fill="#EEEEEE"/>
<path d="M31.0001 11.4999V4.10709C31.0001 3.23567 31 1.64363 31 0.821842C30.1389 0.821289 28.4692 0.821377 27.5556 0.821377H3.44452C2.531 0.821377 1.72193 0.821208 3.176e-05 0.821795C-5.9178e-05 1.64278 7.40785e-05 3.23567 7.40785e-05 4.10709V11.4999H31.0001Z" fill="#ED2939"/>
<path d="M5.16634 6.16044C5.16634 4.03704 6.56479 2.26029 8.44718 1.77729C8.07819 1.68934 7.69944 1.64411 7.31912 1.64258C6.06302 1.64258 4.85838 2.11857 3.97018 2.96583C3.08199 3.81309 2.58301 4.96222 2.58301 6.16044C2.58301 7.35865 3.08199 8.50778 3.97018 9.35504C4.85838 10.2023 6.06302 10.6783 7.31912 10.6783C7.70834 10.6783 8.08465 10.629 8.44718 10.5436C6.56479 10.0606 5.16634 8.28383 5.16634 6.16044Z" fill="white"/>
<path d="M10.3329 2.46387L10.5267 3.03147H11.1518L10.6455 3.38222L10.8392 3.94983L10.3329 3.59908L9.82658 3.94983L10.0203 3.38222L9.514 3.03147H10.1392L10.3329 2.46387ZM8.61069 8.21387L8.80444 8.78147H9.42961L8.92328 9.13222L9.11703 9.69983L8.61069 9.34908L8.10436 9.69983L8.29811 9.13222L7.79178 8.78147H8.41694L8.61069 8.21387ZM12.0551 8.21387L12.2489 8.78147H12.8741L12.3677 9.13222L12.5615 9.69983L12.0551 9.34908L11.5488 9.69983L11.7426 9.13222L11.2362 8.78147H11.8614L12.0551 8.21387ZM7.74958 4.92815L7.94333 5.49576H8.5685L8.06216 5.84651L8.25591 6.41412L7.74958 6.06337L7.24325 6.41412L7.437 5.84651L6.93066 5.49576H7.55583L7.74958 4.92815ZM12.9162 4.92815L13.11 5.49576H13.7352L13.2288 5.84651L13.4226 6.41412L12.9162 6.06337L12.4099 6.41412L12.6037 5.84651L12.0973 5.49576H12.7225L12.9162 4.92815Z" fill="#EEEEEE"/>
</g>
<defs>
<clipPath id="clip0_1483_12343">
<rect width="31" height="23" fill="white"/>
</clipPath>
</defs>
</svg>
