<svg width="31" height="23" viewBox="0 0 31 23" fill="none" xmlns="http://www.w3.org/2000/svg">
<g clip-path="url(#clip0_1483_12336)">
<path d="M31.0006 18.8929C31.0006 19.7643 31 21.357 31 22.1784C29.2778 22.1784 28.4697 22.1786 27.5561 22.1786H3.44503C2.53151 22.1786 2.58315 22.1784 5.96068e-10 22.1784C-6.81861e-07 21.357 0.000584889 19.7643 0.000584889 18.8929V4.10719C0.000584889 3.23576 0.000584889 1.64272 0.000981409 0.821389C2.58388 0.821122 2.53151 0.821474 3.44503 0.821474H27.5561C28.4697 0.821474 29.2784 0.821271 31.0006 0.821819C31.0006 1.64272 31.0006 3.23576 31.0006 4.10719V18.8929Z" fill="#FFB700"/>
<path d="M30.1391 1.64258H8.61133V21.3569H30.1391C30.1391 20.5354 30.1391 20.2512 30.1391 18.8926V4.10686C30.1391 2.74822 30.1391 3.28544 30.1391 1.64258Z" fill="#8D2129"/>
<path d="M3.44466 1.64297C2.02038 1.64297 2.58355 1.64258 0.861328 1.64258V21.3573C1.72244 21.3573 2.02038 21.3573 3.44466 21.3573H4.30577V1.64297H3.44466Z" fill="#005641"/>
<path d="M4.30566 1.64258H7.75011V21.3569H4.30566V1.64258Z" fill="#FF5B00"/>
<path d="M11.3661 4.97937C11.3661 4.97937 11.3084 4.19162 11.3359 3.53201C11.354 3.09501 11.0974 2.56683 10.6126 2.64323C10.1278 2.71962 9.5896 2.62598 9.5896 2.62598C9.5896 2.62598 9.69724 2.92498 9.5896 3.20755C9.48196 3.49012 9.48196 4.07991 10.2087 4.15712C10.9355 4.23516 11.2317 4.59412 11.3661 4.97937ZM27.4551 4.97937C27.4551 4.97937 27.5128 4.19162 27.4852 3.53201C27.4671 3.09501 27.7237 2.56683 28.2085 2.64323C28.6933 2.71962 29.2315 2.62598 29.2315 2.62598C29.2315 2.62598 29.1239 2.92498 29.2315 3.20755C29.3392 3.49012 29.3392 4.07991 28.6124 4.15712C27.8856 4.23516 27.5894 4.59412 27.4551 4.97937ZM11.3661 18.0204C11.3661 18.0204 11.3084 18.8089 11.3359 19.4685C11.354 19.9055 11.0974 20.4337 10.6126 20.3565C10.1278 20.2793 9.5896 20.3738 9.5896 20.3738C9.5896 20.3738 9.69724 20.0739 9.5896 19.7914C9.48196 19.5088 9.48196 18.919 10.2087 18.8418C10.9355 18.7646 11.2317 18.4048 11.3661 18.0204ZM27.4551 18.0204C27.4551 18.0204 27.5128 18.8089 27.4852 19.4685C27.4671 19.9055 27.7237 20.4337 28.2085 20.3565C28.6933 20.2793 29.2315 20.3738 29.2315 20.3738C29.2315 20.3738 29.1239 20.0739 29.2315 19.7914C29.3392 19.5088 29.3392 18.919 28.6124 18.8418C27.8856 18.7646 27.5894 18.4048 27.4551 18.0204ZM15.8499 7.70076C15.8499 7.70076 16.3614 7.6753 16.8729 7.54633C17.3844 7.41819 17.2225 6.95655 17.2225 6.95655C17.2225 6.95655 17.6797 6.72573 17.9493 6.95655C18.2188 7.18737 18.5417 7.16191 18.3798 6.85387C18.8638 6.62305 19.079 7.13644 19.079 7.13644C19.079 7.13644 19.321 6.99105 19.3753 6.79391C19.8058 6.75119 19.8868 7.16191 20.1554 7.11016C20.4241 7.05841 20.6127 6.79062 20.6127 6.79062C20.6127 6.79062 20.6661 7.52087 20.2088 7.70076C20.586 8.16241 20.4775 9.06105 20.4775 9.29269L20.2088 9.13826C20.2088 9.13826 20.3707 9.85701 20.4508 9.95969C20.5309 10.0624 20.1821 9.95969 20.1821 9.95969C20.1821 9.95969 20.3707 10.4476 20.505 10.5248C20.6394 10.602 23.1693 10.3704 23.8961 10.3704C24.6229 10.3704 25.6183 10.2677 25.6183 9.65165C25.6183 9.03558 24.7839 9.08651 23.8427 9.21548C22.9007 9.34362 22.2824 9.31816 21.9052 9.08733C21.528 8.85651 21.0983 8.79655 21.1337 9.37812C20.5593 9.12183 20.9718 8.57394 20.9718 8.57394C20.9718 8.57394 20.3165 7.88969 20.7341 7.20462C21.1509 6.52037 22.7655 6.31419 23.8961 6.91383C25.0267 7.51348 25.4745 8.0088 25.9412 8.09505C25.9232 7.76976 26.4975 7.53073 26.569 8.12955C26.6405 8.72837 25.8508 8.60844 25.5107 8.42033C25.1705 8.23223 24.56 7.66708 24.56 7.66708C24.56 7.66708 24.5419 8.00962 24.7753 8.23223C24.1295 8.16405 23.9865 7.70158 23.9865 7.70158C23.9865 7.70158 23.9495 8.19691 23.3579 8.21416C23.7885 7.73526 23.6447 7.3418 23.0531 7.13644C23.3941 7.63258 23.0712 8.06055 22.5691 8.12873C22.9101 7.66708 22.6234 7.13644 21.9956 7.03376C22.0852 7.40998 21.7803 7.51266 21.7803 7.51266C21.7803 7.51266 21.6374 7.17012 21.3498 7.35823C21.0622 7.54633 20.9898 7.95787 21.3662 8.21416C21.5995 7.76894 22.0654 7.80344 22.2273 7.99155C21.7433 8.04248 21.7614 8.47126 21.9405 8.69305C22.1196 8.40226 22.2996 8.31683 22.4787 8.62487C22.6578 8.93291 23.196 8.91566 24.1648 8.7793C25.1335 8.64294 26.0256 8.74316 26.1737 9.56623C26.2995 10.2677 25.5641 10.6103 25.5641 10.6103C25.5641 10.6103 26.5147 11.2945 25.9051 12.7838C25.2954 14.273 25.5468 14.8883 25.7793 15.0427C26.0118 15.1971 26.3718 15.2135 25.887 15.6243C25.4022 16.035 25.5279 16.3266 25.7251 16.5656C25.9223 16.8047 25.8689 17.0445 25.2945 16.7365C25.0431 16.9763 24.7925 16.9073 24.6487 16.702C24.5049 16.8901 24.2362 16.9418 24.0563 16.7365C23.8772 16.8737 23.6438 16.8737 23.7695 16.582C23.8952 16.2904 24.5049 16.1713 24.684 16.1204C24.8631 16.0695 24.8459 15.7606 24.7917 15.4189C24.7374 15.0772 24.4326 14.7174 23.7867 14.3921C23.5 14.5975 23.5353 14.8365 23.6429 14.9573C23.7506 15.078 24.0916 15.1117 24.1097 15.2135C24.1277 15.3154 23.9305 15.5388 23.7153 15.6933C23.5 15.8477 23.5362 16.1212 23.6076 16.2584C23.6791 16.3956 23.7687 16.7324 23.5353 16.8893C23.3019 17.0453 23.0694 16.6864 23.0694 16.6864C23.0694 16.6864 22.9248 17.1143 22.5132 16.7036C22.2798 16.978 22.0473 16.8753 21.9397 16.7209C21.7063 16.9435 21.3472 16.9262 21.5272 16.6182C21.7072 16.3102 21.9216 16.3093 22.173 16.2929C22.4245 16.2765 22.7646 16.2255 22.7293 15.7458C22.694 15.2661 22.595 14.779 22.2453 14.4792C21.7072 14.0175 21.7967 13.4697 21.7967 13.4697C21.7967 13.4697 20.8994 13.3842 20.2002 13.8467C19.501 14.3092 18.9619 14.3083 18.9619 14.3083C18.9619 14.3083 18.5667 14.719 18.5314 14.9753C18.4961 15.2316 18.6571 15.3179 18.8724 15.386C19.0877 15.4542 19.2495 15.437 18.9258 15.7113C18.602 15.9857 18.3333 15.9676 18.3333 15.9676C18.3333 15.9676 18.317 16.2576 18.3523 16.4284C18.3876 16.5993 18.2799 16.8958 18.1008 16.927C17.9217 16.9583 17.6522 16.7365 17.6522 16.7365C17.6522 16.7365 17.3112 17.079 17.0425 16.7192C16.7377 16.9928 16.4682 16.8909 16.3605 16.7192C16.1814 16.9928 15.8938 16.8737 16.0738 16.5648C16.2537 16.2559 16.5043 16.2214 16.9349 16.2395C17.3654 16.2576 17.7237 15.9315 17.5626 15.5035C17.4016 15.0755 17.2578 14.494 17.2578 14.494C17.2578 14.494 16.9168 14.4595 16.4148 14.1859C15.787 14.9047 15.5717 14.6484 15.3918 14.5112C15.2118 14.374 14.7821 13.9978 14.7821 13.9978C14.7821 13.9978 14.5487 13.9806 14.5849 14.1859C14.3335 14.1687 14.423 13.7925 14.423 13.6044C14.423 13.4163 14.3515 13.1937 14.2077 13.1937C14.0639 13.1937 13.8487 13.2282 13.8487 13.2282C13.8487 13.2282 13.8487 13.2955 14.0639 13.3645C14.2792 13.4335 14.2611 13.5707 14.0458 13.5871C13.8306 13.6035 13.6868 13.6545 13.8487 13.7752C14.0105 13.896 14.0278 13.9633 13.902 14.0833C13.7763 14.2032 13.7944 14.5277 14.0097 14.6484C14.1535 14.3231 14.4222 14.512 14.3688 14.7338C14.3154 14.9556 13.9201 14.9219 13.9201 14.9219L14.1888 15.2127L13.7789 15.2982C13.7789 15.2982 13.7582 15.538 13.5972 15.5889C13.4362 15.6399 13.4 15.2292 13.4 15.2292L13.0228 15.2119L13.2743 14.9211C13.2743 14.9211 12.9152 14.8012 12.8971 14.5958C12.879 14.3905 13.1658 14.4932 13.22 14.5958C13.5068 14.4759 13.4172 14.2024 13.3096 14.0997C13.202 13.997 13.2734 13.9116 13.3811 13.7917C13.4887 13.6717 13.4706 13.6035 13.3096 13.6372C13.1486 13.6709 12.879 13.3629 13.1477 13.3629C13.4164 13.3629 13.4706 13.3456 13.4345 13.1575C13.1115 13.1238 13.3087 12.884 13.3087 12.884C13.3087 12.884 13.0573 12.7123 13.2373 12.5932C13.0754 12.4568 13.0401 12.2334 13.2192 12.1997C13.1115 12.1143 13.2553 11.9599 13.2553 11.9599C13.2553 11.9599 12.7378 11.8761 12.7378 11.4999C12.7378 11.1237 13.1865 11.1918 13.1865 11.1918C13.1865 11.1918 13.1331 9.99419 13.2579 8.31683C13.3828 6.63948 14.119 6.0579 14.5677 5.88705C14.101 6.8284 14.1552 8.41951 14.1552 9.39537C14.1552 10.3712 14.1371 11.1409 14.1371 11.1409C14.1371 11.1409 14.6392 11.1746 14.603 11.4999C14.5668 11.8252 14.3343 11.8933 14.3343 11.8933L15.5003 13.0055C15.5003 13.0055 15.4469 11.8646 15.8413 11.4087C16.2357 10.9528 16.8453 10.5248 17.0253 10.3877C17.2053 10.2505 16.9142 9.8874 16.7747 10.285C16.5715 10.2612 16.3975 9.94244 16.3975 9.94244C16.3975 9.94244 16.4156 10.0624 16.2899 10.1478C16.1642 10.2332 16.2003 9.85701 16.128 9.89151C16.0557 9.92601 15.8593 10.0287 15.6079 10.0969C15.626 9.95969 15.7336 9.78883 15.7336 9.78883C15.7336 9.78883 15.4107 9.82251 15.1231 9.85701C15.1231 9.61716 15.2841 9.22369 15.4279 9.19001C15.0688 9.01916 15.1593 8.69387 15.3203 8.7448C15.4813 8.79573 16.2348 9.22369 17.0787 9.27544C16.81 8.98465 16.5947 8.60844 16.5947 8.60844L16.5052 8.89923L16.1823 8.60844L16.1461 8.89923C16.1461 8.89923 15.3565 8.35133 15.2135 7.90694C15.0706 7.46255 15.2316 7.13562 15.5003 7.17094C16.0204 7.2383 15.8499 7.70076 15.8499 7.70076Z" fill="#FFB700"/>
</g>
<defs>
<clipPath id="clip0_1483_12336">
<rect width="31" height="23" fill="white"/>
</clipPath>
</defs>
</svg>
